<?xml version="1.0" encoding="UTF-8" standalone="no"?>
<!DOCTYPE svg PUBLIC "-//W3C//DTD SVG 1.1//EN"
 "http://www.w3.org/Graphics/SVG/1.1/DTD/svg11.dtd">
<!-- Generated by graphviz version 8.0.5 (20230430.1635)
 -->
<!-- Title: dependency&#45;cruiser output Pages: 1 -->
<svg width="895pt" height="485pt"
 viewBox="0.00 0.00 895.12 484.68" xmlns="http://www.w3.org/2000/svg" xmlns:xlink="http://www.w3.org/1999/xlink">
<g id="graph0" class="graph" transform="scale(1 1) rotate(0) translate(4 480.68)">
<title>dependency&#45;cruiser output</title>
<polygon fill="white" stroke="none" points="-4,4 -4,-480.68 891.12,-480.68 891.12,4 -4,4"/>
<g id="clust1" class="cluster">
<title>cluster_node_modules</title>
<path fill="#ffffff" stroke="black" stroke-width="2" d="M764.62,-15.42C764.62,-15.42 867.12,-15.42 867.12,-15.42 873.12,-15.42 879.12,-21.42 879.12,-27.42 879.12,-27.42 879.12,-351.42 879.12,-351.42 879.12,-357.42 873.12,-363.42 867.12,-363.42 867.12,-363.42 764.62,-363.42 764.62,-363.42 758.62,-363.42 752.62,-357.42 752.62,-351.42 752.62,-351.42 752.62,-27.42 752.62,-27.42 752.62,-21.42 758.62,-15.42 764.62,-15.42"/>
<text text-anchor="middle" x="815.88" y="-350.87" font-family="Helvetica,sans-Serif" font-weight="bold" font-size="9.00">node_modules</text>
</g>
<g id="clust2" class="cluster">
<title>cluster_node_modules/@babel</title>
<path fill="#ffffff" stroke="black" stroke-width="2" d="M780,-139.42C780,-139.42 851.75,-139.42 851.75,-139.42 857.75,-139.42 863.75,-145.42 863.75,-151.42 863.75,-151.42 863.75,-179.42 863.75,-179.42 863.75,-185.42 857.75,-191.42 851.75,-191.42 851.75,-191.42 780,-191.42 780,-191.42 774,-191.42 768,-185.42 768,-179.42 768,-179.42 768,-151.42 768,-151.42 768,-145.42 774,-139.42 780,-139.42"/>
<text text-anchor="middle" x="815.88" y="-178.87" font-family="Helvetica,sans-Serif" font-weight="bold" font-size="9.00">@babel</text>
</g>
<g id="clust3" class="cluster">
<title>cluster_node_modules/@iarna</title>
<path fill="#ffffff" stroke="black" stroke-width="2" d="M792.88,-199.42C792.88,-199.42 838.88,-199.42 838.88,-199.42 844.88,-199.42 850.88,-205.42 850.88,-211.42 850.88,-211.42 850.88,-239.42 850.88,-239.42 850.88,-245.42 844.88,-251.42 838.88,-251.42 838.88,-251.42 792.88,-251.42 792.88,-251.42 786.88,-251.42 780.88,-245.42 780.88,-239.42 780.88,-239.42 780.88,-211.42 780.88,-211.42 780.88,-205.42 786.88,-199.42 792.88,-199.42"/>
<text text-anchor="middle" x="815.88" y="-238.87" font-family="Helvetica,sans-Serif" font-weight="bold" font-size="9.00">@iarna</text>
</g>
<g id="clust4" class="cluster">
<title>cluster_packages</title>
<path fill="#ffffff" stroke="black" stroke-width="2" d="M20,-17.42C20,-17.42 732.62,-17.42 732.62,-17.42 738.62,-17.42 744.62,-23.42 744.62,-29.42 744.62,-29.42 744.62,-373.42 744.62,-373.42 744.62,-379.42 738.62,-385.42 732.62,-385.42 732.62,-385.42 20,-385.42 20,-385.42 14,-385.42 8,-379.42 8,-373.42 8,-373.42 8,-29.42 8,-29.42 8,-23.42 14,-17.42 20,-17.42"/>
<text text-anchor="middle" x="376.31" y="-372.87" font-family="Helvetica,sans-Serif" font-weight="bold" font-size="9.00">packages</text>
</g>
<g id="clust5" class="cluster">
<title>cluster_packages/cli&#45;packages</title>
<path fill="#ffffff" stroke="black" stroke-width="2" d="M28,-25.42C28,-25.42 514.62,-25.42 514.62,-25.42 520.62,-25.42 526.62,-31.42 526.62,-37.42 526.62,-37.42 526.62,-253.42 526.62,-253.42 526.62,-259.42 520.62,-265.42 514.62,-265.42 514.62,-265.42 28,-265.42 28,-265.42 22,-265.42 16,-259.42 16,-253.42 16,-253.42 16,-37.42 16,-37.42 16,-31.42 22,-25.42 28,-25.42"/>
<text text-anchor="middle" x="271.31" y="-252.87" font-family="Helvetica,sans-Serif" font-weight="bold" font-size="9.00">cli&#45;packages</text>
</g>
<g id="clust6" class="cluster">
<title>cluster_packages/cli&#45;packages/storybook</title>
<path fill="#ffffff" stroke="black" stroke-width="2" d="M36,-33.42C36,-33.42 506.62,-33.42 506.62,-33.42 512.62,-33.42 518.62,-39.42 518.62,-45.42 518.62,-45.42 518.62,-227.42 518.62,-227.42 518.62,-233.42 512.62,-239.42 506.62,-239.42 506.62,-239.42 36,-239.42 36,-239.42 30,-239.42 24,-233.42 24,-227.42 24,-227.42 24,-45.42 24,-45.42 24,-39.42 30,-33.42 36,-33.42"/>
<text text-anchor="middle" x="271.31" y="-226.87" font-family="Helvetica,sans-Serif" font-weight="bold" font-size="9.00">storybook</text>
</g>
<g id="clust7" class="cluster">
<title>cluster_packages/cli&#45;packages/storybook/dist</title>
<path fill="#ffffff" stroke="black" stroke-width="2" d="M44,-41.42C44,-41.42 498.62,-41.42 498.62,-41.42 504.62,-41.42 510.62,-47.42 510.62,-53.42 510.62,-53.42 510.62,-201.42 510.62,-201.42 510.62,-207.42 504.62,-213.42 498.62,-213.42 498.62,-213.42 44,-213.42 44,-213.42 38,-213.42 32,-207.42 32,-201.42 32,-201.42 32,-53.42 32,-53.42 32,-47.42 38,-41.42 44,-41.42"/>
<text text-anchor="middle" x="271.31" y="-200.87" font-family="Helvetica,sans-Serif" font-weight="bold" font-size="9.00">dist</text>
</g>
<g id="clust8" class="cluster">
<title>cluster_packages/cli&#45;packages/storybook/dist/commands</title>
<path fill="#ffffff" stroke="black" stroke-width="2" d="M137.5,-75.42C137.5,-75.42 386,-75.42 386,-75.42 392,-75.42 398,-81.42 398,-87.42 398,-87.42 398,-175.42 398,-175.42 398,-181.42 392,-187.42 386,-187.42 386,-187.42 137.5,-187.42 137.5,-187.42 131.5,-187.42 125.5,-181.42 125.5,-175.42 125.5,-175.42 125.5,-87.42 125.5,-87.42 125.5,-81.42 131.5,-75.42 137.5,-75.42"/>
<text text-anchor="middle" x="261.75" y="-174.87" font-family="Helvetica,sans-Serif" font-weight="bold" font-size="9.00">commands</text>
</g>
<g id="clust9" class="cluster">
<title>cluster_packages/cli&#45;packages/storybook/dist/lib</title>
<path fill="#ffffff" stroke="black" stroke-width="2" d="M418.88,-105.42C418.88,-105.42 490.62,-105.42 490.62,-105.42 496.62,-105.42 502.62,-111.42 502.62,-117.42 502.62,-117.42 502.62,-175.42 502.62,-175.42 502.62,-181.42 496.62,-187.42 490.62,-187.42 490.62,-187.42 418.88,-187.42 418.88,-187.42 412.88,-187.42 406.88,-181.42 406.88,-175.42 406.88,-175.42 406.88,-117.42 406.88,-117.42 406.88,-111.42 412.88,-105.42 418.88,-105.42"/>
<text text-anchor="middle" x="454.75" y="-174.87" font-family="Helvetica,sans-Serif" font-weight="bold" font-size="9.00">lib</text>
</g>
<g id="clust10" class="cluster">
<title>cluster_packages/project&#45;config</title>
<path fill="#ffffff" stroke="black" stroke-width="2" d="M651.12,-273.42C651.12,-273.42 724.62,-273.42 724.62,-273.42 730.62,-273.42 736.62,-279.42 736.62,-285.42 736.62,-285.42 736.62,-347.42 736.62,-347.42 736.62,-353.42 730.62,-359.42 724.62,-359.42 724.62,-359.42 651.12,-359.42 651.12,-359.42 645.12,-359.42 639.12,-353.42 639.12,-347.42 639.12,-347.42 639.12,-285.42 639.12,-285.42 639.12,-279.42 645.12,-273.42 651.12,-273.42"/>
<text text-anchor="middle" x="687.88" y="-346.87" font-family="Helvetica,sans-Serif" font-weight="bold" font-size="9.00">project&#45;config</text>
</g>
<g id="clust11" class="cluster">
<title>cluster_packages/project&#45;config/dist</title>
<path fill="#ffffff" stroke="black" stroke-width="2" d="M659.12,-281.42C659.12,-281.42 716.62,-281.42 716.62,-281.42 722.62,-281.42 728.62,-287.42 728.62,-293.42 728.62,-293.42 728.62,-321.42 728.62,-321.42 728.62,-327.42 722.62,-333.42 716.62,-333.42 716.62,-333.42 659.12,-333.42 659.12,-333.42 653.12,-333.42 647.12,-327.42 647.12,-321.42 647.12,-321.42 647.12,-293.42 647.12,-293.42 647.12,-287.42 653.12,-281.42 659.12,-281.42"/>
<text text-anchor="middle" x="687.88" y="-320.87" font-family="Helvetica,sans-Serif" font-weight="bold" font-size="9.00">dist</text>
</g>
<g id="clust12" class="cluster">
<title>cluster_packages/telemetry</title>
<path fill="#ffffff" stroke="black" stroke-width="2" d="M418,-273.42C418,-273.42 619.12,-273.42 619.12,-273.42 625.12,-273.42 631.12,-279.42 631.12,-285.42 631.12,-285.42 631.12,-347.42 631.12,-347.42 631.12,-353.42 625.12,-359.42 619.12,-359.42 619.12,-359.42 418,-359.42 418,-359.42 412,-359.42 406,-353.42 406,-347.42 406,-347.42 406,-285.42 406,-285.42 406,-279.42 412,-273.42 418,-273.42"/>
<text text-anchor="middle" x="518.56" y="-346.87" font-family="Helvetica,sans-Serif" font-weight="bold" font-size="9.00">telemetry</text>
</g>
<g id="clust13" class="cluster">
<title>cluster_packages/telemetry/dist</title>
<path fill="#ffffff" stroke="black" stroke-width="2" d="M426,-281.42C426,-281.42 611.12,-281.42 611.12,-281.42 617.12,-281.42 623.12,-287.42 623.12,-293.42 623.12,-293.42 623.12,-321.42 623.12,-321.42 623.12,-327.42 617.12,-333.42 611.12,-333.42 611.12,-333.42 426,-333.42 426,-333.42 420,-333.42 414,-327.42 414,-321.42 414,-321.42 414,-293.42 414,-293.42 414,-287.42 420,-281.42 426,-281.42"/>
<text text-anchor="middle" x="518.56" y="-320.87" font-family="Helvetica,sans-Serif" font-weight="bold" font-size="9.00">dist</text>
</g>
<!-- child_process -->
<g id="node1" class="node">
<title>child_process</title>
<g id="a_node1"><a xlink:title="child_process">
<path fill="#ffffcc" stroke="grey" d="M718.46,-411.29C718.46,-411.29 657.29,-411.29 657.29,-411.29 654.33,-411.29 651.38,-408.33 651.38,-405.38 651.38,-405.38 651.38,-399.46 651.38,-399.46 651.38,-396.5 654.33,-393.54 657.29,-393.54 657.29,-393.54 718.46,-393.54 718.46,-393.54 721.42,-393.54 724.38,-396.5 724.38,-399.46 724.38,-399.46 724.38,-405.38 724.38,-405.38 724.38,-408.33 721.42,-411.29 718.46,-411.29"/>
<text text-anchor="middle" x="687.88" y="-398.74" font-family="Helvetica,sans-Serif" font-size="9.00" fill="grey">child_process</text>
</a>
</g>
</g>
<!-- fs -->
<g id="node2" class="node">
<title>fs</title>
<g id="a_node2"><a xlink:title="fs">
<path fill="#ffffcc" stroke="grey" d="M836.96,-389.29C836.96,-389.29 794.79,-389.29 794.79,-389.29 791.83,-389.29 788.88,-386.33 788.88,-383.38 788.88,-383.38 788.88,-377.46 788.88,-377.46 788.88,-374.5 791.83,-371.54 794.79,-371.54 794.79,-371.54 836.96,-371.54 836.96,-371.54 839.92,-371.54 842.88,-374.5 842.88,-377.46 842.88,-377.46 842.88,-383.38 842.88,-383.38 842.88,-386.33 839.92,-389.29 836.96,-389.29"/>
<text text-anchor="middle" x="815.88" y="-376.74" font-family="Helvetica,sans-Serif" font-size="9.00" fill="grey">fs</text>
</a>
</g>
</g>
<!-- node_modules/@babel/runtime&#45;corejs3 -->
<g id="node3" class="node">
<title>node_modules/@babel/runtime&#45;corejs3</title>
<g id="a_node3"><a xlink:href="node_modules/@babel/runtime-corejs3" xlink:title="runtime&#45;corejs3">
<polygon fill="#c40b0a" fill-opacity="0.101961" stroke="black" points="855.75,-165.29 777.97,-165.29 776,-163.32 776,-147.54 853.78,-147.54 855.75,-149.52 855.75,-165.29"/>
<polyline fill="none" stroke="black" points="853.78,-163.32 776,-163.32"/>
<polyline fill="none" stroke="black" points="853.78,-163.32 853.78,-147.54"/>
<polyline fill="none" stroke="black" points="853.78,-163.32 855.75,-165.29"/>
<text text-anchor="start" x="784" y="-152.74" font-family="Helvetica,sans-Serif" font-size="9.00" fill="#c40b0a">runtime&#45;corejs3</text>
</a>
</g>
</g>
<!-- node_modules/@iarna/toml -->
<g id="node4" class="node">
<title>node_modules/@iarna/toml</title>
<g id="a_node4"><a xlink:href="node_modules/@iarna/toml" xlink:title="toml">
<polygon fill="#c40b0a" fill-opacity="0.101961" stroke="black" points="842.88,-225.29 790.85,-225.29 788.88,-223.32 788.88,-207.54 840.9,-207.54 842.88,-209.52 842.88,-225.29"/>
<polyline fill="none" stroke="black" points="840.9,-223.32 788.88,-223.32"/>
<polyline fill="none" stroke="black" points="840.9,-223.32 840.9,-207.54"/>
<polyline fill="none" stroke="black" points="840.9,-223.32 842.88,-225.29"/>
<text text-anchor="start" x="807.25" y="-212.74" font-family="Helvetica,sans-Serif" font-size="9.00" fill="#c40b0a">toml</text>
</a>
</g>
</g>
<!-- node_modules/chalk -->
<g id="node5" class="node">
<title>node_modules/chalk</title>
<g id="a_node5"><a xlink:href="node_modules/chalk" xlink:title="chalk">
<polygon fill="#c40b0a" fill-opacity="0.101961" stroke="black" points="842.88,-131.29 790.85,-131.29 788.88,-129.32 788.88,-113.54 840.9,-113.54 842.88,-115.52 842.88,-131.29"/>
<polyline fill="none" stroke="black" points="840.9,-129.32 788.88,-129.32"/>
<polyline fill="none" stroke="black" points="840.9,-129.32 840.9,-113.54"/>
<polyline fill="none" stroke="black" points="840.9,-129.32 842.88,-131.29"/>
<text text-anchor="start" x="805" y="-118.74" font-family="Helvetica,sans-Serif" font-size="9.00" fill="#c40b0a">chalk</text>
</a>
</g>
</g>
<!-- node_modules/deepmerge -->
<g id="node6" class="node">
<title>node_modules/deepmerge</title>
<g id="a_node6"><a xlink:href="node_modules/deepmerge" xlink:title="deepmerge">
<polygon fill="#c40b0a" fill-opacity="0.101961" stroke="black" points="847.5,-337.29 786.22,-337.29 784.25,-335.32 784.25,-319.54 845.53,-319.54 847.5,-321.52 847.5,-337.29"/>
<polyline fill="none" stroke="black" points="845.53,-335.32 784.25,-335.32"/>
<polyline fill="none" stroke="black" points="845.53,-335.32 845.53,-319.54"/>
<polyline fill="none" stroke="black" points="845.53,-335.32 847.5,-337.29"/>
<text text-anchor="start" x="792.25" y="-324.74" font-family="Helvetica,sans-Serif" font-size="9.00" fill="#c40b0a">deepmerge</text>
</a>
</g>
</g>
<!-- node_modules/execa -->
<g id="node7" class="node">
<title>node_modules/execa</title>
<g id="a_node7"><a xlink:href="node_modules/execa" xlink:title="execa">
<polygon fill="#c40b0a" fill-opacity="0.101961" stroke="black" points="842.88,-101.29 790.85,-101.29 788.88,-99.32 788.88,-83.54 840.9,-83.54 842.88,-85.52 842.88,-101.29"/>
<polyline fill="none" stroke="black" points="840.9,-99.32 788.88,-99.32"/>
<polyline fill="none" stroke="black" points="840.9,-99.32 840.9,-83.54"/>
<polyline fill="none" stroke="black" points="840.9,-99.32 842.88,-101.29"/>
<text text-anchor="start" x="803.5" y="-88.74" font-family="Helvetica,sans-Serif" font-size="9.00" fill="#c40b0a">execa</text>
</a>
</g>
</g>
<!-- node_modules/fast&#45;glob -->
<g id="node8" class="node">
<title>node_modules/fast&#45;glob</title>
<g id="a_node8"><a xlink:href="node_modules/fast-glob" xlink:title="fast&#45;glob">
<polygon fill="#c40b0a" fill-opacity="0.101961" stroke="black" points="842.88,-307.29 790.85,-307.29 788.88,-305.32 788.88,-289.54 840.9,-289.54 842.88,-291.52 842.88,-307.29"/>
<polyline fill="none" stroke="black" points="840.9,-305.32 788.88,-305.32"/>
<polyline fill="none" stroke="black" points="840.9,-305.32 840.9,-289.54"/>
<polyline fill="none" stroke="black" points="840.9,-305.32 842.88,-307.29"/>
<text text-anchor="start" x="798.25" y="-294.74" font-family="Helvetica,sans-Serif" font-size="9.00" fill="#c40b0a">fast&#45;glob</text>
</a>
</g>
</g>
<!-- node_modules/string&#45;env&#45;interpolation -->
<g id="node9" class="node">
<title>node_modules/string&#45;env&#45;interpolation</title>
<g id="a_node9"><a xlink:href="node_modules/string-env-interpolation" xlink:title="string&#45;env&#45;interpolation">
<polygon fill="#c40b0a" fill-opacity="0.101961" stroke="black" points="871.12,-277.29 762.6,-277.29 760.62,-275.32 760.62,-259.54 869.15,-259.54 871.12,-261.52 871.12,-277.29"/>
<polyline fill="none" stroke="black" points="869.15,-275.32 760.62,-275.32"/>
<polyline fill="none" stroke="black" points="869.15,-275.32 869.15,-259.54"/>
<polyline fill="none" stroke="black" points="869.15,-275.32 871.12,-277.29"/>
<text text-anchor="start" x="768.62" y="-264.74" font-family="Helvetica,sans-Serif" font-size="9.00" fill="#c40b0a">string&#45;env&#45;interpolation</text>
</a>
</g>
</g>
<!-- node_modules/terminal&#45;link -->
<g id="node10" class="node">
<title>node_modules/terminal&#45;link</title>
<g id="a_node10"><a xlink:href="node_modules/terminal-link" xlink:title="terminal&#45;link">
<polygon fill="#c40b0a" fill-opacity="0.101961" stroke="black" points="849,-71.29 784.72,-71.29 782.75,-69.32 782.75,-53.54 847.03,-53.54 849,-55.52 849,-71.29"/>
<polyline fill="none" stroke="black" points="847.03,-69.32 782.75,-69.32"/>
<polyline fill="none" stroke="black" points="847.03,-69.32 847.03,-53.54"/>
<polyline fill="none" stroke="black" points="847.03,-69.32 849,-71.29"/>
<text text-anchor="start" x="790.75" y="-58.74" font-family="Helvetica,sans-Serif" font-size="9.00" fill="#c40b0a">terminal&#45;link</text>
</a>
</g>
</g>
<!-- node_modules/yargs -->
<g id="node11" class="node">
<title>node_modules/yargs</title>
<g id="a_node11"><a xlink:href="node_modules/yargs" xlink:title="yargs">
<polygon fill="#c40b0a" fill-opacity="0.101961" stroke="black" points="842.88,-41.29 790.85,-41.29 788.88,-39.32 788.88,-23.54 840.9,-23.54 842.88,-25.52 842.88,-41.29"/>
<polyline fill="none" stroke="black" points="840.9,-39.32 788.88,-39.32"/>
<polyline fill="none" stroke="black" points="840.9,-39.32 840.9,-23.54"/>
<polyline fill="none" stroke="black" points="840.9,-39.32 842.88,-41.29"/>
<text text-anchor="start" x="804.62" y="-28.74" font-family="Helvetica,sans-Serif" font-size="9.00" fill="#c40b0a">yargs</text>
</a>
</g>
</g>
<!-- os -->
<g id="node12" class="node">
<title>os</title>
<g id="a_node12"><a xlink:title="os">
<path fill="#ffffcc" stroke="grey" d="M708.96,-441.29C708.96,-441.29 666.79,-441.29 666.79,-441.29 663.83,-441.29 660.88,-438.33 660.88,-435.38 660.88,-435.38 660.88,-429.46 660.88,-429.46 660.88,-426.5 663.83,-423.54 666.79,-423.54 666.79,-423.54 708.96,-423.54 708.96,-423.54 711.92,-423.54 714.88,-426.5 714.88,-429.46 714.88,-429.46 714.88,-435.38 714.88,-435.38 714.88,-438.33 711.92,-441.29 708.96,-441.29"/>
<text text-anchor="middle" x="687.88" y="-428.74" font-family="Helvetica,sans-Serif" font-size="9.00" fill="grey">os</text>
</a>
</g>
</g>
<!-- packages/cli&#45;packages/storybook/dist/commands/storybook.d.ts -->
<g id="node13" class="node">
<title>packages/cli&#45;packages/storybook/dist/commands/storybook.d.ts</title>
<g id="a_node13"><a xlink:href="packages/cli-packages/storybook/dist/commands/storybook.d.ts" xlink:title="storybook.d.ts">
<path fill="#ddfeff" stroke="black" d="M238.83,-101.29C238.83,-101.29 155.92,-101.29 155.92,-101.29 152.96,-101.29 150,-98.33 150,-95.38 150,-95.38 150,-89.46 150,-89.46 150,-86.5 152.96,-83.54 155.92,-83.54 155.92,-83.54 238.83,-83.54 238.83,-83.54 241.79,-83.54 244.75,-86.5 244.75,-89.46 244.75,-89.46 244.75,-95.38 244.75,-95.38 244.75,-98.33 241.79,-101.29 238.83,-101.29"/>
<text text-anchor="start" x="158" y="-89.74" font-family="Helvetica,sans-Serif" font-size="9.00">storybook.d.ts </text>
<text text-anchor="start" x="216.5" y="-89.74" font-family="Helvetica,sans-Serif" font-size="8.00" fill="#808080">100%</text>
</a>
</g>
</g>
<!-- packages/cli&#45;packages/storybook/dist/commands/storybook.d.ts&#45;&gt;node_modules/yargs -->
<g id="edge2" class="edge">
<title>packages/cli&#45;packages/storybook/dist/commands/storybook.d.ts&#45;&gt;node_modules/yargs</title>
<path fill="none" stroke="#000000" stroke-opacity="0.200000" d="M204.82,-83.11C216.52,-67.05 242.97,-34.54 274.25,-20.42 347.25,12.54 373.66,-4.42 453.75,-4.42 453.75,-4.42 453.75,-4.42 575.88,-4.42 649.79,-4.42 735.69,-17.79 781.7,-26.05"/>
<polygon fill="#000000" fill-opacity="0.200000" stroke="#000000" stroke-opacity="0.200000" points="781.19,-28.28 787.47,-27.28 781.94,-24.14 781.19,-28.28"/>
</g>
<!-- packages/cli&#45;packages/storybook/dist/types.js -->
<g id="node14" class="node">
<title>packages/cli&#45;packages/storybook/dist/types.js</title>
<g id="a_node14"><a xlink:href="packages/cli-packages/storybook/dist/types.js" xlink:title="types.js">
<path fill="#ffffcc" stroke="black" d="M356.33,-67.29C356.33,-67.29 307.92,-67.29 307.92,-67.29 304.96,-67.29 302,-64.33 302,-61.38 302,-61.38 302,-55.46 302,-55.46 302,-52.5 304.96,-49.54 307.92,-49.54 307.92,-49.54 356.33,-49.54 356.33,-49.54 359.29,-49.54 362.25,-52.5 362.25,-55.46 362.25,-55.46 362.25,-61.38 362.25,-61.38 362.25,-64.33 359.29,-67.29 356.33,-67.29"/>
<text text-anchor="start" x="310" y="-55.74" font-family="Helvetica,sans-Serif" font-size="9.00">types.js </text>
<text text-anchor="start" x="343" y="-55.74" font-family="Helvetica,sans-Serif" font-size="8.00" fill="#808080">0%</text>
</a>
</g>
</g>
<!-- packages/cli&#45;packages/storybook/dist/commands/storybook.d.ts&#45;&gt;packages/cli&#45;packages/storybook/dist/types.js -->
<g id="edge1" class="edge">
<title>packages/cli&#45;packages/storybook/dist/commands/storybook.d.ts&#45;&gt;packages/cli&#45;packages/storybook/dist/types.js</title>
<path fill="none" stroke="#000000" stroke-width="2" stroke-opacity="0.200000" d="M233.09,-83.14C246,-79.72 260.79,-75.85 274.25,-72.42 280.35,-70.86 286.82,-69.24 293.13,-67.68"/>
<polygon fill="#000000" fill-opacity="0.200000" stroke="#000000" stroke-width="2" stroke-opacity="0.200000" points="294.26,-69.07 299.58,-65.59 293.25,-64.99 294.26,-69.07"/>
</g>
<!-- packages/cli&#45;packages/storybook/dist/commands/storybook.js -->
<g id="node15" class="node">
<title>packages/cli&#45;packages/storybook/dist/commands/storybook.js</title>
<g id="a_node15"><a xlink:href="packages/cli-packages/storybook/dist/commands/storybook.js" xlink:title="storybook.js">
<path fill="#ffffcc" stroke="black" d="M232.83,-161.29C232.83,-161.29 161.92,-161.29 161.92,-161.29 158.96,-161.29 156,-158.33 156,-155.38 156,-155.38 156,-149.46 156,-149.46 156,-146.5 158.96,-143.54 161.92,-143.54 161.92,-143.54 232.83,-143.54 232.83,-143.54 235.79,-143.54 238.75,-146.5 238.75,-149.46 238.75,-149.46 238.75,-155.38 238.75,-155.38 238.75,-158.33 235.79,-161.29 232.83,-161.29"/>
<text text-anchor="start" x="164" y="-149.74" font-family="Helvetica,sans-Serif" font-size="9.00">storybook.js </text>
<text text-anchor="start" x="215" y="-149.74" font-family="Helvetica,sans-Serif" font-size="8.00" fill="#808080">60%</text>
</a>
</g>
</g>
<!-- packages/cli&#45;packages/storybook/dist/commands/storybook.js&#45;&gt;node_modules/terminal&#45;link -->
<g id="edge5" class="edge">
<title>packages/cli&#45;packages/storybook/dist/commands/storybook.js&#45;&gt;node_modules/terminal&#45;link</title>
<path fill="none" stroke="#000000" stroke-opacity="0.200000" d="M239.1,-150.07C247.45,-147.73 255.45,-143.82 261.25,-137.42 290.14,-105.49 242.71,-70.73 274.25,-41.42 303.53,-14.22 413.79,-30.42 453.75,-30.42 453.75,-30.42 453.75,-30.42 575.88,-30.42 646.9,-30.42 728.75,-44.47 775.89,-53.95"/>
<polygon fill="#000000" fill-opacity="0.200000" stroke="#000000" stroke-opacity="0.200000" points="775.29,-56.18 781.59,-55.32 776.13,-52.06 775.29,-56.18"/>
</g>
<!-- packages/cli&#45;packages/storybook/dist/lib/colors.js -->
<g id="node16" class="node">
<title>packages/cli&#45;packages/storybook/dist/lib/colors.js</title>
<g id="a_node16"><a xlink:href="packages/cli-packages/storybook/dist/lib/colors.js" xlink:title="colors.js">
<path fill="#ffffcc" stroke="black" d="M482.71,-131.29C482.71,-131.29 426.79,-131.29 426.79,-131.29 423.83,-131.29 420.88,-128.33 420.88,-125.38 420.88,-125.38 420.88,-119.46 420.88,-119.46 420.88,-116.5 423.83,-113.54 426.79,-113.54 426.79,-113.54 482.71,-113.54 482.71,-113.54 485.67,-113.54 488.62,-116.5 488.62,-119.46 488.62,-119.46 488.62,-125.38 488.62,-125.38 488.62,-128.33 485.67,-131.29 482.71,-131.29"/>
<text text-anchor="start" x="428.88" y="-119.74" font-family="Helvetica,sans-Serif" font-size="9.00">colors.js </text>
<text text-anchor="start" x="464.88" y="-119.74" font-family="Helvetica,sans-Serif" font-size="8.00" fill="#808080">33%</text>
</a>
</g>
</g>
<!-- packages/cli&#45;packages/storybook/dist/commands/storybook.js&#45;&gt;packages/cli&#45;packages/storybook/dist/lib/colors.js -->
<g id="edge3" class="edge">
<title>packages/cli&#45;packages/storybook/dist/commands/storybook.js&#45;&gt;packages/cli&#45;packages/storybook/dist/lib/colors.js</title>
<path fill="none" stroke="#000000" stroke-width="2" stroke-opacity="0.200000" d="M239.19,-143.48C250.5,-141.24 262.81,-139.02 274.25,-137.42 321.07,-130.85 375.2,-126.81 411.67,-124.6"/>
<polygon fill="#000000" fill-opacity="0.200000" stroke="#000000" stroke-width="2" stroke-opacity="0.200000" points="411.68,-126.53 417.54,-124.08 411.43,-122.34 411.68,-126.53"/>
</g>
<!-- packages/cli&#45;packages/storybook/dist/commands/storybookHandler.js -->
<g id="node17" class="node">
<title>packages/cli&#45;packages/storybook/dist/commands/storybookHandler.js</title>
<g id="a_node17"><a xlink:href="packages/cli-packages/storybook/dist/commands/storybookHandler.js" xlink:title="storybookHandler.js">
<path fill="#ffffcc" stroke="black" d="M384.08,-161.29C384.08,-161.29 280.17,-161.29 280.17,-161.29 277.21,-161.29 274.25,-158.33 274.25,-155.38 274.25,-155.38 274.25,-149.46 274.25,-149.46 274.25,-146.5 277.21,-143.54 280.17,-143.54 280.17,-143.54 384.08,-143.54 384.08,-143.54 387.04,-143.54 390,-146.5 390,-149.46 390,-149.46 390,-155.38 390,-155.38 390,-158.33 387.04,-161.29 384.08,-161.29"/>
<text text-anchor="start" x="282.25" y="-149.74" font-family="Helvetica,sans-Serif" font-size="9.00">storybookHandler.js </text>
<text text-anchor="start" x="366.25" y="-149.74" font-family="Helvetica,sans-Serif" font-size="8.00" fill="#808080">83%</text>
</a>
</g>
</g>
<!-- packages/cli&#45;packages/storybook/dist/commands/storybook.js&#45;&gt;packages/cli&#45;packages/storybook/dist/commands/storybookHandler.js -->
<g id="edge4" class="edge">
<title>packages/cli&#45;packages/storybook/dist/commands/storybook.js&#45;&gt;packages/cli&#45;packages/storybook/dist/commands/storybookHandler.js</title>
<path fill="none" stroke="#000000" stroke-width="2" stroke-dasharray="5,2" stroke-opacity="0.200000" d="M238.93,-152.42C247.27,-152.42 256.27,-152.42 265.25,-152.42"/>
<polygon fill="#000000" fill-opacity="0.200000" stroke="#000000" stroke-width="2" stroke-opacity="0.200000" points="265.21,-154.52 271.21,-152.42 265.21,-150.32 265.21,-154.52"/>
</g>
<!-- packages/cli&#45;packages/storybook/dist/lib/colors.js&#45;&gt;node_modules/chalk -->
<g id="edge15" class="edge">
<title>packages/cli&#45;packages/storybook/dist/lib/colors.js&#45;&gt;node_modules/chalk</title>
<path fill="none" stroke="#000000" stroke-opacity="0.200000" d="M488.89,-122.42C557.39,-122.42 713.83,-122.42 782.05,-122.42"/>
<polygon fill="#000000" fill-opacity="0.200000" stroke="#000000" stroke-opacity="0.200000" points="781.76,-124.52 787.76,-122.42 781.76,-120.32 781.76,-124.52"/>
</g>
<!-- packages/cli&#45;packages/storybook/dist/commands/storybookHandler.js&#45;&gt;node_modules/execa -->
<g id="edge10" class="edge">
<title>packages/cli&#45;packages/storybook/dist/commands/storybookHandler.js&#45;&gt;node_modules/execa</title>
<path fill="none" stroke="#000000" stroke-opacity="0.200000" d="M390.39,-145.22C393.14,-143.59 395.71,-141.67 398,-139.42 409.99,-127.61 393.04,-113.14 406,-102.42 462.6,-55.6 694.78,-77.92 781.76,-88.21"/>
<polygon fill="#000000" fill-opacity="0.200000" stroke="#000000" stroke-opacity="0.200000" points="781.3,-90.39 787.51,-89.02 781.8,-86.22 781.3,-90.39"/>
</g>
<!-- packages/cli&#45;packages/storybook/dist/commands/storybookHandler.js&#45;&gt;packages/cli&#45;packages/storybook/dist/lib/colors.js -->
<g id="edge7" class="edge">
<title>packages/cli&#45;packages/storybook/dist/commands/storybookHandler.js&#45;&gt;packages/cli&#45;packages/storybook/dist/lib/colors.js</title>
<path fill="none" stroke="#000000" stroke-width="2" stroke-opacity="0.200000" d="M370.63,-143.09C383.79,-139.82 398.65,-136.12 412.13,-132.77"/>
<polygon fill="#000000" fill-opacity="0.200000" stroke="#000000" stroke-width="2" stroke-opacity="0.200000" points="413.44,-134.11 418.76,-130.62 412.43,-130.03 413.44,-134.11"/>
</g>
<!-- packages/project&#45;config/dist/index.js -->
<g id="node19" class="node">
<title>packages/project&#45;config/dist/index.js</title>
<g id="a_node19"><a xlink:href="packages/project-config/dist/index.js" xlink:title="index.js">
<path fill="#ffffcc" stroke="black" d="M714.71,-307.29C714.71,-307.29 661.04,-307.29 661.04,-307.29 658.08,-307.29 655.12,-304.33 655.12,-301.38 655.12,-301.38 655.12,-295.46 655.12,-295.46 655.12,-292.5 658.08,-289.54 661.04,-289.54 661.04,-289.54 714.71,-289.54 714.71,-289.54 717.67,-289.54 720.62,-292.5 720.62,-295.46 720.62,-295.46 720.62,-301.38 720.62,-301.38 720.62,-304.33 717.67,-307.29 714.71,-307.29"/>
<text text-anchor="start" x="663.12" y="-295.74" font-family="Helvetica,sans-Serif" font-size="9.00">index.js </text>
<text text-anchor="start" x="696.88" y="-295.74" font-family="Helvetica,sans-Serif" font-size="8.00" fill="#808080">75%</text>
</a>
</g>
</g>
<!-- packages/cli&#45;packages/storybook/dist/commands/storybookHandler.js&#45;&gt;packages/project&#45;config/dist/index.js -->
<g id="edge8" class="edge">
<title>packages/cli&#45;packages/storybook/dist/commands/storybookHandler.js&#45;&gt;packages/project&#45;config/dist/index.js</title>
<path fill="none" stroke="#000000" stroke-opacity="0.200000" d="M349.65,-161.72C364.25,-169.77 386.23,-181.5 406,-190.42 452.61,-211.45 592.2,-263.48 655.3,-286.79"/>
<polygon fill="#000000" fill-opacity="0.200000" stroke="#000000" stroke-opacity="0.200000" points="654.16,-288.98 660.52,-289.09 655.62,-285.04 654.16,-288.98"/>
</g>
<!-- packages/telemetry/dist/index.js -->
<g id="node20" class="node">
<title>packages/telemetry/dist/index.js</title>
<g id="a_node20"><a xlink:href="packages/telemetry/dist/index.js" xlink:title="index.js">
<path fill="#ffffcc" stroke="black" d="M481.58,-307.29C481.58,-307.29 427.92,-307.29 427.92,-307.29 424.96,-307.29 422,-304.33 422,-301.38 422,-301.38 422,-295.46 422,-295.46 422,-292.5 424.96,-289.54 427.92,-289.54 427.92,-289.54 481.58,-289.54 481.58,-289.54 484.54,-289.54 487.5,-292.5 487.5,-295.46 487.5,-295.46 487.5,-301.38 487.5,-301.38 487.5,-304.33 484.54,-307.29 481.58,-307.29"/>
<text text-anchor="start" x="430" y="-295.74" font-family="Helvetica,sans-Serif" font-size="9.00">index.js </text>
<text text-anchor="start" x="463.75" y="-295.74" font-family="Helvetica,sans-Serif" font-size="8.00" fill="#808080">80%</text>
</a>
</g>
</g>
<!-- packages/cli&#45;packages/storybook/dist/commands/storybookHandler.js&#45;&gt;packages/telemetry/dist/index.js -->
<g id="edge9" class="edge">
<title>packages/cli&#45;packages/storybook/dist/commands/storybookHandler.js&#45;&gt;packages/telemetry/dist/index.js</title>
<path fill="none" stroke="#000000" stroke-opacity="0.200000" d="M340.67,-161.55C361.06,-186.23 417.4,-254.42 442,-284.19"/>
<polygon fill="#000000" fill-opacity="0.200000" stroke="#000000" stroke-opacity="0.200000" points="440.77,-285 446.21,-288.29 444,-282.33 440.77,-285"/>
</g>
<!-- path -->
<g id="node21" class="node">
<title>path</title>
<g id="a_node21"><a xlink:title="path">
<path fill="#ffffcc" stroke="grey" d="M836.96,-469.29C836.96,-469.29 794.79,-469.29 794.79,-469.29 791.83,-469.29 788.88,-466.33 788.88,-463.38 788.88,-463.38 788.88,-457.46 788.88,-457.46 788.88,-454.5 791.83,-451.54 794.79,-451.54 794.79,-451.54 836.96,-451.54 836.96,-451.54 839.92,-451.54 842.88,-454.5 842.88,-457.46 842.88,-457.46 842.88,-463.38 842.88,-463.38 842.88,-466.33 839.92,-469.29 836.96,-469.29"/>
<text text-anchor="middle" x="815.88" y="-456.74" font-family="Helvetica,sans-Serif" font-size="9.00" fill="grey">path</text>
</a>
</g>
</g>
<!-- packages/cli&#45;packages/storybook/dist/commands/storybookHandler.js&#45;&gt;path -->
<g id="edge11" class="edge">
<title>packages/cli&#45;packages/storybook/dist/commands/storybookHandler.js&#45;&gt;path</title>
<path fill="none" stroke="#000000" stroke-dasharray="5,2" stroke-opacity="0.200000" d="M334.54,-161.57C339.44,-190.47 358.03,-281.14 406,-336.42 484.18,-426.51 523.82,-438.84 639.12,-469.42 687.44,-482.23 745.77,-474.99 781.59,-468.1"/>
<polygon fill="#000000" fill-opacity="0.200000" stroke="#000000" stroke-opacity="0.200000" points="781.97,-469.96 787.45,-466.73 781.15,-465.84 781.97,-469.96"/>
</g>
<!-- packages/cli&#45;packages/storybook/dist/commands/storybookHandler.d.ts -->
<g id="node18" class="node">
<title>packages/cli&#45;packages/storybook/dist/commands/storybookHandler.d.ts</title>
<g id="a_node18"><a xlink:href="packages/cli-packages/storybook/dist/commands/storybookHandler.d.ts" xlink:title="storybookHandler.d.ts">
<path fill="#ddfeff" stroke="black" d="M255.33,-131.29C255.33,-131.29 139.42,-131.29 139.42,-131.29 136.46,-131.29 133.5,-128.33 133.5,-125.38 133.5,-125.38 133.5,-119.46 133.5,-119.46 133.5,-116.5 136.46,-113.54 139.42,-113.54 139.42,-113.54 255.33,-113.54 255.33,-113.54 258.29,-113.54 261.25,-116.5 261.25,-119.46 261.25,-119.46 261.25,-125.38 261.25,-125.38 261.25,-128.33 258.29,-131.29 255.33,-131.29"/>
<text text-anchor="start" x="141.5" y="-119.74" font-family="Helvetica,sans-Serif" font-size="9.00">storybookHandler.d.ts </text>
<text text-anchor="start" x="233" y="-119.74" font-family="Helvetica,sans-Serif" font-size="8.00" fill="#808080">100%</text>
</a>
</g>
</g>
<!-- packages/cli&#45;packages/storybook/dist/commands/storybookHandler.d.ts&#45;&gt;packages/cli&#45;packages/storybook/dist/types.js -->
<g id="edge6" class="edge">
<title>packages/cli&#45;packages/storybook/dist/commands/storybookHandler.d.ts&#45;&gt;packages/cli&#45;packages/storybook/dist/types.js</title>
<path fill="none" stroke="#000000" stroke-width="2" stroke-opacity="0.200000" d="M252.97,-113.21C255.94,-111.56 258.73,-109.65 261.25,-107.42 273.67,-96.42 261.87,-83.46 274.25,-72.42 279.53,-67.71 286.15,-64.52 292.98,-62.38"/>
<polygon fill="#000000" fill-opacity="0.200000" stroke="#000000" stroke-width="2" stroke-opacity="0.200000" points="294.36,-63.7 299.67,-60.2 293.34,-59.62 294.36,-63.7"/>
</g>
<!-- packages/project&#45;config/dist/index.js&#45;&gt;fs -->
<g id="edge19" class="edge">
<title>packages/project&#45;config/dist/index.js&#45;&gt;fs</title>
<path fill="none" stroke="#000000" stroke-dasharray="5,2" stroke-opacity="0.200000" d="M694.71,-307.54C704.68,-322.35 726.5,-351.48 752.62,-366.42 761.45,-371.47 771.96,-374.69 781.8,-376.76"/>
<polygon fill="#000000" fill-opacity="0.200000" stroke="#000000" stroke-opacity="0.200000" points="781.19,-378.97 787.48,-378.01 781.96,-374.84 781.19,-378.97"/>
</g>
<!-- packages/project&#45;config/dist/index.js&#45;&gt;node_modules/@iarna/toml -->
<g id="edge16" class="edge">
<title>packages/project&#45;config/dist/index.js&#45;&gt;node_modules/@iarna/toml</title>
<path fill="none" stroke="#000000" stroke-opacity="0.200000" d="M698.36,-289.34C709.8,-278.22 729.38,-258.62 744.62,-240.42 748.51,-235.78 747.55,-232.7 752.62,-229.42 761.21,-223.87 771.74,-220.63 781.67,-218.76"/>
<polygon fill="#000000" fill-opacity="0.200000" stroke="#000000" stroke-opacity="0.200000" points="781.83,-220.7 787.42,-217.67 781.16,-216.55 781.83,-220.7"/>
</g>
<!-- packages/project&#45;config/dist/index.js&#45;&gt;node_modules/deepmerge -->
<g id="edge17" class="edge">
<title>packages/project&#45;config/dist/index.js&#45;&gt;node_modules/deepmerge</title>
<path fill="none" stroke="#000000" stroke-opacity="0.200000" d="M721,-306.07C738.27,-310.18 759.66,-315.27 777.65,-319.56"/>
<polygon fill="#000000" fill-opacity="0.200000" stroke="#000000" stroke-opacity="0.200000" points="776.79,-321.75 783.12,-321.09 777.77,-317.66 776.79,-321.75"/>
</g>
<!-- packages/project&#45;config/dist/index.js&#45;&gt;node_modules/fast&#45;glob -->
<g id="edge18" class="edge">
<title>packages/project&#45;config/dist/index.js&#45;&gt;node_modules/fast&#45;glob</title>
<path fill="none" stroke="#000000" stroke-opacity="0.200000" d="M721,-298.42C739.7,-298.42 763.22,-298.42 782.04,-298.42"/>
<polygon fill="#000000" fill-opacity="0.200000" stroke="#000000" stroke-opacity="0.200000" points="781.75,-300.52 787.75,-298.42 781.75,-296.32 781.75,-300.52"/>
</g>
<!-- packages/project&#45;config/dist/index.js&#45;&gt;node_modules/string&#45;env&#45;interpolation -->
<g id="edge21" class="edge">
<title>packages/project&#45;config/dist/index.js&#45;&gt;node_modules/string&#45;env&#45;interpolation</title>
<path fill="none" stroke="#000000" stroke-opacity="0.200000" d="M721,-290.77C735.54,-287.31 753.01,-283.15 768.9,-279.36"/>
<polygon fill="#000000" fill-opacity="0.200000" stroke="#000000" stroke-opacity="0.200000" points="769.26,-281.2 774.61,-277.77 768.29,-277.11 769.26,-281.2"/>
</g>
<!-- packages/project&#45;config/dist/index.js&#45;&gt;path -->
<g id="edge20" class="edge">
<title>packages/project&#45;config/dist/index.js&#45;&gt;path</title>
<path fill="none" stroke="#000000" stroke-dasharray="5,2" stroke-opacity="0.200000" d="M694.15,-307.62C704.46,-325.31 728.39,-365 752.62,-395.42 767.58,-414.19 787,-433.84 800.14,-446.55"/>
<polygon fill="#000000" fill-opacity="0.200000" stroke="#000000" stroke-opacity="0.200000" points="798.24,-447.59 804.02,-450.23 801.14,-444.56 798.24,-447.59"/>
</g>
<!-- packages/telemetry/dist/index.js&#45;&gt;node_modules/@babel/runtime&#45;corejs3 -->
<g id="edge23" class="edge">
<title>packages/telemetry/dist/index.js&#45;&gt;node_modules/@babel/runtime&#45;corejs3</title>
<path fill="none" stroke="#000000" stroke-opacity="0.200000" d="M470.4,-289.12C500.77,-270.2 573.28,-226.85 639.12,-201.42 682,-184.86 733.1,-172.56 769.11,-165.04"/>
<polygon fill="#000000" fill-opacity="0.200000" stroke="#000000" stroke-opacity="0.200000" points="769.2,-166.96 774.66,-163.69 768.36,-162.84 769.2,-166.96"/>
</g>
<!-- packages/telemetry/dist/telemetry.js -->
<g id="node26" class="node">
<title>packages/telemetry/dist/telemetry.js</title>
<g id="a_node26"><a xlink:href="packages/telemetry/dist/telemetry.js" xlink:title="telemetry.js">
<path fill="#ffffcc" stroke="black" d="M609.21,-307.29C609.21,-307.29 540.54,-307.29 540.54,-307.29 537.58,-307.29 534.62,-304.33 534.62,-301.38 534.62,-301.38 534.62,-295.46 534.62,-295.46 534.62,-292.5 537.58,-289.54 540.54,-289.54 540.54,-289.54 609.21,-289.54 609.21,-289.54 612.17,-289.54 615.12,-292.5 615.12,-295.46 615.12,-295.46 615.12,-301.38 615.12,-301.38 615.12,-304.33 612.17,-307.29 609.21,-307.29"/>
<text text-anchor="start" x="542.62" y="-295.74" font-family="Helvetica,sans-Serif" font-size="9.00">telemetry.js </text>
<text text-anchor="start" x="591.38" y="-295.74" font-family="Helvetica,sans-Serif" font-size="8.00" fill="#808080">88%</text>
</a>
</g>
</g>
<!-- packages/telemetry/dist/index.js&#45;&gt;packages/telemetry/dist/telemetry.js -->
<g id="edge22" class="edge">
<title>packages/telemetry/dist/index.js&#45;&gt;packages/telemetry/dist/telemetry.js</title>
<path fill="none" stroke="#000000" stroke-width="2" stroke-opacity="0.200000" d="M487.72,-298.42C499.37,-298.42 512.83,-298.42 525.59,-298.42"/>
<polygon fill="#000000" fill-opacity="0.200000" stroke="#000000" stroke-width="2" stroke-opacity="0.200000" points="525.29,-300.52 531.29,-298.42 525.29,-296.32 525.29,-300.52"/>
</g>
<!-- packages/cli&#45;packages/storybook/dist/index.d.ts -->
<g id="node22" class="node">
<title>packages/cli&#45;packages/storybook/dist/index.d.ts</title>
<g id="a_node22"><a xlink:href="packages/cli-packages/storybook/dist/index.d.ts" xlink:title="index.d.ts">
<path fill="#ddfeff" stroke="black" d="M111.58,-174.29C111.58,-174.29 45.92,-174.29 45.92,-174.29 42.96,-174.29 40,-171.33 40,-168.38 40,-168.38 40,-162.46 40,-162.46 40,-159.5 42.96,-156.54 45.92,-156.54 45.92,-156.54 111.58,-156.54 111.58,-156.54 114.54,-156.54 117.5,-159.5 117.5,-162.46 117.5,-162.46 117.5,-168.38 117.5,-168.38 117.5,-171.33 114.54,-174.29 111.58,-174.29"/>
<text text-anchor="start" x="48" y="-162.74" font-family="Helvetica,sans-Serif" font-size="9.00">index.d.ts </text>
<text text-anchor="start" x="89.25" y="-162.74" font-family="Helvetica,sans-Serif" font-size="8.00" fill="#808080">100%</text>
</a>
</g>
</g>
<!-- packages/cli&#45;packages/storybook/dist/index.d.ts&#45;&gt;packages/cli&#45;packages/storybook/dist/commands/storybook.js -->
<g id="edge12" class="edge">
<title>packages/cli&#45;packages/storybook/dist/index.d.ts&#45;&gt;packages/cli&#45;packages/storybook/dist/commands/storybook.js</title>
<path fill="none" stroke="#000000" stroke-width="2" stroke-opacity="0.200000" d="M117.94,-161.16C127.19,-160.13 137.22,-159.01 146.92,-157.93"/>
<polygon fill="#000000" fill-opacity="0.200000" stroke="#000000" stroke-width="2" stroke-opacity="0.200000" points="146.96,-159.7 152.69,-156.95 146.5,-155.53 146.96,-159.7"/>
</g>
<!-- packages/cli&#45;packages/storybook/dist/index.js -->
<g id="node23" class="node">
<title>packages/cli&#45;packages/storybook/dist/index.js</title>
<g id="a_node23"><a xlink:href="packages/cli-packages/storybook/dist/index.js" xlink:title="index.js">
<path fill="#ffffcc" stroke="black" d="M107.83,-144.29C107.83,-144.29 49.67,-144.29 49.67,-144.29 46.71,-144.29 43.75,-141.33 43.75,-138.38 43.75,-138.38 43.75,-132.46 43.75,-132.46 43.75,-129.5 46.71,-126.54 49.67,-126.54 49.67,-126.54 107.83,-126.54 107.83,-126.54 110.79,-126.54 113.75,-129.5 113.75,-132.46 113.75,-132.46 113.75,-138.38 113.75,-138.38 113.75,-141.33 110.79,-144.29 107.83,-144.29"/>
<text text-anchor="start" x="51.75" y="-132.74" font-family="Helvetica,sans-Serif" font-size="9.00">index.js </text>
<text text-anchor="start" x="85.5" y="-132.74" font-family="Helvetica,sans-Serif" font-size="8.00" fill="#808080">100%</text>
</a>
</g>
</g>
<!-- packages/cli&#45;packages/storybook/dist/index.js&#45;&gt;packages/cli&#45;packages/storybook/dist/commands/storybook.js -->
<g id="edge13" class="edge">
<title>packages/cli&#45;packages/storybook/dist/index.js&#45;&gt;packages/cli&#45;packages/storybook/dist/commands/storybook.js</title>
<path fill="none" stroke="#000000" stroke-width="2" stroke-opacity="0.200000" d="M114.11,-140.43C124.4,-141.93 135.88,-143.6 146.94,-145.21"/>
<polygon fill="#000000" fill-opacity="0.200000" stroke="#000000" stroke-width="2" stroke-opacity="0.200000" points="147.44,-147.7 153.68,-146.49 148.04,-143.54 147.44,-147.7"/>
</g>
<!-- packages/cli&#45;packages/storybook/dist/lib/colors.d.ts -->
<g id="node24" class="node">
<title>packages/cli&#45;packages/storybook/dist/lib/colors.d.ts</title>
<g id="a_node24"><a xlink:href="packages/cli-packages/storybook/dist/lib/colors.d.ts" xlink:title="colors.d.ts">
<path fill="#ddfeff" stroke="black" d="M488.71,-161.29C488.71,-161.29 420.79,-161.29 420.79,-161.29 417.83,-161.29 414.88,-158.33 414.88,-155.38 414.88,-155.38 414.88,-149.46 414.88,-149.46 414.88,-146.5 417.83,-143.54 420.79,-143.54 420.79,-143.54 488.71,-143.54 488.71,-143.54 491.67,-143.54 494.62,-146.5 494.62,-149.46 494.62,-149.46 494.62,-155.38 494.62,-155.38 494.62,-158.33 491.67,-161.29 488.71,-161.29"/>
<text text-anchor="start" x="422.88" y="-149.74" font-family="Helvetica,sans-Serif" font-size="9.00">colors.d.ts </text>
<text text-anchor="start" x="466.38" y="-149.74" font-family="Helvetica,sans-Serif" font-size="8.00" fill="#808080">100%</text>
</a>
</g>
</g>
<!-- packages/cli&#45;packages/storybook/dist/lib/colors.d.ts&#45;&gt;node_modules/chalk -->
<g id="edge14" class="edge">
<title>packages/cli&#45;packages/storybook/dist/lib/colors.d.ts&#45;&gt;node_modules/chalk</title>
<path fill="none" stroke="#000000" stroke-opacity="0.200000" d="M495.08,-150.6C550.74,-147.82 655.64,-141.82 744.62,-132.42 756.81,-131.13 770.13,-129.33 781.87,-127.62"/>
<polygon fill="#000000" fill-opacity="0.200000" stroke="#000000" stroke-opacity="0.200000" points="781.95,-129.58 787.58,-126.62 781.33,-125.43 781.95,-129.58"/>
</g>
<!-- packages/cli&#45;packages/storybook/dist/types.d.ts -->
<g id="node25" class="node">
<title>packages/cli&#45;packages/storybook/dist/types.d.ts</title>
<g id="a_node25"><a xlink:href="packages/cli-packages/storybook/dist/types.d.ts" xlink:title="types.d.ts">
<path fill="#ccffcc" stroke="black" d="M106.71,-97.29C106.71,-97.29 50.79,-97.29 50.79,-97.29 47.83,-97.29 44.88,-94.33 44.88,-91.38 44.88,-91.38 44.88,-85.46 44.88,-85.46 44.88,-82.5 47.83,-79.54 50.79,-79.54 50.79,-79.54 106.71,-79.54 106.71,-79.54 109.67,-79.54 112.62,-82.5 112.62,-85.46 112.62,-85.46 112.62,-91.38 112.62,-91.38 112.62,-94.33 109.67,-97.29 106.71,-97.29"/>
<text text-anchor="start" x="52.88" y="-85.74" font-family="Helvetica,sans-Serif" font-size="9.00">types.d.ts </text>
<text text-anchor="start" x="93.38" y="-85.74" font-family="Helvetica,sans-Serif" font-size="8.00" fill="#808080">0%</text>
</a>
</g>
</g>
<!-- packages/telemetry/dist/telemetry.js&#45;&gt;child_process -->
<g id="edge26" class="edge">
<title>packages/telemetry/dist/telemetry.js&#45;&gt;child_process</title>
<path fill="none" stroke="#000000" stroke-dasharray="5,2" stroke-opacity="0.200000" d="M585.73,-307.65C605.26,-325.95 649,-366.93 672.04,-388.51"/>
<polygon fill="#000000" fill-opacity="0.200000" stroke="#000000" stroke-opacity="0.200000" points="670.07,-389.49 675.89,-392.06 672.94,-386.42 670.07,-389.49"/>
</g>
<!-- packages/telemetry/dist/telemetry.js&#45;&gt;node_modules/@babel/runtime&#45;corejs3 -->
<g id="edge24" class="edge">
<title>packages/telemetry/dist/telemetry.js&#45;&gt;node_modules/@babel/runtime&#45;corejs3</title>
<path fill="none" stroke="#000000" stroke-opacity="0.200000" d="M592.27,-289.14C622.55,-271.94 689.22,-233.84 744.62,-200.42 761.66,-190.14 780.78,-178.13 794.77,-169.26"/>
<polygon fill="#000000" fill-opacity="0.200000" stroke="#000000" stroke-opacity="0.200000" points="795.49,-170.65 799.43,-165.66 793.24,-167.11 795.49,-170.65"/>
</g>
<!-- packages/telemetry/dist/telemetry.js&#45;&gt;os -->
<g id="edge27" class="edge">
<title>packages/telemetry/dist/telemetry.js&#45;&gt;os</title>
<path fill="none" stroke="#000000" stroke-dasharray="5,2" stroke-opacity="0.200000" d="M578.19,-307.7C584.23,-330.02 602.59,-387.06 639.12,-417.42 643.54,-421.09 648.87,-423.87 654.33,-425.96"/>
<polygon fill="#000000" fill-opacity="0.200000" stroke="#000000" stroke-opacity="0.200000" points="653.41,-428.2 659.76,-428.13 654.75,-424.22 653.41,-428.2"/>
</g>
<!-- packages/telemetry/dist/telemetry.js&#45;&gt;packages/project&#45;config/dist/index.js -->
<g id="edge25" class="edge">
<title>packages/telemetry/dist/telemetry.js&#45;&gt;packages/project&#45;config/dist/index.js</title>
<path fill="none" stroke="#000000" stroke-opacity="0.200000" d="M615.32,-298.42C625.95,-298.42 637.45,-298.42 648.04,-298.42"/>
<polygon fill="#000000" fill-opacity="0.200000" stroke="#000000" stroke-opacity="0.200000" points="647.86,-300.52 653.86,-298.42 647.86,-296.32 647.86,-300.52"/>
</g>
<!-- packages/telemetry/dist/telemetry.js&#45;&gt;path -->
<g id="edge28" class="edge">
<title>packages/telemetry/dist/telemetry.js&#45;&gt;path</title>
<path fill="none" stroke="#000000" stroke-dasharray="5,2" stroke-opacity="0.200000" d="M576.62,-307.79C579.32,-334.8 591.15,-413.05 639.12,-447.42 680.92,-477.36 743.57,-473.59 781.69,-467.47"/>
<polygon fill="#000000" fill-opacity="0.200000" stroke="#000000" stroke-opacity="0.200000" points="781.95,-469.39 787.51,-466.31 781.25,-465.25 781.95,-469.39"/>
</g>
</g>
</svg>
