<?xml version="1.0" encoding="UTF-8" standalone="no"?>
<!DOCTYPE svg PUBLIC "-//W3C//DTD SVG 1.1//EN"
 "http://www.w3.org/Graphics/SVG/1.1/DTD/svg11.dtd">
<!-- Generated by graphviz version 8.0.5 (20230430.1635)
 -->
<!-- Title: dependency&#45;cruiser output Pages: 1 -->
<svg width="713pt" height="500pt"
 viewBox="0.00 0.00 713.38 499.74" xmlns="http://www.w3.org/2000/svg" xmlns:xlink="http://www.w3.org/1999/xlink">
<g id="graph0" class="graph" transform="scale(1 1) rotate(0) translate(4 495.74)">
<title>dependency&#45;cruiser output</title>
<polygon fill="white" stroke="none" points="-4,4 -4,-495.74 709.38,-495.74 709.38,4 -4,4"/>
<g id="clust1" class="cluster">
<title>cluster_@redwoodjs</title>
<path fill="#ffffff" stroke="black" stroke-width="2" d="M373.88,-71.74C373.88,-71.74 419.88,-71.74 419.88,-71.74 425.88,-71.74 431.88,-77.74 431.88,-83.74 431.88,-83.74 431.88,-111.74 431.88,-111.74 431.88,-117.74 425.88,-123.74 419.88,-123.74 419.88,-123.74 373.88,-123.74 373.88,-123.74 367.88,-123.74 361.88,-117.74 361.88,-111.74 361.88,-111.74 361.88,-83.74 361.88,-83.74 361.88,-77.74 367.88,-71.74 373.88,-71.74"/>
<text text-anchor="middle" x="396.88" y="-111.19" font-family="Helvetica,sans-Serif" font-weight="bold" font-size="9.00">@redwoodjs</text>
</g>
<g id="clust2" class="cluster">
<title>cluster_node_modules</title>
<path fill="#ffffff" stroke="black" stroke-width="2" d="M582.88,-11.74C582.88,-11.74 685.38,-11.74 685.38,-11.74 691.38,-11.74 697.38,-17.74 697.38,-23.74 697.38,-23.74 697.38,-317.74 697.38,-317.74 697.38,-323.74 691.38,-329.74 685.38,-329.74 685.38,-329.74 582.88,-329.74 582.88,-329.74 576.88,-329.74 570.88,-323.74 570.88,-317.74 570.88,-317.74 570.88,-23.74 570.88,-23.74 570.88,-17.74 576.88,-11.74 582.88,-11.74"/>
<text text-anchor="middle" x="634.12" y="-317.19" font-family="Helvetica,sans-Serif" font-weight="bold" font-size="9.00">node_modules</text>
</g>
<g id="clust3" class="cluster">
<title>cluster_node_modules/@iarna</title>
<path fill="#ffffff" stroke="black" stroke-width="2" d="M611.12,-135.74C611.12,-135.74 657.12,-135.74 657.12,-135.74 663.12,-135.74 669.12,-141.74 669.12,-147.74 669.12,-147.74 669.12,-175.74 669.12,-175.74 669.12,-181.74 663.12,-187.74 657.12,-187.74 657.12,-187.74 611.12,-187.74 611.12,-187.74 605.12,-187.74 599.12,-181.74 599.12,-175.74 599.12,-175.74 599.12,-147.74 599.12,-147.74 599.12,-141.74 605.12,-135.74 611.12,-135.74"/>
<text text-anchor="middle" x="634.12" y="-175.19" font-family="Helvetica,sans-Serif" font-weight="bold" font-size="9.00">@iarna</text>
</g>
<g id="clust4" class="cluster">
<title>cluster_packages</title>
<path fill="#ffffff" stroke="black" stroke-width="2" d="M20,-161.74C20,-161.74 550.88,-161.74 550.88,-161.74 556.88,-161.74 562.88,-167.74 562.88,-173.74 562.88,-173.74 562.88,-471.74 562.88,-471.74 562.88,-477.74 556.88,-483.74 550.88,-483.74 550.88,-483.74 20,-483.74 20,-483.74 14,-483.74 8,-477.74 8,-471.74 8,-471.74 8,-173.74 8,-173.74 8,-167.74 14,-161.74 20,-161.74"/>
<text text-anchor="middle" x="285.44" y="-471.19" font-family="Helvetica,sans-Serif" font-weight="bold" font-size="9.00">packages</text>
</g>
<g id="clust5" class="cluster">
<title>cluster_packages/cli&#45;packages</title>
<path fill="#ffffff" stroke="black" stroke-width="2" d="M28,-263.74C28,-263.74 542.88,-263.74 542.88,-263.74 548.88,-263.74 554.88,-269.74 554.88,-275.74 554.88,-275.74 554.88,-445.74 554.88,-445.74 554.88,-451.74 548.88,-457.74 542.88,-457.74 542.88,-457.74 28,-457.74 28,-457.74 22,-457.74 16,-451.74 16,-445.74 16,-445.74 16,-275.74 16,-275.74 16,-269.74 22,-263.74 28,-263.74"/>
<text text-anchor="middle" x="285.44" y="-445.19" font-family="Helvetica,sans-Serif" font-weight="bold" font-size="9.00">cli&#45;packages</text>
</g>
<g id="clust6" class="cluster">
<title>cluster_packages/cli&#45;packages/storybook</title>
<path fill="#ffffff" stroke="black" stroke-width="2" d="M36,-271.74C36,-271.74 534.88,-271.74 534.88,-271.74 540.88,-271.74 546.88,-277.74 546.88,-283.74 546.88,-283.74 546.88,-419.74 546.88,-419.74 546.88,-425.74 540.88,-431.74 534.88,-431.74 534.88,-431.74 36,-431.74 36,-431.74 30,-431.74 24,-425.74 24,-419.74 24,-419.74 24,-283.74 24,-283.74 24,-277.74 30,-271.74 36,-271.74"/>
<text text-anchor="middle" x="285.44" y="-419.19" font-family="Helvetica,sans-Serif" font-weight="bold" font-size="9.00">storybook</text>
</g>
<g id="clust7" class="cluster">
<title>cluster_packages/cli&#45;packages/storybook/src</title>
<path fill="#ffffff" stroke="black" stroke-width="2" d="M44,-279.74C44,-279.74 526.88,-279.74 526.88,-279.74 532.88,-279.74 538.88,-285.74 538.88,-291.74 538.88,-291.74 538.88,-393.74 538.88,-393.74 538.88,-399.74 532.88,-405.74 526.88,-405.74 526.88,-405.74 44,-405.74 44,-405.74 38,-405.74 32,-399.74 32,-393.74 32,-393.74 32,-291.74 32,-291.74 32,-285.74 38,-279.74 44,-279.74"/>
<text text-anchor="middle" x="285.44" y="-393.19" font-family="Helvetica,sans-Serif" font-weight="bold" font-size="9.00">src</text>
</g>
<g id="clust8" class="cluster">
<title>cluster_packages/cli&#45;packages/storybook/src/commands</title>
<path fill="#ffffff" stroke="black" stroke-width="2" d="M130,-294.74C130,-294.74 333.5,-294.74 333.5,-294.74 339.5,-294.74 345.5,-300.74 345.5,-306.74 345.5,-306.74 345.5,-334.74 345.5,-334.74 345.5,-340.74 339.5,-346.74 333.5,-346.74 333.5,-346.74 130,-346.74 130,-346.74 124,-346.74 118,-340.74 118,-334.74 118,-334.74 118,-306.74 118,-306.74 118,-300.74 124,-294.74 130,-294.74"/>
<text text-anchor="middle" x="231.75" y="-334.19" font-family="Helvetica,sans-Serif" font-weight="bold" font-size="9.00">commands</text>
</g>
<g id="clust9" class="cluster">
<title>cluster_packages/cli&#45;packages/storybook/src/lib</title>
<path fill="#ffffff" stroke="black" stroke-width="2" d="M365.5,-287.74C365.5,-287.74 518.88,-287.74 518.88,-287.74 524.88,-287.74 530.88,-293.74 530.88,-299.74 530.88,-299.74 530.88,-327.74 530.88,-327.74 530.88,-333.74 524.88,-339.74 518.88,-339.74 518.88,-339.74 365.5,-339.74 365.5,-339.74 359.5,-339.74 353.5,-333.74 353.5,-327.74 353.5,-327.74 353.5,-299.74 353.5,-299.74 353.5,-293.74 359.5,-287.74 365.5,-287.74"/>
<text text-anchor="middle" x="442.19" y="-327.19" font-family="Helvetica,sans-Serif" font-weight="bold" font-size="9.00">lib</text>
</g>
<g id="clust10" class="cluster">
<title>cluster_packages/project&#45;config</title>
<path fill="#ffffff" stroke="black" stroke-width="2" d="M452.25,-169.74C452.25,-169.74 525.75,-169.74 525.75,-169.74 531.75,-169.74 537.75,-175.74 537.75,-181.74 537.75,-181.74 537.75,-243.74 537.75,-243.74 537.75,-249.74 531.75,-255.74 525.75,-255.74 525.75,-255.74 452.25,-255.74 452.25,-255.74 446.25,-255.74 440.25,-249.74 440.25,-243.74 440.25,-243.74 440.25,-181.74 440.25,-181.74 440.25,-175.74 446.25,-169.74 452.25,-169.74"/>
<text text-anchor="middle" x="489" y="-243.19" font-family="Helvetica,sans-Serif" font-weight="bold" font-size="9.00">project&#45;config</text>
</g>
<g id="clust11" class="cluster">
<title>cluster_packages/project&#45;config/dist</title>
<path fill="#ffffff" stroke="black" stroke-width="2" d="M460.25,-177.74C460.25,-177.74 517.75,-177.74 517.75,-177.74 523.75,-177.74 529.75,-183.74 529.75,-189.74 529.75,-189.74 529.75,-217.74 529.75,-217.74 529.75,-223.74 523.75,-229.74 517.75,-229.74 517.75,-229.74 460.25,-229.74 460.25,-229.74 454.25,-229.74 448.25,-223.74 448.25,-217.74 448.25,-217.74 448.25,-189.74 448.25,-189.74 448.25,-183.74 454.25,-177.74 460.25,-177.74"/>
<text text-anchor="middle" x="489" y="-217.19" font-family="Helvetica,sans-Serif" font-weight="bold" font-size="9.00">dist</text>
</g>
<!-- @redwoodjs/telemetry -->
<g id="node1" class="node">
<title>@redwoodjs/telemetry</title>
<g id="a_node1"><a xlink:title="telemetry">
<path fill="#ffffcc" stroke="red" d="M417.96,-97.62C417.96,-97.62 375.79,-97.62 375.79,-97.62 372.83,-97.62 369.88,-94.66 369.88,-91.7 369.88,-91.7 369.88,-85.78 369.88,-85.78 369.88,-82.82 372.83,-79.87 375.79,-79.87 375.79,-79.87 417.96,-79.87 417.96,-79.87 420.92,-79.87 423.88,-82.82 423.88,-85.78 423.88,-85.78 423.88,-91.7 423.88,-91.7 423.88,-94.66 420.92,-97.62 417.96,-97.62"/>
<text text-anchor="start" x="378.12" y="-85.07" font-family="Helvetica,sans-Serif" font-size="9.00" fill="red">telemetry</text>
</a>
</g>
</g>
<!-- fs -->
<g id="node2" class="node">
<title>fs</title>
<g id="a_node2"><a xlink:title="fs">
<path fill="#ffffcc" stroke="grey" d="M655.21,-355.62C655.21,-355.62 613.04,-355.62 613.04,-355.62 610.08,-355.62 607.12,-352.66 607.12,-349.7 607.12,-349.7 607.12,-343.78 607.12,-343.78 607.12,-340.82 610.08,-337.87 613.04,-337.87 613.04,-337.87 655.21,-337.87 655.21,-337.87 658.17,-337.87 661.12,-340.82 661.12,-343.78 661.12,-343.78 661.12,-349.7 661.12,-349.7 661.12,-352.66 658.17,-355.62 655.21,-355.62"/>
<text text-anchor="middle" x="634.12" y="-343.07" font-family="Helvetica,sans-Serif" font-size="9.00" fill="grey">fs</text>
</a>
</g>
</g>
<!-- node_modules/@iarna/toml -->
<g id="node3" class="node">
<title>node_modules/@iarna/toml</title>
<g id="a_node3"><a xlink:href="node_modules/@iarna/toml" xlink:title="toml">
<polygon fill="#c40b0a" fill-opacity="0.101961" stroke="black" points="661.12,-161.62 609.1,-161.62 607.12,-159.64 607.12,-143.87 659.15,-143.87 661.12,-145.84 661.12,-161.62"/>
<polyline fill="none" stroke="black" points="659.15,-159.64 607.12,-159.64"/>
<polyline fill="none" stroke="black" points="659.15,-159.64 659.15,-143.87"/>
<polyline fill="none" stroke="black" points="659.15,-159.64 661.12,-161.62"/>
<text text-anchor="start" x="625.5" y="-149.07" font-family="Helvetica,sans-Serif" font-size="9.00" fill="#c40b0a">toml</text>
</a>
</g>
</g>
<!-- node_modules/chalk -->
<g id="node4" class="node">
<title>node_modules/chalk</title>
<g id="a_node4"><a xlink:href="node_modules/chalk" xlink:title="chalk">
<polygon fill="#c40b0a" fill-opacity="0.101961" stroke="black" points="661.12,-303.62 609.1,-303.62 607.12,-301.64 607.12,-285.87 659.15,-285.87 661.12,-287.84 661.12,-303.62"/>
<polyline fill="none" stroke="black" points="659.15,-301.64 607.12,-301.64"/>
<polyline fill="none" stroke="black" points="659.15,-301.64 659.15,-285.87"/>
<polyline fill="none" stroke="black" points="659.15,-301.64 661.12,-303.62"/>
<text text-anchor="start" x="623.25" y="-291.07" font-family="Helvetica,sans-Serif" font-size="9.00" fill="#c40b0a">chalk</text>
</a>
</g>
</g>
<!-- node_modules/deepmerge -->
<g id="node5" class="node">
<title>node_modules/deepmerge</title>
<g id="a_node5"><a xlink:href="node_modules/deepmerge" xlink:title="deepmerge">
<polygon fill="#c40b0a" fill-opacity="0.101961" stroke="black" points="665.75,-243.62 604.47,-243.62 602.5,-241.64 602.5,-225.87 663.78,-225.87 665.75,-227.84 665.75,-243.62"/>
<polyline fill="none" stroke="black" points="663.78,-241.64 602.5,-241.64"/>
<polyline fill="none" stroke="black" points="663.78,-241.64 663.78,-225.87"/>
<polyline fill="none" stroke="black" points="663.78,-241.64 665.75,-243.62"/>
<text text-anchor="start" x="610.5" y="-231.07" font-family="Helvetica,sans-Serif" font-size="9.00" fill="#c40b0a">deepmerge</text>
</a>
</g>
</g>
<!-- node_modules/execa -->
<g id="node6" class="node">
<title>node_modules/execa</title>
<g id="a_node6"><a xlink:href="node_modules/execa" xlink:title="execa">
<polygon fill="#c40b0a" fill-opacity="0.101961" stroke="black" points="661.12,-97.62 609.1,-97.62 607.12,-95.64 607.12,-79.87 659.15,-79.87 661.12,-81.84 661.12,-97.62"/>
<polyline fill="none" stroke="black" points="659.15,-95.64 607.12,-95.64"/>
<polyline fill="none" stroke="black" points="659.15,-95.64 659.15,-79.87"/>
<polyline fill="none" stroke="black" points="659.15,-95.64 661.12,-97.62"/>
<text text-anchor="start" x="621.75" y="-85.07" font-family="Helvetica,sans-Serif" font-size="9.00" fill="#c40b0a">execa</text>
</a>
</g>
</g>
<!-- node_modules/fast&#45;glob -->
<g id="node7" class="node">
<title>node_modules/fast&#45;glob</title>
<g id="a_node7"><a xlink:href="node_modules/fast-glob" xlink:title="fast&#45;glob">
<polygon fill="#c40b0a" fill-opacity="0.101961" stroke="black" points="661.12,-213.62 609.1,-213.62 607.12,-211.64 607.12,-195.87 659.15,-195.87 661.12,-197.84 661.12,-213.62"/>
<polyline fill="none" stroke="black" points="659.15,-211.64 607.12,-211.64"/>
<polyline fill="none" stroke="black" points="659.15,-211.64 659.15,-195.87"/>
<polyline fill="none" stroke="black" points="659.15,-211.64 661.12,-213.62"/>
<text text-anchor="start" x="616.5" y="-201.07" font-family="Helvetica,sans-Serif" font-size="9.00" fill="#c40b0a">fast&#45;glob</text>
</a>
</g>
</g>
<!-- node_modules/lodash.memoize -->
<g id="node8" class="node">
<title>node_modules/lodash.memoize</title>
<g id="a_node8"><a xlink:href="node_modules/lodash.memoize" xlink:title="lodash.memoize">
<polygon fill="#c40b0a" fill-opacity="0.101961" stroke="black" points="675.88,-127.62 594.35,-127.62 592.38,-125.64 592.38,-109.87 673.9,-109.87 675.88,-111.84 675.88,-127.62"/>
<polyline fill="none" stroke="black" points="673.9,-125.64 592.38,-125.64"/>
<polyline fill="none" stroke="black" points="673.9,-125.64 673.9,-109.87"/>
<polyline fill="none" stroke="black" points="673.9,-125.64 675.88,-127.62"/>
<text text-anchor="start" x="600.38" y="-115.07" font-family="Helvetica,sans-Serif" font-size="9.00" fill="#c40b0a">lodash.memoize</text>
</a>
</g>
</g>
<!-- node_modules/string&#45;env&#45;interpolation -->
<g id="node9" class="node">
<title>node_modules/string&#45;env&#45;interpolation</title>
<g id="a_node9"><a xlink:href="node_modules/string-env-interpolation" xlink:title="string&#45;env&#45;interpolation">
<polygon fill="#c40b0a" fill-opacity="0.101961" stroke="black" points="689.38,-273.62 580.85,-273.62 578.88,-271.64 578.88,-255.87 687.4,-255.87 689.38,-257.84 689.38,-273.62"/>
<polyline fill="none" stroke="black" points="687.4,-271.64 578.88,-271.64"/>
<polyline fill="none" stroke="black" points="687.4,-271.64 687.4,-255.87"/>
<polyline fill="none" stroke="black" points="687.4,-271.64 689.38,-273.62"/>
<text text-anchor="start" x="586.88" y="-261.07" font-family="Helvetica,sans-Serif" font-size="9.00" fill="#c40b0a">string&#45;env&#45;interpolation</text>
</a>
</g>
</g>
<!-- node_modules/terminal&#45;link -->
<g id="node10" class="node">
<title>node_modules/terminal&#45;link</title>
<g id="a_node10"><a xlink:href="node_modules/terminal-link" xlink:title="terminal&#45;link">
<polygon fill="#c40b0a" fill-opacity="0.101961" stroke="black" points="667.25,-67.62 602.97,-67.62 601,-65.64 601,-49.87 665.28,-49.87 667.25,-51.84 667.25,-67.62"/>
<polyline fill="none" stroke="black" points="665.28,-65.64 601,-65.64"/>
<polyline fill="none" stroke="black" points="665.28,-65.64 665.28,-49.87"/>
<polyline fill="none" stroke="black" points="665.28,-65.64 667.25,-67.62"/>
<text text-anchor="start" x="609" y="-55.07" font-family="Helvetica,sans-Serif" font-size="9.00" fill="#c40b0a">terminal&#45;link</text>
</a>
</g>
</g>
<!-- node_modules/yargs -->
<g id="node11" class="node">
<title>node_modules/yargs</title>
<g id="a_node11"><a xlink:href="node_modules/yargs" xlink:title="yargs">
<polygon fill="#c40b0a" fill-opacity="0.101961" stroke="black" points="661.12,-37.62 609.1,-37.62 607.12,-35.64 607.12,-19.87 659.15,-19.87 661.12,-21.84 661.12,-37.62"/>
<polyline fill="none" stroke="black" points="659.15,-35.64 607.12,-35.64"/>
<polyline fill="none" stroke="black" points="659.15,-35.64 659.15,-19.87"/>
<polyline fill="none" stroke="black" points="659.15,-35.64 661.12,-37.62"/>
<text text-anchor="start" x="622.88" y="-25.07" font-family="Helvetica,sans-Serif" font-size="9.00" fill="#c40b0a">yargs</text>
</a>
</g>
</g>
<!-- packages/cli&#45;packages/storybook/src/commands/storybook.ts -->
<g id="node12" class="node">
<title>packages/cli&#45;packages/storybook/src/commands/storybook.ts</title>
<g id="a_node12"><a xlink:href="packages/cli-packages/storybook/src/commands/storybook.ts" xlink:title="storybook.ts">
<path fill="#ddfeff" stroke="black" d="M202.83,-320.62C202.83,-320.62 131.92,-320.62 131.92,-320.62 128.96,-320.62 126,-317.66 126,-314.7 126,-314.7 126,-308.78 126,-308.78 126,-305.82 128.96,-302.87 131.92,-302.87 131.92,-302.87 202.83,-302.87 202.83,-302.87 205.79,-302.87 208.75,-305.82 208.75,-308.78 208.75,-308.78 208.75,-314.7 208.75,-314.7 208.75,-317.66 205.79,-320.62 202.83,-320.62"/>
<text text-anchor="start" x="134" y="-309.07" font-family="Helvetica,sans-Serif" font-size="9.00">storybook.ts </text>
<text text-anchor="start" x="185" y="-309.07" font-family="Helvetica,sans-Serif" font-size="8.00" fill="#808080">83%</text>
</a>
</g>
</g>
<!-- packages/cli&#45;packages/storybook/src/commands/storybook.ts&#45;&gt;node_modules/terminal&#45;link -->
<g id="edge4" class="edge">
<title>packages/cli&#45;packages/storybook/src/commands/storybook.ts&#45;&gt;node_modules/terminal&#45;link</title>
<path fill="none" stroke="#000000" stroke-opacity="0.200000" d="M171.97,-302.38C187.07,-264.57 249.42,-122.63 353.5,-68.74 431.02,-28.61 537.48,-39.89 594.07,-50.18"/>
<polygon fill="#000000" fill-opacity="0.200000" stroke="#000000" stroke-opacity="0.200000" points="593.43,-52.38 599.71,-51.43 594.2,-48.26 593.43,-52.38"/>
</g>
<!-- packages/cli&#45;packages/storybook/src/commands/storybook.ts&#45;&gt;node_modules/yargs -->
<g id="edge5" class="edge">
<title>packages/cli&#45;packages/storybook/src/commands/storybook.ts&#45;&gt;node_modules/yargs</title>
<path fill="none" stroke="#000000" stroke-opacity="0.200000" d="M169.13,-302.48C172.56,-262.52 188.06,-105.36 221.75,-71.74 324.63,30.91 521.96,-1.87 600.1,-20.1"/>
<polygon fill="#000000" fill-opacity="0.200000" stroke="#000000" stroke-opacity="0.200000" points="599.52,-22.36 605.84,-21.71 600.49,-18.28 599.52,-22.36"/>
</g>
<!-- packages/cli&#45;packages/storybook/src/lib/colors.ts -->
<g id="node13" class="node">
<title>packages/cli&#45;packages/storybook/src/lib/colors.ts</title>
<g id="a_node13"><a xlink:href="packages/cli-packages/storybook/src/lib/colors.ts" xlink:title="colors.ts">
<path fill="#ddfeff" stroke="black" d="M516.96,-313.62C516.96,-313.62 461.04,-313.62 461.04,-313.62 458.08,-313.62 455.12,-310.66 455.12,-307.7 455.12,-307.7 455.12,-301.78 455.12,-301.78 455.12,-298.82 458.08,-295.87 461.04,-295.87 461.04,-295.87 516.96,-295.87 516.96,-295.87 519.92,-295.87 522.88,-298.82 522.88,-301.78 522.88,-301.78 522.88,-307.7 522.88,-307.7 522.88,-310.66 519.92,-313.62 516.96,-313.62"/>
<text text-anchor="start" x="463.12" y="-302.07" font-family="Helvetica,sans-Serif" font-size="9.00">colors.ts </text>
<text text-anchor="start" x="499.12" y="-302.07" font-family="Helvetica,sans-Serif" font-size="8.00" fill="#808080">25%</text>
</a>
</g>
</g>
<!-- packages/cli&#45;packages/storybook/src/commands/storybook.ts&#45;&gt;packages/cli&#45;packages/storybook/src/lib/colors.ts -->
<g id="edge1" class="edge">
<title>packages/cli&#45;packages/storybook/src/commands/storybook.ts&#45;&gt;packages/cli&#45;packages/storybook/src/lib/colors.ts</title>
<path fill="none" stroke="#000000" stroke-width="2" stroke-opacity="0.200000" d="M173.03,-321.11C180.81,-335.58 198,-362.85 221.75,-373.74 306.79,-412.74 347.83,-414.06 432.25,-373.74 454.73,-363 471.07,-338.27 480.04,-321.53"/>
<polygon fill="#000000" fill-opacity="0.200000" stroke="#000000" stroke-width="2" stroke-opacity="0.200000" points="482.22,-321.92 483.06,-315.62 478.47,-320.02 482.22,-321.92"/>
</g>
<!-- packages/cli&#45;packages/storybook/src/types.ts -->
<g id="node14" class="node">
<title>packages/cli&#45;packages/storybook/src/types.ts</title>
<g id="a_node14"><a xlink:href="packages/cli-packages/storybook/src/types.ts" xlink:title="types.ts">
<path fill="#ddfeff" stroke="black" d="M421.08,-365.62C421.08,-365.62 372.67,-365.62 372.67,-365.62 369.71,-365.62 366.75,-362.66 366.75,-359.7 366.75,-359.7 366.75,-353.78 366.75,-353.78 366.75,-350.82 369.71,-347.87 372.67,-347.87 372.67,-347.87 421.08,-347.87 421.08,-347.87 424.04,-347.87 427,-350.82 427,-353.78 427,-353.78 427,-359.7 427,-359.7 427,-362.66 424.04,-365.62 421.08,-365.62"/>
<text text-anchor="start" x="374.75" y="-354.07" font-family="Helvetica,sans-Serif" font-size="9.00">types.ts </text>
<text text-anchor="start" x="407.75" y="-354.07" font-family="Helvetica,sans-Serif" font-size="8.00" fill="#808080">0%</text>
</a>
</g>
</g>
<!-- packages/cli&#45;packages/storybook/src/commands/storybook.ts&#45;&gt;packages/cli&#45;packages/storybook/src/types.ts -->
<g id="edge2" class="edge">
<title>packages/cli&#45;packages/storybook/src/commands/storybook.ts&#45;&gt;packages/cli&#45;packages/storybook/src/types.ts</title>
<path fill="none" stroke="#000000" stroke-width="2" stroke-opacity="0.200000" d="M199.57,-321.09C206.81,-323.1 214.52,-325.11 221.75,-326.74 268.23,-337.25 322.41,-346.05 357.84,-351.35"/>
<polygon fill="#000000" fill-opacity="0.200000" stroke="#000000" stroke-width="2" stroke-opacity="0.200000" points="358.18,-353.82 364.42,-352.62 358.8,-349.66 358.18,-353.82"/>
</g>
<!-- packages/cli&#45;packages/storybook/src/commands/storybookHandler.ts -->
<g id="node15" class="node">
<title>packages/cli&#45;packages/storybook/src/commands/storybookHandler.ts</title>
<g id="a_node15"><a xlink:href="packages/cli-packages/storybook/src/commands/storybookHandler.ts" xlink:title="storybookHandler.ts">
<path fill="#ddfeff" stroke="black" d="M331.58,-320.62C331.58,-320.62 227.67,-320.62 227.67,-320.62 224.71,-320.62 221.75,-317.66 221.75,-314.7 221.75,-314.7 221.75,-308.78 221.75,-308.78 221.75,-305.82 224.71,-302.87 227.67,-302.87 227.67,-302.87 331.58,-302.87 331.58,-302.87 334.54,-302.87 337.5,-305.82 337.5,-308.78 337.5,-308.78 337.5,-314.7 337.5,-314.7 337.5,-317.66 334.54,-320.62 331.58,-320.62"/>
<text text-anchor="start" x="229.75" y="-309.07" font-family="Helvetica,sans-Serif" font-size="9.00">storybookHandler.ts </text>
<text text-anchor="start" x="313.75" y="-309.07" font-family="Helvetica,sans-Serif" font-size="8.00" fill="#808080">86%</text>
</a>
</g>
</g>
<!-- packages/cli&#45;packages/storybook/src/commands/storybook.ts&#45;&gt;packages/cli&#45;packages/storybook/src/commands/storybookHandler.ts -->
<g id="edge3" class="edge">
<title>packages/cli&#45;packages/storybook/src/commands/storybook.ts&#45;&gt;packages/cli&#45;packages/storybook/src/commands/storybookHandler.ts</title>
<path fill="none" stroke="#000000" stroke-width="2" stroke-dasharray="5,2" stroke-opacity="0.200000" d="M209.11,-311.74C210.25,-311.74 211.4,-311.74 212.55,-311.74"/>
<polygon fill="#000000" fill-opacity="0.200000" stroke="#000000" stroke-width="2" stroke-opacity="0.200000" points="212.5,-313.84 218.5,-311.74 212.5,-309.64 212.5,-313.84"/>
</g>
<!-- packages/cli&#45;packages/storybook/src/lib/colors.ts&#45;&gt;node_modules/chalk -->
<g id="edge13" class="edge">
<title>packages/cli&#45;packages/storybook/src/lib/colors.ts&#45;&gt;node_modules/chalk</title>
<path fill="none" stroke="#000000" stroke-opacity="0.200000" d="M523.2,-302.42C546.25,-300.81 576.83,-298.67 599.89,-297.06"/>
<polygon fill="#000000" fill-opacity="0.200000" stroke="#000000" stroke-opacity="0.200000" points="599.95,-299.09 605.79,-296.58 599.66,-294.9 599.95,-299.09"/>
</g>
<!-- packages/cli&#45;packages/storybook/src/commands/storybookHandler.ts&#45;&gt;@redwoodjs/telemetry -->
<g id="edge9" class="edge">
<title>packages/cli&#45;packages/storybook/src/commands/storybookHandler.ts&#45;&gt;@redwoodjs/telemetry</title>
<g id="a_edge9"><a xlink:title="not&#45;to&#45;unresolvable">
<path fill="none" stroke="red" stroke-width="2" d="M282.73,-302.7C289.52,-274.86 312.77,-188.72 353.5,-128.74 359.89,-119.33 368.85,-110.46 376.89,-103.48"/>
<polygon fill="red" stroke="red" stroke-width="2" points="378.08,-104.55 381.34,-99.09 375.39,-101.32 378.08,-104.55"/>
</a>
</g>
<text text-anchor="middle" x="278.92" y="-185.49" font-family="Helvetica,sans-Serif" font-size="9.00" fill="red">not&#45;to&#45;unresolvable</text>
</g>
<!-- packages/cli&#45;packages/storybook/src/commands/storybookHandler.ts&#45;&gt;node_modules/execa -->
<g id="edge10" class="edge">
<title>packages/cli&#45;packages/storybook/src/commands/storybookHandler.ts&#45;&gt;node_modules/execa</title>
<path fill="none" stroke="#000000" stroke-opacity="0.200000" d="M286.35,-302.63C304.83,-273.94 366.08,-184.79 440.25,-139.74 490.66,-109.13 559.34,-96.67 599.68,-91.77"/>
<polygon fill="#000000" fill-opacity="0.200000" stroke="#000000" stroke-opacity="0.200000" points="599.92,-93.74 605.64,-90.96 599.43,-89.57 599.92,-93.74"/>
</g>
<!-- packages/cli&#45;packages/storybook/src/commands/storybookHandler.ts&#45;&gt;packages/cli&#45;packages/storybook/src/lib/colors.ts -->
<g id="edge6" class="edge">
<title>packages/cli&#45;packages/storybook/src/commands/storybookHandler.ts&#45;&gt;packages/cli&#45;packages/storybook/src/lib/colors.ts</title>
<path fill="none" stroke="#000000" stroke-width="2" stroke-opacity="0.200000" d="M337.7,-319.69C366.2,-322.41 401.15,-323.85 432.25,-319.74 438.19,-318.96 444.4,-317.72 450.42,-316.28"/>
<polygon fill="#000000" fill-opacity="0.200000" stroke="#000000" stroke-width="2" stroke-opacity="0.200000" points="451.78,-317.59 457.07,-314.07 450.74,-313.52 451.78,-317.59"/>
</g>
<!-- packages/cli&#45;packages/storybook/src/commands/storybookHandler.ts&#45;&gt;packages/cli&#45;packages/storybook/src/types.ts -->
<g id="edge8" class="edge">
<title>packages/cli&#45;packages/storybook/src/commands/storybookHandler.ts&#45;&gt;packages/cli&#45;packages/storybook/src/types.ts</title>
<path fill="none" stroke="#000000" stroke-width="2" stroke-opacity="0.200000" d="M337.98,-319.85C340.64,-321.25 343.17,-322.87 345.5,-324.74 352.33,-330.21 347.01,-336.86 353.5,-342.74 354.99,-344.09 356.62,-345.31 358.34,-346.42"/>
<polygon fill="#000000" fill-opacity="0.200000" stroke="#000000" stroke-width="2" stroke-opacity="0.200000" points="358.03,-348.66 364.32,-349.54 359.96,-344.92 358.03,-348.66"/>
</g>
<!-- packages/cli&#45;packages/storybook/src/lib/project.ts -->
<g id="node16" class="node">
<title>packages/cli&#45;packages/storybook/src/lib/project.ts</title>
<g id="a_node16"><a xlink:href="packages/cli-packages/storybook/src/lib/project.ts" xlink:title="project.ts">
<path fill="#ddfeff" stroke="black" d="M426.33,-313.62C426.33,-313.62 367.42,-313.62 367.42,-313.62 364.46,-313.62 361.5,-310.66 361.5,-307.7 361.5,-307.7 361.5,-301.78 361.5,-301.78 361.5,-298.82 364.46,-295.87 367.42,-295.87 367.42,-295.87 426.33,-295.87 426.33,-295.87 429.29,-295.87 432.25,-298.82 432.25,-301.78 432.25,-301.78 432.25,-307.7 432.25,-307.7 432.25,-310.66 429.29,-313.62 426.33,-313.62"/>
<text text-anchor="start" x="369.5" y="-302.07" font-family="Helvetica,sans-Serif" font-size="9.00">project.ts </text>
<text text-anchor="start" x="408.5" y="-302.07" font-family="Helvetica,sans-Serif" font-size="8.00" fill="#808080">75%</text>
</a>
</g>
</g>
<!-- packages/cli&#45;packages/storybook/src/commands/storybookHandler.ts&#45;&gt;packages/cli&#45;packages/storybook/src/lib/project.ts -->
<g id="edge7" class="edge">
<title>packages/cli&#45;packages/storybook/src/commands/storybookHandler.ts&#45;&gt;packages/cli&#45;packages/storybook/src/lib/project.ts</title>
<path fill="none" stroke="#000000" stroke-width="2" stroke-opacity="0.200000" d="M337.91,-308.26C342.73,-307.97 347.55,-307.68 352.25,-307.39"/>
<polygon fill="#000000" fill-opacity="0.200000" stroke="#000000" stroke-width="2" stroke-opacity="0.200000" points="352.21,-309.31 358.07,-306.85 351.95,-305.12 352.21,-309.31"/>
</g>
<!-- path -->
<g id="node17" class="node">
<title>path</title>
<g id="a_node17"><a xlink:title="path">
<path fill="#ffffcc" stroke="grey" d="M655.21,-396.62C655.21,-396.62 613.04,-396.62 613.04,-396.62 610.08,-396.62 607.12,-393.66 607.12,-390.7 607.12,-390.7 607.12,-384.78 607.12,-384.78 607.12,-381.82 610.08,-378.87 613.04,-378.87 613.04,-378.87 655.21,-378.87 655.21,-378.87 658.17,-378.87 661.12,-381.82 661.12,-384.78 661.12,-384.78 661.12,-390.7 661.12,-390.7 661.12,-393.66 658.17,-396.62 655.21,-396.62"/>
<text text-anchor="middle" x="634.12" y="-384.07" font-family="Helvetica,sans-Serif" font-size="9.00" fill="grey">path</text>
</a>
</g>
</g>
<!-- packages/cli&#45;packages/storybook/src/commands/storybookHandler.ts&#45;&gt;path -->
<g id="edge11" class="edge">
<title>packages/cli&#45;packages/storybook/src/commands/storybookHandler.ts&#45;&gt;path</title>
<path fill="none" stroke="#000000" stroke-dasharray="5,2" stroke-opacity="0.200000" d="M285.96,-321.03C296.37,-338.11 321.22,-373.97 353.5,-387.74 436.36,-423.09 546.02,-407.19 600.09,-395.77"/>
<polygon fill="#000000" fill-opacity="0.200000" stroke="#000000" stroke-opacity="0.200000" points="600.29,-397.65 605.71,-394.33 599.4,-393.55 600.29,-397.65"/>
</g>
<!-- packages/cli&#45;packages/storybook/src/lib/project.ts&#45;&gt;node_modules/lodash.memoize -->
<g id="edge16" class="edge">
<title>packages/cli&#45;packages/storybook/src/lib/project.ts&#45;&gt;node_modules/lodash.memoize</title>
<path fill="none" stroke="#000000" stroke-opacity="0.200000" d="M398.08,-295.7C399.11,-272.22 405.16,-208.8 440.25,-174.74 481,-135.17 512.09,-164.19 562.88,-138.74 566.85,-136.75 566.84,-134.6 570.88,-132.74 575.54,-130.59 580.56,-128.75 585.66,-127.2"/>
<polygon fill="#000000" fill-opacity="0.200000" stroke="#000000" stroke-opacity="0.200000" points="585.92,-129.02 591.12,-125.37 584.78,-124.98 585.92,-129.02"/>
</g>
<!-- packages/cli&#45;packages/storybook/src/lib/project.ts&#45;&gt;packages/cli&#45;packages/storybook/src/lib/colors.ts -->
<g id="edge14" class="edge">
<title>packages/cli&#45;packages/storybook/src/lib/project.ts&#45;&gt;packages/cli&#45;packages/storybook/src/lib/colors.ts</title>
<path fill="none" stroke="#000000" stroke-width="2" stroke-opacity="0.200000" d="M432.72,-304.74C437.01,-304.74 441.44,-304.74 445.83,-304.74"/>
<polygon fill="#000000" fill-opacity="0.200000" stroke="#000000" stroke-width="2" stroke-opacity="0.200000" points="445.73,-306.84 451.73,-304.74 445.73,-302.64 445.73,-306.84"/>
</g>
<!-- packages/project&#45;config/dist/index.js -->
<g id="node19" class="node">
<title>packages/project&#45;config/dist/index.js</title>
<g id="a_node19"><a xlink:href="packages/project-config/dist/index.js" xlink:title="index.js">
<path fill="#ffffcc" stroke="black" d="M515.83,-203.62C515.83,-203.62 462.17,-203.62 462.17,-203.62 459.21,-203.62 456.25,-200.66 456.25,-197.7 456.25,-197.7 456.25,-191.78 456.25,-191.78 456.25,-188.82 459.21,-185.87 462.17,-185.87 462.17,-185.87 515.83,-185.87 515.83,-185.87 518.79,-185.87 521.75,-188.82 521.75,-191.78 521.75,-191.78 521.75,-197.7 521.75,-197.7 521.75,-200.66 518.79,-203.62 515.83,-203.62"/>
<text text-anchor="start" x="464.25" y="-192.07" font-family="Helvetica,sans-Serif" font-size="9.00">index.js </text>
<text text-anchor="start" x="498" y="-192.07" font-family="Helvetica,sans-Serif" font-size="8.00" fill="#808080">86%</text>
</a>
</g>
</g>
<!-- packages/cli&#45;packages/storybook/src/lib/project.ts&#45;&gt;packages/project&#45;config/dist/index.js -->
<g id="edge15" class="edge">
<title>packages/cli&#45;packages/storybook/src/lib/project.ts&#45;&gt;packages/project&#45;config/dist/index.js</title>
<path fill="none" stroke="#000000" stroke-opacity="0.200000" d="M405.25,-295.74C420.83,-276.72 457.21,-232.32 476.12,-209.25"/>
<polygon fill="#000000" fill-opacity="0.200000" stroke="#000000" stroke-opacity="0.200000" points="478.34,-210.84 480.52,-204.87 475.1,-208.18 478.34,-210.84"/>
</g>
<!-- packages/cli&#45;packages/storybook/src/index.ts -->
<g id="node18" class="node">
<title>packages/cli&#45;packages/storybook/src/index.ts</title>
<g id="a_node18"><a xlink:href="packages/cli-packages/storybook/src/index.ts" xlink:title="index.ts">
<path fill="#ddfeff" stroke="black" d="M104.08,-320.62C104.08,-320.62 45.92,-320.62 45.92,-320.62 42.96,-320.62 40,-317.66 40,-314.7 40,-314.7 40,-308.78 40,-308.78 40,-305.82 42.96,-302.87 45.92,-302.87 45.92,-302.87 104.08,-302.87 104.08,-302.87 107.04,-302.87 110,-305.82 110,-308.78 110,-308.78 110,-314.7 110,-314.7 110,-317.66 107.04,-320.62 104.08,-320.62"/>
<text text-anchor="start" x="48" y="-309.07" font-family="Helvetica,sans-Serif" font-size="9.00">index.ts </text>
<text text-anchor="start" x="81.75" y="-309.07" font-family="Helvetica,sans-Serif" font-size="8.00" fill="#808080">100%</text>
</a>
</g>
</g>
<!-- packages/cli&#45;packages/storybook/src/index.ts&#45;&gt;packages/cli&#45;packages/storybook/src/commands/storybook.ts -->
<g id="edge12" class="edge">
<title>packages/cli&#45;packages/storybook/src/index.ts&#45;&gt;packages/cli&#45;packages/storybook/src/commands/storybook.ts</title>
<path fill="none" stroke="#000000" stroke-width="2" stroke-opacity="0.200000" d="M110.42,-311.74C112.61,-311.74 114.83,-311.74 117.06,-311.74"/>
<polygon fill="#000000" fill-opacity="0.200000" stroke="#000000" stroke-width="2" stroke-opacity="0.200000" points="116.68,-313.84 122.68,-311.74 116.68,-309.64 116.68,-313.84"/>
</g>
<!-- packages/project&#45;config/dist/index.js&#45;&gt;fs -->
<g id="edge20" class="edge">
<title>packages/project&#45;config/dist/index.js&#45;&gt;fs</title>
<path fill="none" stroke="#000000" stroke-dasharray="5,2" stroke-opacity="0.200000" d="M500.45,-204.09C516.69,-219.27 547.69,-251.01 562.88,-284.74 571.75,-304.46 556.02,-317.02 570.88,-332.74 578.37,-340.66 589.3,-344.56 599.92,-346.36"/>
<polygon fill="#000000" fill-opacity="0.200000" stroke="#000000" stroke-opacity="0.200000" points="599.6,-348.57 605.82,-347.26 600.14,-344.4 599.6,-348.57"/>
</g>
<!-- packages/project&#45;config/dist/index.js&#45;&gt;node_modules/@iarna/toml -->
<g id="edge17" class="edge">
<title>packages/project&#45;config/dist/index.js&#45;&gt;node_modules/@iarna/toml</title>
<path fill="none" stroke="#000000" stroke-opacity="0.200000" d="M513.43,-185.37C529.43,-179.21 551.21,-171.29 570.88,-165.74 580.28,-163.09 590.62,-160.71 600.13,-158.74"/>
<polygon fill="#000000" fill-opacity="0.200000" stroke="#000000" stroke-opacity="0.200000" points="600.42,-160.63 605.88,-157.38 599.59,-156.51 600.42,-160.63"/>
</g>
<!-- packages/project&#45;config/dist/index.js&#45;&gt;node_modules/deepmerge -->
<g id="edge18" class="edge">
<title>packages/project&#45;config/dist/index.js&#45;&gt;node_modules/deepmerge</title>
<path fill="none" stroke="#000000" stroke-opacity="0.200000" d="M518.69,-204.09C534.09,-208.99 553.44,-214.95 570.88,-219.74 578.83,-221.93 587.41,-224.11 595.57,-226.1"/>
<polygon fill="#000000" fill-opacity="0.200000" stroke="#000000" stroke-opacity="0.200000" points="594.99,-228.36 601.31,-227.72 595.97,-224.28 594.99,-228.36"/>
</g>
<!-- packages/project&#45;config/dist/index.js&#45;&gt;node_modules/fast&#45;glob -->
<g id="edge19" class="edge">
<title>packages/project&#45;config/dist/index.js&#45;&gt;node_modules/fast&#45;glob</title>
<path fill="none" stroke="#000000" stroke-opacity="0.200000" d="M522.12,-196.98C545.37,-198.61 576.71,-200.8 600.16,-202.44"/>
<polygon fill="#000000" fill-opacity="0.200000" stroke="#000000" stroke-opacity="0.200000" points="599.72,-204.58 605.85,-202.91 600.02,-200.39 599.72,-204.58"/>
</g>
<!-- packages/project&#45;config/dist/index.js&#45;&gt;node_modules/string&#45;env&#45;interpolation -->
<g id="edge22" class="edge">
<title>packages/project&#45;config/dist/index.js&#45;&gt;node_modules/string&#45;env&#45;interpolation</title>
<path fill="none" stroke="#000000" stroke-opacity="0.200000" d="M500.75,-203.95C515.57,-216.18 543.55,-237.64 570.88,-249.74 573.77,-251.02 576.8,-252.21 579.88,-253.3"/>
<polygon fill="#000000" fill-opacity="0.200000" stroke="#000000" stroke-opacity="0.200000" points="578.93,-255.52 585.28,-255.4 580.24,-251.53 578.93,-255.52"/>
</g>
<!-- packages/project&#45;config/dist/index.js&#45;&gt;path -->
<g id="edge21" class="edge">
<title>packages/project&#45;config/dist/index.js&#45;&gt;path</title>
<path fill="none" stroke="#000000" stroke-dasharray="5,2" stroke-opacity="0.200000" d="M500.7,-203.98C517.28,-219.02 548.74,-250.55 562.88,-284.74 569.45,-300.64 560.61,-347.94 570.88,-361.74 578,-371.33 589.33,-377.4 600.38,-381.24"/>
<polygon fill="#000000" fill-opacity="0.200000" stroke="#000000" stroke-opacity="0.200000" points="599.47,-383.47 605.82,-383.25 600.72,-379.46 599.47,-383.47"/>
</g>
</g>
</svg>
