<?xml version="1.0" encoding="UTF-8" standalone="no"?>
<!DOCTYPE svg PUBLIC "-//W3C//DTD SVG 1.1//EN"
 "http://www.w3.org/Graphics/SVG/1.1/DTD/svg11.dtd">
<!-- Generated by graphviz version 8.0.5 (20230430.1635)
 -->
<!-- Title: dependency&#45;cruiser output Pages: 1 -->
<svg width="837pt" height="473pt"
 viewBox="0.00 0.00 836.62 473.49" xmlns="http://www.w3.org/2000/svg" xmlns:xlink="http://www.w3.org/1999/xlink">
<g id="graph0" class="graph" transform="scale(1 1) rotate(0) translate(4 469.49)">
<title>dependency&#45;cruiser output</title>
<polygon fill="white" stroke="none" points="-4,4 -4,-469.49 832.62,-469.49 832.62,4 -4,4"/>
<g id="clust1" class="cluster">
<title>cluster_node_modules</title>
<path fill="#ffffff" stroke="black" stroke-width="2" d="M706.12,-8C706.12,-8 808.62,-8 808.62,-8 814.62,-8 820.62,-14 820.62,-20 820.62,-20 820.62,-340 820.62,-340 820.62,-346 814.62,-352 808.62,-352 808.62,-352 706.12,-352 706.12,-352 700.12,-352 694.12,-346 694.12,-340 694.12,-340 694.12,-20 694.12,-20 694.12,-14 700.12,-8 706.12,-8"/>
<text text-anchor="middle" x="757.38" y="-339.45" font-family="Helvetica,sans-Serif" font-weight="bold" font-size="9.00">node_modules</text>
</g>
<g id="clust2" class="cluster">
<title>cluster_node_modules/@babel</title>
<path fill="#ffffff" stroke="black" stroke-width="2" d="M721.5,-132C721.5,-132 793.25,-132 793.25,-132 799.25,-132 805.25,-138 805.25,-144 805.25,-144 805.25,-172 805.25,-172 805.25,-178 799.25,-184 793.25,-184 793.25,-184 721.5,-184 721.5,-184 715.5,-184 709.5,-178 709.5,-172 709.5,-172 709.5,-144 709.5,-144 709.5,-138 715.5,-132 721.5,-132"/>
<text text-anchor="middle" x="757.38" y="-171.45" font-family="Helvetica,sans-Serif" font-weight="bold" font-size="9.00">@babel</text>
</g>
<g id="clust3" class="cluster">
<title>cluster_node_modules/@iarna</title>
<path fill="#ffffff" stroke="black" stroke-width="2" d="M734.38,-248C734.38,-248 780.38,-248 780.38,-248 786.38,-248 792.38,-254 792.38,-260 792.38,-260 792.38,-288 792.38,-288 792.38,-294 786.38,-300 780.38,-300 780.38,-300 734.38,-300 734.38,-300 728.38,-300 722.38,-294 722.38,-288 722.38,-288 722.38,-260 722.38,-260 722.38,-254 728.38,-248 734.38,-248"/>
<text text-anchor="middle" x="757.38" y="-287.45" font-family="Helvetica,sans-Serif" font-weight="bold" font-size="9.00">@iarna</text>
</g>
<g id="clust4" class="cluster">
<title>cluster_packages</title>
<path fill="#ffffff" stroke="black" stroke-width="2" d="M20,-60C20,-60 674.12,-60 674.12,-60 680.12,-60 686.12,-66 686.12,-72 686.12,-72 686.12,-356 686.12,-356 686.12,-362 680.12,-368 674.12,-368 674.12,-368 20,-368 20,-368 14,-368 8,-362 8,-356 8,-356 8,-72 8,-72 8,-66 14,-60 20,-60"/>
<text text-anchor="middle" x="347.06" y="-355.45" font-family="Helvetica,sans-Serif" font-weight="bold" font-size="9.00">packages</text>
</g>
<g id="clust5" class="cluster">
<title>cluster_packages/cli&#45;packages</title>
<path fill="#ffffff" stroke="black" stroke-width="2" d="M28,-68C28,-68 456.12,-68 456.12,-68 462.12,-68 468.12,-74 468.12,-80 468.12,-80 468.12,-236 468.12,-236 468.12,-242 462.12,-248 456.12,-248 456.12,-248 28,-248 28,-248 22,-248 16,-242 16,-236 16,-236 16,-80 16,-80 16,-74 22,-68 28,-68"/>
<text text-anchor="middle" x="242.06" y="-235.45" font-family="Helvetica,sans-Serif" font-weight="bold" font-size="9.00">cli&#45;packages</text>
</g>
<g id="clust6" class="cluster">
<title>cluster_packages/cli&#45;packages/storybook</title>
<path fill="#ffffff" stroke="black" stroke-width="2" d="M36,-76C36,-76 448.12,-76 448.12,-76 454.12,-76 460.12,-82 460.12,-88 460.12,-88 460.12,-210 460.12,-210 460.12,-216 454.12,-222 448.12,-222 448.12,-222 36,-222 36,-222 30,-222 24,-216 24,-210 24,-210 24,-88 24,-88 24,-82 30,-76 36,-76"/>
<text text-anchor="middle" x="242.06" y="-209.45" font-family="Helvetica,sans-Serif" font-weight="bold" font-size="9.00">storybook</text>
</g>
<g id="clust7" class="cluster">
<title>cluster_packages/cli&#45;packages/storybook/src</title>
<path fill="#ffffff" stroke="black" stroke-width="2" d="M44,-84C44,-84 440.12,-84 440.12,-84 446.12,-84 452.12,-90 452.12,-96 452.12,-96 452.12,-184 452.12,-184 452.12,-190 446.12,-196 440.12,-196 440.12,-196 44,-196 44,-196 38,-196 32,-190 32,-184 32,-184 32,-96 32,-96 32,-90 38,-84 44,-84"/>
<text text-anchor="middle" x="242.06" y="-183.45" font-family="Helvetica,sans-Serif" font-weight="bold" font-size="9.00">src</text>
</g>
<g id="clust8" class="cluster">
<title>cluster_packages/cli&#45;packages/storybook/src/commands</title>
<path fill="#ffffff" stroke="black" stroke-width="2" d="M130,-118C130,-118 333.5,-118 333.5,-118 339.5,-118 345.5,-124 345.5,-130 345.5,-130 345.5,-158 345.5,-158 345.5,-164 339.5,-170 333.5,-170 333.5,-170 130,-170 130,-170 124,-170 118,-164 118,-158 118,-158 118,-130 118,-130 118,-124 124,-118 130,-118"/>
<text text-anchor="middle" x="231.75" y="-157.45" font-family="Helvetica,sans-Serif" font-weight="bold" font-size="9.00">commands</text>
</g>
<g id="clust9" class="cluster">
<title>cluster_packages/cli&#45;packages/storybook/src/lib</title>
<path fill="#ffffff" stroke="black" stroke-width="2" d="M372.38,-92C372.38,-92 432.12,-92 432.12,-92 438.12,-92 444.12,-98 444.12,-104 444.12,-104 444.12,-132 444.12,-132 444.12,-138 438.12,-144 432.12,-144 432.12,-144 372.38,-144 372.38,-144 366.38,-144 360.38,-138 360.38,-132 360.38,-132 360.38,-104 360.38,-104 360.38,-98 366.38,-92 372.38,-92"/>
<text text-anchor="middle" x="402.25" y="-131.45" font-family="Helvetica,sans-Serif" font-weight="bold" font-size="9.00">lib</text>
</g>
<g id="clust10" class="cluster">
<title>cluster_packages/project&#45;config</title>
<path fill="#ffffff" stroke="black" stroke-width="2" d="M592.62,-248C592.62,-248 666.12,-248 666.12,-248 672.12,-248 678.12,-254 678.12,-260 678.12,-260 678.12,-322 678.12,-322 678.12,-328 672.12,-334 666.12,-334 666.12,-334 592.62,-334 592.62,-334 586.62,-334 580.62,-328 580.62,-322 580.62,-322 580.62,-260 580.62,-260 580.62,-254 586.62,-248 592.62,-248"/>
<text text-anchor="middle" x="629.38" y="-321.45" font-family="Helvetica,sans-Serif" font-weight="bold" font-size="9.00">project&#45;config</text>
</g>
<g id="clust11" class="cluster">
<title>cluster_packages/project&#45;config/dist</title>
<path fill="#ffffff" stroke="black" stroke-width="2" d="M600.62,-256C600.62,-256 658.12,-256 658.12,-256 664.12,-256 670.12,-262 670.12,-268 670.12,-268 670.12,-296 670.12,-296 670.12,-302 664.12,-308 658.12,-308 658.12,-308 600.62,-308 600.62,-308 594.62,-308 588.62,-302 588.62,-296 588.62,-296 588.62,-268 588.62,-268 588.62,-262 594.62,-256 600.62,-256"/>
<text text-anchor="middle" x="629.38" y="-295.45" font-family="Helvetica,sans-Serif" font-weight="bold" font-size="9.00">dist</text>
</g>
<g id="clust12" class="cluster">
<title>cluster_packages/telemetry</title>
<path fill="#ffffff" stroke="black" stroke-width="2" d="M365.5,-256C365.5,-256 560.62,-256 560.62,-256 566.62,-256 572.62,-262 572.62,-268 572.62,-268 572.62,-330 572.62,-330 572.62,-336 566.62,-342 560.62,-342 560.62,-342 365.5,-342 365.5,-342 359.5,-342 353.5,-336 353.5,-330 353.5,-330 353.5,-268 353.5,-268 353.5,-262 359.5,-256 365.5,-256"/>
<text text-anchor="middle" x="463.06" y="-329.45" font-family="Helvetica,sans-Serif" font-weight="bold" font-size="9.00">telemetry</text>
</g>
<g id="clust13" class="cluster">
<title>cluster_packages/telemetry/dist</title>
<path fill="#ffffff" stroke="black" stroke-width="2" d="M373.5,-264C373.5,-264 552.62,-264 552.62,-264 558.62,-264 564.62,-270 564.62,-276 564.62,-276 564.62,-304 564.62,-304 564.62,-310 558.62,-316 552.62,-316 552.62,-316 373.5,-316 373.5,-316 367.5,-316 361.5,-310 361.5,-304 361.5,-304 361.5,-276 361.5,-276 361.5,-270 367.5,-264 373.5,-264"/>
<text text-anchor="middle" x="463.06" y="-303.45" font-family="Helvetica,sans-Serif" font-weight="bold" font-size="9.00">dist</text>
</g>
<!-- child_process -->
<g id="node1" class="node">
<title>child_process</title>
<g id="a_node1"><a xlink:title="child_process">
<path fill="#ffffcc" stroke="grey" d="M659.96,-393.88C659.96,-393.88 598.79,-393.88 598.79,-393.88 595.83,-393.88 592.88,-390.92 592.88,-387.96 592.88,-387.96 592.88,-382.04 592.88,-382.04 592.88,-379.08 595.83,-376.12 598.79,-376.12 598.79,-376.12 659.96,-376.12 659.96,-376.12 662.92,-376.12 665.88,-379.08 665.88,-382.04 665.88,-382.04 665.88,-387.96 665.88,-387.96 665.88,-390.92 662.92,-393.88 659.96,-393.88"/>
<text text-anchor="middle" x="629.38" y="-381.32" font-family="Helvetica,sans-Serif" font-size="9.00" fill="grey">child_process</text>
</a>
</g>
</g>
<!-- fs -->
<g id="node2" class="node">
<title>fs</title>
<g id="a_node2"><a xlink:title="fs">
<path fill="#ffffcc" stroke="grey" d="M778.46,-377.88C778.46,-377.88 736.29,-377.88 736.29,-377.88 733.33,-377.88 730.38,-374.92 730.38,-371.96 730.38,-371.96 730.38,-366.04 730.38,-366.04 730.38,-363.08 733.33,-360.12 736.29,-360.12 736.29,-360.12 778.46,-360.12 778.46,-360.12 781.42,-360.12 784.38,-363.08 784.38,-366.04 784.38,-366.04 784.38,-371.96 784.38,-371.96 784.38,-374.92 781.42,-377.88 778.46,-377.88"/>
<text text-anchor="middle" x="757.38" y="-365.32" font-family="Helvetica,sans-Serif" font-size="9.00" fill="grey">fs</text>
</a>
</g>
</g>
<!-- node_modules/@babel/runtime&#45;corejs3 -->
<g id="node3" class="node">
<title>node_modules/@babel/runtime&#45;corejs3</title>
<g id="a_node3"><a xlink:href="node_modules/@babel/runtime-corejs3" xlink:title="runtime&#45;corejs3">
<polygon fill="#c40b0a" fill-opacity="0.101961" stroke="black" points="797.25,-157.88 719.47,-157.88 717.5,-155.9 717.5,-140.12 795.28,-140.12 797.25,-142.1 797.25,-157.88"/>
<polyline fill="none" stroke="black" points="795.28,-155.9 717.5,-155.9"/>
<polyline fill="none" stroke="black" points="795.28,-155.9 795.28,-140.12"/>
<polyline fill="none" stroke="black" points="795.28,-155.9 797.25,-157.88"/>
<text text-anchor="start" x="725.5" y="-145.32" font-family="Helvetica,sans-Serif" font-size="9.00" fill="#c40b0a">runtime&#45;corejs3</text>
</a>
</g>
</g>
<!-- node_modules/@iarna/toml -->
<g id="node4" class="node">
<title>node_modules/@iarna/toml</title>
<g id="a_node4"><a xlink:href="node_modules/@iarna/toml" xlink:title="toml">
<polygon fill="#c40b0a" fill-opacity="0.101961" stroke="black" points="784.38,-273.88 732.35,-273.88 730.38,-271.9 730.38,-256.12 782.4,-256.12 784.38,-258.1 784.38,-273.88"/>
<polyline fill="none" stroke="black" points="782.4,-271.9 730.38,-271.9"/>
<polyline fill="none" stroke="black" points="782.4,-271.9 782.4,-256.12"/>
<polyline fill="none" stroke="black" points="782.4,-271.9 784.38,-273.88"/>
<text text-anchor="start" x="748.75" y="-261.32" font-family="Helvetica,sans-Serif" font-size="9.00" fill="#c40b0a">toml</text>
</a>
</g>
</g>
<!-- node_modules/chalk -->
<g id="node5" class="node">
<title>node_modules/chalk</title>
<g id="a_node5"><a xlink:href="node_modules/chalk" xlink:title="chalk">
<polygon fill="#c40b0a" fill-opacity="0.101961" stroke="black" points="784.38,-123.88 732.35,-123.88 730.38,-121.9 730.38,-106.12 782.4,-106.12 784.38,-108.1 784.38,-123.88"/>
<polyline fill="none" stroke="black" points="782.4,-121.9 730.38,-121.9"/>
<polyline fill="none" stroke="black" points="782.4,-121.9 782.4,-106.12"/>
<polyline fill="none" stroke="black" points="782.4,-121.9 784.38,-123.88"/>
<text text-anchor="start" x="746.5" y="-111.33" font-family="Helvetica,sans-Serif" font-size="9.00" fill="#c40b0a">chalk</text>
</a>
</g>
</g>
<!-- node_modules/deepmerge -->
<g id="node6" class="node">
<title>node_modules/deepmerge</title>
<g id="a_node6"><a xlink:href="node_modules/deepmerge" xlink:title="deepmerge">
<polygon fill="#c40b0a" fill-opacity="0.101961" stroke="black" points="789,-239.88 727.72,-239.88 725.75,-237.9 725.75,-222.12 787.03,-222.12 789,-224.1 789,-239.88"/>
<polyline fill="none" stroke="black" points="787.03,-237.9 725.75,-237.9"/>
<polyline fill="none" stroke="black" points="787.03,-237.9 787.03,-222.12"/>
<polyline fill="none" stroke="black" points="787.03,-237.9 789,-239.88"/>
<text text-anchor="start" x="733.75" y="-227.32" font-family="Helvetica,sans-Serif" font-size="9.00" fill="#c40b0a">deepmerge</text>
</a>
</g>
</g>
<!-- node_modules/execa -->
<g id="node7" class="node">
<title>node_modules/execa</title>
<g id="a_node7"><a xlink:href="node_modules/execa" xlink:title="execa">
<polygon fill="#c40b0a" fill-opacity="0.101961" stroke="black" points="784.38,-93.88 732.35,-93.88 730.38,-91.9 730.38,-76.12 782.4,-76.12 784.38,-78.1 784.38,-93.88"/>
<polyline fill="none" stroke="black" points="782.4,-91.9 730.38,-91.9"/>
<polyline fill="none" stroke="black" points="782.4,-91.9 782.4,-76.12"/>
<polyline fill="none" stroke="black" points="782.4,-91.9 784.38,-93.88"/>
<text text-anchor="start" x="745" y="-81.33" font-family="Helvetica,sans-Serif" font-size="9.00" fill="#c40b0a">execa</text>
</a>
</g>
</g>
<!-- node_modules/fast&#45;glob -->
<g id="node8" class="node">
<title>node_modules/fast&#45;glob</title>
<g id="a_node8"><a xlink:href="node_modules/fast-glob" xlink:title="fast&#45;glob">
<polygon fill="#c40b0a" fill-opacity="0.101961" stroke="black" points="784.38,-209.88 732.35,-209.88 730.38,-207.9 730.38,-192.12 782.4,-192.12 784.38,-194.1 784.38,-209.88"/>
<polyline fill="none" stroke="black" points="782.4,-207.9 730.38,-207.9"/>
<polyline fill="none" stroke="black" points="782.4,-207.9 782.4,-192.12"/>
<polyline fill="none" stroke="black" points="782.4,-207.9 784.38,-209.88"/>
<text text-anchor="start" x="739.75" y="-197.32" font-family="Helvetica,sans-Serif" font-size="9.00" fill="#c40b0a">fast&#45;glob</text>
</a>
</g>
</g>
<!-- node_modules/string&#45;env&#45;interpolation -->
<g id="node9" class="node">
<title>node_modules/string&#45;env&#45;interpolation</title>
<g id="a_node9"><a xlink:href="node_modules/string-env-interpolation" xlink:title="string&#45;env&#45;interpolation">
<polygon fill="#c40b0a" fill-opacity="0.101961" stroke="black" points="812.62,-325.88 704.1,-325.88 702.12,-323.9 702.12,-308.12 810.65,-308.12 812.62,-310.1 812.62,-325.88"/>
<polyline fill="none" stroke="black" points="810.65,-323.9 702.12,-323.9"/>
<polyline fill="none" stroke="black" points="810.65,-323.9 810.65,-308.12"/>
<polyline fill="none" stroke="black" points="810.65,-323.9 812.62,-325.88"/>
<text text-anchor="start" x="710.12" y="-313.32" font-family="Helvetica,sans-Serif" font-size="9.00" fill="#c40b0a">string&#45;env&#45;interpolation</text>
</a>
</g>
</g>
<!-- node_modules/terminal&#45;link -->
<g id="node10" class="node">
<title>node_modules/terminal&#45;link</title>
<g id="a_node10"><a xlink:href="node_modules/terminal-link" xlink:title="terminal&#45;link">
<polygon fill="#c40b0a" fill-opacity="0.101961" stroke="black" points="790.5,-63.88 726.22,-63.88 724.25,-61.9 724.25,-46.12 788.53,-46.12 790.5,-48.1 790.5,-63.88"/>
<polyline fill="none" stroke="black" points="788.53,-61.9 724.25,-61.9"/>
<polyline fill="none" stroke="black" points="788.53,-61.9 788.53,-46.12"/>
<polyline fill="none" stroke="black" points="788.53,-61.9 790.5,-63.88"/>
<text text-anchor="start" x="732.25" y="-51.33" font-family="Helvetica,sans-Serif" font-size="9.00" fill="#c40b0a">terminal&#45;link</text>
</a>
</g>
</g>
<!-- node_modules/yargs -->
<g id="node11" class="node">
<title>node_modules/yargs</title>
<g id="a_node11"><a xlink:href="node_modules/yargs" xlink:title="yargs">
<polygon fill="#c40b0a" fill-opacity="0.101961" stroke="black" points="784.38,-33.88 732.35,-33.88 730.38,-31.9 730.38,-16.12 782.4,-16.12 784.38,-18.1 784.38,-33.88"/>
<polyline fill="none" stroke="black" points="782.4,-31.9 730.38,-31.9"/>
<polyline fill="none" stroke="black" points="782.4,-31.9 782.4,-16.12"/>
<polyline fill="none" stroke="black" points="782.4,-31.9 784.38,-33.88"/>
<text text-anchor="start" x="746.12" y="-21.32" font-family="Helvetica,sans-Serif" font-size="9.00" fill="#c40b0a">yargs</text>
</a>
</g>
</g>
<!-- os -->
<g id="node12" class="node">
<title>os</title>
<g id="a_node12"><a xlink:title="os">
<path fill="#ffffcc" stroke="grey" d="M650.46,-449.88C650.46,-449.88 608.29,-449.88 608.29,-449.88 605.33,-449.88 602.38,-446.92 602.38,-443.96 602.38,-443.96 602.38,-438.04 602.38,-438.04 602.38,-435.08 605.33,-432.12 608.29,-432.12 608.29,-432.12 650.46,-432.12 650.46,-432.12 653.42,-432.12 656.38,-435.08 656.38,-438.04 656.38,-438.04 656.38,-443.96 656.38,-443.96 656.38,-446.92 653.42,-449.88 650.46,-449.88"/>
<text text-anchor="middle" x="629.38" y="-437.32" font-family="Helvetica,sans-Serif" font-size="9.00" fill="grey">os</text>
</a>
</g>
</g>
<!-- packages/cli&#45;packages/storybook/src/commands/storybook.ts -->
<g id="node13" class="node">
<title>packages/cli&#45;packages/storybook/src/commands/storybook.ts</title>
<g id="a_node13"><a xlink:href="packages/cli-packages/storybook/src/commands/storybook.ts" xlink:title="storybook.ts">
<path fill="#ddfeff" stroke="black" d="M202.83,-143.88C202.83,-143.88 131.92,-143.88 131.92,-143.88 128.96,-143.88 126,-140.92 126,-137.96 126,-137.96 126,-132.04 126,-132.04 126,-129.08 128.96,-126.12 131.92,-126.12 131.92,-126.12 202.83,-126.12 202.83,-126.12 205.79,-126.12 208.75,-129.08 208.75,-132.04 208.75,-132.04 208.75,-137.96 208.75,-137.96 208.75,-140.92 205.79,-143.88 202.83,-143.88"/>
<text text-anchor="start" x="134" y="-132.32" font-family="Helvetica,sans-Serif" font-size="9.00">storybook.ts </text>
<text text-anchor="start" x="185" y="-132.32" font-family="Helvetica,sans-Serif" font-size="8.00" fill="#808080">83%</text>
</a>
</g>
</g>
<!-- packages/cli&#45;packages/storybook/src/commands/storybook.ts&#45;&gt;node_modules/terminal&#45;link -->
<g id="edge4" class="edge">
<title>packages/cli&#45;packages/storybook/src/commands/storybook.ts&#45;&gt;node_modules/terminal&#45;link</title>
<path fill="none" stroke="#000000" stroke-opacity="0.200000" d="M177.3,-125.63C187.22,-115.77 204.19,-100.51 221.75,-92 295.39,-56.31 319.42,-51 401.25,-51 401.25,-51 401.25,-51 517.38,-51 587.78,-51 669.84,-52.76 717.18,-53.94"/>
<polygon fill="#000000" fill-opacity="0.200000" stroke="#000000" stroke-opacity="0.200000" points="716.85,-56.06 722.91,-54.11 716.96,-51.86 716.85,-56.06"/>
</g>
<!-- packages/cli&#45;packages/storybook/src/commands/storybook.ts&#45;&gt;node_modules/yargs -->
<g id="edge5" class="edge">
<title>packages/cli&#45;packages/storybook/src/commands/storybook.ts&#45;&gt;node_modules/yargs</title>
<path fill="none" stroke="#000000" stroke-opacity="0.200000" d="M171.12,-125.85C177.07,-107.77 192.98,-67.61 221.75,-49 289.33,-5.29 320.76,-25 401.25,-25 401.25,-25 401.25,-25 517.38,-25 590.98,-25 677.34,-25 723.43,-25"/>
<polygon fill="#000000" fill-opacity="0.200000" stroke="#000000" stroke-opacity="0.200000" points="723.2,-27.1 729.2,-25 723.2,-22.9 723.2,-27.1"/>
</g>
<!-- packages/cli&#45;packages/storybook/src/lib/colors.ts -->
<g id="node14" class="node">
<title>packages/cli&#45;packages/storybook/src/lib/colors.ts</title>
<g id="a_node14"><a xlink:href="packages/cli-packages/storybook/src/lib/colors.ts" xlink:title="colors.ts">
<path fill="#ddfeff" stroke="black" d="M430.21,-117.88C430.21,-117.88 374.29,-117.88 374.29,-117.88 371.33,-117.88 368.38,-114.92 368.38,-111.96 368.38,-111.96 368.38,-106.04 368.38,-106.04 368.38,-103.08 371.33,-100.12 374.29,-100.12 374.29,-100.12 430.21,-100.12 430.21,-100.12 433.17,-100.12 436.12,-103.08 436.12,-106.04 436.12,-106.04 436.12,-111.96 436.12,-111.96 436.12,-114.92 433.17,-117.88 430.21,-117.88"/>
<text text-anchor="start" x="376.38" y="-106.33" font-family="Helvetica,sans-Serif" font-size="9.00">colors.ts </text>
<text text-anchor="start" x="412.38" y="-106.33" font-family="Helvetica,sans-Serif" font-size="8.00" fill="#808080">33%</text>
</a>
</g>
</g>
<!-- packages/cli&#45;packages/storybook/src/commands/storybook.ts&#45;&gt;packages/cli&#45;packages/storybook/src/lib/colors.ts -->
<g id="edge1" class="edge">
<title>packages/cli&#45;packages/storybook/src/commands/storybook.ts&#45;&gt;packages/cli&#45;packages/storybook/src/lib/colors.ts</title>
<path fill="none" stroke="#000000" stroke-width="2" stroke-opacity="0.200000" d="M179.86,-125.91C190.15,-118.37 206.02,-108.24 221.75,-104 267.73,-91.62 322.75,-95.79 359.65,-101.17"/>
<polygon fill="#000000" fill-opacity="0.200000" stroke="#000000" stroke-width="2" stroke-opacity="0.200000" points="359.91,-103.65 366.16,-102.48 360.55,-99.49 359.91,-103.65"/>
</g>
<!-- packages/cli&#45;packages/storybook/src/types.ts -->
<g id="node15" class="node">
<title>packages/cli&#45;packages/storybook/src/types.ts</title>
<g id="a_node15"><a xlink:href="packages/cli-packages/storybook/src/types.ts" xlink:title="types.ts">
<path fill="#ddfeff" stroke="black" d="M426.46,-169.88C426.46,-169.88 378.04,-169.88 378.04,-169.88 375.08,-169.88 372.12,-166.92 372.12,-163.96 372.12,-163.96 372.12,-158.04 372.12,-158.04 372.12,-155.08 375.08,-152.12 378.04,-152.12 378.04,-152.12 426.46,-152.12 426.46,-152.12 429.42,-152.12 432.38,-155.08 432.38,-158.04 432.38,-158.04 432.38,-163.96 432.38,-163.96 432.38,-166.92 429.42,-169.88 426.46,-169.88"/>
<text text-anchor="start" x="380.12" y="-158.32" font-family="Helvetica,sans-Serif" font-size="9.00">types.ts </text>
<text text-anchor="start" x="413.12" y="-158.32" font-family="Helvetica,sans-Serif" font-size="8.00" fill="#808080">0%</text>
</a>
</g>
</g>
<!-- packages/cli&#45;packages/storybook/src/commands/storybook.ts&#45;&gt;packages/cli&#45;packages/storybook/src/types.ts -->
<g id="edge2" class="edge">
<title>packages/cli&#45;packages/storybook/src/commands/storybook.ts&#45;&gt;packages/cli&#45;packages/storybook/src/types.ts</title>
<path fill="none" stroke="#000000" stroke-width="2" stroke-opacity="0.200000" d="M196.05,-125.67C204.23,-123.34 213.26,-121.17 221.75,-120 276.23,-112.49 301.43,-87.09 345.5,-120 355.53,-127.49 344.64,-138.16 353.5,-147 356.48,-149.97 360.05,-152.32 363.88,-154.17"/>
<polygon fill="#000000" fill-opacity="0.200000" stroke="#000000" stroke-width="2" stroke-opacity="0.200000" points="363.66,-156.11 370.01,-156.32 365.18,-152.19 363.66,-156.11"/>
</g>
<!-- packages/cli&#45;packages/storybook/src/commands/storybookHandler.ts -->
<g id="node16" class="node">
<title>packages/cli&#45;packages/storybook/src/commands/storybookHandler.ts</title>
<g id="a_node16"><a xlink:href="packages/cli-packages/storybook/src/commands/storybookHandler.ts" xlink:title="storybookHandler.ts">
<path fill="#ddfeff" stroke="black" d="M331.58,-143.88C331.58,-143.88 227.67,-143.88 227.67,-143.88 224.71,-143.88 221.75,-140.92 221.75,-137.96 221.75,-137.96 221.75,-132.04 221.75,-132.04 221.75,-129.08 224.71,-126.12 227.67,-126.12 227.67,-126.12 331.58,-126.12 331.58,-126.12 334.54,-126.12 337.5,-129.08 337.5,-132.04 337.5,-132.04 337.5,-137.96 337.5,-137.96 337.5,-140.92 334.54,-143.88 331.58,-143.88"/>
<text text-anchor="start" x="229.75" y="-132.32" font-family="Helvetica,sans-Serif" font-size="9.00">storybookHandler.ts </text>
<text text-anchor="start" x="313.75" y="-132.32" font-family="Helvetica,sans-Serif" font-size="8.00" fill="#808080">86%</text>
</a>
</g>
</g>
<!-- packages/cli&#45;packages/storybook/src/commands/storybook.ts&#45;&gt;packages/cli&#45;packages/storybook/src/commands/storybookHandler.ts -->
<g id="edge3" class="edge">
<title>packages/cli&#45;packages/storybook/src/commands/storybook.ts&#45;&gt;packages/cli&#45;packages/storybook/src/commands/storybookHandler.ts</title>
<path fill="none" stroke="#000000" stroke-width="2" stroke-dasharray="5,2" stroke-opacity="0.200000" d="M209.11,-135C210.25,-135 211.4,-135 212.55,-135"/>
<polygon fill="#000000" fill-opacity="0.200000" stroke="#000000" stroke-width="2" stroke-opacity="0.200000" points="212.5,-137.1 218.5,-135 212.5,-132.9 212.5,-137.1"/>
</g>
<!-- packages/cli&#45;packages/storybook/src/lib/colors.ts&#45;&gt;node_modules/chalk -->
<g id="edge13" class="edge">
<title>packages/cli&#45;packages/storybook/src/lib/colors.ts&#45;&gt;node_modules/chalk</title>
<path fill="none" stroke="#000000" stroke-opacity="0.200000" d="M436.47,-109.56C503.86,-110.71 655.94,-113.29 723.25,-114.44"/>
<polygon fill="#000000" fill-opacity="0.200000" stroke="#000000" stroke-opacity="0.200000" points="722.85,-116.55 728.88,-114.55 722.92,-112.35 722.85,-116.55"/>
</g>
<!-- packages/cli&#45;packages/storybook/src/commands/storybookHandler.ts&#45;&gt;node_modules/execa -->
<g id="edge10" class="edge">
<title>packages/cli&#45;packages/storybook/src/commands/storybookHandler.ts&#45;&gt;node_modules/execa</title>
<path fill="none" stroke="#000000" stroke-opacity="0.200000" d="M291.04,-125.74C304.4,-114.54 328.81,-96.27 353.5,-89 485.83,-50.02 653.39,-68.73 723.35,-79.37"/>
<polygon fill="#000000" fill-opacity="0.200000" stroke="#000000" stroke-opacity="0.200000" points="722.95,-81.59 729.2,-80.44 723.6,-77.44 722.95,-81.59"/>
</g>
<!-- packages/cli&#45;packages/storybook/src/commands/storybookHandler.ts&#45;&gt;packages/cli&#45;packages/storybook/src/lib/colors.ts -->
<g id="edge6" class="edge">
<title>packages/cli&#45;packages/storybook/src/commands/storybookHandler.ts&#45;&gt;packages/cli&#45;packages/storybook/src/lib/colors.ts</title>
<path fill="none" stroke="#000000" stroke-width="2" stroke-opacity="0.200000" d="M323.83,-125.69C335.47,-123.18 348.03,-120.47 359.58,-117.98"/>
<polygon fill="#000000" fill-opacity="0.200000" stroke="#000000" stroke-width="2" stroke-opacity="0.200000" points="360.76,-119.44 366.18,-116.13 359.88,-115.34 360.76,-119.44"/>
</g>
<!-- packages/cli&#45;packages/storybook/src/commands/storybookHandler.ts&#45;&gt;packages/cli&#45;packages/storybook/src/types.ts -->
<g id="edge7" class="edge">
<title>packages/cli&#45;packages/storybook/src/commands/storybookHandler.ts&#45;&gt;packages/cli&#45;packages/storybook/src/types.ts</title>
<path fill="none" stroke="#000000" stroke-width="2" stroke-opacity="0.200000" d="M323.83,-144.31C336.67,-147.08 350.64,-150.09 363.13,-152.78"/>
<polygon fill="#000000" fill-opacity="0.200000" stroke="#000000" stroke-width="2" stroke-opacity="0.200000" points="363.61,-155.47 369.92,-154.68 364.5,-151.36 363.61,-155.47"/>
</g>
<!-- packages/project&#45;config/dist/index.js -->
<g id="node17" class="node">
<title>packages/project&#45;config/dist/index.js</title>
<g id="a_node17"><a xlink:href="packages/project-config/dist/index.js" xlink:title="index.js">
<path fill="#ffffcc" stroke="black" d="M656.21,-281.88C656.21,-281.88 602.54,-281.88 602.54,-281.88 599.58,-281.88 596.62,-278.92 596.62,-275.96 596.62,-275.96 596.62,-270.04 596.62,-270.04 596.62,-267.08 599.58,-264.12 602.54,-264.12 602.54,-264.12 656.21,-264.12 656.21,-264.12 659.17,-264.12 662.12,-267.08 662.12,-270.04 662.12,-270.04 662.12,-275.96 662.12,-275.96 662.12,-278.92 659.17,-281.88 656.21,-281.88"/>
<text text-anchor="start" x="604.62" y="-270.32" font-family="Helvetica,sans-Serif" font-size="9.00">index.js </text>
<text text-anchor="start" x="638.38" y="-270.32" font-family="Helvetica,sans-Serif" font-size="8.00" fill="#808080">75%</text>
</a>
</g>
</g>
<!-- packages/cli&#45;packages/storybook/src/commands/storybookHandler.ts&#45;&gt;packages/project&#45;config/dist/index.js -->
<g id="edge8" class="edge">
<title>packages/cli&#45;packages/storybook/src/commands/storybookHandler.ts&#45;&gt;packages/project&#45;config/dist/index.js</title>
<path fill="none" stroke="#000000" stroke-opacity="0.200000" d="M290.24,-144.06C303.51,-156.11 328.63,-177.37 353.5,-190 395.4,-211.28 524.66,-246.23 589.89,-263.18"/>
<polygon fill="#000000" fill-opacity="0.200000" stroke="#000000" stroke-opacity="0.200000" points="589.04,-265.38 595.37,-264.86 590.09,-261.32 589.04,-265.38"/>
</g>
<!-- packages/telemetry/dist/index.js -->
<g id="node18" class="node">
<title>packages/telemetry/dist/index.js</title>
<g id="a_node18"><a xlink:href="packages/telemetry/dist/index.js" xlink:title="index.js">
<path fill="#ffffcc" stroke="black" d="M429.08,-289.88C429.08,-289.88 375.42,-289.88 375.42,-289.88 372.46,-289.88 369.5,-286.92 369.5,-283.96 369.5,-283.96 369.5,-278.04 369.5,-278.04 369.5,-275.08 372.46,-272.12 375.42,-272.12 375.42,-272.12 429.08,-272.12 429.08,-272.12 432.04,-272.12 435,-275.08 435,-278.04 435,-278.04 435,-283.96 435,-283.96 435,-286.92 432.04,-289.88 429.08,-289.88"/>
<text text-anchor="start" x="377.5" y="-278.32" font-family="Helvetica,sans-Serif" font-size="9.00">index.js </text>
<text text-anchor="start" x="411.25" y="-278.32" font-family="Helvetica,sans-Serif" font-size="8.00" fill="#808080">80%</text>
</a>
</g>
</g>
<!-- packages/cli&#45;packages/storybook/src/commands/storybookHandler.ts&#45;&gt;packages/telemetry/dist/index.js -->
<g id="edge9" class="edge">
<title>packages/cli&#45;packages/storybook/src/commands/storybookHandler.ts&#45;&gt;packages/telemetry/dist/index.js</title>
<path fill="none" stroke="#000000" stroke-opacity="0.200000" d="M288.17,-144.13C308.56,-168.82 364.9,-237 389.5,-266.78"/>
<polygon fill="#000000" fill-opacity="0.200000" stroke="#000000" stroke-opacity="0.200000" points="388.27,-267.58 393.71,-270.87 391.5,-264.91 388.27,-267.58"/>
</g>
<!-- path -->
<g id="node19" class="node">
<title>path</title>
<g id="a_node19"><a xlink:title="path">
<path fill="#ffffcc" stroke="grey" d="M778.46,-421.88C778.46,-421.88 736.29,-421.88 736.29,-421.88 733.33,-421.88 730.38,-418.92 730.38,-415.96 730.38,-415.96 730.38,-410.04 730.38,-410.04 730.38,-407.08 733.33,-404.12 736.29,-404.12 736.29,-404.12 778.46,-404.12 778.46,-404.12 781.42,-404.12 784.38,-407.08 784.38,-410.04 784.38,-410.04 784.38,-415.96 784.38,-415.96 784.38,-418.92 781.42,-421.88 778.46,-421.88"/>
<text text-anchor="middle" x="757.38" y="-409.32" font-family="Helvetica,sans-Serif" font-size="9.00" fill="grey">path</text>
</a>
</g>
</g>
<!-- packages/cli&#45;packages/storybook/src/commands/storybookHandler.ts&#45;&gt;path -->
<g id="edge11" class="edge">
<title>packages/cli&#45;packages/storybook/src/commands/storybookHandler.ts&#45;&gt;path</title>
<path fill="none" stroke="#000000" stroke-dasharray="5,2" stroke-opacity="0.200000" d="M282.1,-144.1C287.16,-172.86 306.21,-263.15 353.5,-319 429.68,-408.97 467.05,-424.4 580.62,-456 625.8,-468.57 640.99,-468.72 686.12,-456 706.6,-450.23 727,-436.65 740.5,-426.28"/>
<polygon fill="#000000" fill-opacity="0.200000" stroke="#000000" stroke-opacity="0.200000" points="741.43,-427.43 744.84,-422.07 738.83,-424.13 741.43,-427.43"/>
</g>
<!-- packages/project&#45;config/dist/index.js&#45;&gt;fs -->
<g id="edge17" class="edge">
<title>packages/project&#45;config/dist/index.js&#45;&gt;fs</title>
<path fill="none" stroke="#000000" stroke-dasharray="5,2" stroke-opacity="0.200000" d="M634.86,-282.33C643.65,-299.6 664.89,-336.45 694.12,-355 702.79,-360.5 713.33,-363.85 723.26,-365.89"/>
<polygon fill="#000000" fill-opacity="0.200000" stroke="#000000" stroke-opacity="0.200000" points="722.73,-368.11 729,-367.1 723.47,-363.97 722.73,-368.11"/>
</g>
<!-- packages/project&#45;config/dist/index.js&#45;&gt;node_modules/@iarna/toml -->
<g id="edge14" class="edge">
<title>packages/project&#45;config/dist/index.js&#45;&gt;node_modules/@iarna/toml</title>
<path fill="none" stroke="#000000" stroke-opacity="0.200000" d="M662.5,-270.96C681.2,-269.77 704.72,-268.28 723.54,-267.08"/>
<polygon fill="#000000" fill-opacity="0.200000" stroke="#000000" stroke-opacity="0.200000" points="723.39,-269.13 729.25,-266.66 723.13,-264.94 723.39,-269.13"/>
</g>
<!-- packages/project&#45;config/dist/index.js&#45;&gt;node_modules/deepmerge -->
<g id="edge15" class="edge">
<title>packages/project&#45;config/dist/index.js&#45;&gt;node_modules/deepmerge</title>
<path fill="none" stroke="#000000" stroke-opacity="0.200000" d="M648.97,-263.69C661.49,-257.71 678.51,-250.13 694.12,-245 701.94,-242.43 710.45,-240.18 718.6,-238.27"/>
<polygon fill="#000000" fill-opacity="0.200000" stroke="#000000" stroke-opacity="0.200000" points="718.95,-240.12 724.34,-236.75 718.03,-236.02 718.95,-240.12"/>
</g>
<!-- packages/project&#45;config/dist/index.js&#45;&gt;node_modules/fast&#45;glob -->
<g id="edge16" class="edge">
<title>packages/project&#45;config/dist/index.js&#45;&gt;node_modules/fast&#45;glob</title>
<path fill="none" stroke="#000000" stroke-opacity="0.200000" d="M641.87,-263.86C653.42,-254.5 671.56,-239.34 686.12,-225 689.94,-221.25 689.54,-218.75 694.12,-216 702.88,-210.75 713.36,-207.34 723.2,-205.12"/>
<polygon fill="#000000" fill-opacity="0.200000" stroke="#000000" stroke-opacity="0.200000" points="723.42,-207.01 728.89,-203.76 722.59,-202.9 723.42,-207.01"/>
</g>
<!-- packages/project&#45;config/dist/index.js&#45;&gt;node_modules/string&#45;env&#45;interpolation -->
<g id="edge19" class="edge">
<title>packages/project&#45;config/dist/index.js&#45;&gt;node_modules/string&#45;env&#45;interpolation</title>
<path fill="none" stroke="#000000" stroke-opacity="0.200000" d="M647.53,-282.33C660.13,-288.87 677.81,-297.4 694.12,-303 697.11,-304.02 700.2,-304.99 703.34,-305.91"/>
<polygon fill="#000000" fill-opacity="0.200000" stroke="#000000" stroke-opacity="0.200000" points="702.49,-308.13 708.83,-307.71 703.61,-304.08 702.49,-308.13"/>
</g>
<!-- packages/project&#45;config/dist/index.js&#45;&gt;path -->
<g id="edge18" class="edge">
<title>packages/project&#45;config/dist/index.js&#45;&gt;path</title>
<path fill="none" stroke="#000000" stroke-dasharray="5,2" stroke-opacity="0.200000" d="M635.76,-282.36C645.72,-299.66 667.68,-337.81 686.12,-370 689.69,-376.22 688.85,-379.15 694.12,-384 702.55,-391.75 713.42,-397.77 723.71,-402.27"/>
<polygon fill="#000000" fill-opacity="0.200000" stroke="#000000" stroke-opacity="0.200000" points="722.67,-404.52 729.02,-404.87 724.27,-400.64 722.67,-404.52"/>
</g>
<!-- packages/telemetry/dist/index.js&#45;&gt;node_modules/@babel/runtime&#45;corejs3 -->
<g id="edge21" class="edge">
<title>packages/telemetry/dist/index.js&#45;&gt;node_modules/@babel/runtime&#45;corejs3</title>
<path fill="none" stroke="#000000" stroke-opacity="0.200000" d="M415.82,-271.64C443.82,-251.3 514.11,-202.94 580.62,-179 623.26,-163.66 674.6,-156.05 710.75,-152.35"/>
<polygon fill="#000000" fill-opacity="0.200000" stroke="#000000" stroke-opacity="0.200000" points="710.56,-154.38 716.32,-151.7 710.15,-150.2 710.56,-154.38"/>
</g>
<!-- packages/telemetry/dist/telemetry.js -->
<g id="node21" class="node">
<title>packages/telemetry/dist/telemetry.js</title>
<g id="a_node21"><a xlink:href="packages/telemetry/dist/telemetry.js" xlink:title="telemetry.js">
<path fill="#ffffcc" stroke="black" d="M550.71,-289.88C550.71,-289.88 482.04,-289.88 482.04,-289.88 479.08,-289.88 476.12,-286.92 476.12,-283.96 476.12,-283.96 476.12,-278.04 476.12,-278.04 476.12,-275.08 479.08,-272.12 482.04,-272.12 482.04,-272.12 550.71,-272.12 550.71,-272.12 553.67,-272.12 556.62,-275.08 556.62,-278.04 556.62,-278.04 556.62,-283.96 556.62,-283.96 556.62,-286.92 553.67,-289.88 550.71,-289.88"/>
<text text-anchor="start" x="484.12" y="-278.32" font-family="Helvetica,sans-Serif" font-size="9.00">telemetry.js </text>
<text text-anchor="start" x="532.88" y="-278.32" font-family="Helvetica,sans-Serif" font-size="8.00" fill="#808080">88%</text>
</a>
</g>
</g>
<!-- packages/telemetry/dist/index.js&#45;&gt;packages/telemetry/dist/telemetry.js -->
<g id="edge20" class="edge">
<title>packages/telemetry/dist/index.js&#45;&gt;packages/telemetry/dist/telemetry.js</title>
<path fill="none" stroke="#000000" stroke-width="2" stroke-opacity="0.200000" d="M435.38,-281C445.19,-281 456.2,-281 466.84,-281"/>
<polygon fill="#000000" fill-opacity="0.200000" stroke="#000000" stroke-width="2" stroke-opacity="0.200000" points="466.66,-283.1 472.66,-281 466.66,-278.9 466.66,-283.1"/>
</g>
<!-- packages/cli&#45;packages/storybook/src/index.ts -->
<g id="node20" class="node">
<title>packages/cli&#45;packages/storybook/src/index.ts</title>
<g id="a_node20"><a xlink:href="packages/cli-packages/storybook/src/index.ts" xlink:title="index.ts">
<path fill="#ddfeff" stroke="black" d="M104.08,-143.88C104.08,-143.88 45.92,-143.88 45.92,-143.88 42.96,-143.88 40,-140.92 40,-137.96 40,-137.96 40,-132.04 40,-132.04 40,-129.08 42.96,-126.12 45.92,-126.12 45.92,-126.12 104.08,-126.12 104.08,-126.12 107.04,-126.12 110,-129.08 110,-132.04 110,-132.04 110,-137.96 110,-137.96 110,-140.92 107.04,-143.88 104.08,-143.88"/>
<text text-anchor="start" x="48" y="-132.32" font-family="Helvetica,sans-Serif" font-size="9.00">index.ts </text>
<text text-anchor="start" x="81.75" y="-132.32" font-family="Helvetica,sans-Serif" font-size="8.00" fill="#808080">100%</text>
</a>
</g>
</g>
<!-- packages/cli&#45;packages/storybook/src/index.ts&#45;&gt;packages/cli&#45;packages/storybook/src/commands/storybook.ts -->
<g id="edge12" class="edge">
<title>packages/cli&#45;packages/storybook/src/index.ts&#45;&gt;packages/cli&#45;packages/storybook/src/commands/storybook.ts</title>
<path fill="none" stroke="#000000" stroke-width="2" stroke-opacity="0.200000" d="M110.42,-135C112.61,-135 114.83,-135 117.06,-135"/>
<polygon fill="#000000" fill-opacity="0.200000" stroke="#000000" stroke-width="2" stroke-opacity="0.200000" points="116.68,-137.1 122.68,-135 116.68,-132.9 116.68,-137.1"/>
</g>
<!-- packages/telemetry/dist/telemetry.js&#45;&gt;child_process -->
<g id="edge24" class="edge">
<title>packages/telemetry/dist/telemetry.js&#45;&gt;child_process</title>
<path fill="none" stroke="#000000" stroke-dasharray="5,2" stroke-opacity="0.200000" d="M527.23,-290.23C546.76,-308.53 590.5,-349.51 613.54,-371.1"/>
<polygon fill="#000000" fill-opacity="0.200000" stroke="#000000" stroke-opacity="0.200000" points="611.57,-372.07 617.39,-374.64 614.44,-369.01 611.57,-372.07"/>
</g>
<!-- packages/telemetry/dist/telemetry.js&#45;&gt;node_modules/@babel/runtime&#45;corejs3 -->
<g id="edge22" class="edge">
<title>packages/telemetry/dist/telemetry.js&#45;&gt;node_modules/@babel/runtime&#45;corejs3</title>
<path fill="none" stroke="#000000" stroke-opacity="0.200000" d="M535.31,-271.69C573.86,-251.44 663.02,-203.15 686.12,-178 691.5,-172.15 687.83,-166.85 694.12,-162 699.01,-158.24 704.72,-155.5 710.67,-153.52"/>
<polygon fill="#000000" fill-opacity="0.200000" stroke="#000000" stroke-opacity="0.200000" points="711,-155.32 716.18,-151.65 709.84,-151.28 711,-155.32"/>
</g>
<!-- packages/telemetry/dist/telemetry.js&#45;&gt;os -->
<g id="edge25" class="edge">
<title>packages/telemetry/dist/telemetry.js&#45;&gt;os</title>
<path fill="none" stroke="#000000" stroke-dasharray="5,2" stroke-opacity="0.200000" d="M518.9,-290.04C523.56,-314.81 539.79,-384.49 580.62,-423 584.89,-427.02 590.13,-430.16 595.57,-432.62"/>
<polygon fill="#000000" fill-opacity="0.200000" stroke="#000000" stroke-opacity="0.200000" points="594.64,-434.91 600.99,-435.19 596.2,-431.01 594.64,-434.91"/>
</g>
<!-- packages/telemetry/dist/telemetry.js&#45;&gt;packages/project&#45;config/dist/index.js -->
<g id="edge23" class="edge">
<title>packages/telemetry/dist/telemetry.js&#45;&gt;packages/project&#45;config/dist/index.js</title>
<path fill="none" stroke="#000000" stroke-opacity="0.200000" d="M556.82,-278.16C567.45,-277.39 578.95,-276.56 589.54,-275.8"/>
<polygon fill="#000000" fill-opacity="0.200000" stroke="#000000" stroke-opacity="0.200000" points="589.53,-277.83 595.36,-275.31 589.23,-273.64 589.53,-277.83"/>
</g>
<!-- packages/telemetry/dist/telemetry.js&#45;&gt;path -->
<g id="edge26" class="edge">
<title>packages/telemetry/dist/telemetry.js&#45;&gt;path</title>
<path fill="none" stroke="#000000" stroke-dasharray="5,2" stroke-opacity="0.200000" d="M519.12,-290.17C524.06,-313.25 540.45,-373.79 580.62,-400 623.56,-428.01 685.59,-424.92 723.32,-419.45"/>
<polygon fill="#000000" fill-opacity="0.200000" stroke="#000000" stroke-opacity="0.200000" points="723.46,-421.39 729.07,-418.4 722.82,-417.24 723.46,-421.39"/>
</g>
</g>
</svg>
