<?xml version="1.0" encoding="UTF-8" standalone="no"?>
<!DOCTYPE svg PUBLIC "-//W3C//DTD SVG 1.1//EN"
 "http://www.w3.org/Graphics/SVG/1.1/DTD/svg11.dtd">
<!-- Generated by graphviz version 8.0.5 (20230430.1635)
 -->
<!-- Title: dependency&#45;cruiser output Pages: 1 -->
<svg width="681pt" height="342pt"
 viewBox="0.00 0.00 681.38 341.70" xmlns="http://www.w3.org/2000/svg" xmlns:xlink="http://www.w3.org/1999/xlink">
<g id="graph0" class="graph" transform="scale(1 1) rotate(0) translate(4 337.7)">
<title>dependency&#45;cruiser output</title>
<polygon fill="white" stroke="none" points="-4,4 -4,-337.7 677.38,-337.7 677.38,4 -4,4"/>
<g id="clust1" class="cluster">
<title>cluster_@redwoodjs</title>
<path fill="#ffffff" stroke="black" stroke-width="2" d="M452.25,-45.7C452.25,-45.7 515.75,-45.7 515.75,-45.7 521.75,-45.7 527.75,-51.7 527.75,-57.7 527.75,-57.7 527.75,-115.7 527.75,-115.7 527.75,-121.7 521.75,-127.7 515.75,-127.7 515.75,-127.7 452.25,-127.7 452.25,-127.7 446.25,-127.7 440.25,-121.7 440.25,-115.7 440.25,-115.7 440.25,-57.7 440.25,-57.7 440.25,-51.7 446.25,-45.7 452.25,-45.7"/>
<text text-anchor="middle" x="484" y="-115.15" font-family="Helvetica,sans-Serif" font-weight="bold" font-size="9.00">@redwoodjs</text>
</g>
<g id="clust2" class="cluster">
<title>cluster_node_modules</title>
<path fill="#ffffff" stroke="black" stroke-width="2" d="M577.88,-15.7C577.88,-15.7 653.38,-15.7 653.38,-15.7 659.38,-15.7 665.38,-21.7 665.38,-27.7 665.38,-27.7 665.38,-145.7 665.38,-145.7 665.38,-151.7 659.38,-157.7 653.38,-157.7 653.38,-157.7 577.88,-157.7 577.88,-157.7 571.88,-157.7 565.88,-151.7 565.88,-145.7 565.88,-145.7 565.88,-27.7 565.88,-27.7 565.88,-21.7 571.88,-15.7 577.88,-15.7"/>
<text text-anchor="middle" x="615.62" y="-145.15" font-family="Helvetica,sans-Serif" font-weight="bold" font-size="9.00">node_modules</text>
</g>
<g id="clust3" class="cluster">
<title>cluster_packages</title>
<path fill="#ffffff" stroke="black" stroke-width="2" d="M20,-135.7C20,-135.7 545.88,-135.7 545.88,-135.7 551.88,-135.7 557.88,-141.7 557.88,-147.7 557.88,-147.7 557.88,-313.7 557.88,-313.7 557.88,-319.7 551.88,-325.7 545.88,-325.7 545.88,-325.7 20,-325.7 20,-325.7 14,-325.7 8,-319.7 8,-313.7 8,-313.7 8,-147.7 8,-147.7 8,-141.7 14,-135.7 20,-135.7"/>
<text text-anchor="middle" x="282.94" y="-313.15" font-family="Helvetica,sans-Serif" font-weight="bold" font-size="9.00">packages</text>
</g>
<g id="clust4" class="cluster">
<title>cluster_packages/cli&#45;packages</title>
<path fill="#ffffff" stroke="black" stroke-width="2" d="M28,-143.7C28,-143.7 537.88,-143.7 537.88,-143.7 543.88,-143.7 549.88,-149.7 549.88,-155.7 549.88,-155.7 549.88,-287.7 549.88,-287.7 549.88,-293.7 543.88,-299.7 537.88,-299.7 537.88,-299.7 28,-299.7 28,-299.7 22,-299.7 16,-293.7 16,-287.7 16,-287.7 16,-155.7 16,-155.7 16,-149.7 22,-143.7 28,-143.7"/>
<text text-anchor="middle" x="282.94" y="-287.15" font-family="Helvetica,sans-Serif" font-weight="bold" font-size="9.00">cli&#45;packages</text>
</g>
<g id="clust5" class="cluster">
<title>cluster_packages/cli&#45;packages/storybook</title>
<path fill="#ffffff" stroke="black" stroke-width="2" d="M36,-151.7C36,-151.7 529.88,-151.7 529.88,-151.7 535.88,-151.7 541.88,-157.7 541.88,-163.7 541.88,-163.7 541.88,-261.7 541.88,-261.7 541.88,-267.7 535.88,-273.7 529.88,-273.7 529.88,-273.7 36,-273.7 36,-273.7 30,-273.7 24,-267.7 24,-261.7 24,-261.7 24,-163.7 24,-163.7 24,-157.7 30,-151.7 36,-151.7"/>
<text text-anchor="middle" x="282.94" y="-261.15" font-family="Helvetica,sans-Serif" font-weight="bold" font-size="9.00">storybook</text>
</g>
<g id="clust6" class="cluster">
<title>cluster_packages/cli&#45;packages/storybook/dist</title>
<path fill="#ffffff" stroke="black" stroke-width="2" d="M44,-159.7C44,-159.7 521.88,-159.7 521.88,-159.7 527.88,-159.7 533.88,-165.7 533.88,-171.7 533.88,-171.7 533.88,-235.7 533.88,-235.7 533.88,-241.7 527.88,-247.7 521.88,-247.7 521.88,-247.7 44,-247.7 44,-247.7 38,-247.7 32,-241.7 32,-235.7 32,-235.7 32,-171.7 32,-171.7 32,-165.7 38,-159.7 44,-159.7"/>
<text text-anchor="middle" x="282.94" y="-235.15" font-family="Helvetica,sans-Serif" font-weight="bold" font-size="9.00">dist</text>
</g>
<g id="clust7" class="cluster">
<title>cluster_packages/cli&#45;packages/storybook/dist/commands</title>
<path fill="#ffffff" stroke="black" stroke-width="2" d="M130,-167.7C130,-167.7 333.5,-167.7 333.5,-167.7 339.5,-167.7 345.5,-173.7 345.5,-179.7 345.5,-179.7 345.5,-207.7 345.5,-207.7 345.5,-213.7 339.5,-219.7 333.5,-219.7 333.5,-219.7 130,-219.7 130,-219.7 124,-219.7 118,-213.7 118,-207.7 118,-207.7 118,-179.7 118,-179.7 118,-173.7 124,-167.7 130,-167.7"/>
<text text-anchor="middle" x="231.75" y="-207.15" font-family="Helvetica,sans-Serif" font-weight="bold" font-size="9.00">commands</text>
</g>
<g id="clust8" class="cluster">
<title>cluster_packages/cli&#45;packages/storybook/dist/lib</title>
<path fill="#ffffff" stroke="black" stroke-width="2" d="M365.5,-167.7C365.5,-167.7 513.88,-167.7 513.88,-167.7 519.88,-167.7 525.88,-173.7 525.88,-179.7 525.88,-179.7 525.88,-207.7 525.88,-207.7 525.88,-213.7 519.88,-219.7 513.88,-219.7 513.88,-219.7 365.5,-219.7 365.5,-219.7 359.5,-219.7 353.5,-213.7 353.5,-207.7 353.5,-207.7 353.5,-179.7 353.5,-179.7 353.5,-173.7 359.5,-167.7 365.5,-167.7"/>
<text text-anchor="middle" x="439.69" y="-207.15" font-family="Helvetica,sans-Serif" font-weight="bold" font-size="9.00">lib</text>
</g>
<!-- @redwoodjs/project&#45;config -->
<g id="node1" class="node">
<title>@redwoodjs/project&#45;config</title>
<g id="a_node1"><a xlink:title="project&#45;config">
<path fill="#ffffcc" stroke="red" d="M513.83,-101.58C513.83,-101.58 454.17,-101.58 454.17,-101.58 451.21,-101.58 448.25,-98.62 448.25,-95.66 448.25,-95.66 448.25,-89.75 448.25,-89.75 448.25,-86.79 451.21,-83.83 454.17,-83.83 454.17,-83.83 513.83,-83.83 513.83,-83.83 516.79,-83.83 519.75,-86.79 519.75,-89.75 519.75,-89.75 519.75,-95.66 519.75,-95.66 519.75,-98.62 516.79,-101.58 513.83,-101.58"/>
<text text-anchor="start" x="456.25" y="-89.03" font-family="Helvetica,sans-Serif" font-size="9.00" fill="red">project&#45;config</text>
</a>
</g>
</g>
<!-- @redwoodjs/telemetry -->
<g id="node2" class="node">
<title>@redwoodjs/telemetry</title>
<g id="a_node2"><a xlink:title="telemetry">
<path fill="#ffffcc" stroke="red" d="M505.08,-71.58C505.08,-71.58 462.92,-71.58 462.92,-71.58 459.96,-71.58 457,-68.62 457,-65.66 457,-65.66 457,-59.75 457,-59.75 457,-56.79 459.96,-53.83 462.92,-53.83 462.92,-53.83 505.08,-53.83 505.08,-53.83 508.04,-53.83 511,-56.79 511,-59.75 511,-59.75 511,-65.66 511,-65.66 511,-68.62 508.04,-71.58 505.08,-71.58"/>
<text text-anchor="start" x="465.25" y="-59.03" font-family="Helvetica,sans-Serif" font-size="9.00" fill="red">telemetry</text>
</a>
</g>
</g>
<!-- node_modules/chalk -->
<g id="node3" class="node">
<title>node_modules/chalk</title>
<g id="a_node3"><a xlink:href="node_modules/chalk" xlink:title="chalk">
<polygon fill="#c40b0a" fill-opacity="0.101961" stroke="black" points="642.62,-131.58 590.6,-131.58 588.62,-129.61 588.62,-113.83 640.65,-113.83 642.62,-115.8 642.62,-131.58"/>
<polyline fill="none" stroke="black" points="640.65,-129.61 588.62,-129.61"/>
<polyline fill="none" stroke="black" points="640.65,-129.61 640.65,-113.83"/>
<polyline fill="none" stroke="black" points="640.65,-129.61 642.62,-131.58"/>
<text text-anchor="start" x="604.75" y="-119.03" font-family="Helvetica,sans-Serif" font-size="9.00" fill="#c40b0a">chalk</text>
</a>
</g>
</g>
<!-- node_modules/execa -->
<g id="node4" class="node">
<title>node_modules/execa</title>
<g id="a_node4"><a xlink:href="node_modules/execa" xlink:title="execa">
<polygon fill="#c40b0a" fill-opacity="0.101961" stroke="black" points="642.62,-71.58 590.6,-71.58 588.62,-69.61 588.62,-53.83 640.65,-53.83 642.62,-55.8 642.62,-71.58"/>
<polyline fill="none" stroke="black" points="640.65,-69.61 588.62,-69.61"/>
<polyline fill="none" stroke="black" points="640.65,-69.61 640.65,-53.83"/>
<polyline fill="none" stroke="black" points="640.65,-69.61 642.62,-71.58"/>
<text text-anchor="start" x="603.25" y="-59.03" font-family="Helvetica,sans-Serif" font-size="9.00" fill="#c40b0a">execa</text>
</a>
</g>
</g>
<!-- node_modules/lodash.memoize -->
<g id="node5" class="node">
<title>node_modules/lodash.memoize</title>
<g id="a_node5"><a xlink:href="node_modules/lodash.memoize" xlink:title="lodash.memoize">
<polygon fill="#c40b0a" fill-opacity="0.101961" stroke="black" points="657.38,-101.58 575.85,-101.58 573.88,-99.61 573.88,-83.83 655.4,-83.83 657.38,-85.8 657.38,-101.58"/>
<polyline fill="none" stroke="black" points="655.4,-99.61 573.88,-99.61"/>
<polyline fill="none" stroke="black" points="655.4,-99.61 655.4,-83.83"/>
<polyline fill="none" stroke="black" points="655.4,-99.61 657.38,-101.58"/>
<text text-anchor="start" x="581.88" y="-89.03" font-family="Helvetica,sans-Serif" font-size="9.00" fill="#c40b0a">lodash.memoize</text>
</a>
</g>
</g>
<!-- node_modules/terminal&#45;link -->
<g id="node6" class="node">
<title>node_modules/terminal&#45;link</title>
<g id="a_node6"><a xlink:href="node_modules/terminal-link" xlink:title="terminal&#45;link">
<polygon fill="#c40b0a" fill-opacity="0.101961" stroke="black" points="648.75,-41.58 584.47,-41.58 582.5,-39.61 582.5,-23.83 646.78,-23.83 648.75,-25.8 648.75,-41.58"/>
<polyline fill="none" stroke="black" points="646.78,-39.61 582.5,-39.61"/>
<polyline fill="none" stroke="black" points="646.78,-39.61 646.78,-23.83"/>
<polyline fill="none" stroke="black" points="646.78,-39.61 648.75,-41.58"/>
<text text-anchor="start" x="590.5" y="-29.03" font-family="Helvetica,sans-Serif" font-size="9.00" fill="#c40b0a">terminal&#45;link</text>
</a>
</g>
</g>
<!-- packages/cli&#45;packages/storybook/dist/commands/storybook.js -->
<g id="node7" class="node">
<title>packages/cli&#45;packages/storybook/dist/commands/storybook.js</title>
<g id="a_node7"><a xlink:href="packages/cli-packages/storybook/dist/commands/storybook.js" xlink:title="storybook.js">
<path fill="#ffffcc" stroke="black" d="M202.83,-193.58C202.83,-193.58 131.92,-193.58 131.92,-193.58 128.96,-193.58 126,-190.62 126,-187.66 126,-187.66 126,-181.75 126,-181.75 126,-178.79 128.96,-175.83 131.92,-175.83 131.92,-175.83 202.83,-175.83 202.83,-175.83 205.79,-175.83 208.75,-178.79 208.75,-181.75 208.75,-181.75 208.75,-187.66 208.75,-187.66 208.75,-190.62 205.79,-193.58 202.83,-193.58"/>
<text text-anchor="start" x="134" y="-182.03" font-family="Helvetica,sans-Serif" font-size="9.00">storybook.js </text>
<text text-anchor="start" x="185" y="-182.03" font-family="Helvetica,sans-Serif" font-size="8.00" fill="#808080">75%</text>
</a>
</g>
</g>
<!-- packages/cli&#45;packages/storybook/dist/commands/storybook.js&#45;&gt;node_modules/terminal&#45;link -->
<g id="edge3" class="edge">
<title>packages/cli&#45;packages/storybook/dist/commands/storybook.js&#45;&gt;node_modules/terminal&#45;link</title>
<path fill="none" stroke="#000000" stroke-opacity="0.200000" d="M174.39,-175.69C194.98,-145.74 266.27,-49.53 353.5,-15.7 430.11,14.01 528.82,-6.75 580.16,-21.5"/>
<polygon fill="#000000" fill-opacity="0.200000" stroke="#000000" stroke-opacity="0.200000" points="579.43,-23.77 585.78,-23.44 580.61,-19.74 579.43,-23.77"/>
</g>
<!-- packages/cli&#45;packages/storybook/dist/lib/colors.js -->
<g id="node8" class="node">
<title>packages/cli&#45;packages/storybook/dist/lib/colors.js</title>
<g id="a_node8"><a xlink:href="packages/cli-packages/storybook/dist/lib/colors.js" xlink:title="colors.js">
<path fill="#ffffcc" stroke="black" d="M511.96,-193.58C511.96,-193.58 456.04,-193.58 456.04,-193.58 453.08,-193.58 450.12,-190.62 450.12,-187.66 450.12,-187.66 450.12,-181.75 450.12,-181.75 450.12,-178.79 453.08,-175.83 456.04,-175.83 456.04,-175.83 511.96,-175.83 511.96,-175.83 514.92,-175.83 517.88,-178.79 517.88,-181.75 517.88,-181.75 517.88,-187.66 517.88,-187.66 517.88,-190.62 514.92,-193.58 511.96,-193.58"/>
<text text-anchor="start" x="458.12" y="-182.03" font-family="Helvetica,sans-Serif" font-size="9.00">colors.js </text>
<text text-anchor="start" x="494.12" y="-182.03" font-family="Helvetica,sans-Serif" font-size="8.00" fill="#808080">25%</text>
</a>
</g>
</g>
<!-- packages/cli&#45;packages/storybook/dist/commands/storybook.js&#45;&gt;packages/cli&#45;packages/storybook/dist/lib/colors.js -->
<g id="edge1" class="edge">
<title>packages/cli&#45;packages/storybook/dist/commands/storybook.js&#45;&gt;packages/cli&#45;packages/storybook/dist/lib/colors.js</title>
<path fill="none" stroke="#000000" stroke-width="2" stroke-opacity="0.200000" d="M196.91,-194.06C204.87,-196.3 213.57,-198.42 221.75,-199.7 314.2,-214.24 340.31,-222.17 432.25,-204.7 440.31,-203.17 448.73,-200.39 456.34,-197.37"/>
<polygon fill="#000000" fill-opacity="0.200000" stroke="#000000" stroke-width="2" stroke-opacity="0.200000" points="457.51,-199.32 462.23,-195.06 455.88,-195.44 457.51,-199.32"/>
</g>
<!-- packages/cli&#45;packages/storybook/dist/commands/storybookHandler.js -->
<g id="node9" class="node">
<title>packages/cli&#45;packages/storybook/dist/commands/storybookHandler.js</title>
<g id="a_node9"><a xlink:href="packages/cli-packages/storybook/dist/commands/storybookHandler.js" xlink:title="storybookHandler.js">
<path fill="#ffffcc" stroke="black" d="M331.58,-193.58C331.58,-193.58 227.67,-193.58 227.67,-193.58 224.71,-193.58 221.75,-190.62 221.75,-187.66 221.75,-187.66 221.75,-181.75 221.75,-181.75 221.75,-178.79 224.71,-175.83 227.67,-175.83 227.67,-175.83 331.58,-175.83 331.58,-175.83 334.54,-175.83 337.5,-178.79 337.5,-181.75 337.5,-181.75 337.5,-187.66 337.5,-187.66 337.5,-190.62 334.54,-193.58 331.58,-193.58"/>
<text text-anchor="start" x="229.75" y="-182.03" font-family="Helvetica,sans-Serif" font-size="9.00">storybookHandler.js </text>
<text text-anchor="start" x="313.75" y="-182.03" font-family="Helvetica,sans-Serif" font-size="8.00" fill="#808080">83%</text>
</a>
</g>
</g>
<!-- packages/cli&#45;packages/storybook/dist/commands/storybook.js&#45;&gt;packages/cli&#45;packages/storybook/dist/commands/storybookHandler.js -->
<g id="edge2" class="edge">
<title>packages/cli&#45;packages/storybook/dist/commands/storybook.js&#45;&gt;packages/cli&#45;packages/storybook/dist/commands/storybookHandler.js</title>
<path fill="none" stroke="#000000" stroke-width="2" stroke-dasharray="5,2" stroke-opacity="0.200000" d="M209.11,-184.7C210.25,-184.7 211.4,-184.7 212.55,-184.7"/>
<polygon fill="#000000" fill-opacity="0.200000" stroke="#000000" stroke-width="2" stroke-opacity="0.200000" points="212.5,-186.8 218.5,-184.7 212.5,-182.6 212.5,-186.8"/>
</g>
<!-- packages/cli&#45;packages/storybook/dist/lib/colors.js&#45;&gt;node_modules/chalk -->
<g id="edge10" class="edge">
<title>packages/cli&#45;packages/storybook/dist/lib/colors.js&#45;&gt;node_modules/chalk</title>
<path fill="none" stroke="#000000" stroke-opacity="0.200000" d="M517.62,-175.42C530.45,-171.28 545.13,-165.92 557.88,-159.7 571.61,-153 586.02,-143.57 596.89,-135.91"/>
<polygon fill="#000000" fill-opacity="0.200000" stroke="#000000" stroke-opacity="0.200000" points="597.88,-137.06 601.53,-131.86 595.43,-133.65 597.88,-137.06"/>
</g>
<!-- packages/cli&#45;packages/storybook/dist/commands/storybookHandler.js&#45;&gt;@redwoodjs/telemetry -->
<g id="edge6" class="edge">
<title>packages/cli&#45;packages/storybook/dist/commands/storybookHandler.js&#45;&gt;@redwoodjs/telemetry</title>
<g id="a_edge6"><a xlink:title="not&#45;to&#45;unresolvable">
<path fill="none" stroke="red" stroke-width="2" d="M292.01,-175.57C317.36,-155.59 380.88,-107.42 440.25,-77.7 442.93,-76.36 445.77,-75.08 448.65,-73.89"/>
<polygon fill="red" stroke="red" stroke-width="2" points="449.96,-75.85 454.79,-71.72 448.44,-71.94 449.96,-75.85"/>
</a>
</g>
<text text-anchor="middle" x="331.22" y="-109.86" font-family="Helvetica,sans-Serif" font-size="9.00" fill="red">not&#45;to&#45;unresolvable</text>
</g>
<!-- packages/cli&#45;packages/storybook/dist/commands/storybookHandler.js&#45;&gt;node_modules/execa -->
<g id="edge7" class="edge">
<title>packages/cli&#45;packages/storybook/dist/commands/storybookHandler.js&#45;&gt;node_modules/execa</title>
<path fill="none" stroke="#000000" stroke-opacity="0.200000" d="M284.72,-175.44C294.09,-155.21 318.97,-106.68 353.5,-78.7 355.53,-77.06 437.69,-43.21 440.25,-42.7 491.52,-32.49 507.62,-28.29 557.88,-42.7 561.91,-43.86 562.06,-45.96 565.88,-47.7 570.97,-50.03 576.52,-52.12 582,-53.96"/>
<polygon fill="#000000" fill-opacity="0.200000" stroke="#000000" stroke-opacity="0.200000" points="581,-56.16 587.35,-55.99 582.28,-52.16 581,-56.16"/>
</g>
<!-- packages/cli&#45;packages/storybook/dist/commands/storybookHandler.js&#45;&gt;packages/cli&#45;packages/storybook/dist/lib/colors.js -->
<g id="edge4" class="edge">
<title>packages/cli&#45;packages/storybook/dist/commands/storybookHandler.js&#45;&gt;packages/cli&#45;packages/storybook/dist/lib/colors.js</title>
<path fill="none" stroke="#000000" stroke-width="2" stroke-opacity="0.200000" d="M318.6,-194.04C329.77,-196.37 342.06,-198.54 353.5,-199.7 388.32,-203.25 397.61,-204.72 432.25,-199.7 437.43,-198.95 442.83,-197.79 448.08,-196.44"/>
<polygon fill="#000000" fill-opacity="0.200000" stroke="#000000" stroke-width="2" stroke-opacity="0.200000" points="449.5,-197.67 454.72,-194.03 448.37,-193.62 449.5,-197.67"/>
</g>
<!-- packages/cli&#45;packages/storybook/dist/lib/project.js -->
<g id="node10" class="node">
<title>packages/cli&#45;packages/storybook/dist/lib/project.js</title>
<g id="a_node10"><a xlink:href="packages/cli-packages/storybook/dist/lib/project.js" xlink:title="project.js">
<path fill="#ffffcc" stroke="black" d="M426.33,-193.58C426.33,-193.58 367.42,-193.58 367.42,-193.58 364.46,-193.58 361.5,-190.62 361.5,-187.66 361.5,-187.66 361.5,-181.75 361.5,-181.75 361.5,-178.79 364.46,-175.83 367.42,-175.83 367.42,-175.83 426.33,-175.83 426.33,-175.83 429.29,-175.83 432.25,-178.79 432.25,-181.75 432.25,-181.75 432.25,-187.66 432.25,-187.66 432.25,-190.62 429.29,-193.58 426.33,-193.58"/>
<text text-anchor="start" x="369.5" y="-182.03" font-family="Helvetica,sans-Serif" font-size="9.00">project.js </text>
<text text-anchor="start" x="408.5" y="-182.03" font-family="Helvetica,sans-Serif" font-size="8.00" fill="#808080">75%</text>
</a>
</g>
</g>
<!-- packages/cli&#45;packages/storybook/dist/commands/storybookHandler.js&#45;&gt;packages/cli&#45;packages/storybook/dist/lib/project.js -->
<g id="edge5" class="edge">
<title>packages/cli&#45;packages/storybook/dist/commands/storybookHandler.js&#45;&gt;packages/cli&#45;packages/storybook/dist/lib/project.js</title>
<path fill="none" stroke="#000000" stroke-width="2" stroke-opacity="0.200000" d="M337.91,-184.7C342.73,-184.7 347.55,-184.7 352.25,-184.7"/>
<polygon fill="#000000" fill-opacity="0.200000" stroke="#000000" stroke-width="2" stroke-opacity="0.200000" points="352.07,-186.8 358.07,-184.7 352.07,-182.6 352.07,-186.8"/>
</g>
<!-- path -->
<g id="node11" class="node">
<title>path</title>
<g id="a_node11"><a xlink:title="path">
<path fill="#ffffcc" stroke="grey" d="M417.96,-39.58C417.96,-39.58 375.79,-39.58 375.79,-39.58 372.83,-39.58 369.88,-36.62 369.88,-33.66 369.88,-33.66 369.88,-27.75 369.88,-27.75 369.88,-24.79 372.83,-21.83 375.79,-21.83 375.79,-21.83 417.96,-21.83 417.96,-21.83 420.92,-21.83 423.88,-24.79 423.88,-27.75 423.88,-27.75 423.88,-33.66 423.88,-33.66 423.88,-36.62 420.92,-39.58 417.96,-39.58"/>
<text text-anchor="middle" x="396.88" y="-27.03" font-family="Helvetica,sans-Serif" font-size="9.00" fill="grey">path</text>
</a>
</g>
</g>
<!-- packages/cli&#45;packages/storybook/dist/commands/storybookHandler.js&#45;&gt;path -->
<g id="edge8" class="edge">
<title>packages/cli&#45;packages/storybook/dist/commands/storybookHandler.js&#45;&gt;path</title>
<path fill="none" stroke="#000000" stroke-dasharray="5,2" stroke-opacity="0.200000" d="M283.22,-175.43C290.4,-151.31 312.76,-85.92 353.5,-48.7 356.45,-46.01 359.86,-43.68 363.44,-41.68"/>
<polygon fill="#000000" fill-opacity="0.200000" stroke="#000000" stroke-opacity="0.200000" points="364.15,-43.17 368.58,-38.61 362.27,-39.42 364.15,-43.17"/>
</g>
<!-- packages/cli&#45;packages/storybook/dist/lib/project.js&#45;&gt;@redwoodjs/project&#45;config -->
<g id="edge12" class="edge">
<title>packages/cli&#45;packages/storybook/dist/lib/project.js&#45;&gt;@redwoodjs/project&#45;config</title>
<g id="a_edge12"><a xlink:title="not&#45;to&#45;unresolvable">
<path fill="none" stroke="red" stroke-width="2" d="M406.35,-175.55C420.88,-159.84 450.71,-127.6 468.57,-108.3"/>
<polygon fill="red" stroke="red" stroke-width="2" points="470.03,-109.65 472.56,-103.82 466.94,-106.8 470.03,-109.65"/>
</a>
</g>
<text text-anchor="middle" x="400.52" y="-130.34" font-family="Helvetica,sans-Serif" font-size="9.00" fill="red">not&#45;to&#45;unresolvable</text>
</g>
<!-- packages/cli&#45;packages/storybook/dist/lib/project.js&#45;&gt;node_modules/lodash.memoize -->
<g id="edge13" class="edge">
<title>packages/cli&#45;packages/storybook/dist/lib/project.js&#45;&gt;node_modules/lodash.memoize</title>
<path fill="none" stroke="#000000" stroke-opacity="0.200000" d="M423.84,-175.42C429.26,-173.51 434.93,-171.53 440.25,-169.7 492.35,-151.85 518.65,-169.36 557.88,-130.7 565.58,-123.11 558.08,-115.22 565.88,-107.7 566.59,-107.01 567.34,-106.35 568.12,-105.72"/>
<polygon fill="#000000" fill-opacity="0.200000" stroke="#000000" stroke-opacity="0.200000" points="568.81,-107.11 572.58,-101.99 566.44,-103.64 568.81,-107.11"/>
</g>
<!-- packages/cli&#45;packages/storybook/dist/lib/project.js&#45;&gt;packages/cli&#45;packages/storybook/dist/lib/colors.js -->
<g id="edge11" class="edge">
<title>packages/cli&#45;packages/storybook/dist/lib/project.js&#45;&gt;packages/cli&#45;packages/storybook/dist/lib/colors.js</title>
<path fill="none" stroke="#000000" stroke-width="2" stroke-opacity="0.200000" d="M432.5,-184.7C435.26,-184.7 438.07,-184.7 440.88,-184.7"/>
<polygon fill="#000000" fill-opacity="0.200000" stroke="#000000" stroke-width="2" stroke-opacity="0.200000" points="440.78,-186.8 446.78,-184.7 440.78,-182.6 440.78,-186.8"/>
</g>
<!-- packages/cli&#45;packages/storybook/dist/index.js -->
<g id="node12" class="node">
<title>packages/cli&#45;packages/storybook/dist/index.js</title>
<g id="a_node12"><a xlink:href="packages/cli-packages/storybook/dist/index.js" xlink:title="index.js">
<path fill="#ffffcc" stroke="black" d="M104.08,-215.58C104.08,-215.58 45.92,-215.58 45.92,-215.58 42.96,-215.58 40,-212.62 40,-209.66 40,-209.66 40,-203.75 40,-203.75 40,-200.79 42.96,-197.83 45.92,-197.83 45.92,-197.83 104.08,-197.83 104.08,-197.83 107.04,-197.83 110,-200.79 110,-203.75 110,-203.75 110,-209.66 110,-209.66 110,-212.62 107.04,-215.58 104.08,-215.58"/>
<text text-anchor="start" x="48" y="-204.03" font-family="Helvetica,sans-Serif" font-size="9.00">index.js </text>
<text text-anchor="start" x="81.75" y="-204.03" font-family="Helvetica,sans-Serif" font-size="8.00" fill="#808080">100%</text>
</a>
</g>
</g>
<!-- packages/cli&#45;packages/storybook/dist/index.js&#45;&gt;packages/cli&#45;packages/storybook/dist/commands/storybook.js -->
<g id="edge9" class="edge">
<title>packages/cli&#45;packages/storybook/dist/index.js&#45;&gt;packages/cli&#45;packages/storybook/dist/commands/storybook.js</title>
<path fill="none" stroke="#000000" stroke-width="2" stroke-opacity="0.200000" d="M110.42,-198.32C113.41,-197.6 116.46,-196.86 119.52,-196.11"/>
<polygon fill="#000000" fill-opacity="0.200000" stroke="#000000" stroke-width="2" stroke-opacity="0.200000" points="120.79,-197.48 126.12,-194.02 119.8,-193.39 120.79,-197.48"/>
</g>
<!-- packages/cli&#45;packages/storybook/dist/types.js -->
<g id="node13" class="node">
<title>packages/cli&#45;packages/storybook/dist/types.js</title>
<g id="a_node13"><a xlink:href="packages/cli-packages/storybook/dist/types.js" xlink:title="no&#45;orphans">
<path fill="#ccffcc" stroke="orange" d="M99.21,-185.58C99.21,-185.58 50.79,-185.58 50.79,-185.58 47.83,-185.58 44.88,-182.62 44.88,-179.66 44.88,-179.66 44.88,-173.75 44.88,-173.75 44.88,-170.79 47.83,-167.83 50.79,-167.83 50.79,-167.83 99.21,-167.83 99.21,-167.83 102.17,-167.83 105.12,-170.79 105.12,-173.75 105.12,-173.75 105.12,-179.66 105.12,-179.66 105.12,-182.62 102.17,-185.58 99.21,-185.58"/>
<text text-anchor="start" x="52.88" y="-174.03" font-family="Helvetica,sans-Serif" font-size="9.00" fill="orange">types.js </text>
<text text-anchor="start" x="85.88" y="-174.03" font-family="Helvetica,sans-Serif" font-size="8.00" fill="#808080">0%</text>
</a>
</g>
</g>
</g>
</svg>
