<?xml version="1.0" encoding="UTF-8" standalone="no"?>
<!DOCTYPE svg PUBLIC "-//W3C//DTD SVG 1.1//EN"
 "http://www.w3.org/Graphics/SVG/1.1/DTD/svg11.dtd">
<!-- Generated by graphviz version 8.0.5 (20230430.1635)
 -->
<!-- Title: dependency&#45;cruiser output Pages: 1 -->
<svg width="681pt" height="426pt"
 viewBox="0.00 0.00 681.38 426.00" xmlns="http://www.w3.org/2000/svg" xmlns:xlink="http://www.w3.org/1999/xlink">
<g id="graph0" class="graph" transform="scale(1 1) rotate(0) translate(4 422)">
<title>dependency&#45;cruiser output</title>
<polygon fill="white" stroke="none" points="-4,4 -4,-422 677.38,-422 677.38,4 -4,4"/>
<g id="clust1" class="cluster">
<title>cluster_@redwoodjs</title>
<path fill="#ffffff" stroke="black" stroke-width="2" d="M452.25,-92C452.25,-92 515.75,-92 515.75,-92 521.75,-92 527.75,-98 527.75,-104 527.75,-104 527.75,-162 527.75,-162 527.75,-168 521.75,-174 515.75,-174 515.75,-174 452.25,-174 452.25,-174 446.25,-174 440.25,-168 440.25,-162 440.25,-162 440.25,-104 440.25,-104 440.25,-98 446.25,-92 452.25,-92"/>
<text text-anchor="middle" x="484" y="-161.45" font-family="Helvetica,sans-Serif" font-weight="bold" font-size="9.00">@redwoodjs</text>
</g>
<g id="clust2" class="cluster">
<title>cluster_node_modules</title>
<path fill="#ffffff" stroke="black" stroke-width="2" d="M577.88,-8C577.88,-8 653.38,-8 653.38,-8 659.38,-8 665.38,-14 665.38,-20 665.38,-20 665.38,-168 665.38,-168 665.38,-174 659.38,-180 653.38,-180 653.38,-180 577.88,-180 577.88,-180 571.88,-180 565.88,-174 565.88,-168 565.88,-168 565.88,-20 565.88,-20 565.88,-14 571.88,-8 577.88,-8"/>
<text text-anchor="middle" x="615.62" y="-167.45" font-family="Helvetica,sans-Serif" font-weight="bold" font-size="9.00">node_modules</text>
</g>
<g id="clust3" class="cluster">
<title>cluster_packages</title>
<path fill="#ffffff" stroke="black" stroke-width="2" d="M20,-182C20,-182 545.88,-182 545.88,-182 551.88,-182 557.88,-188 557.88,-194 557.88,-194 557.88,-398 557.88,-398 557.88,-404 551.88,-410 545.88,-410 545.88,-410 20,-410 20,-410 14,-410 8,-404 8,-398 8,-398 8,-194 8,-194 8,-188 14,-182 20,-182"/>
<text text-anchor="middle" x="282.94" y="-397.45" font-family="Helvetica,sans-Serif" font-weight="bold" font-size="9.00">packages</text>
</g>
<g id="clust4" class="cluster">
<title>cluster_packages/cli&#45;packages</title>
<path fill="#ffffff" stroke="black" stroke-width="2" d="M28,-190C28,-190 537.88,-190 537.88,-190 543.88,-190 549.88,-196 549.88,-202 549.88,-202 549.88,-372 549.88,-372 549.88,-378 543.88,-384 537.88,-384 537.88,-384 28,-384 28,-384 22,-384 16,-378 16,-372 16,-372 16,-202 16,-202 16,-196 22,-190 28,-190"/>
<text text-anchor="middle" x="282.94" y="-371.45" font-family="Helvetica,sans-Serif" font-weight="bold" font-size="9.00">cli&#45;packages</text>
</g>
<g id="clust5" class="cluster">
<title>cluster_packages/cli&#45;packages/storybook</title>
<path fill="#ffffff" stroke="black" stroke-width="2" d="M36,-198C36,-198 529.88,-198 529.88,-198 535.88,-198 541.88,-204 541.88,-210 541.88,-210 541.88,-346 541.88,-346 541.88,-352 535.88,-358 529.88,-358 529.88,-358 36,-358 36,-358 30,-358 24,-352 24,-346 24,-346 24,-210 24,-210 24,-204 30,-198 36,-198"/>
<text text-anchor="middle" x="282.94" y="-345.45" font-family="Helvetica,sans-Serif" font-weight="bold" font-size="9.00">storybook</text>
</g>
<g id="clust6" class="cluster">
<title>cluster_packages/cli&#45;packages/storybook/src</title>
<path fill="#ffffff" stroke="black" stroke-width="2" d="M44,-206C44,-206 521.88,-206 521.88,-206 527.88,-206 533.88,-212 533.88,-218 533.88,-218 533.88,-320 533.88,-320 533.88,-326 527.88,-332 521.88,-332 521.88,-332 44,-332 44,-332 38,-332 32,-326 32,-320 32,-320 32,-218 32,-218 32,-212 38,-206 44,-206"/>
<text text-anchor="middle" x="282.94" y="-319.45" font-family="Helvetica,sans-Serif" font-weight="bold" font-size="9.00">src</text>
</g>
<g id="clust7" class="cluster">
<title>cluster_packages/cli&#45;packages/storybook/src/commands</title>
<path fill="#ffffff" stroke="black" stroke-width="2" d="M130,-214C130,-214 333.5,-214 333.5,-214 339.5,-214 345.5,-220 345.5,-226 345.5,-226 345.5,-254 345.5,-254 345.5,-260 339.5,-266 333.5,-266 333.5,-266 130,-266 130,-266 124,-266 118,-260 118,-254 118,-254 118,-226 118,-226 118,-220 124,-214 130,-214"/>
<text text-anchor="middle" x="231.75" y="-253.45" font-family="Helvetica,sans-Serif" font-weight="bold" font-size="9.00">commands</text>
</g>
<g id="clust8" class="cluster">
<title>cluster_packages/cli&#45;packages/storybook/src/lib</title>
<path fill="#ffffff" stroke="black" stroke-width="2" d="M365.5,-214C365.5,-214 513.88,-214 513.88,-214 519.88,-214 525.88,-220 525.88,-226 525.88,-226 525.88,-254 525.88,-254 525.88,-260 519.88,-266 513.88,-266 513.88,-266 365.5,-266 365.5,-266 359.5,-266 353.5,-260 353.5,-254 353.5,-254 353.5,-226 353.5,-226 353.5,-220 359.5,-214 365.5,-214"/>
<text text-anchor="middle" x="439.69" y="-253.45" font-family="Helvetica,sans-Serif" font-weight="bold" font-size="9.00">lib</text>
</g>
<!-- @redwoodjs/project&#45;config -->
<g id="node1" class="node">
<title>@redwoodjs/project&#45;config</title>
<g id="a_node1"><a xlink:title="project&#45;config">
<path fill="#ffffcc" stroke="red" d="M513.83,-147.88C513.83,-147.88 454.17,-147.88 454.17,-147.88 451.21,-147.88 448.25,-144.92 448.25,-141.96 448.25,-141.96 448.25,-136.04 448.25,-136.04 448.25,-133.08 451.21,-130.12 454.17,-130.12 454.17,-130.12 513.83,-130.12 513.83,-130.12 516.79,-130.12 519.75,-133.08 519.75,-136.04 519.75,-136.04 519.75,-141.96 519.75,-141.96 519.75,-144.92 516.79,-147.88 513.83,-147.88"/>
<text text-anchor="start" x="456.25" y="-135.32" font-family="Helvetica,sans-Serif" font-size="9.00" fill="red">project&#45;config</text>
</a>
</g>
</g>
<!-- @redwoodjs/telemetry -->
<g id="node2" class="node">
<title>@redwoodjs/telemetry</title>
<g id="a_node2"><a xlink:title="telemetry">
<path fill="#ffffcc" stroke="red" d="M505.08,-117.88C505.08,-117.88 462.92,-117.88 462.92,-117.88 459.96,-117.88 457,-114.92 457,-111.96 457,-111.96 457,-106.04 457,-106.04 457,-103.08 459.96,-100.12 462.92,-100.12 462.92,-100.12 505.08,-100.12 505.08,-100.12 508.04,-100.12 511,-103.08 511,-106.04 511,-106.04 511,-111.96 511,-111.96 511,-114.92 508.04,-117.88 505.08,-117.88"/>
<text text-anchor="start" x="465.25" y="-105.33" font-family="Helvetica,sans-Serif" font-size="9.00" fill="red">telemetry</text>
</a>
</g>
</g>
<!-- node_modules/chalk -->
<g id="node3" class="node">
<title>node_modules/chalk</title>
<g id="a_node3"><a xlink:href="node_modules/chalk" xlink:title="chalk">
<polygon fill="#c40b0a" fill-opacity="0.101961" stroke="black" points="642.62,-153.88 590.6,-153.88 588.62,-151.9 588.62,-136.12 640.65,-136.12 642.62,-138.1 642.62,-153.88"/>
<polyline fill="none" stroke="black" points="640.65,-151.9 588.62,-151.9"/>
<polyline fill="none" stroke="black" points="640.65,-151.9 640.65,-136.12"/>
<polyline fill="none" stroke="black" points="640.65,-151.9 642.62,-153.88"/>
<text text-anchor="start" x="604.75" y="-141.32" font-family="Helvetica,sans-Serif" font-size="9.00" fill="#c40b0a">chalk</text>
</a>
</g>
</g>
<!-- node_modules/execa -->
<g id="node4" class="node">
<title>node_modules/execa</title>
<g id="a_node4"><a xlink:href="node_modules/execa" xlink:title="execa">
<polygon fill="#c40b0a" fill-opacity="0.101961" stroke="black" points="642.62,-93.88 590.6,-93.88 588.62,-91.9 588.62,-76.12 640.65,-76.12 642.62,-78.1 642.62,-93.88"/>
<polyline fill="none" stroke="black" points="640.65,-91.9 588.62,-91.9"/>
<polyline fill="none" stroke="black" points="640.65,-91.9 640.65,-76.12"/>
<polyline fill="none" stroke="black" points="640.65,-91.9 642.62,-93.88"/>
<text text-anchor="start" x="603.25" y="-81.33" font-family="Helvetica,sans-Serif" font-size="9.00" fill="#c40b0a">execa</text>
</a>
</g>
</g>
<!-- node_modules/lodash.memoize -->
<g id="node5" class="node">
<title>node_modules/lodash.memoize</title>
<g id="a_node5"><a xlink:href="node_modules/lodash.memoize" xlink:title="lodash.memoize">
<polygon fill="#c40b0a" fill-opacity="0.101961" stroke="black" points="657.38,-123.88 575.85,-123.88 573.88,-121.9 573.88,-106.12 655.4,-106.12 657.38,-108.1 657.38,-123.88"/>
<polyline fill="none" stroke="black" points="655.4,-121.9 573.88,-121.9"/>
<polyline fill="none" stroke="black" points="655.4,-121.9 655.4,-106.12"/>
<polyline fill="none" stroke="black" points="655.4,-121.9 657.38,-123.88"/>
<text text-anchor="start" x="581.88" y="-111.33" font-family="Helvetica,sans-Serif" font-size="9.00" fill="#c40b0a">lodash.memoize</text>
</a>
</g>
</g>
<!-- node_modules/terminal&#45;link -->
<g id="node6" class="node">
<title>node_modules/terminal&#45;link</title>
<g id="a_node6"><a xlink:href="node_modules/terminal-link" xlink:title="terminal&#45;link">
<polygon fill="#c40b0a" fill-opacity="0.101961" stroke="black" points="648.75,-63.88 584.47,-63.88 582.5,-61.9 582.5,-46.12 646.78,-46.12 648.75,-48.1 648.75,-63.88"/>
<polyline fill="none" stroke="black" points="646.78,-61.9 582.5,-61.9"/>
<polyline fill="none" stroke="black" points="646.78,-61.9 646.78,-46.12"/>
<polyline fill="none" stroke="black" points="646.78,-61.9 648.75,-63.88"/>
<text text-anchor="start" x="590.5" y="-51.33" font-family="Helvetica,sans-Serif" font-size="9.00" fill="#c40b0a">terminal&#45;link</text>
</a>
</g>
</g>
<!-- node_modules/yargs -->
<g id="node7" class="node">
<title>node_modules/yargs</title>
<g id="a_node7"><a xlink:href="node_modules/yargs" xlink:title="yargs">
<polygon fill="#c40b0a" fill-opacity="0.101961" stroke="black" points="642.62,-33.88 590.6,-33.88 588.62,-31.9 588.62,-16.12 640.65,-16.12 642.62,-18.1 642.62,-33.88"/>
<polyline fill="none" stroke="black" points="640.65,-31.9 588.62,-31.9"/>
<polyline fill="none" stroke="black" points="640.65,-31.9 640.65,-16.12"/>
<polyline fill="none" stroke="black" points="640.65,-31.9 642.62,-33.88"/>
<text text-anchor="start" x="604.38" y="-21.32" font-family="Helvetica,sans-Serif" font-size="9.00" fill="#c40b0a">yargs</text>
</a>
</g>
</g>
<!-- packages/cli&#45;packages/storybook/src/commands/storybook.ts -->
<g id="node8" class="node">
<title>packages/cli&#45;packages/storybook/src/commands/storybook.ts</title>
<g id="a_node8"><a xlink:href="packages/cli-packages/storybook/src/commands/storybook.ts" xlink:title="storybook.ts">
<path fill="#ddfeff" stroke="black" d="M202.83,-239.88C202.83,-239.88 131.92,-239.88 131.92,-239.88 128.96,-239.88 126,-236.92 126,-233.96 126,-233.96 126,-228.04 126,-228.04 126,-225.08 128.96,-222.12 131.92,-222.12 131.92,-222.12 202.83,-222.12 202.83,-222.12 205.79,-222.12 208.75,-225.08 208.75,-228.04 208.75,-228.04 208.75,-233.96 208.75,-233.96 208.75,-236.92 205.79,-239.88 202.83,-239.88"/>
<text text-anchor="start" x="134" y="-228.32" font-family="Helvetica,sans-Serif" font-size="9.00">storybook.ts </text>
<text text-anchor="start" x="185" y="-228.32" font-family="Helvetica,sans-Serif" font-size="8.00" fill="#808080">83%</text>
</a>
</g>
</g>
<!-- packages/cli&#45;packages/storybook/src/commands/storybook.ts&#45;&gt;node_modules/terminal&#45;link -->
<g id="edge4" class="edge">
<title>packages/cli&#45;packages/storybook/src/commands/storybook.ts&#45;&gt;node_modules/terminal&#45;link</title>
<path fill="none" stroke="#000000" stroke-opacity="0.200000" d="M174.75,-221.79C195.96,-192.09 267.62,-98.72 353.5,-64 427.35,-34.14 522.76,-41.01 575.4,-48.27"/>
<polygon fill="#000000" fill-opacity="0.200000" stroke="#000000" stroke-opacity="0.200000" points="574.99,-50.48 581.23,-49.25 575.58,-46.32 574.99,-50.48"/>
</g>
<!-- packages/cli&#45;packages/storybook/src/commands/storybook.ts&#45;&gt;node_modules/yargs -->
<g id="edge5" class="edge">
<title>packages/cli&#45;packages/storybook/src/commands/storybook.ts&#45;&gt;node_modules/yargs</title>
<path fill="none" stroke="#000000" stroke-opacity="0.200000" d="M168.27,-221.71C168.51,-193.33 173.34,-107.14 221.75,-65 325.41,25.23 507.61,-1.32 581.8,-17.09"/>
<polygon fill="#000000" fill-opacity="0.200000" stroke="#000000" stroke-opacity="0.200000" points="580.91,-19.26 587.22,-18.48 581.8,-15.16 580.91,-19.26"/>
</g>
<!-- packages/cli&#45;packages/storybook/src/lib/colors.ts -->
<g id="node9" class="node">
<title>packages/cli&#45;packages/storybook/src/lib/colors.ts</title>
<g id="a_node9"><a xlink:href="packages/cli-packages/storybook/src/lib/colors.ts" xlink:title="colors.ts">
<path fill="#ddfeff" stroke="black" d="M511.96,-239.88C511.96,-239.88 456.04,-239.88 456.04,-239.88 453.08,-239.88 450.12,-236.92 450.12,-233.96 450.12,-233.96 450.12,-228.04 450.12,-228.04 450.12,-225.08 453.08,-222.12 456.04,-222.12 456.04,-222.12 511.96,-222.12 511.96,-222.12 514.92,-222.12 517.88,-225.08 517.88,-228.04 517.88,-228.04 517.88,-233.96 517.88,-233.96 517.88,-236.92 514.92,-239.88 511.96,-239.88"/>
<text text-anchor="start" x="458.12" y="-228.32" font-family="Helvetica,sans-Serif" font-size="9.00">colors.ts </text>
<text text-anchor="start" x="494.12" y="-228.32" font-family="Helvetica,sans-Serif" font-size="8.00" fill="#808080">25%</text>
</a>
</g>
</g>
<!-- packages/cli&#45;packages/storybook/src/commands/storybook.ts&#45;&gt;packages/cli&#45;packages/storybook/src/lib/colors.ts -->
<g id="edge1" class="edge">
<title>packages/cli&#45;packages/storybook/src/commands/storybook.ts&#45;&gt;packages/cli&#45;packages/storybook/src/lib/colors.ts</title>
<path fill="none" stroke="#000000" stroke-width="2" stroke-opacity="0.200000" d="M172.26,-240.36C179.39,-256.12 196.19,-287.46 221.75,-300 305.74,-341.21 348.77,-342.23 432.25,-300 453.49,-289.25 468.01,-264.96 475.91,-248.27"/>
<polygon fill="#000000" fill-opacity="0.200000" stroke="#000000" stroke-width="2" stroke-opacity="0.200000" points="477.92,-248.68 478.44,-242.35 474.08,-246.98 477.92,-248.68"/>
</g>
<!-- packages/cli&#45;packages/storybook/src/types.ts -->
<g id="node10" class="node">
<title>packages/cli&#45;packages/storybook/src/types.ts</title>
<g id="a_node10"><a xlink:href="packages/cli-packages/storybook/src/types.ts" xlink:title="types.ts">
<path fill="#ddfeff" stroke="black" d="M421.08,-291.88C421.08,-291.88 372.67,-291.88 372.67,-291.88 369.71,-291.88 366.75,-288.92 366.75,-285.96 366.75,-285.96 366.75,-280.04 366.75,-280.04 366.75,-277.08 369.71,-274.12 372.67,-274.12 372.67,-274.12 421.08,-274.12 421.08,-274.12 424.04,-274.12 427,-277.08 427,-280.04 427,-280.04 427,-285.96 427,-285.96 427,-288.92 424.04,-291.88 421.08,-291.88"/>
<text text-anchor="start" x="374.75" y="-280.32" font-family="Helvetica,sans-Serif" font-size="9.00">types.ts </text>
<text text-anchor="start" x="407.75" y="-280.32" font-family="Helvetica,sans-Serif" font-size="8.00" fill="#808080">0%</text>
</a>
</g>
</g>
<!-- packages/cli&#45;packages/storybook/src/commands/storybook.ts&#45;&gt;packages/cli&#45;packages/storybook/src/types.ts -->
<g id="edge2" class="edge">
<title>packages/cli&#45;packages/storybook/src/commands/storybook.ts&#45;&gt;packages/cli&#45;packages/storybook/src/types.ts</title>
<path fill="none" stroke="#000000" stroke-width="2" stroke-opacity="0.200000" d="M200.18,-240.3C207.26,-242.27 214.74,-244.27 221.75,-246 268.36,-257.49 322.52,-268.66 357.9,-275.67"/>
<polygon fill="#000000" fill-opacity="0.200000" stroke="#000000" stroke-width="2" stroke-opacity="0.200000" points="358.18,-278.26 364.47,-277.36 358.99,-274.13 358.18,-278.26"/>
</g>
<!-- packages/cli&#45;packages/storybook/src/commands/storybookHandler.ts -->
<g id="node11" class="node">
<title>packages/cli&#45;packages/storybook/src/commands/storybookHandler.ts</title>
<g id="a_node11"><a xlink:href="packages/cli-packages/storybook/src/commands/storybookHandler.ts" xlink:title="storybookHandler.ts">
<path fill="#ddfeff" stroke="black" d="M331.58,-239.88C331.58,-239.88 227.67,-239.88 227.67,-239.88 224.71,-239.88 221.75,-236.92 221.75,-233.96 221.75,-233.96 221.75,-228.04 221.75,-228.04 221.75,-225.08 224.71,-222.12 227.67,-222.12 227.67,-222.12 331.58,-222.12 331.58,-222.12 334.54,-222.12 337.5,-225.08 337.5,-228.04 337.5,-228.04 337.5,-233.96 337.5,-233.96 337.5,-236.92 334.54,-239.88 331.58,-239.88"/>
<text text-anchor="start" x="229.75" y="-228.32" font-family="Helvetica,sans-Serif" font-size="9.00">storybookHandler.ts </text>
<text text-anchor="start" x="313.75" y="-228.32" font-family="Helvetica,sans-Serif" font-size="8.00" fill="#808080">86%</text>
</a>
</g>
</g>
<!-- packages/cli&#45;packages/storybook/src/commands/storybook.ts&#45;&gt;packages/cli&#45;packages/storybook/src/commands/storybookHandler.ts -->
<g id="edge3" class="edge">
<title>packages/cli&#45;packages/storybook/src/commands/storybook.ts&#45;&gt;packages/cli&#45;packages/storybook/src/commands/storybookHandler.ts</title>
<path fill="none" stroke="#000000" stroke-width="2" stroke-dasharray="5,2" stroke-opacity="0.200000" d="M209.11,-231C210.25,-231 211.4,-231 212.55,-231"/>
<polygon fill="#000000" fill-opacity="0.200000" stroke="#000000" stroke-width="2" stroke-opacity="0.200000" points="212.5,-233.1 218.5,-231 212.5,-228.9 212.5,-233.1"/>
</g>
<!-- packages/cli&#45;packages/storybook/src/lib/colors.ts&#45;&gt;node_modules/chalk -->
<g id="edge13" class="edge">
<title>packages/cli&#45;packages/storybook/src/lib/colors.ts&#45;&gt;node_modules/chalk</title>
<path fill="none" stroke="#000000" stroke-opacity="0.200000" d="M518.13,-223.37C531.17,-219.44 545.87,-213.8 557.88,-206 576.98,-193.59 594.06,-173.36 604.37,-159.63"/>
<polygon fill="#000000" fill-opacity="0.200000" stroke="#000000" stroke-opacity="0.200000" points="606.51,-161.27 608.36,-155.19 603.12,-158.78 606.51,-161.27"/>
</g>
<!-- packages/cli&#45;packages/storybook/src/commands/storybookHandler.ts&#45;&gt;@redwoodjs/telemetry -->
<g id="edge9" class="edge">
<title>packages/cli&#45;packages/storybook/src/commands/storybookHandler.ts&#45;&gt;@redwoodjs/telemetry</title>
<g id="a_edge9"><a xlink:title="not&#45;to&#45;unresolvable">
<path fill="none" stroke="red" stroke-width="2" d="M292.01,-221.87C317.36,-201.89 380.88,-153.71 440.25,-124 442.93,-122.66 445.77,-121.38 448.65,-120.18"/>
<polygon fill="red" stroke="red" stroke-width="2" points="449.96,-122.15 454.79,-118.01 448.44,-118.23 449.96,-122.15"/>
</a>
</g>
<text text-anchor="middle" x="331.22" y="-156.16" font-family="Helvetica,sans-Serif" font-size="9.00" fill="red">not&#45;to&#45;unresolvable</text>
</g>
<!-- packages/cli&#45;packages/storybook/src/commands/storybookHandler.ts&#45;&gt;node_modules/execa -->
<g id="edge10" class="edge">
<title>packages/cli&#45;packages/storybook/src/commands/storybookHandler.ts&#45;&gt;node_modules/execa</title>
<path fill="none" stroke="#000000" stroke-opacity="0.200000" d="M284.68,-221.69C293.97,-201.37 318.71,-152.66 353.5,-125 382.94,-101.59 398.66,-110.93 432.25,-94 435.99,-92.11 436.23,-90.2 440.25,-89 487.71,-74.8 545.72,-77.11 581.42,-80.64"/>
<polygon fill="#000000" fill-opacity="0.200000" stroke="#000000" stroke-opacity="0.200000" points="581.06,-82.82 587.25,-81.35 581.5,-78.64 581.06,-82.82"/>
</g>
<!-- packages/cli&#45;packages/storybook/src/commands/storybookHandler.ts&#45;&gt;packages/cli&#45;packages/storybook/src/lib/colors.ts -->
<g id="edge6" class="edge">
<title>packages/cli&#45;packages/storybook/src/commands/storybookHandler.ts&#45;&gt;packages/cli&#45;packages/storybook/src/lib/colors.ts</title>
<path fill="none" stroke="#000000" stroke-width="2" stroke-opacity="0.200000" d="M328.51,-240.33C334.24,-241.53 340.01,-242.76 345.5,-244 349.08,-244.8 349.86,-245.55 353.5,-246 388.24,-250.28 397.61,-251.01 432.25,-246 437.43,-245.25 442.83,-244.09 448.08,-242.74"/>
<polygon fill="#000000" fill-opacity="0.200000" stroke="#000000" stroke-width="2" stroke-opacity="0.200000" points="449.5,-243.96 454.72,-240.33 448.37,-239.92 449.5,-243.96"/>
</g>
<!-- packages/cli&#45;packages/storybook/src/commands/storybookHandler.ts&#45;&gt;packages/cli&#45;packages/storybook/src/types.ts -->
<g id="edge8" class="edge">
<title>packages/cli&#45;packages/storybook/src/commands/storybookHandler.ts&#45;&gt;packages/cli&#45;packages/storybook/src/types.ts</title>
<path fill="none" stroke="#000000" stroke-width="2" stroke-opacity="0.200000" d="M337.94,-238.63C340.64,-240.16 343.19,-241.93 345.5,-244 354.2,-251.77 345.29,-260.71 353.5,-269 355.07,-270.59 356.83,-272 358.71,-273.25"/>
<polygon fill="#000000" fill-opacity="0.200000" stroke="#000000" stroke-width="2" stroke-opacity="0.200000" points="358.16,-275.38 364.44,-276.32 360.11,-271.66 358.16,-275.38"/>
</g>
<!-- packages/cli&#45;packages/storybook/src/lib/project.ts -->
<g id="node12" class="node">
<title>packages/cli&#45;packages/storybook/src/lib/project.ts</title>
<g id="a_node12"><a xlink:href="packages/cli-packages/storybook/src/lib/project.ts" xlink:title="project.ts">
<path fill="#ddfeff" stroke="black" d="M426.33,-239.88C426.33,-239.88 367.42,-239.88 367.42,-239.88 364.46,-239.88 361.5,-236.92 361.5,-233.96 361.5,-233.96 361.5,-228.04 361.5,-228.04 361.5,-225.08 364.46,-222.12 367.42,-222.12 367.42,-222.12 426.33,-222.12 426.33,-222.12 429.29,-222.12 432.25,-225.08 432.25,-228.04 432.25,-228.04 432.25,-233.96 432.25,-233.96 432.25,-236.92 429.29,-239.88 426.33,-239.88"/>
<text text-anchor="start" x="369.5" y="-228.32" font-family="Helvetica,sans-Serif" font-size="9.00">project.ts </text>
<text text-anchor="start" x="408.5" y="-228.32" font-family="Helvetica,sans-Serif" font-size="8.00" fill="#808080">75%</text>
</a>
</g>
</g>
<!-- packages/cli&#45;packages/storybook/src/commands/storybookHandler.ts&#45;&gt;packages/cli&#45;packages/storybook/src/lib/project.ts -->
<g id="edge7" class="edge">
<title>packages/cli&#45;packages/storybook/src/commands/storybookHandler.ts&#45;&gt;packages/cli&#45;packages/storybook/src/lib/project.ts</title>
<path fill="none" stroke="#000000" stroke-width="2" stroke-opacity="0.200000" d="M337.91,-231C342.73,-231 347.55,-231 352.25,-231"/>
<polygon fill="#000000" fill-opacity="0.200000" stroke="#000000" stroke-width="2" stroke-opacity="0.200000" points="352.07,-233.1 358.07,-231 352.07,-228.9 352.07,-233.1"/>
</g>
<!-- path -->
<g id="node13" class="node">
<title>path</title>
<g id="a_node13"><a xlink:title="path">
<path fill="#ffffcc" stroke="grey" d="M417.96,-87.88C417.96,-87.88 375.79,-87.88 375.79,-87.88 372.83,-87.88 369.88,-84.92 369.88,-81.96 369.88,-81.96 369.88,-76.04 369.88,-76.04 369.88,-73.08 372.83,-70.12 375.79,-70.12 375.79,-70.12 417.96,-70.12 417.96,-70.12 420.92,-70.12 423.88,-73.08 423.88,-76.04 423.88,-76.04 423.88,-81.96 423.88,-81.96 423.88,-84.92 420.92,-87.88 417.96,-87.88"/>
<text text-anchor="middle" x="396.88" y="-75.33" font-family="Helvetica,sans-Serif" font-size="9.00" fill="grey">path</text>
</a>
</g>
</g>
<!-- packages/cli&#45;packages/storybook/src/commands/storybookHandler.ts&#45;&gt;path -->
<g id="edge11" class="edge">
<title>packages/cli&#45;packages/storybook/src/commands/storybookHandler.ts&#45;&gt;path</title>
<path fill="none" stroke="#000000" stroke-dasharray="5,2" stroke-opacity="0.200000" d="M283.26,-221.86C290.54,-198.09 313.11,-133.67 353.5,-97 356.46,-94.32 359.87,-91.99 363.46,-89.99"/>
<polygon fill="#000000" fill-opacity="0.200000" stroke="#000000" stroke-opacity="0.200000" points="364.17,-91.49 368.6,-86.93 362.29,-87.73 364.17,-91.49"/>
</g>
<!-- packages/cli&#45;packages/storybook/src/lib/project.ts&#45;&gt;@redwoodjs/project&#45;config -->
<g id="edge15" class="edge">
<title>packages/cli&#45;packages/storybook/src/lib/project.ts&#45;&gt;@redwoodjs/project&#45;config</title>
<g id="a_edge15"><a xlink:title="not&#45;to&#45;unresolvable">
<path fill="none" stroke="red" stroke-width="2" d="M406.35,-221.84C420.88,-206.14 450.71,-173.89 468.57,-154.59"/>
<polygon fill="red" stroke="red" stroke-width="2" points="470.03,-155.95 472.56,-150.12 466.94,-153.1 470.03,-155.95"/>
</a>
</g>
<text text-anchor="middle" x="400.52" y="-176.63" font-family="Helvetica,sans-Serif" font-size="9.00" fill="red">not&#45;to&#45;unresolvable</text>
</g>
<!-- packages/cli&#45;packages/storybook/src/lib/project.ts&#45;&gt;node_modules/lodash.memoize -->
<g id="edge16" class="edge">
<title>packages/cli&#45;packages/storybook/src/lib/project.ts&#45;&gt;node_modules/lodash.memoize</title>
<path fill="none" stroke="#000000" stroke-opacity="0.200000" d="M423.84,-221.72C429.26,-219.81 434.93,-217.82 440.25,-216 492.35,-198.14 521.99,-218.78 557.88,-177 571.68,-160.93 551.9,-145.92 565.88,-130 566.57,-129.21 567.3,-128.46 568.07,-127.75"/>
<polygon fill="#000000" fill-opacity="0.200000" stroke="#000000" stroke-opacity="0.200000" points="569.06,-128.88 572.61,-123.61 566.55,-125.52 569.06,-128.88"/>
</g>
<!-- packages/cli&#45;packages/storybook/src/lib/project.ts&#45;&gt;packages/cli&#45;packages/storybook/src/lib/colors.ts -->
<g id="edge14" class="edge">
<title>packages/cli&#45;packages/storybook/src/lib/project.ts&#45;&gt;packages/cli&#45;packages/storybook/src/lib/colors.ts</title>
<path fill="none" stroke="#000000" stroke-width="2" stroke-opacity="0.200000" d="M432.5,-231C435.26,-231 438.07,-231 440.88,-231"/>
<polygon fill="#000000" fill-opacity="0.200000" stroke="#000000" stroke-width="2" stroke-opacity="0.200000" points="440.78,-233.1 446.78,-231 440.78,-228.9 440.78,-233.1"/>
</g>
<!-- packages/cli&#45;packages/storybook/src/index.ts -->
<g id="node14" class="node">
<title>packages/cli&#45;packages/storybook/src/index.ts</title>
<g id="a_node14"><a xlink:href="packages/cli-packages/storybook/src/index.ts" xlink:title="index.ts">
<path fill="#ddfeff" stroke="black" d="M104.08,-239.88C104.08,-239.88 45.92,-239.88 45.92,-239.88 42.96,-239.88 40,-236.92 40,-233.96 40,-233.96 40,-228.04 40,-228.04 40,-225.08 42.96,-222.12 45.92,-222.12 45.92,-222.12 104.08,-222.12 104.08,-222.12 107.04,-222.12 110,-225.08 110,-228.04 110,-228.04 110,-233.96 110,-233.96 110,-236.92 107.04,-239.88 104.08,-239.88"/>
<text text-anchor="start" x="48" y="-228.32" font-family="Helvetica,sans-Serif" font-size="9.00">index.ts </text>
<text text-anchor="start" x="81.75" y="-228.32" font-family="Helvetica,sans-Serif" font-size="8.00" fill="#808080">100%</text>
</a>
</g>
</g>
<!-- packages/cli&#45;packages/storybook/src/index.ts&#45;&gt;packages/cli&#45;packages/storybook/src/commands/storybook.ts -->
<g id="edge12" class="edge">
<title>packages/cli&#45;packages/storybook/src/index.ts&#45;&gt;packages/cli&#45;packages/storybook/src/commands/storybook.ts</title>
<path fill="none" stroke="#000000" stroke-width="2" stroke-opacity="0.200000" d="M110.42,-231C112.61,-231 114.83,-231 117.06,-231"/>
<polygon fill="#000000" fill-opacity="0.200000" stroke="#000000" stroke-width="2" stroke-opacity="0.200000" points="116.68,-233.1 122.68,-231 116.68,-228.9 116.68,-233.1"/>
</g>
</g>
</svg>
