<?xml version="1.0" encoding="UTF-8" standalone="no"?>
<!DOCTYPE svg PUBLIC "-//W3C//DTD SVG 1.1//EN"
 "http://www.w3.org/Graphics/SVG/1.1/DTD/svg11.dtd">
<!-- Generated by graphviz version 8.0.5 (20230430.1635)
 -->
<!-- Title: dependency&#45;cruiser output Pages: 1 -->
<svg width="811pt" height="498pt"
 viewBox="0.00 0.00 811.12 497.57" xmlns="http://www.w3.org/2000/svg" xmlns:xlink="http://www.w3.org/1999/xlink">
<g id="graph0" class="graph" transform="scale(1 1) rotate(0) translate(4 493.57)">
<title>dependency&#45;cruiser output</title>
<polygon fill="white" stroke="none" points="-4,4 -4,-493.57 807.12,-493.57 807.12,4 -4,4"/>
<g id="clust1" class="cluster">
<title>cluster_..</title>
<path fill="#ffffff" stroke="black" stroke-width="2" d="M341.5,-214.91C341.5,-214.91 648.62,-214.91 648.62,-214.91 654.62,-214.91 660.62,-220.91 660.62,-226.91 660.62,-226.91 660.62,-356.91 660.62,-356.91 660.62,-362.91 654.62,-368.91 648.62,-368.91 648.62,-368.91 341.5,-368.91 341.5,-368.91 335.5,-368.91 329.5,-362.91 329.5,-356.91 329.5,-356.91 329.5,-226.91 329.5,-226.91 329.5,-220.91 335.5,-214.91 341.5,-214.91"/>
<text text-anchor="middle" x="495.06" y="-356.36" font-family="Helvetica,sans-Serif" font-weight="bold" font-size="9.00">..</text>
</g>
<g id="clust2" class="cluster">
<title>cluster_../..</title>
<path fill="#ffffff" stroke="black" stroke-width="2" d="M349.5,-222.91C349.5,-222.91 640.62,-222.91 640.62,-222.91 646.62,-222.91 652.62,-228.91 652.62,-234.91 652.62,-234.91 652.62,-330.91 652.62,-330.91 652.62,-336.91 646.62,-342.91 640.62,-342.91 640.62,-342.91 349.5,-342.91 349.5,-342.91 343.5,-342.91 337.5,-336.91 337.5,-330.91 337.5,-330.91 337.5,-234.91 337.5,-234.91 337.5,-228.91 343.5,-222.91 349.5,-222.91"/>
<text text-anchor="middle" x="495.06" y="-330.36" font-family="Helvetica,sans-Serif" font-weight="bold" font-size="9.00">..</text>
</g>
<g id="clust5" class="cluster">
<title>cluster_../../telemetry</title>
<path fill="#ffffff" stroke="black" stroke-width="2" d="M357.5,-230.91C357.5,-230.91 527.12,-230.91 527.12,-230.91 533.12,-230.91 539.12,-236.91 539.12,-242.91 539.12,-242.91 539.12,-304.91 539.12,-304.91 539.12,-310.91 533.12,-316.91 527.12,-316.91 527.12,-316.91 357.5,-316.91 357.5,-316.91 351.5,-316.91 345.5,-310.91 345.5,-304.91 345.5,-304.91 345.5,-242.91 345.5,-242.91 345.5,-236.91 351.5,-230.91 357.5,-230.91"/>
<text text-anchor="middle" x="442.31" y="-304.36" font-family="Helvetica,sans-Serif" font-weight="bold" font-size="9.00">telemetry</text>
</g>
<g id="clust6" class="cluster">
<title>cluster_../../telemetry/dist</title>
<path fill="#ffffff" stroke="black" stroke-width="2" d="M365.5,-238.91C365.5,-238.91 519.12,-238.91 519.12,-238.91 525.12,-238.91 531.12,-244.91 531.12,-250.91 531.12,-250.91 531.12,-278.91 531.12,-278.91 531.12,-284.91 525.12,-290.91 519.12,-290.91 519.12,-290.91 365.5,-290.91 365.5,-290.91 359.5,-290.91 353.5,-284.91 353.5,-278.91 353.5,-278.91 353.5,-250.91 353.5,-250.91 353.5,-244.91 359.5,-238.91 365.5,-238.91"/>
<text text-anchor="middle" x="442.31" y="-278.36" font-family="Helvetica,sans-Serif" font-weight="bold" font-size="9.00">dist</text>
</g>
<g id="clust3" class="cluster">
<title>cluster_../../project&#45;config</title>
<path fill="#ffffff" stroke="black" stroke-width="2" d="M559.12,-230.91C559.12,-230.91 632.62,-230.91 632.62,-230.91 638.62,-230.91 644.62,-236.91 644.62,-242.91 644.62,-242.91 644.62,-304.91 644.62,-304.91 644.62,-310.91 638.62,-316.91 632.62,-316.91 632.62,-316.91 559.12,-316.91 559.12,-316.91 553.12,-316.91 547.12,-310.91 547.12,-304.91 547.12,-304.91 547.12,-242.91 547.12,-242.91 547.12,-236.91 553.12,-230.91 559.12,-230.91"/>
<text text-anchor="middle" x="595.88" y="-304.36" font-family="Helvetica,sans-Serif" font-weight="bold" font-size="9.00">project&#45;config</text>
</g>
<g id="clust4" class="cluster">
<title>cluster_../../project&#45;config/dist</title>
<path fill="#ffffff" stroke="black" stroke-width="2" d="M567.12,-238.91C567.12,-238.91 624.62,-238.91 624.62,-238.91 630.62,-238.91 636.62,-244.91 636.62,-250.91 636.62,-250.91 636.62,-278.91 636.62,-278.91 636.62,-284.91 630.62,-290.91 624.62,-290.91 624.62,-290.91 567.12,-290.91 567.12,-290.91 561.12,-290.91 555.12,-284.91 555.12,-278.91 555.12,-278.91 555.12,-250.91 555.12,-250.91 555.12,-244.91 561.12,-238.91 567.12,-238.91"/>
<text text-anchor="middle" x="595.88" y="-278.36" font-family="Helvetica,sans-Serif" font-weight="bold" font-size="9.00">dist</text>
</g>
<g id="clust7" class="cluster">
<title>cluster_node_modules</title>
<path fill="#ffffff" stroke="black" stroke-width="2" d="M680.62,-40.91C680.62,-40.91 783.12,-40.91 783.12,-40.91 789.12,-40.91 795.12,-46.91 795.12,-52.91 795.12,-52.91 795.12,-402.91 795.12,-402.91 795.12,-408.91 789.12,-414.91 783.12,-414.91 783.12,-414.91 680.62,-414.91 680.62,-414.91 674.62,-414.91 668.62,-408.91 668.62,-402.91 668.62,-402.91 668.62,-52.91 668.62,-52.91 668.62,-46.91 674.62,-40.91 680.62,-40.91"/>
<text text-anchor="middle" x="731.88" y="-402.36" font-family="Helvetica,sans-Serif" font-weight="bold" font-size="9.00">node_modules</text>
</g>
<g id="clust8" class="cluster">
<title>cluster_node_modules/@babel</title>
<path fill="#ffffff" stroke="black" stroke-width="2" d="M696,-164.91C696,-164.91 767.75,-164.91 767.75,-164.91 773.75,-164.91 779.75,-170.91 779.75,-176.91 779.75,-176.91 779.75,-204.91 779.75,-204.91 779.75,-210.91 773.75,-216.91 767.75,-216.91 767.75,-216.91 696,-216.91 696,-216.91 690,-216.91 684,-210.91 684,-204.91 684,-204.91 684,-176.91 684,-176.91 684,-170.91 690,-164.91 696,-164.91"/>
<text text-anchor="middle" x="731.88" y="-204.36" font-family="Helvetica,sans-Serif" font-weight="bold" font-size="9.00">@babel</text>
</g>
<g id="clust9" class="cluster">
<title>cluster_node_modules/@iarna</title>
<path fill="#ffffff" stroke="black" stroke-width="2" d="M708.88,-280.91C708.88,-280.91 754.88,-280.91 754.88,-280.91 760.88,-280.91 766.88,-286.91 766.88,-292.91 766.88,-292.91 766.88,-320.91 766.88,-320.91 766.88,-326.91 760.88,-332.91 754.88,-332.91 754.88,-332.91 708.88,-332.91 708.88,-332.91 702.88,-332.91 696.88,-326.91 696.88,-320.91 696.88,-320.91 696.88,-292.91 696.88,-292.91 696.88,-286.91 702.88,-280.91 708.88,-280.91"/>
<text text-anchor="middle" x="731.88" y="-320.36" font-family="Helvetica,sans-Serif" font-weight="bold" font-size="9.00">@iarna</text>
</g>
<g id="clust10" class="cluster">
<title>cluster_src</title>
<path fill="#ffffff" stroke="black" stroke-width="2" d="M20,-18.91C20,-18.91 520.75,-18.91 520.75,-18.91 526.75,-18.91 532.75,-24.91 532.75,-30.91 532.75,-30.91 532.75,-142.91 532.75,-142.91 532.75,-148.91 526.75,-154.91 520.75,-154.91 520.75,-154.91 20,-154.91 20,-154.91 14,-154.91 8,-148.91 8,-142.91 8,-142.91 8,-30.91 8,-30.91 8,-24.91 14,-18.91 20,-18.91"/>
<text text-anchor="middle" x="270.38" y="-142.36" font-family="Helvetica,sans-Serif" font-weight="bold" font-size="9.00">src</text>
</g>
<g id="clust11" class="cluster">
<title>cluster_src/commands</title>
<path fill="#ffffff" stroke="black" stroke-width="2" d="M106,-70.91C106,-70.91 309.5,-70.91 309.5,-70.91 315.5,-70.91 321.5,-76.91 321.5,-82.91 321.5,-82.91 321.5,-110.91 321.5,-110.91 321.5,-116.91 315.5,-122.91 309.5,-122.91 309.5,-122.91 106,-122.91 106,-122.91 100,-122.91 94,-116.91 94,-110.91 94,-110.91 94,-82.91 94,-82.91 94,-76.91 100,-70.91 106,-70.91"/>
<text text-anchor="middle" x="207.75" y="-110.36" font-family="Helvetica,sans-Serif" font-weight="bold" font-size="9.00">commands</text>
</g>
<g id="clust12" class="cluster">
<title>cluster_src/lib</title>
<path fill="#ffffff" stroke="black" stroke-width="2" d="M362.88,-76.91C362.88,-76.91 512.75,-76.91 512.75,-76.91 518.75,-76.91 524.75,-82.91 524.75,-88.91 524.75,-88.91 524.75,-116.91 524.75,-116.91 524.75,-122.91 518.75,-128.91 512.75,-128.91 512.75,-128.91 362.88,-128.91 362.88,-128.91 356.88,-128.91 350.88,-122.91 350.88,-116.91 350.88,-116.91 350.88,-88.91 350.88,-88.91 350.88,-82.91 356.88,-76.91 362.88,-76.91"/>
<text text-anchor="middle" x="437.81" y="-116.36" font-family="Helvetica,sans-Serif" font-weight="bold" font-size="9.00">lib</text>
</g>
<!-- ../../project&#45;config/dist/index.js -->
<g id="node1" class="node">
<title>../../project&#45;config/dist/index.js</title>
<g id="a_node1"><a xlink:href="../../project-config/dist/index.js" xlink:title="index.js">
<path fill="#ffffcc" stroke="black" d="M622.71,-264.79C622.71,-264.79 569.04,-264.79 569.04,-264.79 566.08,-264.79 563.12,-261.83 563.12,-258.87 563.12,-258.87 563.12,-252.96 563.12,-252.96 563.12,-250 566.08,-247.04 569.04,-247.04 569.04,-247.04 622.71,-247.04 622.71,-247.04 625.67,-247.04 628.62,-250 628.62,-252.96 628.62,-252.96 628.62,-258.87 628.62,-258.87 628.62,-261.83 625.67,-264.79 622.71,-264.79"/>
<text text-anchor="start" x="571.12" y="-253.24" font-family="Helvetica,sans-Serif" font-size="9.00">index.js </text>
<text text-anchor="start" x="604.88" y="-253.24" font-family="Helvetica,sans-Serif" font-size="8.00" fill="#808080">75%</text>
</a>
</g>
</g>
<!-- node_modules/@iarna/toml -->
<g id="node2" class="node">
<title>node_modules/@iarna/toml</title>
<g id="a_node2"><a xlink:href="node_modules/@iarna/toml" xlink:title="toml">
<polygon fill="#c40b0a" fill-opacity="0.101961" stroke="black" points="758.88,-306.79 706.85,-306.79 704.88,-304.82 704.88,-289.04 756.9,-289.04 758.88,-291.01 758.88,-306.79"/>
<polyline fill="none" stroke="black" points="756.9,-304.82 704.88,-304.82"/>
<polyline fill="none" stroke="black" points="756.9,-304.82 756.9,-289.04"/>
<polyline fill="none" stroke="black" points="756.9,-304.82 758.88,-306.79"/>
<text text-anchor="start" x="723.25" y="-294.24" font-family="Helvetica,sans-Serif" font-size="9.00" fill="#c40b0a">toml</text>
</a>
</g>
</g>
<!-- ../../project&#45;config/dist/index.js&#45;&gt;node_modules/@iarna/toml -->
<g id="edge1" class="edge">
<title>../../project&#45;config/dist/index.js&#45;&gt;node_modules/@iarna/toml</title>
<path fill="none" stroke="#000000" stroke-opacity="0.200000" d="M617.25,-265.28C631.42,-271.52 650.88,-279.52 668.62,-284.91 677.98,-287.76 688.3,-290.19 697.81,-292.15"/>
<polygon fill="#000000" fill-opacity="0.200000" stroke="#000000" stroke-opacity="0.200000" points="697.27,-294.38 703.57,-293.5 698.09,-290.26 697.27,-294.38"/>
</g>
<!-- node_modules/deepmerge -->
<g id="node3" class="node">
<title>node_modules/deepmerge</title>
<g id="a_node3"><a xlink:href="node_modules/deepmerge" xlink:title="deepmerge">
<polygon fill="#c40b0a" fill-opacity="0.101961" stroke="black" points="763.5,-272.79 702.22,-272.79 700.25,-270.82 700.25,-255.04 761.53,-255.04 763.5,-257.01 763.5,-272.79"/>
<polyline fill="none" stroke="black" points="761.53,-270.82 700.25,-270.82"/>
<polyline fill="none" stroke="black" points="761.53,-270.82 761.53,-255.04"/>
<polyline fill="none" stroke="black" points="761.53,-270.82 763.5,-272.79"/>
<text text-anchor="start" x="708.25" y="-260.24" font-family="Helvetica,sans-Serif" font-size="9.00" fill="#c40b0a">deepmerge</text>
</a>
</g>
</g>
<!-- ../../project&#45;config/dist/index.js&#45;&gt;node_modules/deepmerge -->
<g id="edge2" class="edge">
<title>../../project&#45;config/dist/index.js&#45;&gt;node_modules/deepmerge</title>
<path fill="none" stroke="#000000" stroke-opacity="0.200000" d="M628.97,-257.83C648.23,-258.98 672.82,-260.45 693.02,-261.65"/>
<polygon fill="#000000" fill-opacity="0.200000" stroke="#000000" stroke-opacity="0.200000" points="692.85,-263.81 698.96,-262.07 693.1,-259.61 692.85,-263.81"/>
</g>
<!-- node_modules/fast&#45;glob -->
<g id="node4" class="node">
<title>node_modules/fast&#45;glob</title>
<g id="a_node4"><a xlink:href="node_modules/fast-glob" xlink:title="fast&#45;glob">
<polygon fill="#c40b0a" fill-opacity="0.101961" stroke="black" points="758.88,-242.79 706.85,-242.79 704.88,-240.82 704.88,-225.04 756.9,-225.04 758.88,-227.01 758.88,-242.79"/>
<polyline fill="none" stroke="black" points="756.9,-240.82 704.88,-240.82"/>
<polyline fill="none" stroke="black" points="756.9,-240.82 756.9,-225.04"/>
<polyline fill="none" stroke="black" points="756.9,-240.82 758.88,-242.79"/>
<text text-anchor="start" x="714.25" y="-230.24" font-family="Helvetica,sans-Serif" font-size="9.00" fill="#c40b0a">fast&#45;glob</text>
</a>
</g>
</g>
<!-- ../../project&#45;config/dist/index.js&#45;&gt;node_modules/fast&#45;glob -->
<g id="edge3" class="edge">
<title>../../project&#45;config/dist/index.js&#45;&gt;node_modules/fast&#45;glob</title>
<path fill="none" stroke="#000000" stroke-opacity="0.200000" d="M628.97,-250.64C649.7,-247.24 676.62,-242.82 697.58,-239.38"/>
<polygon fill="#000000" fill-opacity="0.200000" stroke="#000000" stroke-opacity="0.200000" points="697.86,-241.3 703.44,-238.25 697.18,-237.15 697.86,-241.3"/>
</g>
<!-- fs -->
<g id="node5" class="node">
<title>fs</title>
<g id="a_node5"><a xlink:title="fs">
<path fill="#ffffcc" stroke="grey" d="M752.96,-440.79C752.96,-440.79 710.79,-440.79 710.79,-440.79 707.83,-440.79 704.88,-437.83 704.88,-434.87 704.88,-434.87 704.88,-428.96 704.88,-428.96 704.88,-426 707.83,-423.04 710.79,-423.04 710.79,-423.04 752.96,-423.04 752.96,-423.04 755.92,-423.04 758.88,-426 758.88,-428.96 758.88,-428.96 758.88,-434.87 758.88,-434.87 758.88,-437.83 755.92,-440.79 752.96,-440.79"/>
<text text-anchor="middle" x="731.88" y="-428.24" font-family="Helvetica,sans-Serif" font-size="9.00" fill="grey">fs</text>
</a>
</g>
</g>
<!-- ../../project&#45;config/dist/index.js&#45;&gt;fs -->
<g id="edge4" class="edge">
<title>../../project&#45;config/dist/index.js&#45;&gt;fs</title>
<path fill="none" stroke="#000000" stroke-dasharray="5,2" stroke-opacity="0.200000" d="M603.5,-265.24C616.61,-284.17 645.89,-328.91 660.62,-370.91 667.64,-390.91 654.04,-402.54 668.62,-417.91 676.13,-425.82 687.07,-429.72 697.69,-431.52"/>
<polygon fill="#000000" fill-opacity="0.200000" stroke="#000000" stroke-opacity="0.200000" points="697.36,-433.73 703.58,-432.42 697.9,-429.56 697.36,-433.73"/>
</g>
<!-- path -->
<g id="node6" class="node">
<title>path</title>
<g id="a_node6"><a xlink:title="path">
<path fill="#ffffcc" stroke="grey" d="M752.96,-470.79C752.96,-470.79 710.79,-470.79 710.79,-470.79 707.83,-470.79 704.88,-467.83 704.88,-464.87 704.88,-464.87 704.88,-458.96 704.88,-458.96 704.88,-456 707.83,-453.04 710.79,-453.04 710.79,-453.04 752.96,-453.04 752.96,-453.04 755.92,-453.04 758.88,-456 758.88,-458.96 758.88,-458.96 758.88,-464.87 758.88,-464.87 758.88,-467.83 755.92,-470.79 752.96,-470.79"/>
<text text-anchor="middle" x="731.88" y="-458.24" font-family="Helvetica,sans-Serif" font-size="9.00" fill="grey">path</text>
</a>
</g>
</g>
<!-- ../../project&#45;config/dist/index.js&#45;&gt;path -->
<g id="edge5" class="edge">
<title>../../project&#45;config/dist/index.js&#45;&gt;path</title>
<path fill="none" stroke="#000000" stroke-dasharray="5,2" stroke-opacity="0.200000" d="M603.73,-265.16C617.26,-283.96 647.24,-328.46 660.62,-370.91 665.73,-387.11 657.43,-434.14 668.62,-446.91 675.97,-455.29 687.1,-459.41 697.93,-461.32"/>
<polygon fill="#000000" fill-opacity="0.200000" stroke="#000000" stroke-opacity="0.200000" points="697.36,-463.5 703.6,-462.24 697.94,-459.34 697.36,-463.5"/>
</g>
<!-- node_modules/string&#45;env&#45;interpolation -->
<g id="node7" class="node">
<title>node_modules/string&#45;env&#45;interpolation</title>
<g id="a_node7"><a xlink:href="node_modules/string-env-interpolation" xlink:title="string&#45;env&#45;interpolation">
<polygon fill="#c40b0a" fill-opacity="0.101961" stroke="black" points="787.12,-358.79 678.6,-358.79 676.62,-356.82 676.62,-341.04 785.15,-341.04 787.12,-343.01 787.12,-358.79"/>
<polyline fill="none" stroke="black" points="785.15,-356.82 676.62,-356.82"/>
<polyline fill="none" stroke="black" points="785.15,-356.82 785.15,-341.04"/>
<polyline fill="none" stroke="black" points="785.15,-356.82 787.12,-358.79"/>
<text text-anchor="start" x="684.62" y="-346.24" font-family="Helvetica,sans-Serif" font-size="9.00" fill="#c40b0a">string&#45;env&#45;interpolation</text>
</a>
</g>
</g>
<!-- ../../project&#45;config/dist/index.js&#45;&gt;node_modules/string&#45;env&#45;interpolation -->
<g id="edge6" class="edge">
<title>../../project&#45;config/dist/index.js&#45;&gt;node_modules/string&#45;env&#45;interpolation</title>
<path fill="none" stroke="#000000" stroke-opacity="0.200000" d="M602.46,-265.28C613.08,-282.23 637.89,-317.89 668.62,-335.91 669.77,-336.59 670.95,-337.23 672.15,-337.84"/>
<polygon fill="#000000" fill-opacity="0.200000" stroke="#000000" stroke-opacity="0.200000" points="670.99,-340.07 677.32,-340.63 672.72,-336.25 670.99,-340.07"/>
</g>
<!-- ../../telemetry/dist/index.js -->
<g id="node8" class="node">
<title>../../telemetry/dist/index.js</title>
<g id="a_node8"><a xlink:href="../../telemetry/dist/index.js" xlink:title="index.js">
<path fill="#ffffcc" stroke="black" d="M421.08,-264.79C421.08,-264.79 367.42,-264.79 367.42,-264.79 364.46,-264.79 361.5,-261.83 361.5,-258.87 361.5,-258.87 361.5,-252.96 361.5,-252.96 361.5,-250 364.46,-247.04 367.42,-247.04 367.42,-247.04 421.08,-247.04 421.08,-247.04 424.04,-247.04 427,-250 427,-252.96 427,-252.96 427,-258.87 427,-258.87 427,-261.83 424.04,-264.79 421.08,-264.79"/>
<text text-anchor="start" x="369.5" y="-253.24" font-family="Helvetica,sans-Serif" font-size="9.00">index.js </text>
<text text-anchor="start" x="403.25" y="-253.24" font-family="Helvetica,sans-Serif" font-size="8.00" fill="#808080">80%</text>
</a>
</g>
</g>
<!-- ../../telemetry/dist/telemetry.js -->
<g id="node9" class="node">
<title>../../telemetry/dist/telemetry.js</title>
<g id="a_node9"><a xlink:href="../../telemetry/dist/telemetry.js" xlink:title="telemetry.js">
<path fill="#ffffcc" stroke="black" d="M517.21,-264.79C517.21,-264.79 448.54,-264.79 448.54,-264.79 445.58,-264.79 442.62,-261.83 442.62,-258.87 442.62,-258.87 442.62,-252.96 442.62,-252.96 442.62,-250 445.58,-247.04 448.54,-247.04 448.54,-247.04 517.21,-247.04 517.21,-247.04 520.17,-247.04 523.12,-250 523.12,-252.96 523.12,-252.96 523.12,-258.87 523.12,-258.87 523.12,-261.83 520.17,-264.79 517.21,-264.79"/>
<text text-anchor="start" x="450.62" y="-253.24" font-family="Helvetica,sans-Serif" font-size="9.00">telemetry.js </text>
<text text-anchor="start" x="499.38" y="-253.24" font-family="Helvetica,sans-Serif" font-size="8.00" fill="#808080">88%</text>
</a>
</g>
</g>
<!-- ../../telemetry/dist/index.js&#45;&gt;../../telemetry/dist/telemetry.js -->
<g id="edge7" class="edge">
<title>../../telemetry/dist/index.js&#45;&gt;../../telemetry/dist/telemetry.js</title>
<path fill="none" stroke="#000000" stroke-width="2" stroke-opacity="0.200000" d="M427.01,-255.91C429.17,-255.91 431.36,-255.91 433.58,-255.91"/>
<polygon fill="#000000" fill-opacity="0.200000" stroke="#000000" stroke-width="2" stroke-opacity="0.200000" points="433.15,-258.01 439.15,-255.91 433.15,-253.81 433.15,-258.01"/>
</g>
<!-- node_modules/@babel/runtime&#45;corejs3 -->
<g id="node10" class="node">
<title>node_modules/@babel/runtime&#45;corejs3</title>
<g id="a_node10"><a xlink:href="node_modules/@babel/runtime-corejs3" xlink:title="runtime&#45;corejs3">
<polygon fill="#c40b0a" fill-opacity="0.101961" stroke="black" points="771.75,-190.79 693.97,-190.79 692,-188.82 692,-173.04 769.78,-173.04 771.75,-175.01 771.75,-190.79"/>
<polyline fill="none" stroke="black" points="769.78,-188.82 692,-188.82"/>
<polyline fill="none" stroke="black" points="769.78,-188.82 769.78,-173.04"/>
<polyline fill="none" stroke="black" points="769.78,-188.82 771.75,-190.79"/>
<text text-anchor="start" x="700" y="-178.24" font-family="Helvetica,sans-Serif" font-size="9.00" fill="#c40b0a">runtime&#45;corejs3</text>
</a>
</g>
</g>
<!-- ../../telemetry/dist/index.js&#45;&gt;node_modules/@babel/runtime&#45;corejs3 -->
<g id="edge8" class="edge">
<title>../../telemetry/dist/index.js&#45;&gt;node_modules/@babel/runtime&#45;corejs3</title>
<path fill="none" stroke="#000000" stroke-opacity="0.200000" d="M415.89,-246.6C444.66,-234.05 498.74,-212 547.12,-200.91 593.33,-190.33 647.43,-185.63 684.91,-183.55"/>
<polygon fill="#000000" fill-opacity="0.200000" stroke="#000000" stroke-opacity="0.200000" points="684.83,-185.61 690.71,-183.2 684.61,-181.41 684.83,-185.61"/>
</g>
<!-- ../../telemetry/dist/telemetry.js&#45;&gt;../../project&#45;config/dist/index.js -->
<g id="edge10" class="edge">
<title>../../telemetry/dist/telemetry.js&#45;&gt;../../project&#45;config/dist/index.js</title>
<path fill="none" stroke="#000000" stroke-opacity="0.200000" d="M523.32,-255.91C533.95,-255.91 545.45,-255.91 556.04,-255.91"/>
<polygon fill="#000000" fill-opacity="0.200000" stroke="#000000" stroke-opacity="0.200000" points="555.86,-258.01 561.86,-255.91 555.86,-253.81 555.86,-258.01"/>
</g>
<!-- ../../telemetry/dist/telemetry.js&#45;&gt;path -->
<g id="edge13" class="edge">
<title>../../telemetry/dist/telemetry.js&#45;&gt;path</title>
<path fill="none" stroke="#000000" stroke-dasharray="5,2" stroke-opacity="0.200000" d="M484.14,-264.92C485.51,-294.09 494.05,-386.61 547.12,-430.91 589.53,-466.31 657.11,-468.28 697.42,-465.67"/>
<polygon fill="#000000" fill-opacity="0.200000" stroke="#000000" stroke-opacity="0.200000" points="697.55,-467.69 703.38,-465.15 697.24,-463.5 697.55,-467.69"/>
</g>
<!-- ../../telemetry/dist/telemetry.js&#45;&gt;node_modules/@babel/runtime&#45;corejs3 -->
<g id="edge9" class="edge">
<title>../../telemetry/dist/telemetry.js&#45;&gt;node_modules/@babel/runtime&#45;corejs3</title>
<path fill="none" stroke="#000000" stroke-opacity="0.200000" d="M513.37,-246.58C563.55,-230.7 660.19,-200.11 660.62,-199.91 664.43,-198.16 664.73,-196.48 668.62,-194.91 673.85,-192.81 679.47,-191.03 685.11,-189.53"/>
<polygon fill="#000000" fill-opacity="0.200000" stroke="#000000" stroke-opacity="0.200000" points="685.41,-191.37 690.73,-187.89 684.4,-187.29 685.41,-191.37"/>
</g>
<!-- child_process -->
<g id="node11" class="node">
<title>child_process</title>
<g id="a_node11"><a xlink:title="child_process">
<path fill="#ffffcc" stroke="grey" d="M626.46,-394.79C626.46,-394.79 565.29,-394.79 565.29,-394.79 562.33,-394.79 559.38,-391.83 559.38,-388.87 559.38,-388.87 559.38,-382.96 559.38,-382.96 559.38,-380 562.33,-377.04 565.29,-377.04 565.29,-377.04 626.46,-377.04 626.46,-377.04 629.42,-377.04 632.38,-380 632.38,-382.96 632.38,-382.96 632.38,-388.87 632.38,-388.87 632.38,-391.83 629.42,-394.79 626.46,-394.79"/>
<text text-anchor="middle" x="595.88" y="-382.24" font-family="Helvetica,sans-Serif" font-size="9.00" fill="grey">child_process</text>
</a>
</g>
</g>
<!-- ../../telemetry/dist/telemetry.js&#45;&gt;child_process -->
<g id="edge11" class="edge">
<title>../../telemetry/dist/telemetry.js&#45;&gt;child_process</title>
<path fill="none" stroke="#000000" stroke-dasharray="5,2" stroke-opacity="0.200000" d="M491.86,-265.26C510.98,-287.66 559.51,-344.5 582.47,-371.39"/>
<polygon fill="#000000" fill-opacity="0.200000" stroke="#000000" stroke-opacity="0.200000" points="581.47,-372.45 586.96,-375.65 584.67,-369.72 581.47,-372.45"/>
</g>
<!-- os -->
<g id="node12" class="node">
<title>os</title>
<g id="a_node12"><a xlink:title="os">
<path fill="#ffffcc" stroke="grey" d="M616.96,-424.79C616.96,-424.79 574.79,-424.79 574.79,-424.79 571.83,-424.79 568.88,-421.83 568.88,-418.87 568.88,-418.87 568.88,-412.96 568.88,-412.96 568.88,-410 571.83,-407.04 574.79,-407.04 574.79,-407.04 616.96,-407.04 616.96,-407.04 619.92,-407.04 622.88,-410 622.88,-412.96 622.88,-412.96 622.88,-418.87 622.88,-418.87 622.88,-421.83 619.92,-424.79 616.96,-424.79"/>
<text text-anchor="middle" x="595.88" y="-412.24" font-family="Helvetica,sans-Serif" font-size="9.00" fill="grey">os</text>
</a>
</g>
</g>
<!-- ../../telemetry/dist/telemetry.js&#45;&gt;os -->
<g id="edge12" class="edge">
<title>../../telemetry/dist/telemetry.js&#45;&gt;os</title>
<path fill="none" stroke="#000000" stroke-dasharray="5,2" stroke-opacity="0.200000" d="M485.23,-265.27C489.43,-290.87 504.63,-362.74 547.12,-400.91 551.4,-404.75 556.65,-407.61 562.09,-409.74"/>
<polygon fill="#000000" fill-opacity="0.200000" stroke="#000000" stroke-opacity="0.200000" points="561.16,-411.98 567.52,-411.91 562.51,-408 561.16,-411.98"/>
</g>
<!-- node_modules/chalk -->
<g id="node13" class="node">
<title>node_modules/chalk</title>
<g id="a_node13"><a xlink:href="node_modules/chalk" xlink:title="chalk">
<polygon fill="#c40b0a" fill-opacity="0.101961" stroke="black" points="758.88,-96.79 706.85,-96.79 704.88,-94.82 704.88,-79.04 756.9,-79.04 758.88,-81.01 758.88,-96.79"/>
<polyline fill="none" stroke="black" points="756.9,-94.82 704.88,-94.82"/>
<polyline fill="none" stroke="black" points="756.9,-94.82 756.9,-79.04"/>
<polyline fill="none" stroke="black" points="756.9,-94.82 758.88,-96.79"/>
<text text-anchor="start" x="721" y="-84.24" font-family="Helvetica,sans-Serif" font-size="9.00" fill="#c40b0a">chalk</text>
</a>
</g>
</g>
<!-- node_modules/execa -->
<g id="node14" class="node">
<title>node_modules/execa</title>
<g id="a_node14"><a xlink:href="node_modules/execa" xlink:title="execa">
<polygon fill="#c40b0a" fill-opacity="0.101961" stroke="black" points="758.88,-156.79 706.85,-156.79 704.88,-154.82 704.88,-139.04 756.9,-139.04 758.88,-141.01 758.88,-156.79"/>
<polyline fill="none" stroke="black" points="756.9,-154.82 704.88,-154.82"/>
<polyline fill="none" stroke="black" points="756.9,-154.82 756.9,-139.04"/>
<polyline fill="none" stroke="black" points="756.9,-154.82 758.88,-156.79"/>
<text text-anchor="start" x="719.5" y="-144.24" font-family="Helvetica,sans-Serif" font-size="9.00" fill="#c40b0a">execa</text>
</a>
</g>
</g>
<!-- node_modules/lodash.memoize -->
<g id="node15" class="node">
<title>node_modules/lodash.memoize</title>
<g id="a_node15"><a xlink:href="node_modules/lodash.memoize" xlink:title="lodash.memoize">
<polygon fill="#c40b0a" fill-opacity="0.101961" stroke="black" points="773.62,-126.79 692.1,-126.79 690.12,-124.82 690.12,-109.04 771.65,-109.04 773.62,-111.01 773.62,-126.79"/>
<polyline fill="none" stroke="black" points="771.65,-124.82 690.12,-124.82"/>
<polyline fill="none" stroke="black" points="771.65,-124.82 771.65,-109.04"/>
<polyline fill="none" stroke="black" points="771.65,-124.82 773.62,-126.79"/>
<text text-anchor="start" x="698.12" y="-114.24" font-family="Helvetica,sans-Serif" font-size="9.00" fill="#c40b0a">lodash.memoize</text>
</a>
</g>
</g>
<!-- node_modules/terminal&#45;link -->
<g id="node16" class="node">
<title>node_modules/terminal&#45;link</title>
<g id="a_node16"><a xlink:href="node_modules/terminal-link" xlink:title="terminal&#45;link">
<polygon fill="#c40b0a" fill-opacity="0.101961" stroke="black" points="765,-66.79 700.72,-66.79 698.75,-64.82 698.75,-49.04 763.03,-49.04 765,-51.01 765,-66.79"/>
<polyline fill="none" stroke="black" points="763.03,-64.82 698.75,-64.82"/>
<polyline fill="none" stroke="black" points="763.03,-64.82 763.03,-49.04"/>
<polyline fill="none" stroke="black" points="763.03,-64.82 765,-66.79"/>
<text text-anchor="start" x="706.75" y="-54.24" font-family="Helvetica,sans-Serif" font-size="9.00" fill="#c40b0a">terminal&#45;link</text>
</a>
</g>
</g>
<!-- node_modules/yargs -->
<g id="node17" class="node">
<title>node_modules/yargs</title>
<g id="a_node17"><a xlink:href="node_modules/yargs" xlink:title="yargs">
<polygon fill="#c40b0a" fill-opacity="0.101961" stroke="black" points="758.88,-388.79 706.85,-388.79 704.88,-386.82 704.88,-371.04 756.9,-371.04 758.88,-373.01 758.88,-388.79"/>
<polyline fill="none" stroke="black" points="756.9,-386.82 704.88,-386.82"/>
<polyline fill="none" stroke="black" points="756.9,-386.82 756.9,-371.04"/>
<polyline fill="none" stroke="black" points="756.9,-386.82 758.88,-388.79"/>
<text text-anchor="start" x="720.62" y="-376.24" font-family="Helvetica,sans-Serif" font-size="9.00" fill="#c40b0a">yargs</text>
</a>
</g>
</g>
<!-- src/commands/storybook.ts -->
<g id="node18" class="node">
<title>src/commands/storybook.ts</title>
<g id="a_node18"><a xlink:href="src/commands/storybook.ts" xlink:title="storybook.ts">
<path fill="#ddfeff" stroke="black" d="M178.83,-96.79C178.83,-96.79 107.92,-96.79 107.92,-96.79 104.96,-96.79 102,-93.83 102,-90.87 102,-90.87 102,-84.96 102,-84.96 102,-82 104.96,-79.04 107.92,-79.04 107.92,-79.04 178.83,-79.04 178.83,-79.04 181.79,-79.04 184.75,-82 184.75,-84.96 184.75,-84.96 184.75,-90.87 184.75,-90.87 184.75,-93.83 181.79,-96.79 178.83,-96.79"/>
<text text-anchor="start" x="110" y="-85.24" font-family="Helvetica,sans-Serif" font-size="9.00">storybook.ts </text>
<text text-anchor="start" x="161" y="-85.24" font-family="Helvetica,sans-Serif" font-size="8.00" fill="#808080">83%</text>
</a>
</g>
</g>
<!-- src/commands/storybook.ts&#45;&gt;node_modules/terminal&#45;link -->
<g id="edge17" class="edge">
<title>src/commands/storybook.ts&#45;&gt;node_modules/terminal&#45;link</title>
<path fill="none" stroke="#000000" stroke-opacity="0.200000" d="M148.76,-78.8C156.4,-64.08 173.66,-35.45 197.75,-22.91 275.05,17.32 306.11,-7.91 393.25,-7.91 393.25,-7.91 393.25,-7.91 483.88,-7.91 561.23,-7.91 649.55,-31.76 696.79,-46.52"/>
<polygon fill="#000000" fill-opacity="0.200000" stroke="#000000" stroke-opacity="0.200000" points="696.11,-48.82 702.46,-48.63 697.37,-44.82 696.11,-48.82"/>
</g>
<!-- src/commands/storybook.ts&#45;&gt;node_modules/yargs -->
<g id="edge18" class="edge">
<title>src/commands/storybook.ts&#45;&gt;node_modules/yargs</title>
<path fill="none" stroke="#000000" stroke-opacity="0.200000" d="M145.63,-96.98C154.18,-154.83 209.22,-469.91 393.25,-469.91 393.25,-469.91 393.25,-469.91 483.88,-469.91 564.32,-469.91 595.83,-478.59 660.62,-430.91 666.4,-426.67 663.6,-422.02 668.62,-416.91 678.53,-406.84 691.74,-398.47 703.44,-392.27"/>
<polygon fill="#000000" fill-opacity="0.200000" stroke="#000000" stroke-opacity="0.200000" points="704.01,-393.82 708.4,-389.22 702.1,-390.08 704.01,-393.82"/>
</g>
<!-- src/lib/colors.ts -->
<g id="node19" class="node">
<title>src/lib/colors.ts</title>
<g id="a_node19"><a xlink:href="src/lib/colors.ts" xlink:title="colors.ts">
<path fill="#ddfeff" stroke="black" d="M510.83,-102.79C510.83,-102.79 454.92,-102.79 454.92,-102.79 451.96,-102.79 449,-99.83 449,-96.87 449,-96.87 449,-90.96 449,-90.96 449,-88 451.96,-85.04 454.92,-85.04 454.92,-85.04 510.83,-85.04 510.83,-85.04 513.79,-85.04 516.75,-88 516.75,-90.96 516.75,-90.96 516.75,-96.87 516.75,-96.87 516.75,-99.83 513.79,-102.79 510.83,-102.79"/>
<text text-anchor="start" x="457" y="-91.24" font-family="Helvetica,sans-Serif" font-size="9.00">colors.ts </text>
<text text-anchor="start" x="493" y="-91.24" font-family="Helvetica,sans-Serif" font-size="8.00" fill="#808080">25%</text>
</a>
</g>
</g>
<!-- src/commands/storybook.ts&#45;&gt;src/lib/colors.ts -->
<g id="edge14" class="edge">
<title>src/commands/storybook.ts&#45;&gt;src/lib/colors.ts</title>
<path fill="none" stroke="#000000" stroke-width="2" stroke-opacity="0.200000" d="M149.86,-78.72C158.27,-65.65 175.69,-42.25 197.75,-32.91 221.48,-22.88 406.22,-22.14 429.62,-32.91 449.29,-41.96 464.32,-62.47 473.1,-77.21"/>
<polygon fill="#000000" fill-opacity="0.200000" stroke="#000000" stroke-width="2" stroke-opacity="0.200000" points="471.55,-78.51 476.33,-82.7 475.21,-76.44 471.55,-78.51"/>
</g>
<!-- src/types.ts -->
<g id="node20" class="node">
<title>src/types.ts</title>
<g id="a_node20"><a xlink:href="src/types.ts" xlink:title="types.ts">
<path fill="#ddfeff" stroke="black" d="M418.46,-58.79C418.46,-58.79 370.04,-58.79 370.04,-58.79 367.08,-58.79 364.12,-55.83 364.12,-52.87 364.12,-52.87 364.12,-46.96 364.12,-46.96 364.12,-44 367.08,-41.04 370.04,-41.04 370.04,-41.04 418.46,-41.04 418.46,-41.04 421.42,-41.04 424.38,-44 424.38,-46.96 424.38,-46.96 424.38,-52.87 424.38,-52.87 424.38,-55.83 421.42,-58.79 418.46,-58.79"/>
<text text-anchor="start" x="372.12" y="-47.24" font-family="Helvetica,sans-Serif" font-size="9.00">types.ts </text>
<text text-anchor="start" x="405.12" y="-47.24" font-family="Helvetica,sans-Serif" font-size="8.00" fill="#808080">0%</text>
</a>
</g>
</g>
<!-- src/commands/storybook.ts&#45;&gt;src/types.ts -->
<g id="edge15" class="edge">
<title>src/commands/storybook.ts&#45;&gt;src/types.ts</title>
<path fill="none" stroke="#000000" stroke-width="2" stroke-opacity="0.200000" d="M174.38,-78.59C181.95,-76.49 190.1,-74.43 197.75,-72.91 251.87,-62.2 315.47,-55.85 355.08,-52.62"/>
<polygon fill="#000000" fill-opacity="0.200000" stroke="#000000" stroke-width="2" stroke-opacity="0.200000" points="355.06,-54.49 360.88,-51.93 354.73,-50.31 355.06,-54.49"/>
</g>
<!-- src/commands/storybookHandler.ts -->
<g id="node21" class="node">
<title>src/commands/storybookHandler.ts</title>
<g id="a_node21"><a xlink:href="src/commands/storybookHandler.ts" xlink:title="storybookHandler.ts">
<path fill="#ddfeff" stroke="black" d="M307.58,-96.79C307.58,-96.79 203.67,-96.79 203.67,-96.79 200.71,-96.79 197.75,-93.83 197.75,-90.87 197.75,-90.87 197.75,-84.96 197.75,-84.96 197.75,-82 200.71,-79.04 203.67,-79.04 203.67,-79.04 307.58,-79.04 307.58,-79.04 310.54,-79.04 313.5,-82 313.5,-84.96 313.5,-84.96 313.5,-90.87 313.5,-90.87 313.5,-93.83 310.54,-96.79 307.58,-96.79"/>
<text text-anchor="start" x="205.75" y="-85.24" font-family="Helvetica,sans-Serif" font-size="9.00">storybookHandler.ts </text>
<text text-anchor="start" x="289.75" y="-85.24" font-family="Helvetica,sans-Serif" font-size="8.00" fill="#808080">86%</text>
</a>
</g>
</g>
<!-- src/commands/storybook.ts&#45;&gt;src/commands/storybookHandler.ts -->
<g id="edge16" class="edge">
<title>src/commands/storybook.ts&#45;&gt;src/commands/storybookHandler.ts</title>
<path fill="none" stroke="#000000" stroke-width="2" stroke-dasharray="5,2" stroke-opacity="0.200000" d="M185.11,-87.91C186.25,-87.91 187.4,-87.91 188.55,-87.91"/>
<polygon fill="#000000" fill-opacity="0.200000" stroke="#000000" stroke-width="2" stroke-opacity="0.200000" points="188.5,-90.01 194.5,-87.91 188.5,-85.81 188.5,-90.01"/>
</g>
<!-- src/lib/colors.ts&#45;&gt;node_modules/chalk -->
<g id="edge26" class="edge">
<title>src/lib/colors.ts&#45;&gt;node_modules/chalk</title>
<path fill="none" stroke="#000000" stroke-opacity="0.200000" d="M517.19,-93.1C564.41,-91.96 650.3,-89.87 697.54,-88.72"/>
<polygon fill="#000000" fill-opacity="0.200000" stroke="#000000" stroke-opacity="0.200000" points="697.55,-90.8 703.49,-88.55 697.45,-86.6 697.55,-90.8"/>
</g>
<!-- src/commands/storybookHandler.ts&#45;&gt;path -->
<g id="edge24" class="edge">
<title>src/commands/storybookHandler.ts&#45;&gt;path</title>
<path fill="none" stroke="#000000" stroke-dasharray="5,2" stroke-opacity="0.200000" d="M258.08,-96.9C263.31,-127.08 283.33,-226.68 329.5,-293.91 401.53,-398.8 427.76,-435.85 547.12,-479.91 598.01,-498.7 661.9,-484.78 699.38,-473.19"/>
<polygon fill="#000000" fill-opacity="0.200000" stroke="#000000" stroke-opacity="0.200000" points="699.53,-475.03 704.61,-471.21 698.26,-471.03 699.53,-475.03"/>
</g>
<!-- src/commands/storybookHandler.ts&#45;&gt;../../telemetry/dist/index.js -->
<g id="edge22" class="edge">
<title>src/commands/storybookHandler.ts&#45;&gt;../../telemetry/dist/index.js</title>
<path fill="none" stroke="#000000" stroke-opacity="0.200000" d="M263.97,-96.95C286.4,-124.52 354.11,-207.78 381.53,-241.5"/>
<polygon fill="#000000" fill-opacity="0.200000" stroke="#000000" stroke-opacity="0.200000" points="380.45,-242.51 385.87,-245.84 383.71,-239.86 380.45,-242.51"/>
</g>
<!-- src/commands/storybookHandler.ts&#45;&gt;node_modules/execa -->
<g id="edge23" class="edge">
<title>src/commands/storybookHandler.ts&#45;&gt;node_modules/execa</title>
<path fill="none" stroke="#000000" stroke-opacity="0.200000" d="M267.62,-97.03C281.2,-107.66 305.44,-124.69 329.5,-131.91 461.24,-171.44 628.22,-159.56 697.95,-152.02"/>
<polygon fill="#000000" fill-opacity="0.200000" stroke="#000000" stroke-opacity="0.200000" points="698.06,-154.01 703.79,-151.26 697.59,-149.84 698.06,-154.01"/>
</g>
<!-- src/commands/storybookHandler.ts&#45;&gt;src/lib/colors.ts -->
<g id="edge19" class="edge">
<title>src/commands/storybookHandler.ts&#45;&gt;src/lib/colors.ts</title>
<path fill="none" stroke="#000000" stroke-width="2" stroke-opacity="0.200000" d="M313.75,-79.48C347.58,-75.84 391.21,-73.51 429.62,-78.91 435.08,-79.68 440.77,-80.88 446.3,-82.27"/>
<polygon fill="#000000" fill-opacity="0.200000" stroke="#000000" stroke-width="2" stroke-opacity="0.200000" points="446.46,-85.04 452.8,-84.59 447.56,-80.98 446.46,-85.04"/>
</g>
<!-- src/commands/storybookHandler.ts&#45;&gt;src/types.ts -->
<g id="edge21" class="edge">
<title>src/commands/storybookHandler.ts&#45;&gt;src/types.ts</title>
<path fill="none" stroke="#000000" stroke-width="2" stroke-opacity="0.200000" d="M312.81,-78.61C315.8,-77.51 318.72,-76.29 321.5,-74.91 325.74,-72.82 325.35,-70.17 329.5,-67.91 337.39,-63.64 346.38,-60.3 355.08,-57.72"/>
<polygon fill="#000000" fill-opacity="0.200000" stroke="#000000" stroke-width="2" stroke-opacity="0.200000" points="356.4,-58.99 361.63,-55.38 355.29,-54.94 356.4,-58.99"/>
</g>
<!-- src/lib/project.ts -->
<g id="node22" class="node">
<title>src/lib/project.ts</title>
<g id="a_node22"><a xlink:href="src/lib/project.ts" xlink:title="project.ts">
<path fill="#ddfeff" stroke="black" d="M423.71,-102.79C423.71,-102.79 364.79,-102.79 364.79,-102.79 361.83,-102.79 358.88,-99.83 358.88,-96.87 358.88,-96.87 358.88,-90.96 358.88,-90.96 358.88,-88 361.83,-85.04 364.79,-85.04 364.79,-85.04 423.71,-85.04 423.71,-85.04 426.67,-85.04 429.62,-88 429.62,-90.96 429.62,-90.96 429.62,-96.87 429.62,-96.87 429.62,-99.83 426.67,-102.79 423.71,-102.79"/>
<text text-anchor="start" x="366.88" y="-91.24" font-family="Helvetica,sans-Serif" font-size="9.00">project.ts </text>
<text text-anchor="start" x="405.88" y="-91.24" font-family="Helvetica,sans-Serif" font-size="8.00" fill="#808080">75%</text>
</a>
</g>
</g>
<!-- src/commands/storybookHandler.ts&#45;&gt;src/lib/project.ts -->
<g id="edge20" class="edge">
<title>src/commands/storybookHandler.ts&#45;&gt;src/lib/project.ts</title>
<path fill="none" stroke="#000000" stroke-width="2" stroke-opacity="0.200000" d="M313.77,-90.42C325.78,-90.95 338.25,-91.5 349.66,-92"/>
<polygon fill="#000000" fill-opacity="0.200000" stroke="#000000" stroke-width="2" stroke-opacity="0.200000" points="349.47,-94.22 355.55,-92.39 349.65,-90.03 349.47,-94.22"/>
</g>
<!-- src/lib/project.ts&#45;&gt;../../project&#45;config/dist/index.js -->
<g id="edge28" class="edge">
<title>src/lib/project.ts&#45;&gt;../../project&#45;config/dist/index.js</title>
<path fill="none" stroke="#000000" stroke-opacity="0.200000" d="M406.55,-103.09C440.04,-130.27 538.85,-210.45 578.32,-242.48"/>
<polygon fill="#000000" fill-opacity="0.200000" stroke="#000000" stroke-opacity="0.200000" points="576.71,-244.69 582.69,-246.84 579.36,-241.43 576.71,-244.69"/>
</g>
<!-- src/lib/project.ts&#45;&gt;node_modules/lodash.memoize -->
<g id="edge29" class="edge">
<title>src/lib/project.ts&#45;&gt;node_modules/lodash.memoize</title>
<path fill="none" stroke="#000000" stroke-opacity="0.200000" d="M420.01,-103.17C427.2,-105.47 435.14,-107.64 442.62,-108.91 526.33,-123.19 625.65,-122.5 683.15,-120.41"/>
<polygon fill="#000000" fill-opacity="0.200000" stroke="#000000" stroke-opacity="0.200000" points="683.03,-122.48 688.95,-120.15 682.87,-118.28 683.03,-122.48"/>
</g>
<!-- src/lib/project.ts&#45;&gt;src/lib/colors.ts -->
<g id="edge27" class="edge">
<title>src/lib/project.ts&#45;&gt;src/lib/colors.ts</title>
<path fill="none" stroke="#000000" stroke-width="2" stroke-opacity="0.200000" d="M429.98,-93.91C433.14,-93.91 436.36,-93.91 439.57,-93.91"/>
<polygon fill="#000000" fill-opacity="0.200000" stroke="#000000" stroke-width="2" stroke-opacity="0.200000" points="439.54,-96.01 445.54,-93.91 439.54,-91.81 439.54,-96.01"/>
</g>
<!-- src/index.ts -->
<g id="node23" class="node">
<title>src/index.ts</title>
<g id="a_node23"><a xlink:href="src/index.ts" xlink:title="index.ts">
<path fill="#ddfeff" stroke="black" d="M80.08,-96.79C80.08,-96.79 21.92,-96.79 21.92,-96.79 18.96,-96.79 16,-93.83 16,-90.87 16,-90.87 16,-84.96 16,-84.96 16,-82 18.96,-79.04 21.92,-79.04 21.92,-79.04 80.08,-79.04 80.08,-79.04 83.04,-79.04 86,-82 86,-84.96 86,-84.96 86,-90.87 86,-90.87 86,-93.83 83.04,-96.79 80.08,-96.79"/>
<text text-anchor="start" x="24" y="-85.24" font-family="Helvetica,sans-Serif" font-size="9.00">index.ts </text>
<text text-anchor="start" x="57.75" y="-85.24" font-family="Helvetica,sans-Serif" font-size="8.00" fill="#808080">100%</text>
</a>
</g>
</g>
<!-- src/index.ts&#45;&gt;src/commands/storybook.ts -->
<g id="edge25" class="edge">
<title>src/index.ts&#45;&gt;src/commands/storybook.ts</title>
<path fill="none" stroke="#000000" stroke-width="2" stroke-opacity="0.200000" d="M86.42,-87.91C88.61,-87.91 90.83,-87.91 93.06,-87.91"/>
<polygon fill="#000000" fill-opacity="0.200000" stroke="#000000" stroke-width="2" stroke-opacity="0.200000" points="92.68,-90.01 98.68,-87.91 92.68,-85.81 92.68,-90.01"/>
</g>
</g>
</svg>
