<?xml version="1.0" encoding="UTF-8" standalone="no"?>
<!DOCTYPE svg PUBLIC "-//W3C//DTD SVG 1.1//EN"
 "http://www.w3.org/Graphics/SVG/1.1/DTD/svg11.dtd">
<!-- Generated by graphviz version 8.0.5 (20230430.1635)
 -->
<!-- Title: dependency&#45;cruiser output Pages: 1 -->
<svg width="762pt" height="535pt"
 viewBox="0.00 0.00 761.50 534.68" xmlns="http://www.w3.org/2000/svg" xmlns:xlink="http://www.w3.org/1999/xlink">
<g id="graph0" class="graph" transform="scale(1 1) rotate(0) translate(4 530.68)">
<title>dependency&#45;cruiser output</title>
<polygon fill="white" stroke="none" points="-4,4 -4,-530.68 757.5,-530.68 757.5,4 -4,4"/>
<g id="clust1" class="cluster">
<title>cluster_..</title>
<path fill="#ffffff" stroke="black" stroke-width="2" d="M257.25,-264.81C257.25,-264.81 599,-264.81 599,-264.81 605,-264.81 611,-270.81 611,-276.81 611,-276.81 611,-406.81 611,-406.81 611,-412.81 605,-418.81 599,-418.81 599,-418.81 257.25,-418.81 257.25,-418.81 251.25,-418.81 245.25,-412.81 245.25,-406.81 245.25,-406.81 245.25,-276.81 245.25,-276.81 245.25,-270.81 251.25,-264.81 257.25,-264.81"/>
<text text-anchor="middle" x="428.12" y="-406.26" font-family="Helvetica,sans-Serif" font-weight="bold" font-size="9.00">..</text>
</g>
<g id="clust2" class="cluster">
<title>cluster_../..</title>
<path fill="#ffffff" stroke="black" stroke-width="2" d="M265.25,-272.81C265.25,-272.81 591,-272.81 591,-272.81 597,-272.81 603,-278.81 603,-284.81 603,-284.81 603,-380.81 603,-380.81 603,-386.81 597,-392.81 591,-392.81 591,-392.81 265.25,-392.81 265.25,-392.81 259.25,-392.81 253.25,-386.81 253.25,-380.81 253.25,-380.81 253.25,-284.81 253.25,-284.81 253.25,-278.81 259.25,-272.81 265.25,-272.81"/>
<text text-anchor="middle" x="428.12" y="-380.26" font-family="Helvetica,sans-Serif" font-weight="bold" font-size="9.00">..</text>
</g>
<g id="clust5" class="cluster">
<title>cluster_../../telemetry</title>
<path fill="#ffffff" stroke="black" stroke-width="2" d="M273.25,-280.81C273.25,-280.81 477.5,-280.81 477.5,-280.81 483.5,-280.81 489.5,-286.81 489.5,-292.81 489.5,-292.81 489.5,-354.81 489.5,-354.81 489.5,-360.81 483.5,-366.81 477.5,-366.81 477.5,-366.81 273.25,-366.81 273.25,-366.81 267.25,-366.81 261.25,-360.81 261.25,-354.81 261.25,-354.81 261.25,-292.81 261.25,-292.81 261.25,-286.81 267.25,-280.81 273.25,-280.81"/>
<text text-anchor="middle" x="375.38" y="-354.26" font-family="Helvetica,sans-Serif" font-weight="bold" font-size="9.00">telemetry</text>
</g>
<g id="clust6" class="cluster">
<title>cluster_../../telemetry/dist</title>
<path fill="#ffffff" stroke="black" stroke-width="2" d="M281.25,-288.81C281.25,-288.81 469.5,-288.81 469.5,-288.81 475.5,-288.81 481.5,-294.81 481.5,-300.81 481.5,-300.81 481.5,-328.81 481.5,-328.81 481.5,-334.81 475.5,-340.81 469.5,-340.81 469.5,-340.81 281.25,-340.81 281.25,-340.81 275.25,-340.81 269.25,-334.81 269.25,-328.81 269.25,-328.81 269.25,-300.81 269.25,-300.81 269.25,-294.81 275.25,-288.81 281.25,-288.81"/>
<text text-anchor="middle" x="375.38" y="-328.26" font-family="Helvetica,sans-Serif" font-weight="bold" font-size="9.00">dist</text>
</g>
<g id="clust3" class="cluster">
<title>cluster_../../project&#45;config</title>
<path fill="#ffffff" stroke="black" stroke-width="2" d="M509.5,-280.81C509.5,-280.81 583,-280.81 583,-280.81 589,-280.81 595,-286.81 595,-292.81 595,-292.81 595,-354.81 595,-354.81 595,-360.81 589,-366.81 583,-366.81 583,-366.81 509.5,-366.81 509.5,-366.81 503.5,-366.81 497.5,-360.81 497.5,-354.81 497.5,-354.81 497.5,-292.81 497.5,-292.81 497.5,-286.81 503.5,-280.81 509.5,-280.81"/>
<text text-anchor="middle" x="546.25" y="-354.26" font-family="Helvetica,sans-Serif" font-weight="bold" font-size="9.00">project&#45;config</text>
</g>
<g id="clust4" class="cluster">
<title>cluster_../../project&#45;config/dist</title>
<path fill="#ffffff" stroke="black" stroke-width="2" d="M517.5,-288.81C517.5,-288.81 575,-288.81 575,-288.81 581,-288.81 587,-294.81 587,-300.81 587,-300.81 587,-328.81 587,-328.81 587,-334.81 581,-340.81 575,-340.81 575,-340.81 517.5,-340.81 517.5,-340.81 511.5,-340.81 505.5,-334.81 505.5,-328.81 505.5,-328.81 505.5,-300.81 505.5,-300.81 505.5,-294.81 511.5,-288.81 517.5,-288.81"/>
<text text-anchor="middle" x="546.25" y="-328.26" font-family="Helvetica,sans-Serif" font-weight="bold" font-size="9.00">dist</text>
</g>
<g id="clust7" class="cluster">
<title>cluster_dist</title>
<path fill="#ffffff" stroke="black" stroke-width="2" d="M20,-78.81C20,-78.81 584.12,-78.81 584.12,-78.81 590.12,-78.81 596.12,-84.81 596.12,-90.81 596.12,-90.81 596.12,-238.81 596.12,-238.81 596.12,-244.81 590.12,-250.81 584.12,-250.81 584.12,-250.81 20,-250.81 20,-250.81 14,-250.81 8,-244.81 8,-238.81 8,-238.81 8,-90.81 8,-90.81 8,-84.81 14,-78.81 20,-78.81"/>
<text text-anchor="middle" x="302.06" y="-238.26" font-family="Helvetica,sans-Serif" font-weight="bold" font-size="9.00">dist</text>
</g>
<g id="clust8" class="cluster">
<title>cluster_dist/commands</title>
<path fill="#ffffff" stroke="black" stroke-width="2" d="M113.5,-112.81C113.5,-112.81 363.88,-112.81 363.88,-112.81 369.88,-112.81 375.88,-118.81 375.88,-124.81 375.88,-124.81 375.88,-212.81 375.88,-212.81 375.88,-218.81 369.88,-224.81 363.88,-224.81 363.88,-224.81 113.5,-224.81 113.5,-224.81 107.5,-224.81 101.5,-218.81 101.5,-212.81 101.5,-212.81 101.5,-124.81 101.5,-124.81 101.5,-118.81 107.5,-112.81 113.5,-112.81"/>
<text text-anchor="middle" x="238.69" y="-212.26" font-family="Helvetica,sans-Serif" font-weight="bold" font-size="9.00">commands</text>
</g>
<g id="clust9" class="cluster">
<title>cluster_dist/lib</title>
<path fill="#ffffff" stroke="black" stroke-width="2" d="M395.88,-112.81C395.88,-112.81 576.12,-112.81 576.12,-112.81 582.12,-112.81 588.12,-118.81 588.12,-124.81 588.12,-124.81 588.12,-212.81 588.12,-212.81 588.12,-218.81 582.12,-224.81 576.12,-224.81 576.12,-224.81 395.88,-224.81 395.88,-224.81 389.88,-224.81 383.88,-218.81 383.88,-212.81 383.88,-212.81 383.88,-124.81 383.88,-124.81 383.88,-118.81 389.88,-112.81 395.88,-112.81"/>
<text text-anchor="middle" x="486" y="-212.26" font-family="Helvetica,sans-Serif" font-weight="bold" font-size="9.00">lib</text>
</g>
<g id="clust10" class="cluster">
<title>cluster_node_modules</title>
<path fill="#ffffff" stroke="black" stroke-width="2" d="M631,-22.81C631,-22.81 733.5,-22.81 733.5,-22.81 739.5,-22.81 745.5,-28.81 745.5,-34.81 745.5,-34.81 745.5,-414.81 745.5,-414.81 745.5,-420.81 739.5,-426.81 733.5,-426.81 733.5,-426.81 631,-426.81 631,-426.81 625,-426.81 619,-420.81 619,-414.81 619,-414.81 619,-34.81 619,-34.81 619,-28.81 625,-22.81 631,-22.81"/>
<text text-anchor="middle" x="682.25" y="-414.26" font-family="Helvetica,sans-Serif" font-weight="bold" font-size="9.00">node_modules</text>
</g>
<g id="clust11" class="cluster">
<title>cluster_node_modules/@babel</title>
<path fill="#ffffff" stroke="black" stroke-width="2" d="M646.38,-206.81C646.38,-206.81 718.12,-206.81 718.12,-206.81 724.12,-206.81 730.12,-212.81 730.12,-218.81 730.12,-218.81 730.12,-246.81 730.12,-246.81 730.12,-252.81 724.12,-258.81 718.12,-258.81 718.12,-258.81 646.38,-258.81 646.38,-258.81 640.38,-258.81 634.38,-252.81 634.38,-246.81 634.38,-246.81 634.38,-218.81 634.38,-218.81 634.38,-212.81 640.38,-206.81 646.38,-206.81"/>
<text text-anchor="middle" x="682.25" y="-246.26" font-family="Helvetica,sans-Serif" font-weight="bold" font-size="9.00">@babel</text>
</g>
<g id="clust12" class="cluster">
<title>cluster_node_modules/@iarna</title>
<path fill="#ffffff" stroke="black" stroke-width="2" d="M659.25,-322.81C659.25,-322.81 705.25,-322.81 705.25,-322.81 711.25,-322.81 717.25,-328.81 717.25,-334.81 717.25,-334.81 717.25,-362.81 717.25,-362.81 717.25,-368.81 711.25,-374.81 705.25,-374.81 705.25,-374.81 659.25,-374.81 659.25,-374.81 653.25,-374.81 647.25,-368.81 647.25,-362.81 647.25,-362.81 647.25,-334.81 647.25,-334.81 647.25,-328.81 653.25,-322.81 659.25,-322.81"/>
<text text-anchor="middle" x="682.25" y="-362.26" font-family="Helvetica,sans-Serif" font-weight="bold" font-size="9.00">@iarna</text>
</g>
<!-- ../../project&#45;config/dist/index.js -->
<g id="node1" class="node">
<title>../../project&#45;config/dist/index.js</title>
<g id="a_node1"><a xlink:href="../../project-config/dist/index.js" xlink:title="index.js">
<path fill="#ffffcc" stroke="black" d="M573.08,-314.68C573.08,-314.68 519.42,-314.68 519.42,-314.68 516.46,-314.68 513.5,-311.72 513.5,-308.76 513.5,-308.76 513.5,-302.85 513.5,-302.85 513.5,-299.89 516.46,-296.93 519.42,-296.93 519.42,-296.93 573.08,-296.93 573.08,-296.93 576.04,-296.93 579,-299.89 579,-302.85 579,-302.85 579,-308.76 579,-308.76 579,-311.72 576.04,-314.68 573.08,-314.68"/>
<text text-anchor="start" x="521.5" y="-303.13" font-family="Helvetica,sans-Serif" font-size="9.00">index.js </text>
<text text-anchor="start" x="555.25" y="-303.13" font-family="Helvetica,sans-Serif" font-size="8.00" fill="#808080">67%</text>
</a>
</g>
</g>
<!-- node_modules/@iarna/toml -->
<g id="node2" class="node">
<title>node_modules/@iarna/toml</title>
<g id="a_node2"><a xlink:href="node_modules/@iarna/toml" xlink:title="toml">
<polygon fill="#c40b0a" fill-opacity="0.101961" stroke="black" points="709.25,-348.68 657.22,-348.68 655.25,-346.71 655.25,-330.93 707.28,-330.93 709.25,-332.9 709.25,-348.68"/>
<polyline fill="none" stroke="black" points="707.28,-346.71 655.25,-346.71"/>
<polyline fill="none" stroke="black" points="707.28,-346.71 707.28,-330.93"/>
<polyline fill="none" stroke="black" points="707.28,-346.71 709.25,-348.68"/>
<text text-anchor="start" x="673.62" y="-336.13" font-family="Helvetica,sans-Serif" font-size="9.00" fill="#c40b0a">toml</text>
</a>
</g>
</g>
<!-- ../../project&#45;config/dist/index.js&#45;&gt;node_modules/@iarna/toml -->
<g id="edge1" class="edge">
<title>../../project&#45;config/dist/index.js&#45;&gt;node_modules/@iarna/toml</title>
<path fill="none" stroke="#000000" stroke-opacity="0.200000" d="M577.13,-315.12C589.96,-318.97 605.15,-323.34 619,-326.81 628.39,-329.16 638.66,-331.42 648.09,-333.39"/>
<polygon fill="#000000" fill-opacity="0.200000" stroke="#000000" stroke-opacity="0.200000" points="647.49,-335.61 653.79,-334.76 648.34,-331.5 647.49,-335.61"/>
</g>
<!-- node_modules/deepmerge -->
<g id="node3" class="node">
<title>node_modules/deepmerge</title>
<g id="a_node3"><a xlink:href="node_modules/deepmerge" xlink:title="deepmerge">
<polygon fill="#c40b0a" fill-opacity="0.101961" stroke="black" points="713.88,-284.68 652.6,-284.68 650.62,-282.71 650.62,-266.93 711.9,-266.93 713.88,-268.9 713.88,-284.68"/>
<polyline fill="none" stroke="black" points="711.9,-282.71 650.62,-282.71"/>
<polyline fill="none" stroke="black" points="711.9,-282.71 711.9,-266.93"/>
<polyline fill="none" stroke="black" points="711.9,-282.71 713.88,-284.68"/>
<text text-anchor="start" x="658.62" y="-272.13" font-family="Helvetica,sans-Serif" font-size="9.00" fill="#c40b0a">deepmerge</text>
</a>
</g>
</g>
<!-- ../../project&#45;config/dist/index.js&#45;&gt;node_modules/deepmerge -->
<g id="edge2" class="edge">
<title>../../project&#45;config/dist/index.js&#45;&gt;node_modules/deepmerge</title>
<path fill="none" stroke="#000000" stroke-opacity="0.200000" d="M579.35,-298.62C598.68,-294.29 623.41,-288.76 643.66,-284.22"/>
<polygon fill="#000000" fill-opacity="0.200000" stroke="#000000" stroke-opacity="0.200000" points="643.94,-286.09 649.34,-282.73 643.02,-281.99 643.94,-286.09"/>
</g>
<!-- node_modules/fast&#45;glob -->
<g id="node4" class="node">
<title>node_modules/fast&#45;glob</title>
<g id="a_node4"><a xlink:href="node_modules/fast-glob" xlink:title="fast&#45;glob">
<polygon fill="#c40b0a" fill-opacity="0.101961" stroke="black" points="709.25,-314.68 657.22,-314.68 655.25,-312.71 655.25,-296.93 707.28,-296.93 709.25,-298.9 709.25,-314.68"/>
<polyline fill="none" stroke="black" points="707.28,-312.71 655.25,-312.71"/>
<polyline fill="none" stroke="black" points="707.28,-312.71 707.28,-296.93"/>
<polyline fill="none" stroke="black" points="707.28,-312.71 709.25,-314.68"/>
<text text-anchor="start" x="664.62" y="-302.13" font-family="Helvetica,sans-Serif" font-size="9.00" fill="#c40b0a">fast&#45;glob</text>
</a>
</g>
</g>
<!-- ../../project&#45;config/dist/index.js&#45;&gt;node_modules/fast&#45;glob -->
<g id="edge3" class="edge">
<title>../../project&#45;config/dist/index.js&#45;&gt;node_modules/fast&#45;glob</title>
<path fill="none" stroke="#000000" stroke-opacity="0.200000" d="M579.35,-305.81C600.08,-305.81 626.99,-305.81 647.95,-305.81"/>
<polygon fill="#000000" fill-opacity="0.200000" stroke="#000000" stroke-opacity="0.200000" points="647.82,-307.91 653.82,-305.81 647.82,-303.71 647.82,-307.91"/>
</g>
<!-- fs -->
<g id="node5" class="node">
<title>fs</title>
<g id="a_node5"><a xlink:title="fs">
<path fill="#ffffcc" stroke="grey" d="M703.33,-482.68C703.33,-482.68 661.17,-482.68 661.17,-482.68 658.21,-482.68 655.25,-479.72 655.25,-476.76 655.25,-476.76 655.25,-470.85 655.25,-470.85 655.25,-467.89 658.21,-464.93 661.17,-464.93 661.17,-464.93 703.33,-464.93 703.33,-464.93 706.29,-464.93 709.25,-467.89 709.25,-470.85 709.25,-470.85 709.25,-476.76 709.25,-476.76 709.25,-479.72 706.29,-482.68 703.33,-482.68"/>
<text text-anchor="middle" x="682.25" y="-470.13" font-family="Helvetica,sans-Serif" font-size="9.00" fill="grey">fs</text>
</a>
</g>
</g>
<!-- ../../project&#45;config/dist/index.js&#45;&gt;fs -->
<g id="edge4" class="edge">
<title>../../project&#45;config/dist/index.js&#45;&gt;fs</title>
<path fill="none" stroke="#000000" stroke-dasharray="5,2" stroke-opacity="0.200000" d="M553.74,-315.18C566.6,-334.2 595.45,-379.1 611,-420.81 617.03,-436.98 606.97,-446.43 619,-458.81 626.56,-466.59 637.41,-470.62 647.93,-472.62"/>
<polygon fill="#000000" fill-opacity="0.200000" stroke="#000000" stroke-opacity="0.200000" points="647.52,-474.84 653.77,-473.67 648.15,-470.69 647.52,-474.84"/>
</g>
<!-- path -->
<g id="node6" class="node">
<title>path</title>
<g id="a_node6"><a xlink:title="path">
<path fill="#ffffcc" stroke="grey" d="M703.33,-452.68C703.33,-452.68 661.17,-452.68 661.17,-452.68 658.21,-452.68 655.25,-449.72 655.25,-446.76 655.25,-446.76 655.25,-440.85 655.25,-440.85 655.25,-437.89 658.21,-434.93 661.17,-434.93 661.17,-434.93 703.33,-434.93 703.33,-434.93 706.29,-434.93 709.25,-437.89 709.25,-440.85 709.25,-440.85 709.25,-446.76 709.25,-446.76 709.25,-449.72 706.29,-452.68 703.33,-452.68"/>
<text text-anchor="middle" x="682.25" y="-440.13" font-family="Helvetica,sans-Serif" font-size="9.00" fill="grey">path</text>
</a>
</g>
</g>
<!-- ../../project&#45;config/dist/index.js&#45;&gt;path -->
<g id="edge5" class="edge">
<title>../../project&#45;config/dist/index.js&#45;&gt;path</title>
<path fill="none" stroke="#000000" stroke-dasharray="5,2" stroke-opacity="0.200000" d="M551.94,-314.84C566.14,-342.08 608.38,-422 619,-429.81 627.41,-435.99 638.07,-439.52 648.18,-441.51"/>
<polygon fill="#000000" fill-opacity="0.200000" stroke="#000000" stroke-opacity="0.200000" points="647.79,-443.74 654.05,-442.65 648.48,-439.59 647.79,-443.74"/>
</g>
<!-- node_modules/string&#45;env&#45;interpolation -->
<g id="node7" class="node">
<title>node_modules/string&#45;env&#45;interpolation</title>
<g id="a_node7"><a xlink:href="node_modules/string-env-interpolation" xlink:title="string&#45;env&#45;interpolation">
<polygon fill="#c40b0a" fill-opacity="0.101961" stroke="black" points="737.5,-400.68 628.97,-400.68 627,-398.71 627,-382.93 735.53,-382.93 737.5,-384.9 737.5,-400.68"/>
<polyline fill="none" stroke="black" points="735.53,-398.71 627,-398.71"/>
<polyline fill="none" stroke="black" points="735.53,-398.71 735.53,-382.93"/>
<polyline fill="none" stroke="black" points="735.53,-398.71 737.5,-400.68"/>
<text text-anchor="start" x="635" y="-388.13" font-family="Helvetica,sans-Serif" font-size="9.00" fill="#c40b0a">string&#45;env&#45;interpolation</text>
</a>
</g>
</g>
<!-- ../../project&#45;config/dist/index.js&#45;&gt;node_modules/string&#45;env&#45;interpolation -->
<g id="edge6" class="edge">
<title>../../project&#45;config/dist/index.js&#45;&gt;node_modules/string&#45;env&#45;interpolation</title>
<path fill="none" stroke="#000000" stroke-opacity="0.200000" d="M553.6,-314.95C564.87,-330.46 589.95,-361.78 619,-377.81 620.3,-378.52 621.64,-379.2 623,-379.85"/>
<polygon fill="#000000" fill-opacity="0.200000" stroke="#000000" stroke-opacity="0.200000" points="621.78,-382.04 628.12,-382.46 623.43,-378.18 621.78,-382.04"/>
</g>
<!-- ../../telemetry/dist/index.js -->
<g id="node8" class="node">
<title>../../telemetry/dist/index.js</title>
<g id="a_node8"><a xlink:href="../../telemetry/dist/index.js" xlink:title="index.js">
<path fill="#ffffcc" stroke="black" d="M336.83,-314.68C336.83,-314.68 283.17,-314.68 283.17,-314.68 280.21,-314.68 277.25,-311.72 277.25,-308.76 277.25,-308.76 277.25,-302.85 277.25,-302.85 277.25,-299.89 280.21,-296.93 283.17,-296.93 283.17,-296.93 336.83,-296.93 336.83,-296.93 339.79,-296.93 342.75,-299.89 342.75,-302.85 342.75,-302.85 342.75,-308.76 342.75,-308.76 342.75,-311.72 339.79,-314.68 336.83,-314.68"/>
<text text-anchor="start" x="285.25" y="-303.13" font-family="Helvetica,sans-Serif" font-size="9.00">index.js </text>
<text text-anchor="start" x="319" y="-303.13" font-family="Helvetica,sans-Serif" font-size="8.00" fill="#808080">80%</text>
</a>
</g>
</g>
<!-- ../../telemetry/dist/telemetry.js -->
<g id="node9" class="node">
<title>../../telemetry/dist/telemetry.js</title>
<g id="a_node9"><a xlink:href="../../telemetry/dist/telemetry.js" xlink:title="telemetry.js">
<path fill="#ffffcc" stroke="black" d="M467.58,-314.68C467.58,-314.68 398.92,-314.68 398.92,-314.68 395.96,-314.68 393,-311.72 393,-308.76 393,-308.76 393,-302.85 393,-302.85 393,-299.89 395.96,-296.93 398.92,-296.93 398.92,-296.93 467.58,-296.93 467.58,-296.93 470.54,-296.93 473.5,-299.89 473.5,-302.85 473.5,-302.85 473.5,-308.76 473.5,-308.76 473.5,-311.72 470.54,-314.68 467.58,-314.68"/>
<text text-anchor="start" x="401" y="-303.13" font-family="Helvetica,sans-Serif" font-size="9.00">telemetry.js </text>
<text text-anchor="start" x="449.75" y="-303.13" font-family="Helvetica,sans-Serif" font-size="8.00" fill="#808080">88%</text>
</a>
</g>
</g>
<!-- ../../telemetry/dist/index.js&#45;&gt;../../telemetry/dist/telemetry.js -->
<g id="edge7" class="edge">
<title>../../telemetry/dist/index.js&#45;&gt;../../telemetry/dist/telemetry.js</title>
<path fill="none" stroke="#000000" stroke-width="2" stroke-opacity="0.200000" d="M343.17,-305.81C355.61,-305.81 370.1,-305.81 383.74,-305.81"/>
<polygon fill="#000000" fill-opacity="0.200000" stroke="#000000" stroke-width="2" stroke-opacity="0.200000" points="383.55,-307.91 389.55,-305.81 383.55,-303.71 383.55,-307.91"/>
</g>
<!-- node_modules/@babel/runtime&#45;corejs3 -->
<g id="node10" class="node">
<title>node_modules/@babel/runtime&#45;corejs3</title>
<g id="a_node10"><a xlink:href="node_modules/@babel/runtime-corejs3" xlink:title="runtime&#45;corejs3">
<polygon fill="#c40b0a" fill-opacity="0.101961" stroke="black" points="722.12,-232.68 644.35,-232.68 642.38,-230.71 642.38,-214.93 720.15,-214.93 722.12,-216.9 722.12,-232.68"/>
<polyline fill="none" stroke="black" points="720.15,-230.71 642.38,-230.71"/>
<polyline fill="none" stroke="black" points="720.15,-230.71 720.15,-214.93"/>
<polyline fill="none" stroke="black" points="720.15,-230.71 722.12,-232.68"/>
<text text-anchor="start" x="650.38" y="-220.13" font-family="Helvetica,sans-Serif" font-size="9.00" fill="#c40b0a">runtime&#45;corejs3</text>
</a>
</g>
</g>
<!-- ../../telemetry/dist/index.js&#45;&gt;node_modules/@babel/runtime&#45;corejs3 -->
<g id="edge8" class="edge">
<title>../../telemetry/dist/index.js&#45;&gt;node_modules/@babel/runtime&#45;corejs3</title>
<path fill="none" stroke="#000000" stroke-opacity="0.200000" d="M342.89,-298.5C398.77,-285.74 518.04,-258.65 619,-236.81 624.35,-235.65 629.97,-234.45 635.54,-233.27"/>
<polygon fill="#000000" fill-opacity="0.200000" stroke="#000000" stroke-opacity="0.200000" points="635.61,-235.19 641.05,-231.9 634.74,-231.08 635.61,-235.19"/>
</g>
<!-- ../../telemetry/dist/telemetry.js&#45;&gt;../../project&#45;config/dist/index.js -->
<g id="edge10" class="edge">
<title>../../telemetry/dist/telemetry.js&#45;&gt;../../project&#45;config/dist/index.js</title>
<path fill="none" stroke="#000000" stroke-opacity="0.200000" d="M473.7,-305.81C484.33,-305.81 495.82,-305.81 506.42,-305.81"/>
<polygon fill="#000000" fill-opacity="0.200000" stroke="#000000" stroke-opacity="0.200000" points="506.24,-307.91 512.24,-305.81 506.24,-303.71 506.24,-307.91"/>
</g>
<!-- ../../telemetry/dist/telemetry.js&#45;&gt;path -->
<g id="edge13" class="edge">
<title>../../telemetry/dist/telemetry.js&#45;&gt;path</title>
<path fill="none" stroke="#000000" stroke-dasharray="5,2" stroke-opacity="0.200000" d="M434.43,-315.13C435.54,-344.37 443.41,-434.53 497.5,-471.81 539.04,-500.43 566.96,-496.41 611,-471.81 616.92,-468.5 613.51,-462.79 619,-458.81 627.41,-452.7 637.97,-449.06 647.99,-446.89"/>
<polygon fill="#000000" fill-opacity="0.200000" stroke="#000000" stroke-opacity="0.200000" points="648.31,-448.78 653.82,-445.61 647.53,-444.65 648.31,-448.78"/>
</g>
<!-- ../../telemetry/dist/telemetry.js&#45;&gt;node_modules/@babel/runtime&#45;corejs3 -->
<g id="edge9" class="edge">
<title>../../telemetry/dist/telemetry.js&#45;&gt;node_modules/@babel/runtime&#45;corejs3</title>
<path fill="none" stroke="#000000" stroke-opacity="0.200000" d="M434.97,-315.11C437.6,-341.88 449.25,-419.21 497.5,-450.81 539.7,-478.44 574.67,-485.8 611,-450.81 628.14,-434.3 603.65,-254.99 619,-236.81 623.38,-231.62 629.25,-228.17 635.64,-225.93"/>
<polygon fill="#000000" fill-opacity="0.200000" stroke="#000000" stroke-opacity="0.200000" points="635.97,-227.74 641.16,-224.07 634.82,-223.7 635.97,-227.74"/>
</g>
<!-- child_process -->
<g id="node11" class="node">
<title>child_process</title>
<g id="a_node11"><a xlink:title="child_process">
<path fill="#ffffcc" stroke="grey" d="M576.83,-526.68C576.83,-526.68 515.67,-526.68 515.67,-526.68 512.71,-526.68 509.75,-523.72 509.75,-520.76 509.75,-520.76 509.75,-514.85 509.75,-514.85 509.75,-511.89 512.71,-508.93 515.67,-508.93 515.67,-508.93 576.83,-508.93 576.83,-508.93 579.79,-508.93 582.75,-511.89 582.75,-514.85 582.75,-514.85 582.75,-520.76 582.75,-520.76 582.75,-523.72 579.79,-526.68 576.83,-526.68"/>
<text text-anchor="middle" x="546.25" y="-514.13" font-family="Helvetica,sans-Serif" font-size="9.00" fill="grey">child_process</text>
</a>
</g>
</g>
<!-- ../../telemetry/dist/telemetry.js&#45;&gt;child_process -->
<g id="edge11" class="edge">
<title>../../telemetry/dist/telemetry.js&#45;&gt;child_process</title>
<path fill="none" stroke="#000000" stroke-dasharray="5,2" stroke-opacity="0.200000" d="M434.55,-314.9C436.03,-345.33 444.88,-444.74 497.5,-499.81 499.43,-501.82 501.6,-503.62 503.94,-505.21"/>
<polygon fill="#000000" fill-opacity="0.200000" stroke="#000000" stroke-opacity="0.200000" points="502.4,-507.33 508.63,-508.58 504.54,-503.72 502.4,-507.33"/>
</g>
<!-- os -->
<g id="node12" class="node">
<title>os</title>
<g id="a_node12"><a xlink:title="os">
<path fill="#ffffcc" stroke="grey" d="M567.33,-444.68C567.33,-444.68 525.17,-444.68 525.17,-444.68 522.21,-444.68 519.25,-441.72 519.25,-438.76 519.25,-438.76 519.25,-432.85 519.25,-432.85 519.25,-429.89 522.21,-426.93 525.17,-426.93 525.17,-426.93 567.33,-426.93 567.33,-426.93 570.29,-426.93 573.25,-429.89 573.25,-432.85 573.25,-432.85 573.25,-438.76 573.25,-438.76 573.25,-441.72 570.29,-444.68 567.33,-444.68"/>
<text text-anchor="middle" x="546.25" y="-432.13" font-family="Helvetica,sans-Serif" font-size="9.00" fill="grey">os</text>
</a>
</g>
</g>
<!-- ../../telemetry/dist/telemetry.js&#45;&gt;os -->
<g id="edge12" class="edge">
<title>../../telemetry/dist/telemetry.js&#45;&gt;os</title>
<path fill="none" stroke="#000000" stroke-dasharray="5,2" stroke-opacity="0.200000" d="M442.23,-315.16C461.35,-337.55 509.89,-394.39 532.85,-421.28"/>
<polygon fill="#000000" fill-opacity="0.200000" stroke="#000000" stroke-opacity="0.200000" points="531.85,-422.34 537.34,-425.54 535.04,-419.61 531.85,-422.34"/>
</g>
<!-- dist/commands/storybook.d.ts -->
<g id="node13" class="node">
<title>dist/commands/storybook.d.ts</title>
<g id="a_node13"><a xlink:href="dist/commands/storybook.d.ts" xlink:title="storybook.d.ts">
<path fill="#ddfeff" stroke="black" d="M214.83,-138.68C214.83,-138.68 131.92,-138.68 131.92,-138.68 128.96,-138.68 126,-135.72 126,-132.76 126,-132.76 126,-126.85 126,-126.85 126,-123.89 128.96,-120.93 131.92,-120.93 131.92,-120.93 214.83,-120.93 214.83,-120.93 217.79,-120.93 220.75,-123.89 220.75,-126.85 220.75,-126.85 220.75,-132.76 220.75,-132.76 220.75,-135.72 217.79,-138.68 214.83,-138.68"/>
<text text-anchor="start" x="134" y="-127.13" font-family="Helvetica,sans-Serif" font-size="9.00">storybook.d.ts </text>
<text text-anchor="start" x="192.5" y="-127.13" font-family="Helvetica,sans-Serif" font-size="8.00" fill="#808080">100%</text>
</a>
</g>
</g>
<!-- dist/types.js -->
<g id="node14" class="node">
<title>dist/types.js</title>
<g id="a_node14"><a xlink:href="dist/types.js" xlink:title="types.js">
<path fill="#ffffcc" stroke="black" d="M334.21,-104.68C334.21,-104.68 285.79,-104.68 285.79,-104.68 282.83,-104.68 279.88,-101.72 279.88,-98.76 279.88,-98.76 279.88,-92.85 279.88,-92.85 279.88,-89.89 282.83,-86.93 285.79,-86.93 285.79,-86.93 334.21,-86.93 334.21,-86.93 337.17,-86.93 340.12,-89.89 340.12,-92.85 340.12,-92.85 340.12,-98.76 340.12,-98.76 340.12,-101.72 337.17,-104.68 334.21,-104.68"/>
<text text-anchor="start" x="287.88" y="-93.13" font-family="Helvetica,sans-Serif" font-size="9.00">types.js </text>
<text text-anchor="start" x="320.88" y="-93.13" font-family="Helvetica,sans-Serif" font-size="8.00" fill="#808080">0%</text>
</a>
</g>
</g>
<!-- dist/commands/storybook.d.ts&#45;&gt;dist/types.js -->
<g id="edge14" class="edge">
<title>dist/commands/storybook.d.ts&#45;&gt;dist/types.js</title>
<path fill="none" stroke="#000000" stroke-width="2" stroke-opacity="0.200000" d="M206.02,-120.45C218.24,-116.95 232.35,-113.04 245.25,-109.81 253.49,-107.74 262.37,-105.68 270.81,-103.81"/>
<polygon fill="#000000" fill-opacity="0.200000" stroke="#000000" stroke-width="2" stroke-opacity="0.200000" points="271.99,-105.26 277.4,-101.93 271.09,-101.16 271.99,-105.26"/>
</g>
<!-- node_modules/yargs -->
<g id="node15" class="node">
<title>node_modules/yargs</title>
<g id="a_node15"><a xlink:href="node_modules/yargs" xlink:title="yargs">
<polygon fill="#c40b0a" fill-opacity="0.101961" stroke="black" points="709.25,-48.68 657.22,-48.68 655.25,-46.71 655.25,-30.93 707.28,-30.93 709.25,-32.9 709.25,-48.68"/>
<polyline fill="none" stroke="black" points="707.28,-46.71 655.25,-46.71"/>
<polyline fill="none" stroke="black" points="707.28,-46.71 707.28,-30.93"/>
<polyline fill="none" stroke="black" points="707.28,-46.71 709.25,-48.68"/>
<text text-anchor="start" x="671" y="-36.13" font-family="Helvetica,sans-Serif" font-size="9.00" fill="#c40b0a">yargs</text>
</a>
</g>
</g>
<!-- dist/commands/storybook.d.ts&#45;&gt;node_modules/yargs -->
<g id="edge15" class="edge">
<title>dist/commands/storybook.d.ts&#45;&gt;node_modules/yargs</title>
<path fill="none" stroke="#000000" stroke-opacity="0.200000" d="M178.12,-120.49C186.62,-100.83 209.43,-55.43 245.25,-37.81 381.73,29.33 572.57,-10.15 648.35,-30.25"/>
<polygon fill="#000000" fill-opacity="0.200000" stroke="#000000" stroke-opacity="0.200000" points="647.56,-32.48 653.9,-32.01 648.65,-28.42 647.56,-32.48"/>
</g>
<!-- dist/commands/storybook.js -->
<g id="node16" class="node">
<title>dist/commands/storybook.js</title>
<g id="a_node16"><a xlink:href="dist/commands/storybook.js" xlink:title="storybook.js">
<path fill="#ffffcc" stroke="black" d="M208.83,-198.68C208.83,-198.68 137.92,-198.68 137.92,-198.68 134.96,-198.68 132,-195.72 132,-192.76 132,-192.76 132,-186.85 132,-186.85 132,-183.89 134.96,-180.93 137.92,-180.93 137.92,-180.93 208.83,-180.93 208.83,-180.93 211.79,-180.93 214.75,-183.89 214.75,-186.85 214.75,-186.85 214.75,-192.76 214.75,-192.76 214.75,-195.72 211.79,-198.68 208.83,-198.68"/>
<text text-anchor="start" x="140" y="-187.13" font-family="Helvetica,sans-Serif" font-size="9.00">storybook.js </text>
<text text-anchor="start" x="191" y="-187.13" font-family="Helvetica,sans-Serif" font-size="8.00" fill="#808080">60%</text>
</a>
</g>
</g>
<!-- dist/lib/colors.js -->
<g id="node17" class="node">
<title>dist/lib/colors.js</title>
<g id="a_node17"><a xlink:href="dist/lib/colors.js" xlink:title="colors.js">
<path fill="#ffffcc" stroke="black" d="M574.21,-138.68C574.21,-138.68 518.29,-138.68 518.29,-138.68 515.33,-138.68 512.38,-135.72 512.38,-132.76 512.38,-132.76 512.38,-126.85 512.38,-126.85 512.38,-123.89 515.33,-120.93 518.29,-120.93 518.29,-120.93 574.21,-120.93 574.21,-120.93 577.17,-120.93 580.12,-123.89 580.12,-126.85 580.12,-126.85 580.12,-132.76 580.12,-132.76 580.12,-135.72 577.17,-138.68 574.21,-138.68"/>
<text text-anchor="start" x="520.38" y="-127.13" font-family="Helvetica,sans-Serif" font-size="9.00">colors.js </text>
<text text-anchor="start" x="556.38" y="-127.13" font-family="Helvetica,sans-Serif" font-size="8.00" fill="#808080">25%</text>
</a>
</g>
</g>
<!-- dist/commands/storybook.js&#45;&gt;dist/lib/colors.js -->
<g id="edge16" class="edge">
<title>dist/commands/storybook.js&#45;&gt;dist/lib/colors.js</title>
<path fill="none" stroke="#000000" stroke-width="2" stroke-opacity="0.200000" d="M215.22,-185.35C223.08,-183.09 230.85,-179.74 237.25,-174.81 243.23,-170.19 239.54,-164.75 245.25,-159.81 291.91,-119.44 325.69,-148.69 375.88,-112.81 380.5,-109.5 378.75,-105.27 383.88,-102.81 426.19,-82.47 443.74,-92.31 489.5,-102.81 501.13,-105.47 513.15,-110.9 523.04,-116.19"/>
<polygon fill="#000000" fill-opacity="0.200000" stroke="#000000" stroke-width="2" stroke-opacity="0.200000" points="522.52,-118.44 528.78,-119.54 524.58,-114.77 522.52,-118.44"/>
</g>
<!-- dist/commands/storybookHandler.js -->
<g id="node18" class="node">
<title>dist/commands/storybookHandler.js</title>
<g id="a_node18"><a xlink:href="dist/commands/storybookHandler.js" xlink:title="storybookHandler.js">
<path fill="#ffffcc" stroke="black" d="M361.96,-183.68C361.96,-183.68 258.04,-183.68 258.04,-183.68 255.08,-183.68 252.12,-180.72 252.12,-177.76 252.12,-177.76 252.12,-171.85 252.12,-171.85 252.12,-168.89 255.08,-165.93 258.04,-165.93 258.04,-165.93 361.96,-165.93 361.96,-165.93 364.92,-165.93 367.88,-168.89 367.88,-171.85 367.88,-171.85 367.88,-177.76 367.88,-177.76 367.88,-180.72 364.92,-183.68 361.96,-183.68"/>
<text text-anchor="start" x="260.12" y="-172.13" font-family="Helvetica,sans-Serif" font-size="9.00">storybookHandler.js </text>
<text text-anchor="start" x="344.12" y="-172.13" font-family="Helvetica,sans-Serif" font-size="8.00" fill="#808080">83%</text>
</a>
</g>
</g>
<!-- dist/commands/storybook.js&#45;&gt;dist/commands/storybookHandler.js -->
<g id="edge17" class="edge">
<title>dist/commands/storybook.js&#45;&gt;dist/commands/storybookHandler.js</title>
<path fill="none" stroke="#000000" stroke-width="2" stroke-dasharray="5,2" stroke-opacity="0.200000" d="M215.13,-185.26C224.02,-184.27 233.64,-183.2 243.23,-182.13"/>
<polygon fill="#000000" fill-opacity="0.200000" stroke="#000000" stroke-width="2" stroke-opacity="0.200000" points="243.26,-183.91 248.99,-181.16 242.8,-179.74 243.26,-183.91"/>
</g>
<!-- node_modules/terminal&#45;link -->
<g id="node19" class="node">
<title>node_modules/terminal&#45;link</title>
<g id="a_node19"><a xlink:href="node_modules/terminal-link" xlink:title="terminal&#45;link">
<polygon fill="#c40b0a" fill-opacity="0.101961" stroke="black" points="715.38,-78.68 651.1,-78.68 649.12,-76.71 649.12,-60.93 713.4,-60.93 715.38,-62.9 715.38,-78.68"/>
<polyline fill="none" stroke="black" points="713.4,-76.71 649.12,-76.71"/>
<polyline fill="none" stroke="black" points="713.4,-76.71 713.4,-60.93"/>
<polyline fill="none" stroke="black" points="713.4,-76.71 715.38,-78.68"/>
<text text-anchor="start" x="657.12" y="-66.13" font-family="Helvetica,sans-Serif" font-size="9.00" fill="#c40b0a">terminal&#45;link</text>
</a>
</g>
</g>
<!-- dist/commands/storybook.js&#45;&gt;node_modules/terminal&#45;link -->
<g id="edge18" class="edge">
<title>dist/commands/storybook.js&#45;&gt;node_modules/terminal&#45;link</title>
<path fill="none" stroke="#000000" stroke-opacity="0.200000" d="M215.03,-187.77C223.49,-185.44 231.55,-181.45 237.25,-174.81 251.61,-158.05 229.13,-90.88 245.25,-75.81 301.74,-22.97 545.85,-50.66 642.06,-63.99"/>
<polygon fill="#000000" fill-opacity="0.200000" stroke="#000000" stroke-opacity="0.200000" points="641.49,-66.17 647.73,-64.92 642.08,-62.01 641.49,-66.17"/>
</g>
<!-- node_modules/chalk -->
<g id="node26" class="node">
<title>node_modules/chalk</title>
<g id="a_node26"><a xlink:href="node_modules/chalk" xlink:title="chalk">
<polygon fill="#c40b0a" fill-opacity="0.101961" stroke="black" points="709.25,-138.68 657.22,-138.68 655.25,-136.71 655.25,-120.93 707.28,-120.93 709.25,-122.9 709.25,-138.68"/>
<polyline fill="none" stroke="black" points="707.28,-136.71 655.25,-136.71"/>
<polyline fill="none" stroke="black" points="707.28,-136.71 707.28,-120.93"/>
<polyline fill="none" stroke="black" points="707.28,-136.71 709.25,-138.68"/>
<text text-anchor="start" x="671.38" y="-126.13" font-family="Helvetica,sans-Serif" font-size="9.00" fill="#c40b0a">chalk</text>
</a>
</g>
</g>
<!-- dist/lib/colors.js&#45;&gt;node_modules/chalk -->
<g id="edge28" class="edge">
<title>dist/lib/colors.js&#45;&gt;node_modules/chalk</title>
<path fill="none" stroke="#000000" stroke-opacity="0.200000" d="M580.37,-129.81C600.98,-129.81 627.4,-129.81 648.03,-129.81"/>
<polygon fill="#000000" fill-opacity="0.200000" stroke="#000000" stroke-opacity="0.200000" points="647.79,-131.91 653.79,-129.81 647.79,-127.71 647.79,-131.91"/>
</g>
<!-- dist/commands/storybookHandler.js&#45;&gt;path -->
<g id="edge24" class="edge">
<title>dist/commands/storybookHandler.js&#45;&gt;path</title>
<path fill="none" stroke="#000000" stroke-dasharray="5,2" stroke-opacity="0.200000" d="M321.06,-184.07C334.43,-195.9 359.24,-216.23 383.88,-227.81 478.16,-272.13 544.83,-205.33 611,-285.81 631.35,-310.56 598.29,-405.35 619,-429.81 626.17,-438.28 637.27,-442.26 648.11,-443.97"/>
<polygon fill="#000000" fill-opacity="0.200000" stroke="#000000" stroke-opacity="0.200000" points="647.59,-446.15 653.8,-444.77 648.09,-441.97 647.59,-446.15"/>
</g>
<!-- dist/commands/storybookHandler.js&#45;&gt;../../telemetry/dist/index.js -->
<g id="edge22" class="edge">
<title>dist/commands/storybookHandler.js&#45;&gt;../../telemetry/dist/index.js</title>
<path fill="none" stroke="#000000" stroke-opacity="0.200000" d="M310,-184.02C310,-219.4 310,-254.78 310,-290.16"/>
<polygon fill="#000000" fill-opacity="0.200000" stroke="#000000" stroke-opacity="0.200000" points="307.9,-289.77 310,-295.77 312.1,-289.77 307.9,-289.77"/>
</g>
<!-- dist/commands/storybookHandler.js&#45;&gt;dist/lib/colors.js -->
<g id="edge20" class="edge">
<title>dist/commands/storybookHandler.js&#45;&gt;dist/lib/colors.js</title>
<path fill="none" stroke="#000000" stroke-width="2" stroke-opacity="0.200000" d="M322.58,-165.54C335.63,-155.05 357.44,-137.39 375.88,-121.81 379.48,-118.76 379.45,-116.47 383.88,-114.81 425.34,-99.23 476.84,-108.48 510.34,-117.92"/>
<polygon fill="#000000" fill-opacity="0.200000" stroke="#000000" stroke-width="2" stroke-opacity="0.200000" points="510.53,-120.75 516.88,-120.43 511.71,-116.72 510.53,-120.75"/>
</g>
<!-- dist/lib/project.js -->
<g id="node21" class="node">
<title>dist/lib/project.js</title>
<g id="a_node21"><a xlink:href="dist/lib/project.js" xlink:title="project.js">
<path fill="#ffffcc" stroke="black" d="M462.71,-168.68C462.71,-168.68 403.79,-168.68 403.79,-168.68 400.83,-168.68 397.88,-165.72 397.88,-162.76 397.88,-162.76 397.88,-156.85 397.88,-156.85 397.88,-153.89 400.83,-150.93 403.79,-150.93 403.79,-150.93 462.71,-150.93 462.71,-150.93 465.67,-150.93 468.62,-153.89 468.62,-156.85 468.62,-156.85 468.62,-162.76 468.62,-162.76 468.62,-165.72 465.67,-168.68 462.71,-168.68"/>
<text text-anchor="start" x="405.88" y="-157.13" font-family="Helvetica,sans-Serif" font-size="9.00">project.js </text>
<text text-anchor="start" x="444.88" y="-157.13" font-family="Helvetica,sans-Serif" font-size="8.00" fill="#808080">75%</text>
</a>
</g>
</g>
<!-- dist/commands/storybookHandler.js&#45;&gt;dist/lib/project.js -->
<g id="edge21" class="edge">
<title>dist/commands/storybookHandler.js&#45;&gt;dist/lib/project.js</title>
<path fill="none" stroke="#000000" stroke-width="2" stroke-opacity="0.200000" d="M368.07,-167.74C375,-166.89 381.99,-166.02 388.67,-165.2"/>
<polygon fill="#000000" fill-opacity="0.200000" stroke="#000000" stroke-width="2" stroke-opacity="0.200000" points="388.87,-166.92 394.57,-164.1 388.36,-162.75 388.87,-166.92"/>
</g>
<!-- node_modules/execa -->
<g id="node22" class="node">
<title>node_modules/execa</title>
<g id="a_node22"><a xlink:href="node_modules/execa" xlink:title="execa">
<polygon fill="#c40b0a" fill-opacity="0.101961" stroke="black" points="709.25,-108.68 657.22,-108.68 655.25,-106.71 655.25,-90.93 707.28,-90.93 709.25,-92.9 709.25,-108.68"/>
<polyline fill="none" stroke="black" points="707.28,-106.71 655.25,-106.71"/>
<polyline fill="none" stroke="black" points="707.28,-106.71 707.28,-90.93"/>
<polyline fill="none" stroke="black" points="707.28,-106.71 709.25,-108.68"/>
<text text-anchor="start" x="669.88" y="-96.13" font-family="Helvetica,sans-Serif" font-size="9.00" fill="#c40b0a">execa</text>
</a>
</g>
</g>
<!-- dist/commands/storybookHandler.js&#45;&gt;node_modules/execa -->
<g id="edge23" class="edge">
<title>dist/commands/storybookHandler.js&#45;&gt;node_modules/execa</title>
<path fill="none" stroke="#000000" stroke-opacity="0.200000" d="M368.19,-168C371,-166.28 373.59,-164.23 375.88,-161.81 393.99,-142.51 364.03,-120.32 383.88,-102.81 422.14,-69.03 578.67,-85.64 647.97,-94.95"/>
<polygon fill="#000000" fill-opacity="0.200000" stroke="#000000" stroke-opacity="0.200000" points="647.56,-97.15 653.79,-95.88 648.13,-92.99 647.56,-97.15"/>
</g>
<!-- dist/commands/storybookHandler.d.ts -->
<g id="node20" class="node">
<title>dist/commands/storybookHandler.d.ts</title>
<g id="a_node20"><a xlink:href="dist/commands/storybookHandler.d.ts" xlink:title="storybookHandler.d.ts">
<path fill="#ddfeff" stroke="black" d="M231.33,-168.68C231.33,-168.68 115.42,-168.68 115.42,-168.68 112.46,-168.68 109.5,-165.72 109.5,-162.76 109.5,-162.76 109.5,-156.85 109.5,-156.85 109.5,-153.89 112.46,-150.93 115.42,-150.93 115.42,-150.93 231.33,-150.93 231.33,-150.93 234.29,-150.93 237.25,-153.89 237.25,-156.85 237.25,-156.85 237.25,-162.76 237.25,-162.76 237.25,-165.72 234.29,-168.68 231.33,-168.68"/>
<text text-anchor="start" x="117.5" y="-157.13" font-family="Helvetica,sans-Serif" font-size="9.00">storybookHandler.d.ts </text>
<text text-anchor="start" x="209" y="-157.13" font-family="Helvetica,sans-Serif" font-size="8.00" fill="#808080">100%</text>
</a>
</g>
</g>
<!-- dist/commands/storybookHandler.d.ts&#45;&gt;dist/types.js -->
<g id="edge19" class="edge">
<title>dist/commands/storybookHandler.d.ts&#45;&gt;dist/types.js</title>
<path fill="none" stroke="#000000" stroke-width="2" stroke-opacity="0.200000" d="M230.18,-150.44C232.74,-148.82 235.12,-146.96 237.25,-144.81 248.48,-133.47 233.92,-121.04 245.25,-109.81 252.09,-103.03 261.41,-99.2 270.82,-97.12"/>
<polygon fill="#000000" fill-opacity="0.200000" stroke="#000000" stroke-width="2" stroke-opacity="0.200000" points="271.84,-98.74 277.41,-95.67 271.14,-94.6 271.84,-98.74"/>
</g>
<!-- dist/lib/project.js&#45;&gt;../../project&#45;config/dist/index.js -->
<g id="edge32" class="edge">
<title>dist/lib/project.js&#45;&gt;../../project&#45;config/dist/index.js</title>
<path fill="none" stroke="#000000" stroke-opacity="0.200000" d="M468.9,-162.82C476.65,-165.09 484.14,-168.79 489.5,-174.81 505.35,-192.59 489.34,-205.42 497.5,-227.81 506.24,-251.77 522.82,-276.38 533.95,-291.38"/>
<polygon fill="#000000" fill-opacity="0.200000" stroke="#000000" stroke-opacity="0.200000" points="532.77,-292.31 538.07,-295.83 536.12,-289.77 532.77,-292.31"/>
</g>
<!-- dist/lib/project.js&#45;&gt;dist/lib/colors.js -->
<g id="edge31" class="edge">
<title>dist/lib/project.js&#45;&gt;dist/lib/colors.js</title>
<path fill="none" stroke="#000000" stroke-width="2" stroke-opacity="0.200000" d="M468.76,-150.48C479.72,-147.52 491.95,-144.21 503.36,-141.13"/>
<polygon fill="#000000" fill-opacity="0.200000" stroke="#000000" stroke-width="2" stroke-opacity="0.200000" points="504.66,-142.41 509.9,-138.82 503.56,-138.36 504.66,-142.41"/>
</g>
<!-- node_modules/lodash.memoize -->
<g id="node29" class="node">
<title>node_modules/lodash.memoize</title>
<g id="a_node29"><a xlink:href="node_modules/lodash.memoize" xlink:title="lodash.memoize">
<polygon fill="#c40b0a" fill-opacity="0.101961" stroke="black" points="724,-168.68 642.47,-168.68 640.5,-166.71 640.5,-150.93 722.03,-150.93 724,-152.9 724,-168.68"/>
<polyline fill="none" stroke="black" points="722.03,-166.71 640.5,-166.71"/>
<polyline fill="none" stroke="black" points="722.03,-166.71 722.03,-150.93"/>
<polyline fill="none" stroke="black" points="722.03,-166.71 724,-168.68"/>
<text text-anchor="start" x="648.5" y="-156.13" font-family="Helvetica,sans-Serif" font-size="9.00" fill="#c40b0a">lodash.memoize</text>
</a>
</g>
</g>
<!-- dist/lib/project.js&#45;&gt;node_modules/lodash.memoize -->
<g id="edge33" class="edge">
<title>dist/lib/project.js&#45;&gt;node_modules/lodash.memoize</title>
<path fill="none" stroke="#000000" stroke-opacity="0.200000" d="M469.12,-159.81C512.08,-159.81 585.3,-159.81 633.48,-159.81"/>
<polygon fill="#000000" fill-opacity="0.200000" stroke="#000000" stroke-opacity="0.200000" points="633.4,-161.91 639.4,-159.81 633.4,-157.71 633.4,-161.91"/>
</g>
<!-- dist/index.d.ts -->
<g id="node23" class="node">
<title>dist/index.d.ts</title>
<g id="a_node23"><a xlink:href="dist/index.d.ts" xlink:title="index.d.ts">
<path fill="#ddfeff" stroke="black" d="M87.58,-211.68C87.58,-211.68 21.92,-211.68 21.92,-211.68 18.96,-211.68 16,-208.72 16,-205.76 16,-205.76 16,-199.85 16,-199.85 16,-196.89 18.96,-193.93 21.92,-193.93 21.92,-193.93 87.58,-193.93 87.58,-193.93 90.54,-193.93 93.5,-196.89 93.5,-199.85 93.5,-199.85 93.5,-205.76 93.5,-205.76 93.5,-208.72 90.54,-211.68 87.58,-211.68"/>
<text text-anchor="start" x="24" y="-200.13" font-family="Helvetica,sans-Serif" font-size="9.00">index.d.ts </text>
<text text-anchor="start" x="65.25" y="-200.13" font-family="Helvetica,sans-Serif" font-size="8.00" fill="#808080">100%</text>
</a>
</g>
</g>
<!-- dist/index.d.ts&#45;&gt;dist/commands/storybook.js -->
<g id="edge25" class="edge">
<title>dist/index.d.ts&#45;&gt;dist/commands/storybook.js</title>
<path fill="none" stroke="#000000" stroke-width="2" stroke-opacity="0.200000" d="M93.94,-198.55C103.19,-197.52 113.22,-196.4 122.92,-195.32"/>
<polygon fill="#000000" fill-opacity="0.200000" stroke="#000000" stroke-width="2" stroke-opacity="0.200000" points="122.96,-197.09 128.69,-194.34 122.5,-192.92 122.96,-197.09"/>
</g>
<!-- dist/index.js -->
<g id="node24" class="node">
<title>dist/index.js</title>
<g id="a_node24"><a xlink:href="dist/index.js" xlink:title="index.js">
<path fill="#ffffcc" stroke="black" d="M83.83,-181.68C83.83,-181.68 25.67,-181.68 25.67,-181.68 22.71,-181.68 19.75,-178.72 19.75,-175.76 19.75,-175.76 19.75,-169.85 19.75,-169.85 19.75,-166.89 22.71,-163.93 25.67,-163.93 25.67,-163.93 83.83,-163.93 83.83,-163.93 86.79,-163.93 89.75,-166.89 89.75,-169.85 89.75,-169.85 89.75,-175.76 89.75,-175.76 89.75,-178.72 86.79,-181.68 83.83,-181.68"/>
<text text-anchor="start" x="27.75" y="-170.13" font-family="Helvetica,sans-Serif" font-size="9.00">index.js </text>
<text text-anchor="start" x="61.5" y="-170.13" font-family="Helvetica,sans-Serif" font-size="8.00" fill="#808080">100%</text>
</a>
</g>
</g>
<!-- dist/index.js&#45;&gt;dist/commands/storybook.js -->
<g id="edge26" class="edge">
<title>dist/index.js&#45;&gt;dist/commands/storybook.js</title>
<path fill="none" stroke="#000000" stroke-width="2" stroke-opacity="0.200000" d="M90.11,-177.81C100.4,-179.31 111.88,-180.99 122.94,-182.6"/>
<polygon fill="#000000" fill-opacity="0.200000" stroke="#000000" stroke-width="2" stroke-opacity="0.200000" points="123.44,-185.09 129.68,-183.87 124.04,-180.93 123.44,-185.09"/>
</g>
<!-- dist/lib/colors.d.ts -->
<g id="node25" class="node">
<title>dist/lib/colors.d.ts</title>
<g id="a_node25"><a xlink:href="dist/lib/colors.d.ts" xlink:title="colors.d.ts">
<path fill="#ddfeff" stroke="black" d="M467.21,-138.68C467.21,-138.68 399.29,-138.68 399.29,-138.68 396.33,-138.68 393.38,-135.72 393.38,-132.76 393.38,-132.76 393.38,-126.85 393.38,-126.85 393.38,-123.89 396.33,-120.93 399.29,-120.93 399.29,-120.93 467.21,-120.93 467.21,-120.93 470.17,-120.93 473.12,-123.89 473.12,-126.85 473.12,-126.85 473.12,-132.76 473.12,-132.76 473.12,-135.72 470.17,-138.68 467.21,-138.68"/>
<text text-anchor="start" x="401.38" y="-127.13" font-family="Helvetica,sans-Serif" font-size="9.00">colors.d.ts </text>
<text text-anchor="start" x="444.88" y="-127.13" font-family="Helvetica,sans-Serif" font-size="8.00" fill="#808080">100%</text>
</a>
</g>
</g>
<!-- dist/lib/colors.d.ts&#45;&gt;node_modules/chalk -->
<g id="edge27" class="edge">
<title>dist/lib/colors.d.ts&#45;&gt;node_modules/chalk</title>
<path fill="none" stroke="#000000" stroke-opacity="0.200000" d="M467.15,-139.14C476.84,-141.47 487.52,-143.64 497.5,-144.81 547.6,-150.67 560.83,-150.1 611,-144.81 623.23,-143.51 636.47,-140.99 648.12,-138.38"/>
<polygon fill="#000000" fill-opacity="0.200000" stroke="#000000" stroke-opacity="0.200000" points="648.4,-140.24 653.78,-136.84 647.46,-136.14 648.4,-140.24"/>
</g>
<!-- dist/lib/project.d.ts -->
<g id="node27" class="node">
<title>dist/lib/project.d.ts</title>
<g id="a_node27"><a xlink:href="dist/lib/project.d.ts" xlink:title="project.d.ts">
<path fill="#ddfeff" stroke="black" d="M468.71,-198.68C468.71,-198.68 397.79,-198.68 397.79,-198.68 394.83,-198.68 391.88,-195.72 391.88,-192.76 391.88,-192.76 391.88,-186.85 391.88,-186.85 391.88,-183.89 394.83,-180.93 397.79,-180.93 397.79,-180.93 468.71,-180.93 468.71,-180.93 471.67,-180.93 474.62,-183.89 474.62,-186.85 474.62,-186.85 474.62,-192.76 474.62,-192.76 474.62,-195.72 471.67,-198.68 468.71,-198.68"/>
<text text-anchor="start" x="399.88" y="-187.13" font-family="Helvetica,sans-Serif" font-size="9.00">project.d.ts </text>
<text text-anchor="start" x="446.38" y="-187.13" font-family="Helvetica,sans-Serif" font-size="8.00" fill="#808080">100%</text>
</a>
</g>
</g>
<!-- dist/lib/project.d.ts&#45;&gt;../../project&#45;config/dist/index.js -->
<g id="edge29" class="edge">
<title>dist/lib/project.d.ts&#45;&gt;../../project&#45;config/dist/index.js</title>
<path fill="none" stroke="#000000" stroke-opacity="0.200000" d="M442.96,-198.91C462.25,-219.07 508.69,-267.6 531.77,-291.72"/>
<polygon fill="#000000" fill-opacity="0.200000" stroke="#000000" stroke-opacity="0.200000" points="529.91,-292.86 535.58,-295.75 532.95,-289.96 529.91,-292.86"/>
</g>
<!-- node_modules/lodash -->
<g id="node28" class="node">
<title>node_modules/lodash</title>
<g id="a_node28"><a xlink:href="node_modules/lodash" xlink:title="lodash">
<polygon fill="#c40b0a" fill-opacity="0.101961" stroke="black" points="709.25,-198.68 657.22,-198.68 655.25,-196.71 655.25,-180.93 707.28,-180.93 709.25,-182.9 709.25,-198.68"/>
<polyline fill="none" stroke="black" points="707.28,-196.71 655.25,-196.71"/>
<polyline fill="none" stroke="black" points="707.28,-196.71 707.28,-180.93"/>
<polyline fill="none" stroke="black" points="707.28,-196.71 709.25,-198.68"/>
<text text-anchor="start" x="668.38" y="-186.13" font-family="Helvetica,sans-Serif" font-size="9.00" fill="#c40b0a">lodash</text>
</a>
</g>
</g>
<!-- dist/lib/project.d.ts&#45;&gt;node_modules/lodash -->
<g id="edge30" class="edge">
<title>dist/lib/project.d.ts&#45;&gt;node_modules/lodash</title>
<g id="a_edge30"><a xlink:title="no&#45;non&#45;package&#45;json">
<path fill="none" stroke="red" d="M475.06,-192.77C482.52,-193.2 490.24,-193.58 497.5,-193.81 547.92,-195.4 560.58,-195.24 611,-193.81 623.15,-193.46 636.46,-192.78 648.2,-192.08"/>
<polygon fill="red" stroke="red" points="648.05,-194.13 653.91,-191.66 647.79,-189.94 648.05,-194.13"/>
</a>
</g>
<text text-anchor="middle" x="521.2" y="-186.32" font-family="Helvetica,sans-Serif" font-size="9.00" fill="red">no&#45;non&#45;package&#45;json</text>
</g>
<!-- dist/types.d.ts -->
<g id="node30" class="node">
<title>dist/types.d.ts</title>
<g id="a_node30"><a xlink:href="dist/types.d.ts" xlink:title="types.d.ts">
<path fill="#ccffcc" stroke="black" d="M82.71,-134.68C82.71,-134.68 26.79,-134.68 26.79,-134.68 23.83,-134.68 20.88,-131.72 20.88,-128.76 20.88,-128.76 20.88,-122.85 20.88,-122.85 20.88,-119.89 23.83,-116.93 26.79,-116.93 26.79,-116.93 82.71,-116.93 82.71,-116.93 85.67,-116.93 88.62,-119.89 88.62,-122.85 88.62,-122.85 88.62,-128.76 88.62,-128.76 88.62,-131.72 85.67,-134.68 82.71,-134.68"/>
<text text-anchor="start" x="28.88" y="-123.13" font-family="Helvetica,sans-Serif" font-size="9.00">types.d.ts </text>
<text text-anchor="start" x="69.38" y="-123.13" font-family="Helvetica,sans-Serif" font-size="8.00" fill="#808080">0%</text>
</a>
</g>
</g>
</g>
</svg>
