<?xml version="1.0" encoding="UTF-8" standalone="no"?>
<!DOCTYPE svg PUBLIC "-//W3C//DTD SVG 1.1//EN"
 "http://www.w3.org/Graphics/SVG/1.1/DTD/svg11.dtd">
<!-- Generated by graphviz version 7.1.0 (20230121.1956)
 -->
<!-- Title: dependency&#45;cruiser output Pages: 1 -->
<svg width="507pt" height="248pt"
 viewBox="0.00 0.00 507.00 248.00" xmlns="http://www.w3.org/2000/svg" xmlns:xlink="http://www.w3.org/1999/xlink">
<g id="graph0" class="graph" transform="scale(1 1) rotate(0) translate(4 244)">
<title>dependency&#45;cruiser output</title>
<polygon fill="white" stroke="none" points="-4,4 -4,-244 503,-244 503,4 -4,4"/>
<g id="clust1" class="cluster">
<title>cluster_node_modules</title>
<path fill="#ffffff" stroke="black" stroke-width="2" d="M376,-34C376,-34 479,-34 479,-34 485,-34 491,-40 491,-46 491,-46 491,-220 491,-220 491,-226 485,-232 479,-232 479,-232 376,-232 376,-232 370,-232 364,-226 364,-220 364,-220 364,-46 364,-46 364,-40 370,-34 376,-34"/>
<text text-anchor="middle" x="427.5" y="-220.8" font-family="Helvetica,sans-Serif" font-weight="bold" font-size="9.00">node_modules</text>
</g>
<g id="clust2" class="cluster">
<title>cluster_node_modules/@iarna</title>
<path fill="#ffffff" stroke="black" stroke-width="2" d="M404.5,-128C404.5,-128 450.5,-128 450.5,-128 456.5,-128 462.5,-134 462.5,-140 462.5,-140 462.5,-168 462.5,-168 462.5,-174 456.5,-180 450.5,-180 450.5,-180 404.5,-180 404.5,-180 398.5,-180 392.5,-174 392.5,-168 392.5,-168 392.5,-140 392.5,-140 392.5,-134 398.5,-128 404.5,-128"/>
<text text-anchor="middle" x="427.5" y="-168.8" font-family="Helvetica,sans-Serif" font-weight="bold" font-size="9.00">@iarna</text>
</g>
<g id="clust3" class="cluster">
<title>cluster_src</title>
<path fill="#ffffff" stroke="black" stroke-width="2" d="M20,-128C20,-128 344,-128 344,-128 350,-128 356,-134 356,-140 356,-140 356,-196 356,-196 356,-202 350,-208 344,-208 344,-208 20,-208 20,-208 14,-208 8,-202 8,-196 8,-196 8,-140 8,-140 8,-134 14,-128 20,-128"/>
<text text-anchor="middle" x="182" y="-196.8" font-family="Helvetica,sans-Serif" font-weight="bold" font-size="9.00">src</text>
</g>
<!-- fs -->
<g id="node1" class="node">
<title>fs</title>
<g id="a_node1"><a xlink:title="fs">
<path fill="#ffffcc" stroke="grey" d="M325.5,-74C325.5,-74 283.5,-74 283.5,-74 280.5,-74 277.5,-71 277.5,-68 277.5,-68 277.5,-62 277.5,-62 277.5,-59 280.5,-56 283.5,-56 283.5,-56 325.5,-56 325.5,-56 328.5,-56 331.5,-59 331.5,-62 331.5,-62 331.5,-68 331.5,-68 331.5,-71 328.5,-74 325.5,-74"/>
<text text-anchor="middle" x="304.5" y="-62.8" font-family="Helvetica,sans-Serif" font-size="9.00" fill="grey">fs</text>
</a>
</g>
</g>
<!-- node_modules/@iarna/toml -->
<g id="node2" class="node">
<title>node_modules/@iarna/toml</title>
<g id="a_node2"><a xlink:href="node_modules/@iarna/toml" xlink:title="toml">
<polygon fill="#c40b0a" fill-opacity="0.101961" stroke="black" points="454.5,-154 402.5,-154 400.5,-152 400.5,-136 452.5,-136 454.5,-138 454.5,-154"/>
<polyline fill="none" stroke="black" points="452.5,-152 400.5,-152"/>
<polyline fill="none" stroke="black" points="452.5,-152 452.5,-136"/>
<polyline fill="none" stroke="black" points="452.5,-152 454.5,-154"/>
<text text-anchor="start" x="418.5" y="-142.8" font-family="Helvetica,sans-Serif" font-size="9.00" fill="#c40b0a">toml</text>
</a>
</g>
</g>
<!-- node_modules/deepmerge -->
<g id="node3" class="node">
<title>node_modules/deepmerge</title>
<g id="a_node3"><a xlink:href="node_modules/deepmerge" xlink:title="deepmerge">
<polygon fill="#c40b0a" fill-opacity="0.101961" stroke="black" points="459.5,-120 397.5,-120 395.5,-118 395.5,-102 457.5,-102 459.5,-104 459.5,-120"/>
<polyline fill="none" stroke="black" points="457.5,-118 395.5,-118"/>
<polyline fill="none" stroke="black" points="457.5,-118 457.5,-102"/>
<polyline fill="none" stroke="black" points="457.5,-118 459.5,-120"/>
<text text-anchor="start" x="403.5" y="-108.8" font-family="Helvetica,sans-Serif" font-size="9.00" fill="#c40b0a">deepmerge</text>
</a>
</g>
</g>
<!-- node_modules/fast&#45;glob -->
<g id="node4" class="node">
<title>node_modules/fast&#45;glob</title>
<g id="a_node4"><a xlink:href="node_modules/fast-glob" xlink:title="fast&#45;glob">
<polygon fill="#c40b0a" fill-opacity="0.101961" stroke="black" points="454.5,-60 402.5,-60 400.5,-58 400.5,-42 452.5,-42 454.5,-44 454.5,-60"/>
<polyline fill="none" stroke="black" points="452.5,-58 400.5,-58"/>
<polyline fill="none" stroke="black" points="452.5,-58 452.5,-42"/>
<polyline fill="none" stroke="black" points="452.5,-58 454.5,-60"/>
<text text-anchor="start" x="409.5" y="-48.8" font-family="Helvetica,sans-Serif" font-size="9.00" fill="#c40b0a">fast&#45;glob</text>
</a>
</g>
</g>
<!-- node_modules/findup&#45;sync -->
<g id="node5" class="node">
<title>node_modules/findup&#45;sync</title>
<g id="a_node5"><a xlink:href="node_modules/findup-sync" xlink:title="findup&#45;sync">
<polygon fill="#c40b0a" fill-opacity="0.101961" stroke="black" points="459.5,-206 397.5,-206 395.5,-204 395.5,-188 457.5,-188 459.5,-190 459.5,-206"/>
<polyline fill="none" stroke="black" points="457.5,-204 395.5,-204"/>
<polyline fill="none" stroke="black" points="457.5,-204 457.5,-188"/>
<polyline fill="none" stroke="black" points="457.5,-204 459.5,-206"/>
<text text-anchor="start" x="403.5" y="-194.8" font-family="Helvetica,sans-Serif" font-size="9.00" fill="#c40b0a">findup&#45;sync</text>
</a>
</g>
</g>
<!-- node_modules/string&#45;env&#45;interpolation -->
<g id="node6" class="node">
<title>node_modules/string&#45;env&#45;interpolation</title>
<g id="a_node6"><a xlink:href="node_modules/string-env-interpolation" xlink:title="string&#45;env&#45;interpolation">
<polygon fill="#c40b0a" fill-opacity="0.101961" stroke="black" points="483,-90 374,-90 372,-88 372,-72 481,-72 483,-74 483,-90"/>
<polyline fill="none" stroke="black" points="481,-88 372,-88"/>
<polyline fill="none" stroke="black" points="481,-88 481,-72"/>
<polyline fill="none" stroke="black" points="481,-88 483,-90"/>
<text text-anchor="start" x="380" y="-78.8" font-family="Helvetica,sans-Serif" font-size="9.00" fill="#c40b0a">string&#45;env&#45;interpolation</text>
</a>
</g>
</g>
<!-- path -->
<g id="node7" class="node">
<title>path</title>
<g id="a_node7"><a xlink:title="path">
<path fill="#ffffcc" stroke="grey" d="M234.5,-18C234.5,-18 192.5,-18 192.5,-18 189.5,-18 186.5,-15 186.5,-12 186.5,-12 186.5,-6 186.5,-6 186.5,-3 189.5,0 192.5,0 192.5,0 234.5,0 234.5,0 237.5,0 240.5,-3 240.5,-6 240.5,-6 240.5,-12 240.5,-12 240.5,-15 237.5,-18 234.5,-18"/>
<text text-anchor="middle" x="213.5" y="-6.8" font-family="Helvetica,sans-Serif" font-size="9.00" fill="grey">path</text>
</a>
</g>
</g>
<!-- src/config.ts -->
<g id="node8" class="node">
<title>src/config.ts</title>
<g id="a_node8"><a xlink:href="src/config.ts" xlink:title="config.ts">
<path fill="#ddfeff" stroke="black" d="M242,-154C242,-154 185,-154 185,-154 182,-154 179,-151 179,-148 179,-148 179,-142 179,-142 179,-139 182,-136 185,-136 185,-136 242,-136 242,-136 245,-136 248,-139 248,-142 248,-142 248,-148 248,-148 248,-151 245,-154 242,-154"/>
<text text-anchor="start" x="187" y="-143.8" font-family="Helvetica,sans-Serif" font-size="9.00">config.ts </text>
<text text-anchor="start" x="224" y="-143.8" font-family="Helvetica,sans-Serif" font-size="8.00" fill="#808080">71%</text>
</a>
</g>
</g>
<!-- src/config.ts&#45;&gt;fs -->
<g id="edge4" class="edge">
<title>src/config.ts&#45;&gt;fs</title>
<path fill="none" stroke="#000000" stroke-dasharray="5,2" stroke-opacity="0.200000" d="M221.76,-135.61C228.59,-126.74 239.08,-113.03 248,-101 253.88,-93.07 253.28,-89.15 261,-83 263.9,-80.69 267.14,-78.62 270.51,-76.79"/>
<polygon fill="#000000" fill-opacity="0.200000" stroke="#000000" stroke-opacity="0.200000" points="271.27,-78.76 275.72,-74.22 269.41,-74.99 271.27,-78.76"/>
</g>
<!-- src/config.ts&#45;&gt;node_modules/@iarna/toml -->
<g id="edge2" class="edge">
<title>src/config.ts&#45;&gt;node_modules/@iarna/toml</title>
<path fill="none" stroke="#000000" stroke-opacity="0.200000" d="M248.09,-145C287.77,-145 353.38,-145 393.01,-145"/>
<polygon fill="#000000" fill-opacity="0.200000" stroke="#000000" stroke-opacity="0.200000" points="392.58,-147.1 398.58,-145 392.58,-142.9 392.58,-147.1"/>
</g>
<!-- src/config.ts&#45;&gt;node_modules/deepmerge -->
<g id="edge3" class="edge">
<title>src/config.ts&#45;&gt;node_modules/deepmerge</title>
<path fill="none" stroke="#000000" stroke-opacity="0.200000" d="M248.09,-139.61C286.12,-133.51 347.97,-123.59 387.94,-117.18"/>
<polygon fill="#000000" fill-opacity="0.200000" stroke="#000000" stroke-opacity="0.200000" points="388.05,-119.29 393.64,-116.27 387.39,-115.15 388.05,-119.29"/>
</g>
<!-- src/config.ts&#45;&gt;node_modules/string&#45;env&#45;interpolation -->
<g id="edge5" class="edge">
<title>src/config.ts&#45;&gt;node_modules/string&#45;env&#45;interpolation</title>
<path fill="none" stroke="#000000" stroke-opacity="0.200000" d="M228.64,-135.7C237.6,-130.16 249.61,-123.39 261,-119 294.25,-106.19 332.99,-97.01 364.63,-90.88"/>
<polygon fill="#000000" fill-opacity="0.200000" stroke="#000000" stroke-opacity="0.200000" points="364.69,-93 370.19,-89.82 363.91,-88.88 364.69,-93"/>
</g>
<!-- src/configPath.ts -->
<g id="node9" class="node">
<title>src/configPath.ts</title>
<g id="a_node9"><a xlink:href="src/configPath.ts" xlink:title="configPath.ts">
<path fill="#ddfeff" stroke="black" d="M342,-182C342,-182 267,-182 267,-182 264,-182 261,-179 261,-176 261,-176 261,-170 261,-170 261,-167 264,-164 267,-164 267,-164 342,-164 342,-164 345,-164 348,-167 348,-170 348,-170 348,-176 348,-176 348,-179 345,-182 342,-182"/>
<text text-anchor="start" x="269" y="-171.8" font-family="Helvetica,sans-Serif" font-size="9.00">configPath.ts </text>
<text text-anchor="start" x="324" y="-171.8" font-family="Helvetica,sans-Serif" font-size="8.00" fill="#808080">25%</text>
</a>
</g>
</g>
<!-- src/config.ts&#45;&gt;src/configPath.ts -->
<g id="edge1" class="edge">
<title>src/config.ts&#45;&gt;src/configPath.ts</title>
<path fill="none" stroke="#000000" stroke-width="2" stroke-opacity="0.200000" d="M244.63,-154.48C251.16,-156.53 258.14,-158.73 264.94,-160.87"/>
<polygon fill="#000000" fill-opacity="0.200000" stroke="#000000" stroke-width="2" stroke-opacity="0.200000" points="264.16,-162.82 270.51,-162.62 265.42,-158.82 264.16,-162.82"/>
</g>
<!-- src/configPath.ts&#45;&gt;node_modules/findup&#45;sync -->
<g id="edge6" class="edge">
<title>src/configPath.ts&#45;&gt;node_modules/findup&#45;sync</title>
<path fill="none" stroke="#000000" stroke-opacity="0.200000" d="M348.16,-181.46C361.13,-184.03 375.3,-186.84 387.98,-189.36"/>
<polygon fill="#000000" fill-opacity="0.200000" stroke="#000000" stroke-opacity="0.200000" points="387.47,-191.4 393.76,-190.51 388.29,-187.28 387.47,-191.4"/>
</g>
<!-- src/index.ts -->
<g id="node10" class="node">
<title>src/index.ts</title>
<g id="a_node10"><a xlink:href="src/index.ts" xlink:title="index.ts">
<path fill="#ddfeff" stroke="black" d="M81,-176C81,-176 22,-176 22,-176 19,-176 16,-173 16,-170 16,-170 16,-164 16,-164 16,-161 19,-158 22,-158 22,-158 81,-158 81,-158 84,-158 87,-161 87,-164 87,-164 87,-170 87,-170 87,-173 84,-176 81,-176"/>
<text text-anchor="start" x="24" y="-165.8" font-family="Helvetica,sans-Serif" font-size="9.00">index.ts </text>
<text text-anchor="start" x="58" y="-165.8" font-family="Helvetica,sans-Serif" font-size="8.00" fill="#808080">100%</text>
</a>
</g>
</g>
<!-- src/index.ts&#45;&gt;src/config.ts -->
<g id="edge7" class="edge">
<title>src/index.ts&#45;&gt;src/config.ts</title>
<path fill="none" stroke="#000000" stroke-width="2" stroke-opacity="0.200000" d="M87.3,-167.1C109.9,-166.61 139.91,-164.93 166,-160 170.16,-159.21 174.46,-158.17 178.69,-156.99"/>
<polygon fill="#000000" fill-opacity="0.200000" stroke="#000000" stroke-width="2" stroke-opacity="0.200000" points="179.18,-159.03 184.32,-155.29 177.97,-155.01 179.18,-159.03"/>
</g>
<!-- src/index.ts&#45;&gt;src/configPath.ts -->
<g id="edge8" class="edge">
<title>src/index.ts&#45;&gt;src/configPath.ts</title>
<path fill="none" stroke="#000000" stroke-width="2" stroke-opacity="0.200000" d="M87.4,-167.83C130.14,-168.86 202.88,-170.59 252.04,-171.77"/>
<polygon fill="#000000" fill-opacity="0.200000" stroke="#000000" stroke-width="2" stroke-opacity="0.200000" points="251.86,-173.87 257.9,-171.91 251.96,-169.67 251.86,-173.87"/>
</g>
<!-- src/paths.ts -->
<g id="node11" class="node">
<title>src/paths.ts</title>
<g id="a_node11"><a xlink:href="src/paths.ts" xlink:title="paths.ts">
<path fill="#ddfeff" stroke="black" d="M160,-154C160,-154 106,-154 106,-154 103,-154 100,-151 100,-148 100,-148 100,-142 100,-142 100,-139 103,-136 106,-136 106,-136 160,-136 160,-136 163,-136 166,-139 166,-142 166,-142 166,-148 166,-148 166,-151 163,-154 160,-154"/>
<text text-anchor="start" x="108" y="-143.8" font-family="Helvetica,sans-Serif" font-size="9.00">paths.ts </text>
<text text-anchor="start" x="142" y="-143.8" font-family="Helvetica,sans-Serif" font-size="8.00" fill="#808080">83%</text>
</a>
</g>
</g>
<!-- src/index.ts&#45;&gt;src/paths.ts -->
<g id="edge9" class="edge">
<title>src/index.ts&#45;&gt;src/paths.ts</title>
<path fill="none" stroke="#000000" stroke-width="2" stroke-opacity="0.200000" d="M86.68,-157.54C88.15,-157.13 89.64,-156.72 91.13,-156.31"/>
<polygon fill="#000000" fill-opacity="0.200000" stroke="#000000" stroke-width="2" stroke-opacity="0.200000" points="91.47,-158.39 96.7,-154.77 90.35,-154.35 91.47,-158.39"/>
</g>
<!-- src/paths.ts&#45;&gt;fs -->
<g id="edge13" class="edge">
<title>src/paths.ts&#45;&gt;fs</title>
<path fill="none" stroke="#000000" stroke-dasharray="5,2" stroke-opacity="0.200000" d="M154.11,-135.51C184.69,-121.07 242.92,-93.59 276.95,-77.53"/>
<polygon fill="#000000" fill-opacity="0.200000" stroke="#000000" stroke-opacity="0.200000" points="277.52,-79.58 282.05,-75.12 275.73,-75.79 277.52,-79.58"/>
</g>
<!-- src/paths.ts&#45;&gt;node_modules/fast&#45;glob -->
<g id="edge12" class="edge">
<title>src/paths.ts&#45;&gt;node_modules/fast&#45;glob</title>
<path fill="none" stroke="#000000" stroke-opacity="0.200000" d="M139.71,-135.79C147.43,-123.94 162.17,-103.32 179,-90 210.8,-64.84 221.49,-59.12 261,-50 305.64,-39.69 358.87,-42.61 392.68,-46.28"/>
<polygon fill="#000000" fill-opacity="0.200000" stroke="#000000" stroke-opacity="0.200000" points="392.3,-48.35 398.5,-46.95 392.78,-44.18 392.3,-48.35"/>
</g>
<!-- src/paths.ts&#45;&gt;path -->
<g id="edge14" class="edge">
<title>src/paths.ts&#45;&gt;path</title>
<path fill="none" stroke="#000000" stroke-dasharray="5,2" stroke-opacity="0.200000" d="M135.31,-135.58C138.76,-113.97 149.91,-60.1 179,-27 180.39,-25.42 181.95,-23.95 183.62,-22.6"/>
<polygon fill="#000000" fill-opacity="0.200000" stroke="#000000" stroke-opacity="0.200000" points="184.67,-24.43 188.39,-19.27 182.27,-20.98 184.67,-24.43"/>
</g>
<!-- src/paths.ts&#45;&gt;src/config.ts -->
<g id="edge10" class="edge">
<title>src/paths.ts&#45;&gt;src/config.ts</title>
<path fill="none" stroke="#000000" stroke-width="2" stroke-opacity="0.200000" d="M166.38,-145C167.52,-145 168.67,-145 169.82,-145"/>
<polygon fill="#000000" fill-opacity="0.200000" stroke="#000000" stroke-width="2" stroke-opacity="0.200000" points="169.64,-147.1 175.64,-145 169.64,-142.9 169.64,-147.1"/>
</g>
<!-- src/paths.ts&#45;&gt;src/configPath.ts -->
<g id="edge11" class="edge">
<title>src/paths.ts&#45;&gt;src/configPath.ts</title>
<path fill="none" stroke="#000000" stroke-width="2" stroke-opacity="0.200000" d="M158.96,-154.39C165.41,-156.52 172.4,-158.57 179,-160 202.72,-165.13 229.44,-168.26 252.02,-170.15"/>
<polygon fill="#000000" fill-opacity="0.200000" stroke="#000000" stroke-width="2" stroke-opacity="0.200000" points="251.62,-172.23 257.77,-170.61 251.95,-168.04 251.62,-172.23"/>
</g>
</g>
</svg>
