<?xml version="1.0" encoding="UTF-8" standalone="no"?>
<!DOCTYPE svg PUBLIC "-//W3C//DTD SVG 1.1//EN"
 "http://www.w3.org/Graphics/SVG/1.1/DTD/svg11.dtd">
<!-- Generated by graphviz version 7.1.0 (20230121.1956)
 -->
<!-- Title: dependency&#45;cruiser output Pages: 1 -->
<svg width="468pt" height="306pt"
 viewBox="0.00 0.00 468.00 306.00" xmlns="http://www.w3.org/2000/svg" xmlns:xlink="http://www.w3.org/1999/xlink">
<g id="graph0" class="graph" transform="scale(1 1) rotate(0) translate(4 302)">
<title>dependency&#45;cruiser output</title>
<polygon fill="white" stroke="none" points="-4,4 -4,-302 464,-302 464,4 -4,4"/>
<g id="clust1" class="cluster">
<title>cluster_dist</title>
<path fill="#ffffff" stroke="black" stroke-width="2" d="M20,-118C20,-118 305,-118 305,-118 311,-118 317,-124 317,-130 317,-130 317,-278 317,-278 317,-284 311,-290 305,-290 305,-290 20,-290 20,-290 14,-290 8,-284 8,-278 8,-278 8,-130 8,-130 8,-124 14,-118 20,-118"/>
<text text-anchor="middle" x="162.5" y="-278.8" font-family="Helvetica,sans-Serif" font-weight="bold" font-size="9.00">dist</text>
</g>
<g id="clust2" class="cluster">
<title>cluster_node_modules</title>
<path fill="#ffffff" stroke="black" stroke-width="2" d="M337,-8C337,-8 440,-8 440,-8 446,-8 452,-14 452,-20 452,-20 452,-254 452,-254 452,-260 446,-266 440,-266 440,-266 337,-266 337,-266 331,-266 325,-260 325,-254 325,-254 325,-20 325,-20 325,-14 331,-8 337,-8"/>
<text text-anchor="middle" x="388.5" y="-254.8" font-family="Helvetica,sans-Serif" font-weight="bold" font-size="9.00">node_modules</text>
</g>
<g id="clust3" class="cluster">
<title>cluster_node_modules/@babel</title>
<path fill="#ffffff" stroke="black" stroke-width="2" d="M352.5,-102C352.5,-102 424.5,-102 424.5,-102 430.5,-102 436.5,-108 436.5,-114 436.5,-114 436.5,-142 436.5,-142 436.5,-148 430.5,-154 424.5,-154 424.5,-154 352.5,-154 352.5,-154 346.5,-154 340.5,-148 340.5,-142 340.5,-142 340.5,-114 340.5,-114 340.5,-108 346.5,-102 352.5,-102"/>
<text text-anchor="middle" x="388.5" y="-142.8" font-family="Helvetica,sans-Serif" font-weight="bold" font-size="9.00">@babel</text>
</g>
<g id="clust4" class="cluster">
<title>cluster_node_modules/@iarna</title>
<path fill="#ffffff" stroke="black" stroke-width="2" d="M365.5,-162C365.5,-162 411.5,-162 411.5,-162 417.5,-162 423.5,-168 423.5,-174 423.5,-174 423.5,-202 423.5,-202 423.5,-208 417.5,-214 411.5,-214 411.5,-214 365.5,-214 365.5,-214 359.5,-214 353.5,-208 353.5,-202 353.5,-202 353.5,-174 353.5,-174 353.5,-168 359.5,-162 365.5,-162"/>
<text text-anchor="middle" x="388.5" y="-202.8" font-family="Helvetica,sans-Serif" font-weight="bold" font-size="9.00">@iarna</text>
</g>
<!-- dist/config.d.ts -->
<g id="node1" class="node">
<title>dist/config.d.ts</title>
<g id="a_node1"><a xlink:href="dist/config.d.ts" xlink:title="config.d.ts">
<path fill="#ccffcc" stroke="black" d="M77.5,-264C77.5,-264 31.5,-264 31.5,-264 28.5,-264 25.5,-261 25.5,-258 25.5,-258 25.5,-252 25.5,-252 25.5,-249 28.5,-246 31.5,-246 31.5,-246 77.5,-246 77.5,-246 80.5,-246 83.5,-249 83.5,-252 83.5,-252 83.5,-258 83.5,-258 83.5,-261 80.5,-264 77.5,-264"/>
<text text-anchor="start" x="33.5" y="-252.8" font-family="Helvetica,sans-Serif" font-size="9.00">config.d.ts</text>
</a>
</g>
</g>
<!-- dist/config.js -->
<g id="node2" class="node">
<title>dist/config.js</title>
<g id="a_node2"><a xlink:href="dist/config.js" xlink:title="config.js">
<path fill="#ffffcc" stroke="black" d="M221,-152C221,-152 179,-152 179,-152 176,-152 173,-149 173,-146 173,-146 173,-140 173,-140 173,-137 176,-134 179,-134 179,-134 221,-134 221,-134 224,-134 227,-137 227,-140 227,-140 227,-146 227,-146 227,-149 224,-152 221,-152"/>
<text text-anchor="start" x="183" y="-140.8" font-family="Helvetica,sans-Serif" font-size="9.00">config.js</text>
</a>
</g>
</g>
<!-- dist/configPath.js -->
<g id="node3" class="node">
<title>dist/configPath.js</title>
<g id="a_node3"><a xlink:href="dist/configPath.js" xlink:title="configPath.js">
<path fill="#ffffcc" stroke="black" d="M303,-216C303,-216 246,-216 246,-216 243,-216 240,-213 240,-210 240,-210 240,-204 240,-204 240,-201 243,-198 246,-198 246,-198 303,-198 303,-198 306,-198 309,-201 309,-204 309,-204 309,-210 309,-210 309,-213 306,-216 303,-216"/>
<text text-anchor="start" x="248" y="-204.8" font-family="Helvetica,sans-Serif" font-size="9.00">configPath.js</text>
</a>
</g>
</g>
<!-- dist/config.js&#45;&gt;dist/configPath.js -->
<g id="edge1" class="edge">
<title>dist/config.js&#45;&gt;dist/configPath.js</title>
<path fill="none" stroke="#000000" stroke-width="2" stroke-opacity="0.200000" d="M217.5,-152.45C220.93,-154.93 224.31,-157.81 227,-161 235.84,-171.49 230.59,-179.02 240,-189 241.19,-190.26 242.49,-191.45 243.86,-192.58"/>
<polygon fill="#000000" fill-opacity="0.200000" stroke="#000000" stroke-width="2" stroke-opacity="0.200000" points="242.55,-194.22 248.68,-195.9 244.93,-190.77 242.55,-194.22"/>
</g>
<!-- node_modules/@babel/runtime&#45;corejs3 -->
<g id="node4" class="node">
<title>node_modules/@babel/runtime&#45;corejs3</title>
<g id="a_node4"><a xlink:href="node_modules/@babel/runtime-corejs3" xlink:title="runtime&#45;corejs3">
<polygon fill="#c40b0a" fill-opacity="0.101961" stroke="black" points="428.5,-128 350.5,-128 348.5,-126 348.5,-110 426.5,-110 428.5,-112 428.5,-128"/>
<polyline fill="none" stroke="black" points="426.5,-126 348.5,-126"/>
<polyline fill="none" stroke="black" points="426.5,-126 426.5,-110"/>
<polyline fill="none" stroke="black" points="426.5,-126 428.5,-128"/>
<text text-anchor="start" x="356.5" y="-116.8" font-family="Helvetica,sans-Serif" font-size="9.00" fill="#c40b0a">runtime&#45;corejs3</text>
</a>
</g>
</g>
<!-- dist/config.js&#45;&gt;node_modules/@babel/runtime&#45;corejs3 -->
<g id="edge2" class="edge">
<title>dist/config.js&#45;&gt;node_modules/@babel/runtime&#45;corejs3</title>
<path fill="none" stroke="#000000" stroke-opacity="0.200000" d="M227.41,-143.12C251.02,-142.87 286.5,-141.64 317,-137 327.55,-135.4 338.82,-132.89 349.18,-130.25"/>
<polygon fill="#000000" fill-opacity="0.200000" stroke="#000000" stroke-opacity="0.200000" points="349.45,-132.35 354.72,-128.8 348.39,-128.29 349.45,-132.35"/>
</g>
<!-- node_modules/@iarna/toml -->
<g id="node5" class="node">
<title>node_modules/@iarna/toml</title>
<g id="a_node5"><a xlink:href="node_modules/@iarna/toml" xlink:title="toml">
<polygon fill="#c40b0a" fill-opacity="0.101961" stroke="black" points="415.5,-188 363.5,-188 361.5,-186 361.5,-170 413.5,-170 415.5,-172 415.5,-188"/>
<polyline fill="none" stroke="black" points="413.5,-186 361.5,-186"/>
<polyline fill="none" stroke="black" points="413.5,-186 413.5,-170"/>
<polyline fill="none" stroke="black" points="413.5,-186 415.5,-188"/>
<text text-anchor="start" x="379.5" y="-176.8" font-family="Helvetica,sans-Serif" font-size="9.00" fill="#c40b0a">toml</text>
</a>
</g>
</g>
<!-- dist/config.js&#45;&gt;node_modules/@iarna/toml -->
<g id="edge3" class="edge">
<title>dist/config.js&#45;&gt;node_modules/@iarna/toml</title>
<path fill="none" stroke="#000000" stroke-opacity="0.200000" d="M227.33,-148.08C260.55,-154.5 317.75,-165.54 354.04,-172.54"/>
<polygon fill="#000000" fill-opacity="0.200000" stroke="#000000" stroke-opacity="0.200000" points="353.23,-174.52 359.52,-173.6 354.03,-170.4 353.23,-174.52"/>
</g>
<!-- node_modules/deepmerge -->
<g id="node6" class="node">
<title>node_modules/deepmerge</title>
<g id="a_node6"><a xlink:href="node_modules/deepmerge" xlink:title="deepmerge">
<polygon fill="#c40b0a" fill-opacity="0.101961" stroke="black" points="420.5,-64 358.5,-64 356.5,-62 356.5,-46 418.5,-46 420.5,-48 420.5,-64"/>
<polyline fill="none" stroke="black" points="418.5,-62 356.5,-62"/>
<polyline fill="none" stroke="black" points="418.5,-62 418.5,-46"/>
<polyline fill="none" stroke="black" points="418.5,-62 420.5,-64"/>
<text text-anchor="start" x="364.5" y="-52.8" font-family="Helvetica,sans-Serif" font-size="9.00" fill="#c40b0a">deepmerge</text>
</a>
</g>
</g>
<!-- dist/config.js&#45;&gt;node_modules/deepmerge -->
<g id="edge4" class="edge">
<title>dist/config.js&#45;&gt;node_modules/deepmerge</title>
<path fill="none" stroke="#000000" stroke-opacity="0.200000" d="M210.54,-133.74C218.03,-126.91 228.99,-117.83 240,-112 271.68,-95.23 290.23,-111.83 317,-88 323.54,-82.18 318.27,-75.6 325,-70 331.77,-64.37 340.3,-60.78 348.87,-58.52"/>
<polygon fill="#000000" fill-opacity="0.200000" stroke="#000000" stroke-opacity="0.200000" points="349.16,-60.6 354.56,-57.24 348.25,-56.51 349.16,-60.6"/>
</g>
<!-- fs -->
<g id="node7" class="node">
<title>fs</title>
<g id="a_node7"><a xlink:title="fs">
<path fill="#ffffcc" stroke="grey" d="M295.5,-82C295.5,-82 253.5,-82 253.5,-82 250.5,-82 247.5,-79 247.5,-76 247.5,-76 247.5,-70 247.5,-70 247.5,-67 250.5,-64 253.5,-64 253.5,-64 295.5,-64 295.5,-64 298.5,-64 301.5,-67 301.5,-70 301.5,-70 301.5,-76 301.5,-76 301.5,-79 298.5,-82 295.5,-82"/>
<text text-anchor="middle" x="274.5" y="-70.8" font-family="Helvetica,sans-Serif" font-size="9.00" fill="grey">fs</text>
</a>
</g>
</g>
<!-- dist/config.js&#45;&gt;fs -->
<g id="edge5" class="edge">
<title>dist/config.js&#45;&gt;fs</title>
<path fill="none" stroke="#000000" stroke-dasharray="5,2" stroke-opacity="0.200000" d="M211.36,-133.61C216.45,-128.67 222.44,-122.34 227,-116 234.31,-105.83 231.2,-99.92 240,-91 241.62,-89.35 243.43,-87.82 245.34,-86.4"/>
<polygon fill="#000000" fill-opacity="0.200000" stroke="#000000" stroke-opacity="0.200000" points="246.16,-88.37 250.02,-83.32 243.85,-84.87 246.16,-88.37"/>
</g>
<!-- node_modules/string&#45;env&#45;interpolation -->
<g id="node8" class="node">
<title>node_modules/string&#45;env&#45;interpolation</title>
<g id="a_node8"><a xlink:href="node_modules/string-env-interpolation" xlink:title="string&#45;env&#45;interpolation">
<polygon fill="#c40b0a" fill-opacity="0.101961" stroke="black" points="444,-94 335,-94 333,-92 333,-76 442,-76 444,-78 444,-94"/>
<polyline fill="none" stroke="black" points="442,-92 333,-92"/>
<polyline fill="none" stroke="black" points="442,-92 442,-76"/>
<polyline fill="none" stroke="black" points="442,-92 444,-94"/>
<text text-anchor="start" x="341" y="-82.8" font-family="Helvetica,sans-Serif" font-size="9.00" fill="#c40b0a">string&#45;env&#45;interpolation</text>
</a>
</g>
</g>
<!-- dist/config.js&#45;&gt;node_modules/string&#45;env&#45;interpolation -->
<g id="edge6" class="edge">
<title>dist/config.js&#45;&gt;node_modules/string&#45;env&#45;interpolation</title>
<path fill="none" stroke="#000000" stroke-opacity="0.200000" d="M227.39,-137.95C256.99,-131.91 302.74,-121.31 317,-111 322.19,-107.24 319.72,-102.63 325,-99 325.46,-98.68 325.93,-98.37 326.41,-98.07"/>
<polygon fill="#000000" fill-opacity="0.200000" stroke="#000000" stroke-opacity="0.200000" points="327.32,-99.96 331.56,-95.22 325.29,-96.29 327.32,-99.96"/>
</g>
<!-- dist/configPath.js&#45;&gt;node_modules/@babel/runtime&#45;corejs3 -->
<g id="edge7" class="edge">
<title>dist/configPath.js&#45;&gt;node_modules/@babel/runtime&#45;corejs3</title>
<path fill="none" stroke="#000000" stroke-opacity="0.200000" d="M284.12,-197.58C293.62,-187.46 309.61,-171.19 325,-159 337.36,-149.22 352.18,-139.65 364.29,-132.32"/>
<polygon fill="#000000" fill-opacity="0.200000" stroke="#000000" stroke-opacity="0.200000" points="365.32,-134.15 369.4,-129.27 363.17,-130.54 365.32,-134.15"/>
</g>
<!-- node_modules/findup&#45;sync -->
<g id="node10" class="node">
<title>node_modules/findup&#45;sync</title>
<g id="a_node10"><a xlink:href="node_modules/findup-sync" xlink:title="findup&#45;sync">
<polygon fill="#c40b0a" fill-opacity="0.101961" stroke="black" points="420.5,-240 358.5,-240 356.5,-238 356.5,-222 418.5,-222 420.5,-224 420.5,-240"/>
<polyline fill="none" stroke="black" points="418.5,-238 356.5,-238"/>
<polyline fill="none" stroke="black" points="418.5,-238 418.5,-222"/>
<polyline fill="none" stroke="black" points="418.5,-238 420.5,-240"/>
<text text-anchor="start" x="364.5" y="-228.8" font-family="Helvetica,sans-Serif" font-size="9.00" fill="#c40b0a">findup&#45;sync</text>
</a>
</g>
</g>
<!-- dist/configPath.js&#45;&gt;node_modules/findup&#45;sync -->
<g id="edge8" class="edge">
<title>dist/configPath.js&#45;&gt;node_modules/findup&#45;sync</title>
<path fill="none" stroke="#000000" stroke-opacity="0.200000" d="M309.41,-214.27C321.79,-216.92 335.88,-219.94 348.66,-222.68"/>
<polygon fill="#000000" fill-opacity="0.200000" stroke="#000000" stroke-opacity="0.200000" points="348.22,-224.73 354.52,-223.93 349.1,-220.62 348.22,-224.73"/>
</g>
<!-- dist/configPath.d.ts -->
<g id="node9" class="node">
<title>dist/configPath.d.ts</title>
<g id="a_node9"><a xlink:href="dist/configPath.d.ts" xlink:title="configPath.d.ts">
<path fill="#ccffcc" stroke="black" d="M87,-234C87,-234 22,-234 22,-234 19,-234 16,-231 16,-228 16,-228 16,-222 16,-222 16,-219 19,-216 22,-216 22,-216 87,-216 87,-216 90,-216 93,-219 93,-222 93,-222 93,-228 93,-228 93,-231 90,-234 87,-234"/>
<text text-anchor="start" x="24" y="-222.8" font-family="Helvetica,sans-Serif" font-size="9.00">configPath.d.ts</text>
</a>
</g>
</g>
<!-- dist/index.d.ts -->
<g id="node11" class="node">
<title>dist/index.d.ts</title>
<g id="a_node11"><a xlink:href="dist/index.d.ts" xlink:title="index.d.ts">
<path fill="#ddfeff" stroke="black" d="M76.5,-204C76.5,-204 32.5,-204 32.5,-204 29.5,-204 26.5,-201 26.5,-198 26.5,-198 26.5,-192 26.5,-192 26.5,-189 29.5,-186 32.5,-186 32.5,-186 76.5,-186 76.5,-186 79.5,-186 82.5,-189 82.5,-192 82.5,-192 82.5,-198 82.5,-198 82.5,-201 79.5,-204 76.5,-204"/>
<text text-anchor="start" x="34.5" y="-192.8" font-family="Helvetica,sans-Serif" font-size="9.00">index.d.ts</text>
</a>
</g>
</g>
<!-- dist/index.d.ts&#45;&gt;dist/config.js -->
<g id="edge9" class="edge">
<title>dist/index.d.ts&#45;&gt;dist/config.js</title>
<path fill="none" stroke="#000000" stroke-width="2" stroke-opacity="0.200000" d="M82.72,-186.1C103.9,-179.06 133.97,-168.82 160,-159 162.82,-157.94 165.75,-156.8 168.67,-155.64"/>
<polygon fill="#000000" fill-opacity="0.200000" stroke="#000000" stroke-width="2" stroke-opacity="0.200000" points="169.23,-157.68 174.01,-153.49 167.66,-153.79 169.23,-157.68"/>
</g>
<!-- dist/index.d.ts&#45;&gt;dist/configPath.js -->
<g id="edge10" class="edge">
<title>dist/index.d.ts&#45;&gt;dist/configPath.js</title>
<path fill="none" stroke="#000000" stroke-width="2" stroke-opacity="0.200000" d="M82.67,-196.5C119.75,-198.54 186.61,-202.22 230.53,-204.63"/>
<polygon fill="#000000" fill-opacity="0.200000" stroke="#000000" stroke-width="2" stroke-opacity="0.200000" points="230.4,-206.73 236.51,-204.96 230.63,-202.54 230.4,-206.73"/>
</g>
<!-- dist/paths.js -->
<g id="node12" class="node">
<title>dist/paths.js</title>
<g id="a_node12"><a xlink:href="dist/paths.js" xlink:title="paths.js">
<path fill="#ffffcc" stroke="black" d="M154,-146C154,-146 112,-146 112,-146 109,-146 106,-143 106,-140 106,-140 106,-134 106,-134 106,-131 109,-128 112,-128 112,-128 154,-128 154,-128 157,-128 160,-131 160,-134 160,-134 160,-140 160,-140 160,-143 157,-146 154,-146"/>
<text text-anchor="start" x="117" y="-134.8" font-family="Helvetica,sans-Serif" font-size="9.00">paths.js</text>
</a>
</g>
</g>
<!-- dist/index.d.ts&#45;&gt;dist/paths.js -->
<g id="edge11" class="edge">
<title>dist/index.d.ts&#45;&gt;dist/paths.js</title>
<path fill="none" stroke="#000000" stroke-width="2" stroke-opacity="0.200000" d="M82.89,-185.76C86.42,-184.08 89.89,-182.16 93,-180 103.47,-172.72 113.12,-162.13 120.2,-153.28"/>
<polygon fill="#000000" fill-opacity="0.200000" stroke="#000000" stroke-width="2" stroke-opacity="0.200000" points="121.68,-154.81 123.67,-148.77 118.35,-152.25 121.68,-154.81"/>
</g>
<!-- dist/paths.js&#45;&gt;dist/config.js -->
<g id="edge16" class="edge">
<title>dist/paths.js&#45;&gt;dist/config.js</title>
<path fill="none" stroke="#000000" stroke-width="2" stroke-opacity="0.200000" d="M160.44,-139.44C161.58,-139.55 162.74,-139.65 163.9,-139.76"/>
<polygon fill="#000000" fill-opacity="0.200000" stroke="#000000" stroke-width="2" stroke-opacity="0.200000" points="163.61,-141.84 169.78,-140.3 164,-137.66 163.61,-141.84"/>
</g>
<!-- dist/paths.js&#45;&gt;dist/configPath.js -->
<g id="edge17" class="edge">
<title>dist/paths.js&#45;&gt;dist/configPath.js</title>
<path fill="none" stroke="#000000" stroke-width="2" stroke-opacity="0.200000" d="M149.98,-146.49C156.91,-150.37 165.21,-154.71 173,-158 196.18,-167.79 204.39,-163.97 227,-175 236.71,-179.74 246.68,-186.33 254.89,-192.3"/>
<polygon fill="#000000" fill-opacity="0.200000" stroke="#000000" stroke-width="2" stroke-opacity="0.200000" points="253.39,-193.8 259.45,-195.72 255.91,-190.44 253.39,-193.8"/>
</g>
<!-- dist/paths.js&#45;&gt;node_modules/@babel/runtime&#45;corejs3 -->
<g id="edge18" class="edge">
<title>dist/paths.js&#45;&gt;node_modules/@babel/runtime&#45;corejs3</title>
<path fill="none" stroke="#000000" stroke-opacity="0.200000" d="M136.42,-127.6C140.88,-112.35 151.91,-82.5 173,-68 197.81,-50.94 209.97,-60.23 240,-58 274.13,-55.47 290.89,-35.88 317,-58 333.5,-71.98 310.02,-90.4 325,-106 329.42,-110.6 335,-113.78 341.01,-115.96"/>
<polygon fill="#000000" fill-opacity="0.200000" stroke="#000000" stroke-opacity="0.200000" points="340.41,-117.97 346.75,-117.65 341.59,-113.94 340.41,-117.97"/>
</g>
<!-- dist/paths.js&#45;&gt;fs -->
<g id="edge20" class="edge">
<title>dist/paths.js&#45;&gt;fs</title>
<path fill="none" stroke="#000000" stroke-dasharray="5,2" stroke-opacity="0.200000" d="M138.27,-127.64C144.22,-115.77 156.2,-95.69 173,-86 193.22,-74.33 219.48,-71.27 240.09,-71.02"/>
<polygon fill="#000000" fill-opacity="0.200000" stroke="#000000" stroke-opacity="0.200000" points="239.88,-73.12 245.89,-71.04 239.9,-68.92 239.88,-73.12"/>
</g>
<!-- node_modules/fast&#45;glob -->
<g id="node15" class="node">
<title>node_modules/fast&#45;glob</title>
<g id="a_node15"><a xlink:href="node_modules/fast-glob" xlink:title="fast&#45;glob">
<polygon fill="#c40b0a" fill-opacity="0.101961" stroke="black" points="415.5,-34 363.5,-34 361.5,-32 361.5,-16 413.5,-16 415.5,-18 415.5,-34"/>
<polyline fill="none" stroke="black" points="413.5,-32 361.5,-32"/>
<polyline fill="none" stroke="black" points="413.5,-32 413.5,-16"/>
<polyline fill="none" stroke="black" points="413.5,-32 415.5,-34"/>
<text text-anchor="start" x="370.5" y="-22.8" font-family="Helvetica,sans-Serif" font-size="9.00" fill="#c40b0a">fast&#45;glob</text>
</a>
</g>
</g>
<!-- dist/paths.js&#45;&gt;node_modules/fast&#45;glob -->
<g id="edge19" class="edge">
<title>dist/paths.js&#45;&gt;node_modules/fast&#45;glob</title>
<path fill="none" stroke="#000000" stroke-opacity="0.200000" d="M135.44,-127.73C138.7,-110.21 148.35,-72.35 173,-54 226.26,-14.36 308.16,-15.62 353.81,-20.21"/>
<polygon fill="#000000" fill-opacity="0.200000" stroke="#000000" stroke-opacity="0.200000" points="353.39,-22.28 359.58,-20.84 353.84,-18.1 353.39,-22.28"/>
</g>
<!-- path -->
<g id="node16" class="node">
<title>path</title>
<g id="a_node16"><a xlink:title="path">
<path fill="#ffffcc" stroke="grey" d="M221,-110C221,-110 179,-110 179,-110 176,-110 173,-107 173,-104 173,-104 173,-98 173,-98 173,-95 176,-92 179,-92 179,-92 221,-92 221,-92 224,-92 227,-95 227,-98 227,-98 227,-104 227,-104 227,-107 224,-110 221,-110"/>
<text text-anchor="middle" x="200" y="-98.8" font-family="Helvetica,sans-Serif" font-size="9.00" fill="grey">path</text>
</a>
</g>
</g>
<!-- dist/paths.js&#45;&gt;path -->
<g id="edge21" class="edge">
<title>dist/paths.js&#45;&gt;path</title>
<path fill="none" stroke="#000000" stroke-dasharray="5,2" stroke-opacity="0.200000" d="M150.66,-127.51C157.56,-123.6 165.65,-119.05 173,-115 173.59,-114.68 174.19,-114.35 174.79,-114.02"/>
<polygon fill="#000000" fill-opacity="0.200000" stroke="#000000" stroke-opacity="0.200000" points="175.76,-115.88 180.02,-111.17 173.75,-112.19 175.76,-115.88"/>
</g>
<!-- dist/index.js -->
<g id="node13" class="node">
<title>dist/index.js</title>
<g id="a_node13"><a xlink:href="dist/index.js" xlink:title="index.js">
<path fill="#ffffcc" stroke="black" d="M75.5,-174C75.5,-174 33.5,-174 33.5,-174 30.5,-174 27.5,-171 27.5,-168 27.5,-168 27.5,-162 27.5,-162 27.5,-159 30.5,-156 33.5,-156 33.5,-156 75.5,-156 75.5,-156 78.5,-156 81.5,-159 81.5,-162 81.5,-162 81.5,-168 81.5,-168 81.5,-171 78.5,-174 75.5,-174"/>
<text text-anchor="start" x="38.5" y="-162.8" font-family="Helvetica,sans-Serif" font-size="9.00">index.js</text>
</a>
</g>
</g>
<!-- dist/index.js&#45;&gt;dist/config.js -->
<g id="edge12" class="edge">
<title>dist/index.js&#45;&gt;dist/config.js</title>
<path fill="none" stroke="#000000" stroke-width="2" stroke-opacity="0.200000" d="M81.81,-162.49C103.01,-160.28 133.54,-156.69 160,-152 161.28,-151.77 162.59,-151.53 163.9,-151.28"/>
<polygon fill="#000000" fill-opacity="0.200000" stroke="#000000" stroke-width="2" stroke-opacity="0.200000" points="164.23,-153.35 169.68,-150.08 163.38,-149.24 164.23,-153.35"/>
</g>
<!-- dist/index.js&#45;&gt;dist/configPath.js -->
<g id="edge13" class="edge">
<title>dist/index.js&#45;&gt;dist/configPath.js</title>
<path fill="none" stroke="#000000" stroke-width="2" stroke-opacity="0.200000" d="M81.94,-170.08C115.63,-176.55 175.64,-188.09 227,-198 228.29,-198.25 229.59,-198.5 230.91,-198.76"/>
<polygon fill="#000000" fill-opacity="0.200000" stroke="#000000" stroke-width="2" stroke-opacity="0.200000" points="230.46,-200.81 236.75,-199.88 231.26,-196.68 230.46,-200.81"/>
</g>
<!-- dist/index.js&#45;&gt;node_modules/@babel/runtime&#45;corejs3 -->
<g id="edge15" class="edge">
<title>dist/index.js&#45;&gt;node_modules/@babel/runtime&#45;corejs3</title>
<path fill="none" stroke="#000000" stroke-opacity="0.200000" d="M81.64,-157.55C85.77,-155.57 89.74,-153.09 93,-150 102.96,-140.56 98.18,-133.27 106,-122 130.18,-87.14 135.18,-73.23 173,-54 230.18,-24.92 268.82,-1.64 317,-44 337.87,-62.35 306.12,-85.61 325,-106 329.33,-110.68 334.87,-113.91 340.85,-116.11"/>
<polygon fill="#000000" fill-opacity="0.200000" stroke="#000000" stroke-opacity="0.200000" points="340.24,-118.11 346.59,-117.81 341.43,-114.09 340.24,-118.11"/>
</g>
<!-- dist/index.js&#45;&gt;dist/paths.js -->
<g id="edge14" class="edge">
<title>dist/index.js&#45;&gt;dist/paths.js</title>
<path fill="none" stroke="#000000" stroke-width="2" stroke-opacity="0.200000" d="M81.4,-155.52C86.63,-153.6 92.21,-151.56 97.68,-149.56"/>
<polygon fill="#000000" fill-opacity="0.200000" stroke="#000000" stroke-width="2" stroke-opacity="0.200000" points="98.37,-151.54 103.28,-147.51 96.93,-147.6 98.37,-151.54"/>
</g>
<!-- dist/paths.d.ts -->
<g id="node14" class="node">
<title>dist/paths.d.ts</title>
<g id="a_node14"><a xlink:href="dist/paths.d.ts" xlink:title="paths.d.ts">
<path fill="#ccffcc" stroke="black" d="M76.5,-144C76.5,-144 32.5,-144 32.5,-144 29.5,-144 26.5,-141 26.5,-138 26.5,-138 26.5,-132 26.5,-132 26.5,-129 29.5,-126 32.5,-126 32.5,-126 76.5,-126 76.5,-126 79.5,-126 82.5,-129 82.5,-132 82.5,-132 82.5,-138 82.5,-138 82.5,-141 79.5,-144 76.5,-144"/>
<text text-anchor="start" x="34.5" y="-132.8" font-family="Helvetica,sans-Serif" font-size="9.00">paths.d.ts</text>
</a>
</g>
</g>
</g>
</svg>
