<?xml version="1.0" encoding="UTF-8" standalone="no"?>
<!DOCTYPE svg PUBLIC "-//W3C//DTD SVG 1.1//EN"
 "http://www.w3.org/Graphics/SVG/1.1/DTD/svg11.dtd">
<!-- Generated by graphviz version 8.0.5 (20230430.1635)
 -->
<!-- Title: dependency&#45;cruiser output Pages: 1 -->
<svg width="536pt" height="367pt"
 viewBox="0.00 0.00 535.75 367.20" xmlns="http://www.w3.org/2000/svg" xmlns:xlink="http://www.w3.org/1999/xlink">
<g id="graph0" class="graph" transform="scale(1 1) rotate(0) translate(4 363.2)">
<title>dependency&#45;cruiser output</title>
<polygon fill="white" stroke="none" points="-4,4 -4,-363.2 531.75,-363.2 531.75,4 -4,4"/>
<g id="clust1" class="cluster">
<title>cluster_node_modules</title>
<path fill="#ffffff" stroke="black" stroke-width="2" d="M265.25,-77.2C265.25,-77.2 367.75,-77.2 367.75,-77.2 373.75,-77.2 379.75,-83.2 379.75,-89.2 379.75,-89.2 379.75,-237.2 379.75,-237.2 379.75,-243.2 373.75,-249.2 367.75,-249.2 367.75,-249.2 265.25,-249.2 265.25,-249.2 259.25,-249.2 253.25,-243.2 253.25,-237.2 253.25,-237.2 253.25,-89.2 253.25,-89.2 253.25,-83.2 259.25,-77.2 265.25,-77.2"/>
<text text-anchor="middle" x="316.5" y="-236.65" font-family="Helvetica,sans-Serif" font-weight="bold" font-size="9.00">node_modules</text>
</g>
<g id="clust2" class="cluster">
<title>cluster_node_modules/@iarna</title>
<path fill="#ffffff" stroke="black" stroke-width="2" d="M293.5,-171.2C293.5,-171.2 339.5,-171.2 339.5,-171.2 345.5,-171.2 351.5,-177.2 351.5,-183.2 351.5,-183.2 351.5,-211.2 351.5,-211.2 351.5,-217.2 345.5,-223.2 339.5,-223.2 339.5,-223.2 293.5,-223.2 293.5,-223.2 287.5,-223.2 281.5,-217.2 281.5,-211.2 281.5,-211.2 281.5,-183.2 281.5,-183.2 281.5,-177.2 287.5,-171.2 293.5,-171.2"/>
<text text-anchor="middle" x="316.5" y="-210.65" font-family="Helvetica,sans-Serif" font-weight="bold" font-size="9.00">@iarna</text>
</g>
<g id="clust3" class="cluster">
<title>cluster_src</title>
<path fill="#ffffff" stroke="black" stroke-width="2" d="M20,-257.2C20,-257.2 453.75,-257.2 453.75,-257.2 459.75,-257.2 465.75,-263.2 465.75,-269.2 465.75,-269.2 465.75,-339.2 465.75,-339.2 465.75,-345.2 459.75,-351.2 453.75,-351.2 453.75,-351.2 20,-351.2 20,-351.2 14,-351.2 8,-345.2 8,-339.2 8,-339.2 8,-269.2 8,-269.2 8,-263.2 14,-257.2 20,-257.2"/>
<text text-anchor="middle" x="236.88" y="-338.65" font-family="Helvetica,sans-Serif" font-weight="bold" font-size="9.00">src</text>
</g>
<!-- fs -->
<g id="node1" class="node">
<title>fs</title>
<g id="a_node1"><a xlink:title="fs">
<path fill="#ffffcc" stroke="grey" d="M521.83,-305.07C521.83,-305.07 479.67,-305.07 479.67,-305.07 476.71,-305.07 473.75,-302.11 473.75,-299.16 473.75,-299.16 473.75,-293.24 473.75,-293.24 473.75,-290.28 476.71,-287.32 479.67,-287.32 479.67,-287.32 521.83,-287.32 521.83,-287.32 524.79,-287.32 527.75,-290.28 527.75,-293.24 527.75,-293.24 527.75,-299.16 527.75,-299.16 527.75,-302.11 524.79,-305.07 521.83,-305.07"/>
<text text-anchor="middle" x="500.75" y="-292.52" font-family="Helvetica,sans-Serif" font-size="9.00" fill="grey">fs</text>
</a>
</g>
</g>
<!-- node_modules/@iarna/toml -->
<g id="node2" class="node">
<title>node_modules/@iarna/toml</title>
<g id="a_node2"><a xlink:href="node_modules/@iarna/toml" xlink:title="toml">
<polygon fill="#c40b0a" fill-opacity="0.101961" stroke="black" points="343.5,-197.07 291.47,-197.07 289.5,-195.1 289.5,-179.32 341.53,-179.32 343.5,-181.3 343.5,-197.07"/>
<polyline fill="none" stroke="black" points="341.53,-195.1 289.5,-195.1"/>
<polyline fill="none" stroke="black" points="341.53,-195.1 341.53,-179.32"/>
<polyline fill="none" stroke="black" points="341.53,-195.1 343.5,-197.07"/>
<text text-anchor="start" x="307.88" y="-184.52" font-family="Helvetica,sans-Serif" font-size="9.00" fill="#c40b0a">toml</text>
</a>
</g>
</g>
<!-- node_modules/deepmerge -->
<g id="node3" class="node">
<title>node_modules/deepmerge</title>
<g id="a_node3"><a xlink:href="node_modules/deepmerge" xlink:title="deepmerge">
<polygon fill="#c40b0a" fill-opacity="0.101961" stroke="black" points="348.12,-163.07 286.85,-163.07 284.88,-161.1 284.88,-145.32 346.15,-145.32 348.12,-147.3 348.12,-163.07"/>
<polyline fill="none" stroke="black" points="346.15,-161.1 284.88,-161.1"/>
<polyline fill="none" stroke="black" points="346.15,-161.1 346.15,-145.32"/>
<polyline fill="none" stroke="black" points="346.15,-161.1 348.12,-163.07"/>
<text text-anchor="start" x="292.88" y="-150.52" font-family="Helvetica,sans-Serif" font-size="9.00" fill="#c40b0a">deepmerge</text>
</a>
</g>
</g>
<!-- node_modules/fast&#45;glob -->
<g id="node4" class="node">
<title>node_modules/fast&#45;glob</title>
<g id="a_node4"><a xlink:href="node_modules/fast-glob" xlink:title="fast&#45;glob">
<polygon fill="#c40b0a" fill-opacity="0.101961" stroke="black" points="343.5,-103.07 291.47,-103.07 289.5,-101.1 289.5,-85.32 341.53,-85.32 343.5,-87.3 343.5,-103.07"/>
<polyline fill="none" stroke="black" points="341.53,-101.1 289.5,-101.1"/>
<polyline fill="none" stroke="black" points="341.53,-101.1 341.53,-85.32"/>
<polyline fill="none" stroke="black" points="341.53,-101.1 343.5,-103.07"/>
<text text-anchor="start" x="298.88" y="-90.52" font-family="Helvetica,sans-Serif" font-size="9.00" fill="#c40b0a">fast&#45;glob</text>
</a>
</g>
</g>
<!-- node_modules/string&#45;env&#45;interpolation -->
<g id="node5" class="node">
<title>node_modules/string&#45;env&#45;interpolation</title>
<g id="a_node5"><a xlink:href="node_modules/string-env-interpolation" xlink:title="string&#45;env&#45;interpolation">
<polygon fill="#c40b0a" fill-opacity="0.101961" stroke="black" points="371.75,-133.07 263.22,-133.07 261.25,-131.1 261.25,-115.32 369.78,-115.32 371.75,-117.3 371.75,-133.07"/>
<polyline fill="none" stroke="black" points="369.78,-131.1 261.25,-131.1"/>
<polyline fill="none" stroke="black" points="369.78,-131.1 369.78,-115.32"/>
<polyline fill="none" stroke="black" points="369.78,-131.1 371.75,-133.07"/>
<text text-anchor="start" x="269.25" y="-120.52" font-family="Helvetica,sans-Serif" font-size="9.00" fill="#c40b0a">string&#45;env&#45;interpolation</text>
</a>
</g>
</g>
<!-- path -->
<g id="node6" class="node">
<title>path</title>
<g id="a_node6"><a xlink:title="path">
<path fill="#ffffcc" stroke="grey" d="M521.83,-160.07C521.83,-160.07 479.67,-160.07 479.67,-160.07 476.71,-160.07 473.75,-157.11 473.75,-154.16 473.75,-154.16 473.75,-148.24 473.75,-148.24 473.75,-145.28 476.71,-142.32 479.67,-142.32 479.67,-142.32 521.83,-142.32 521.83,-142.32 524.79,-142.32 527.75,-145.28 527.75,-148.24 527.75,-148.24 527.75,-154.16 527.75,-154.16 527.75,-157.11 524.79,-160.07 521.83,-160.07"/>
<text text-anchor="middle" x="500.75" y="-147.52" font-family="Helvetica,sans-Serif" font-size="9.00" fill="grey">path</text>
</a>
</g>
</g>
<!-- src/config.ts -->
<g id="node7" class="node">
<title>src/config.ts</title>
<g id="a_node7"><a xlink:href="src/config.ts" xlink:title="config.ts">
<path fill="#ddfeff" stroke="black" d="M239.33,-283.07C239.33,-283.07 183.42,-283.07 183.42,-283.07 180.46,-283.07 177.5,-280.11 177.5,-277.16 177.5,-277.16 177.5,-271.24 177.5,-271.24 177.5,-268.28 180.46,-265.32 183.42,-265.32 183.42,-265.32 239.33,-265.32 239.33,-265.32 242.29,-265.32 245.25,-268.28 245.25,-271.24 245.25,-271.24 245.25,-277.16 245.25,-277.16 245.25,-280.11 242.29,-283.07 239.33,-283.07"/>
<text text-anchor="start" x="185.5" y="-271.52" font-family="Helvetica,sans-Serif" font-size="9.00">config.ts </text>
<text text-anchor="start" x="221.5" y="-271.52" font-family="Helvetica,sans-Serif" font-size="8.00" fill="#808080">71%</text>
</a>
</g>
</g>
<!-- src/config.ts&#45;&gt;fs -->
<g id="edge4" class="edge">
<title>src/config.ts&#45;&gt;fs</title>
<path fill="none" stroke="#000000" stroke-dasharray="5,2" stroke-opacity="0.200000" d="M219.01,-283.24C226.26,-292.29 238.78,-305.62 253.25,-311.2 341.38,-345.16 373.34,-330.68 465.75,-311.2 469.21,-310.47 472.75,-309.36 476.18,-308.08"/>
<polygon fill="#000000" fill-opacity="0.200000" stroke="#000000" stroke-opacity="0.200000" points="476.83,-309.66 481.57,-305.43 475.22,-305.78 476.83,-309.66"/>
</g>
<!-- src/config.ts&#45;&gt;node_modules/@iarna/toml -->
<g id="edge2" class="edge">
<title>src/config.ts&#45;&gt;node_modules/@iarna/toml</title>
<path fill="none" stroke="#000000" stroke-opacity="0.200000" d="M223.41,-264.99C241.63,-249.8 278.09,-219.39 299.26,-201.74"/>
<polygon fill="#000000" fill-opacity="0.200000" stroke="#000000" stroke-opacity="0.200000" points="300.28,-202.79 303.54,-197.34 297.59,-199.57 300.28,-202.79"/>
</g>
<!-- src/config.ts&#45;&gt;node_modules/deepmerge -->
<g id="edge3" class="edge">
<title>src/config.ts&#45;&gt;node_modules/deepmerge</title>
<path fill="none" stroke="#000000" stroke-opacity="0.200000" d="M215.33,-265.12C223.35,-240.69 245.49,-174.9 253.25,-168.2 260.13,-162.26 269,-158.69 277.87,-156.58"/>
<polygon fill="#000000" fill-opacity="0.200000" stroke="#000000" stroke-opacity="0.200000" points="278.15,-158.46 283.63,-155.23 277.33,-154.35 278.15,-158.46"/>
</g>
<!-- src/config.ts&#45;&gt;node_modules/string&#45;env&#45;interpolation -->
<g id="edge5" class="edge">
<title>src/config.ts&#45;&gt;node_modules/string&#45;env&#45;interpolation</title>
<path fill="none" stroke="#000000" stroke-opacity="0.200000" d="M216.09,-265C222.71,-248.33 236.66,-211.9 245.25,-180.2 250.1,-162.28 240.41,-152.61 253.25,-139.2 253.97,-138.44 254.72,-137.73 255.5,-137.04"/>
<polygon fill="#000000" fill-opacity="0.200000" stroke="#000000" stroke-opacity="0.200000" points="256.42,-138.24 260.01,-133 253.93,-134.86 256.42,-138.24"/>
</g>
<!-- src/configPath.ts -->
<g id="node8" class="node">
<title>src/configPath.ts</title>
<g id="a_node8"><a xlink:href="src/configPath.ts" xlink:title="configPath.ts">
<path fill="#ddfeff" stroke="black" d="M353.83,-305.07C353.83,-305.07 279.17,-305.07 279.17,-305.07 276.21,-305.07 273.25,-302.11 273.25,-299.16 273.25,-299.16 273.25,-293.24 273.25,-293.24 273.25,-290.28 276.21,-287.32 279.17,-287.32 279.17,-287.32 353.83,-287.32 353.83,-287.32 356.79,-287.32 359.75,-290.28 359.75,-293.24 359.75,-293.24 359.75,-299.16 359.75,-299.16 359.75,-302.11 356.79,-305.07 353.83,-305.07"/>
<text text-anchor="start" x="281.25" y="-293.52" font-family="Helvetica,sans-Serif" font-size="9.00">configPath.ts </text>
<text text-anchor="start" x="336" y="-293.52" font-family="Helvetica,sans-Serif" font-size="8.00" fill="#808080">25%</text>
</a>
</g>
</g>
<!-- src/config.ts&#45;&gt;src/configPath.ts -->
<g id="edge1" class="edge">
<title>src/config.ts&#45;&gt;src/configPath.ts</title>
<path fill="none" stroke="#000000" stroke-width="2" stroke-opacity="0.200000" d="M245.57,-281.28C251.56,-282.56 257.93,-283.92 264.3,-285.27"/>
<polygon fill="#000000" fill-opacity="0.200000" stroke="#000000" stroke-width="2" stroke-opacity="0.200000" points="264.63,-287.92 270.94,-287.12 265.51,-283.81 264.63,-287.92"/>
</g>
<!-- src/findUp.ts -->
<g id="node9" class="node">
<title>src/findUp.ts</title>
<g id="a_node9"><a xlink:href="src/findUp.ts" xlink:title="findUp.ts">
<path fill="#ddfeff" stroke="black" d="M451.83,-305.07C451.83,-305.07 393.67,-305.07 393.67,-305.07 390.71,-305.07 387.75,-302.11 387.75,-299.16 387.75,-299.16 387.75,-293.24 387.75,-293.24 387.75,-290.28 390.71,-287.32 393.67,-287.32 393.67,-287.32 451.83,-287.32 451.83,-287.32 454.79,-287.32 457.75,-290.28 457.75,-293.24 457.75,-293.24 457.75,-299.16 457.75,-299.16 457.75,-302.11 454.79,-305.07 451.83,-305.07"/>
<text text-anchor="start" x="395.75" y="-293.52" font-family="Helvetica,sans-Serif" font-size="9.00">findUp.ts </text>
<text text-anchor="start" x="434" y="-293.52" font-family="Helvetica,sans-Serif" font-size="8.00" fill="#808080">50%</text>
</a>
</g>
</g>
<!-- src/configPath.ts&#45;&gt;src/findUp.ts -->
<g id="edge6" class="edge">
<title>src/configPath.ts&#45;&gt;src/findUp.ts</title>
<path fill="none" stroke="#000000" stroke-width="2" stroke-opacity="0.200000" d="M360.2,-296.2C366.32,-296.2 372.62,-296.2 378.75,-296.2"/>
<polygon fill="#000000" fill-opacity="0.200000" stroke="#000000" stroke-width="2" stroke-opacity="0.200000" points="378.56,-298.3 384.56,-296.2 378.56,-294.1 378.56,-298.3"/>
</g>
<!-- src/findUp.ts&#45;&gt;fs -->
<g id="edge7" class="edge">
<title>src/findUp.ts&#45;&gt;fs</title>
<path fill="none" stroke="#000000" stroke-dasharray="5,2" stroke-opacity="0.200000" d="M458.19,-296.2C461.11,-296.2 464.05,-296.2 466.96,-296.2"/>
<polygon fill="#000000" fill-opacity="0.200000" stroke="#000000" stroke-opacity="0.200000" points="466.62,-298.3 472.62,-296.2 466.62,-294.1 466.62,-298.3"/>
</g>
<!-- src/findUp.ts&#45;&gt;path -->
<g id="edge8" class="edge">
<title>src/findUp.ts&#45;&gt;path</title>
<path fill="none" stroke="#000000" stroke-dasharray="5,2" stroke-opacity="0.200000" d="M428.5,-287.13C441.19,-262.92 475.97,-196.58 491.76,-166.45"/>
<polygon fill="#000000" fill-opacity="0.200000" stroke="#000000" stroke-opacity="0.200000" points="494.07,-167.55 495,-161.26 490.35,-165.6 494.07,-167.55"/>
</g>
<!-- src/index.ts -->
<g id="node10" class="node">
<title>src/index.ts</title>
<g id="a_node10"><a xlink:href="src/index.ts" xlink:title="index.ts">
<path fill="#ddfeff" stroke="black" d="M80.08,-312.07C80.08,-312.07 21.92,-312.07 21.92,-312.07 18.96,-312.07 16,-309.11 16,-306.16 16,-306.16 16,-300.24 16,-300.24 16,-297.28 18.96,-294.32 21.92,-294.32 21.92,-294.32 80.08,-294.32 80.08,-294.32 83.04,-294.32 86,-297.28 86,-300.24 86,-300.24 86,-306.16 86,-306.16 86,-309.11 83.04,-312.07 80.08,-312.07"/>
<text text-anchor="start" x="24" y="-300.52" font-family="Helvetica,sans-Serif" font-size="9.00">index.ts </text>
<text text-anchor="start" x="57.75" y="-300.52" font-family="Helvetica,sans-Serif" font-size="8.00" fill="#808080">100%</text>
</a>
</g>
</g>
<!-- src/index.ts&#45;&gt;src/config.ts -->
<g id="edge9" class="edge">
<title>src/index.ts&#45;&gt;src/config.ts</title>
<path fill="none" stroke="#000000" stroke-width="2" stroke-opacity="0.200000" d="M86.26,-300.66C108.7,-298.57 138.57,-294.99 164.5,-289.2 168.38,-288.33 172.39,-287.27 176.36,-286.12"/>
<polygon fill="#000000" fill-opacity="0.200000" stroke="#000000" stroke-width="2" stroke-opacity="0.200000" points="177.78,-287.26 182.9,-283.49 176.55,-283.25 177.78,-287.26"/>
</g>
<!-- src/index.ts&#45;&gt;src/configPath.ts -->
<g id="edge10" class="edge">
<title>src/index.ts&#45;&gt;src/configPath.ts</title>
<path fill="none" stroke="#000000" stroke-width="2" stroke-opacity="0.200000" d="M86.45,-302.28C131.81,-301.08 211.95,-298.95 264.39,-297.56"/>
<polygon fill="#000000" fill-opacity="0.200000" stroke="#000000" stroke-width="2" stroke-opacity="0.200000" points="264.26,-299.58 270.2,-297.32 264.15,-295.38 264.26,-299.58"/>
</g>
<!-- src/index.ts&#45;&gt;src/findUp.ts -->
<g id="edge11" class="edge">
<title>src/index.ts&#45;&gt;src/findUp.ts</title>
<path fill="none" stroke="#000000" stroke-width="2" stroke-opacity="0.200000" d="M86.29,-308.39C146.3,-316.52 274.03,-329.51 379.75,-311.2 383.72,-310.51 387.81,-309.48 391.81,-308.28"/>
<polygon fill="#000000" fill-opacity="0.200000" stroke="#000000" stroke-width="2" stroke-opacity="0.200000" points="393.31,-309.33 398.33,-305.44 391.98,-305.34 393.31,-309.33"/>
</g>
<!-- src/paths.ts -->
<g id="node11" class="node">
<title>src/paths.ts</title>
<g id="a_node11"><a xlink:href="src/paths.ts" xlink:title="paths.ts">
<path fill="#ddfeff" stroke="black" d="M158.58,-283.07C158.58,-283.07 104.92,-283.07 104.92,-283.07 101.96,-283.07 99,-280.11 99,-277.16 99,-277.16 99,-271.24 99,-271.24 99,-268.28 101.96,-265.32 104.92,-265.32 104.92,-265.32 158.58,-265.32 158.58,-265.32 161.54,-265.32 164.5,-268.28 164.5,-271.24 164.5,-271.24 164.5,-277.16 164.5,-277.16 164.5,-280.11 161.54,-283.07 158.58,-283.07"/>
<text text-anchor="start" x="107" y="-271.52" font-family="Helvetica,sans-Serif" font-size="9.00">paths.ts </text>
<text text-anchor="start" x="140.75" y="-271.52" font-family="Helvetica,sans-Serif" font-size="8.00" fill="#808080">83%</text>
</a>
</g>
</g>
<!-- src/index.ts&#45;&gt;src/paths.ts -->
<g id="edge12" class="edge">
<title>src/index.ts&#45;&gt;src/paths.ts</title>
<path fill="none" stroke="#000000" stroke-width="2" stroke-opacity="0.200000" d="M77.35,-293.86C83.67,-291.53 90.55,-289 97.2,-286.55"/>
<polygon fill="#000000" fill-opacity="0.200000" stroke="#000000" stroke-width="2" stroke-opacity="0.200000" points="98.54,-288.56 103.45,-284.52 97.09,-284.62 98.54,-288.56"/>
</g>
<!-- src/paths.ts&#45;&gt;fs -->
<g id="edge16" class="edge">
<title>src/paths.ts&#45;&gt;fs</title>
<path fill="none" stroke="#000000" stroke-dasharray="5,2" stroke-opacity="0.200000" d="M132.8,-264.97C133.41,-238.23 138.61,-159.55 177.5,-112.2 235.55,-41.52 301.19,-27.36 379.75,-74.2 457.85,-120.76 488.19,-237.73 496.87,-280.35"/>
<polygon fill="#000000" fill-opacity="0.200000" stroke="#000000" stroke-opacity="0.200000" points="495,-280.7 498.21,-286.19 499.12,-279.9 495,-280.7"/>
</g>
<!-- src/paths.ts&#45;&gt;node_modules/fast&#45;glob -->
<g id="edge15" class="edge">
<title>src/paths.ts&#45;&gt;node_modules/fast&#45;glob</title>
<path fill="none" stroke="#000000" stroke-opacity="0.200000" d="M136.66,-264.95C149.11,-236.7 190.69,-150.93 253.25,-109.2 261.82,-103.48 272.33,-99.94 282.27,-97.75"/>
<polygon fill="#000000" fill-opacity="0.200000" stroke="#000000" stroke-opacity="0.200000" points="282.53,-99.64 288.02,-96.43 281.73,-95.52 282.53,-99.64"/>
</g>
<!-- src/paths.ts&#45;&gt;path -->
<g id="edge17" class="edge">
<title>src/paths.ts&#45;&gt;path</title>
<path fill="none" stroke="#000000" stroke-dasharray="5,2" stroke-opacity="0.200000" d="M133.24,-264.91C135.42,-226.94 145.68,-84.09 177.5,-55.2 272.62,31.17 370.68,9.24 465.75,-77.2 482.96,-92.84 492.09,-118.94 496.42,-135.59"/>
<polygon fill="#000000" fill-opacity="0.200000" stroke="#000000" stroke-opacity="0.200000" points="494.54,-135.75 497.99,-141.09 498.62,-134.77 494.54,-135.75"/>
</g>
<!-- src/paths.ts&#45;&gt;src/config.ts -->
<g id="edge13" class="edge">
<title>src/paths.ts&#45;&gt;src/config.ts</title>
<path fill="none" stroke="#000000" stroke-width="2" stroke-opacity="0.200000" d="M164.77,-274.2C165.92,-274.2 167.08,-274.2 168.24,-274.2"/>
<polygon fill="#000000" fill-opacity="0.200000" stroke="#000000" stroke-width="2" stroke-opacity="0.200000" points="168.17,-276.3 174.17,-274.2 168.17,-272.1 168.17,-276.3"/>
</g>
<!-- src/paths.ts&#45;&gt;src/configPath.ts -->
<g id="edge14" class="edge">
<title>src/paths.ts&#45;&gt;src/configPath.ts</title>
<path fill="none" stroke="#000000" stroke-width="2" stroke-opacity="0.200000" d="M156.58,-283.52C163.25,-285.76 170.58,-287.89 177.5,-289.2 205.75,-294.55 237.8,-296.42 263.9,-296.9"/>
<polygon fill="#000000" fill-opacity="0.200000" stroke="#000000" stroke-width="2" stroke-opacity="0.200000" points="263.84,-299.04 269.87,-297.02 263.9,-294.84 263.84,-299.04"/>
</g>
</g>
</svg>
