<?xml version="1.0" encoding="UTF-8" standalone="no"?>
<!DOCTYPE svg PUBLIC "-//W3C//DTD SVG 1.1//EN"
 "http://www.w3.org/Graphics/SVG/1.1/DTD/svg11.dtd">
<!-- Generated by graphviz version 8.0.5 (20230430.1635)
 -->
<!-- Title: dependency&#45;cruiser output Pages: 1 -->
<svg width="355pt" height="307pt"
 viewBox="0.00 0.00 354.50 307.42" xmlns="http://www.w3.org/2000/svg" xmlns:xlink="http://www.w3.org/1999/xlink">
<g id="graph0" class="graph" transform="scale(1 1) rotate(0) translate(4 303.42)">
<title>dependency&#45;cruiser output</title>
<polygon fill="white" stroke="none" points="-4,4 -4,-303.42 350.5,-303.42 350.5,4 -4,4"/>
<g id="clust1" class="cluster">
<title>cluster_dist</title>
<path fill="#ffffff" stroke="black" stroke-width="2" d="M20,-149.42C20,-149.42 192,-149.42 192,-149.42 198,-149.42 204,-155.42 204,-161.42 204,-161.42 204,-279.42 204,-279.42 204,-285.42 198,-291.42 192,-291.42 192,-291.42 20,-291.42 20,-291.42 14,-291.42 8,-285.42 8,-279.42 8,-279.42 8,-161.42 8,-161.42 8,-155.42 14,-149.42 20,-149.42"/>
<text text-anchor="middle" x="106" y="-278.87" font-family="Helvetica,sans-Serif" font-weight="bold" font-size="9.00">dist</text>
</g>
<g id="clust2" class="cluster">
<title>cluster_node_modules</title>
<path fill="#ffffff" stroke="black" stroke-width="2" d="M224,-35.42C224,-35.42 326.5,-35.42 326.5,-35.42 332.5,-35.42 338.5,-41.42 338.5,-47.42 338.5,-47.42 338.5,-195.42 338.5,-195.42 338.5,-201.42 332.5,-207.42 326.5,-207.42 326.5,-207.42 224,-207.42 224,-207.42 218,-207.42 212,-201.42 212,-195.42 212,-195.42 212,-47.42 212,-47.42 212,-41.42 218,-35.42 224,-35.42"/>
<text text-anchor="middle" x="275.25" y="-194.87" font-family="Helvetica,sans-Serif" font-weight="bold" font-size="9.00">node_modules</text>
</g>
<g id="clust3" class="cluster">
<title>cluster_node_modules/@iarna</title>
<path fill="#ffffff" stroke="black" stroke-width="2" d="M252.25,-129.42C252.25,-129.42 298.25,-129.42 298.25,-129.42 304.25,-129.42 310.25,-135.42 310.25,-141.42 310.25,-141.42 310.25,-169.42 310.25,-169.42 310.25,-175.42 304.25,-181.42 298.25,-181.42 298.25,-181.42 252.25,-181.42 252.25,-181.42 246.25,-181.42 240.25,-175.42 240.25,-169.42 240.25,-169.42 240.25,-141.42 240.25,-141.42 240.25,-135.42 246.25,-129.42 252.25,-129.42"/>
<text text-anchor="middle" x="275.25" y="-168.87" font-family="Helvetica,sans-Serif" font-weight="bold" font-size="9.00">@iarna</text>
</g>
<!-- dist/config.d.ts -->
<g id="node1" class="node">
<title>dist/config.d.ts</title>
<g id="a_node1"><a xlink:href="dist/config.d.ts" xlink:title="config.d.ts">
<path fill="#ddfeff" stroke="black" d="M182.96,-175.29C182.96,-175.29 119.54,-175.29 119.54,-175.29 116.58,-175.29 113.62,-172.34 113.62,-169.38 113.62,-169.38 113.62,-163.46 113.62,-163.46 113.62,-160.5 116.58,-157.54 119.54,-157.54 119.54,-157.54 182.96,-157.54 182.96,-157.54 185.92,-157.54 188.88,-160.5 188.88,-163.46 188.88,-163.46 188.88,-169.38 188.88,-169.38 188.88,-172.34 185.92,-175.29 182.96,-175.29"/>
<text text-anchor="start" x="121.62" y="-163.74" font-family="Helvetica,sans-Serif" font-size="9.00">config.d.ts </text>
<text text-anchor="start" x="165.12" y="-163.74" font-family="Helvetica,sans-Serif" font-size="8.00" fill="#808080">50%</text>
</a>
</g>
</g>
<!-- node_modules/@iarna/toml -->
<g id="node2" class="node">
<title>node_modules/@iarna/toml</title>
<g id="a_node2"><a xlink:href="node_modules/@iarna/toml" xlink:title="toml">
<polygon fill="#c40b0a" fill-opacity="0.101961" stroke="black" points="302.25,-155.29 250.22,-155.29 248.25,-153.32 248.25,-137.54 300.28,-137.54 302.25,-139.52 302.25,-155.29"/>
<polyline fill="none" stroke="black" points="300.28,-153.32 248.25,-153.32"/>
<polyline fill="none" stroke="black" points="300.28,-153.32 300.28,-137.54"/>
<polyline fill="none" stroke="black" points="300.28,-153.32 302.25,-155.29"/>
<text text-anchor="start" x="266.62" y="-142.74" font-family="Helvetica,sans-Serif" font-size="9.00" fill="#c40b0a">toml</text>
</a>
</g>
</g>
<!-- dist/config.d.ts&#45;&gt;node_modules/@iarna/toml -->
<g id="edge1" class="edge">
<title>dist/config.d.ts&#45;&gt;node_modules/@iarna/toml</title>
<path fill="none" stroke="#000000" stroke-opacity="0.200000" d="M189.19,-160.36C205.75,-157.65 225.14,-154.47 241.22,-151.83"/>
<polygon fill="#000000" fill-opacity="0.200000" stroke="#000000" stroke-opacity="0.200000" points="241.31,-153.78 246.89,-150.74 240.63,-149.64 241.31,-153.78"/>
</g>
<!-- dist/configPath.d.ts -->
<g id="node3" class="node">
<title>dist/configPath.d.ts</title>
<g id="a_node3"><a xlink:href="dist/configPath.d.ts" xlink:title="configPath.d.ts">
<path fill="#ddfeff" stroke="black" d="M190.08,-205.29C190.08,-205.29 112.42,-205.29 112.42,-205.29 109.46,-205.29 106.5,-202.34 106.5,-199.38 106.5,-199.38 106.5,-193.46 106.5,-193.46 106.5,-190.5 109.46,-187.54 112.42,-187.54 112.42,-187.54 190.08,-187.54 190.08,-187.54 193.04,-187.54 196,-190.5 196,-193.46 196,-193.46 196,-199.38 196,-199.38 196,-202.34 193.04,-205.29 190.08,-205.29"/>
<text text-anchor="start" x="114.5" y="-193.74" font-family="Helvetica,sans-Serif" font-size="9.00">configPath.d.ts </text>
<text text-anchor="start" x="176.75" y="-193.74" font-family="Helvetica,sans-Serif" font-size="8.00" fill="#808080">0%</text>
</a>
</g>
</g>
<!-- dist/findUp.d.ts -->
<g id="node4" class="node">
<title>dist/findUp.d.ts</title>
<g id="a_node4"><a xlink:href="dist/findUp.d.ts" xlink:title="findUp.d.ts">
<path fill="#ddfeff" stroke="black" d="M181.83,-235.29C181.83,-235.29 120.67,-235.29 120.67,-235.29 117.71,-235.29 114.75,-232.34 114.75,-229.38 114.75,-229.38 114.75,-223.46 114.75,-223.46 114.75,-220.5 117.71,-217.54 120.67,-217.54 120.67,-217.54 181.83,-217.54 181.83,-217.54 184.79,-217.54 187.75,-220.5 187.75,-223.46 187.75,-223.46 187.75,-229.38 187.75,-229.38 187.75,-232.34 184.79,-235.29 181.83,-235.29"/>
<text text-anchor="start" x="122.75" y="-223.74" font-family="Helvetica,sans-Serif" font-size="9.00">findUp.d.ts </text>
<text text-anchor="start" x="168.5" y="-223.74" font-family="Helvetica,sans-Serif" font-size="8.00" fill="#808080">0%</text>
</a>
</g>
</g>
<!-- dist/index.d.ts -->
<g id="node5" class="node">
<title>dist/index.d.ts</title>
<g id="a_node5"><a xlink:href="dist/index.d.ts" xlink:title="index.d.ts">
<path fill="#ddfeff" stroke="black" d="M87.58,-220.29C87.58,-220.29 21.92,-220.29 21.92,-220.29 18.96,-220.29 16,-217.34 16,-214.38 16,-214.38 16,-208.46 16,-208.46 16,-205.5 18.96,-202.54 21.92,-202.54 21.92,-202.54 87.58,-202.54 87.58,-202.54 90.54,-202.54 93.5,-205.5 93.5,-208.46 93.5,-208.46 93.5,-214.38 93.5,-214.38 93.5,-217.34 90.54,-220.29 87.58,-220.29"/>
<text text-anchor="start" x="24" y="-208.74" font-family="Helvetica,sans-Serif" font-size="9.00">index.d.ts </text>
<text text-anchor="start" x="65.25" y="-208.74" font-family="Helvetica,sans-Serif" font-size="8.00" fill="#808080">100%</text>
</a>
</g>
</g>
<!-- dist/index.d.ts&#45;&gt;dist/config.d.ts -->
<g id="edge2" class="edge">
<title>dist/index.d.ts&#45;&gt;dist/config.d.ts</title>
<path fill="none" stroke="#000000" stroke-width="2" stroke-opacity="0.200000" d="M69.55,-202.22C79.53,-195.83 93.49,-187.42 106.5,-181.42 108.28,-180.6 110.11,-179.8 111.98,-179.02"/>
<polygon fill="#000000" fill-opacity="0.200000" stroke="#000000" stroke-width="2" stroke-opacity="0.200000" points="113.45,-180.92 118.28,-176.79 111.92,-177.01 113.45,-180.92"/>
</g>
<!-- dist/index.d.ts&#45;&gt;dist/configPath.d.ts -->
<g id="edge3" class="edge">
<title>dist/index.d.ts&#45;&gt;dist/configPath.d.ts</title>
<path fill="none" stroke="#000000" stroke-width="2" stroke-opacity="0.200000" d="M93.91,-205.36C95.04,-205.18 96.17,-205 97.3,-204.82"/>
<polygon fill="#000000" fill-opacity="0.200000" stroke="#000000" stroke-width="2" stroke-opacity="0.200000" points="98.45,-206.45 104.05,-203.44 97.8,-202.3 98.45,-206.45"/>
</g>
<!-- dist/index.d.ts&#45;&gt;dist/findUp.d.ts -->
<g id="edge4" class="edge">
<title>dist/index.d.ts&#45;&gt;dist/findUp.d.ts</title>
<path fill="none" stroke="#000000" stroke-width="2" stroke-opacity="0.200000" d="M93.91,-217.48C97.82,-218.1 101.82,-218.73 105.79,-219.36"/>
<polygon fill="#000000" fill-opacity="0.200000" stroke="#000000" stroke-width="2" stroke-opacity="0.200000" points="106.14,-221.86 112.39,-220.73 106.79,-217.71 106.14,-221.86"/>
</g>
<!-- dist/paths.d.ts -->
<g id="node6" class="node">
<title>dist/paths.d.ts</title>
<g id="a_node6"><a xlink:href="dist/paths.d.ts" xlink:title="paths.d.ts">
<path fill="#ddfeff" stroke="black" d="M179.58,-265.29C179.58,-265.29 122.92,-265.29 122.92,-265.29 119.96,-265.29 117,-262.34 117,-259.38 117,-259.38 117,-253.46 117,-253.46 117,-250.5 119.96,-247.54 122.92,-247.54 122.92,-247.54 179.58,-247.54 179.58,-247.54 182.54,-247.54 185.5,-250.5 185.5,-253.46 185.5,-253.46 185.5,-259.38 185.5,-259.38 185.5,-262.34 182.54,-265.29 179.58,-265.29"/>
<text text-anchor="start" x="125" y="-253.74" font-family="Helvetica,sans-Serif" font-size="9.00">paths.d.ts </text>
<text text-anchor="start" x="166.25" y="-253.74" font-family="Helvetica,sans-Serif" font-size="8.00" fill="#808080">0%</text>
</a>
</g>
</g>
<!-- dist/index.d.ts&#45;&gt;dist/paths.d.ts -->
<g id="edge5" class="edge">
<title>dist/index.d.ts&#45;&gt;dist/paths.d.ts</title>
<path fill="none" stroke="#000000" stroke-width="2" stroke-opacity="0.200000" d="M69.55,-220.62C79.53,-227.01 93.49,-235.42 106.5,-241.42 108.28,-242.24 110.11,-243.04 111.98,-243.81"/>
<polygon fill="#000000" fill-opacity="0.200000" stroke="#000000" stroke-width="2" stroke-opacity="0.200000" points="111.92,-245.83 118.28,-246.05 113.45,-241.92 111.92,-245.83"/>
</g>
<!-- dist/index.js -->
<g id="node7" class="node">
<title>dist/index.js</title>
<g id="a_node7"><a xlink:href="dist/index.js" xlink:title="index.js">
<path fill="#ffffcc" stroke="black" d="M83.83,-175.29C83.83,-175.29 25.67,-175.29 25.67,-175.29 22.71,-175.29 19.75,-172.34 19.75,-169.38 19.75,-169.38 19.75,-163.46 19.75,-163.46 19.75,-160.5 22.71,-157.54 25.67,-157.54 25.67,-157.54 83.83,-157.54 83.83,-157.54 86.79,-157.54 89.75,-160.5 89.75,-163.46 89.75,-163.46 89.75,-169.38 89.75,-169.38 89.75,-172.34 86.79,-175.29 83.83,-175.29"/>
<text text-anchor="start" x="27.75" y="-163.74" font-family="Helvetica,sans-Serif" font-size="9.00">index.js </text>
<text text-anchor="start" x="61.5" y="-163.74" font-family="Helvetica,sans-Serif" font-size="8.00" fill="#808080">100%</text>
</a>
</g>
</g>
<!-- dist/index.js&#45;&gt;node_modules/@iarna/toml -->
<g id="edge6" class="edge">
<title>dist/index.js&#45;&gt;node_modules/@iarna/toml</title>
<path fill="none" stroke="#000000" stroke-opacity="0.200000" d="M82.58,-157.09C90.22,-154.82 98.61,-152.68 106.5,-151.42 152.7,-144.03 206.94,-143.94 240.96,-144.91"/>
<polygon fill="#000000" fill-opacity="0.200000" stroke="#000000" stroke-opacity="0.200000" points="240.84,-147.03 246.9,-145.13 240.97,-142.84 240.84,-147.03"/>
</g>
<!-- node_modules/deepmerge -->
<g id="node8" class="node">
<title>node_modules/deepmerge</title>
<g id="a_node8"><a xlink:href="node_modules/deepmerge" xlink:title="deepmerge">
<polygon fill="#c40b0a" fill-opacity="0.101961" stroke="black" points="306.88,-121.29 245.6,-121.29 243.62,-119.32 243.62,-103.54 304.9,-103.54 306.88,-105.52 306.88,-121.29"/>
<polyline fill="none" stroke="black" points="304.9,-119.32 243.62,-119.32"/>
<polyline fill="none" stroke="black" points="304.9,-119.32 304.9,-103.54"/>
<polyline fill="none" stroke="black" points="304.9,-119.32 306.88,-121.29"/>
<text text-anchor="start" x="251.62" y="-108.74" font-family="Helvetica,sans-Serif" font-size="9.00" fill="#c40b0a">deepmerge</text>
</a>
</g>
</g>
<!-- dist/index.js&#45;&gt;node_modules/deepmerge -->
<g id="edge7" class="edge">
<title>dist/index.js&#45;&gt;node_modules/deepmerge</title>
<path fill="none" stroke="#000000" stroke-opacity="0.200000" d="M71.71,-157.08C81.46,-151.75 94.36,-145.37 106.5,-141.42 149.98,-127.28 202.16,-119.64 236.65,-115.81"/>
<polygon fill="#000000" fill-opacity="0.200000" stroke="#000000" stroke-opacity="0.200000" points="236.57,-117.82 242.31,-115.09 236.12,-113.64 236.57,-117.82"/>
</g>
<!-- node_modules/fast&#45;glob -->
<g id="node9" class="node">
<title>node_modules/fast&#45;glob</title>
<g id="a_node9"><a xlink:href="node_modules/fast-glob" xlink:title="fast&#45;glob">
<polygon fill="#c40b0a" fill-opacity="0.101961" stroke="black" points="302.25,-91.29 250.22,-91.29 248.25,-89.32 248.25,-73.54 300.28,-73.54 302.25,-75.52 302.25,-91.29"/>
<polyline fill="none" stroke="black" points="300.28,-89.32 248.25,-89.32"/>
<polyline fill="none" stroke="black" points="300.28,-89.32 300.28,-73.54"/>
<polyline fill="none" stroke="black" points="300.28,-89.32 302.25,-91.29"/>
<text text-anchor="start" x="257.62" y="-78.74" font-family="Helvetica,sans-Serif" font-size="9.00" fill="#c40b0a">fast&#45;glob</text>
</a>
</g>
</g>
<!-- dist/index.js&#45;&gt;node_modules/fast&#45;glob -->
<g id="edge8" class="edge">
<title>dist/index.js&#45;&gt;node_modules/fast&#45;glob</title>
<path fill="none" stroke="#000000" stroke-opacity="0.200000" d="M62.54,-157.24C71.37,-146.01 87.88,-127.27 106.5,-117.42 149.52,-94.65 206.06,-86.69 241.27,-83.91"/>
<polygon fill="#000000" fill-opacity="0.200000" stroke="#000000" stroke-opacity="0.200000" points="241.19,-85.95 247.02,-83.42 240.88,-81.76 241.19,-85.95"/>
</g>
<!-- fs -->
<g id="node10" class="node">
<title>fs</title>
<g id="a_node10"><a xlink:title="fs">
<path fill="#ffffcc" stroke="grey" d="M172.33,-67.29C172.33,-67.29 130.17,-67.29 130.17,-67.29 127.21,-67.29 124.25,-64.34 124.25,-61.38 124.25,-61.38 124.25,-55.46 124.25,-55.46 124.25,-52.5 127.21,-49.54 130.17,-49.54 130.17,-49.54 172.33,-49.54 172.33,-49.54 175.29,-49.54 178.25,-52.5 178.25,-55.46 178.25,-55.46 178.25,-61.38 178.25,-61.38 178.25,-64.34 175.29,-67.29 172.33,-67.29"/>
<text text-anchor="middle" x="151.25" y="-54.74" font-family="Helvetica,sans-Serif" font-size="9.00" fill="grey">fs</text>
</a>
</g>
</g>
<!-- dist/index.js&#45;&gt;fs -->
<g id="edge9" class="edge">
<title>dist/index.js&#45;&gt;fs</title>
<path fill="none" stroke="#000000" stroke-dasharray="5,2" stroke-opacity="0.200000" d="M58.65,-157.2C64.73,-139.27 80.43,-99.47 106.5,-76.42 109.89,-73.42 113.85,-70.88 117.97,-68.74"/>
<polygon fill="#000000" fill-opacity="0.200000" stroke="#000000" stroke-opacity="0.200000" points="118.54,-70.33 123.08,-65.88 116.76,-66.52 118.54,-70.33"/>
</g>
<!-- path -->
<g id="node11" class="node">
<title>path</title>
<g id="a_node11"><a xlink:title="path">
<path fill="#ffffcc" stroke="grey" d="M172.33,-37.29C172.33,-37.29 130.17,-37.29 130.17,-37.29 127.21,-37.29 124.25,-34.34 124.25,-31.38 124.25,-31.38 124.25,-25.46 124.25,-25.46 124.25,-22.5 127.21,-19.54 130.17,-19.54 130.17,-19.54 172.33,-19.54 172.33,-19.54 175.29,-19.54 178.25,-22.5 178.25,-25.46 178.25,-25.46 178.25,-31.38 178.25,-31.38 178.25,-34.34 175.29,-37.29 172.33,-37.29"/>
<text text-anchor="middle" x="151.25" y="-24.74" font-family="Helvetica,sans-Serif" font-size="9.00" fill="grey">path</text>
</a>
</g>
</g>
<!-- dist/index.js&#45;&gt;path -->
<g id="edge10" class="edge">
<title>dist/index.js&#45;&gt;path</title>
<path fill="none" stroke="#000000" stroke-dasharray="5,2" stroke-opacity="0.200000" d="M56.93,-157.25C60.33,-134.64 72.18,-75.71 106.5,-43.42 109.8,-40.31 113.77,-37.85 117.96,-35.89"/>
<polygon fill="#000000" fill-opacity="0.200000" stroke="#000000" stroke-opacity="0.200000" points="118.42,-37.57 123.19,-33.38 116.84,-33.68 118.42,-37.57"/>
</g>
<!-- node_modules/string&#45;env&#45;interpolation -->
<g id="node12" class="node">
<title>node_modules/string&#45;env&#45;interpolation</title>
<g id="a_node12"><a xlink:href="node_modules/string-env-interpolation" xlink:title="string&#45;env&#45;interpolation">
<polygon fill="#c40b0a" fill-opacity="0.101961" stroke="black" points="330.5,-61.29 221.97,-61.29 220,-59.32 220,-43.54 328.53,-43.54 330.5,-45.52 330.5,-61.29"/>
<polyline fill="none" stroke="black" points="328.53,-59.32 220,-59.32"/>
<polyline fill="none" stroke="black" points="328.53,-59.32 328.53,-43.54"/>
<polyline fill="none" stroke="black" points="328.53,-59.32 330.5,-61.29"/>
<text text-anchor="start" x="228" y="-48.74" font-family="Helvetica,sans-Serif" font-size="9.00" fill="#c40b0a">string&#45;env&#45;interpolation</text>
</a>
</g>
</g>
<!-- dist/index.js&#45;&gt;node_modules/string&#45;env&#45;interpolation -->
<g id="edge11" class="edge">
<title>dist/index.js&#45;&gt;node_modules/string&#45;env&#45;interpolation</title>
<path fill="none" stroke="#000000" stroke-opacity="0.200000" d="M55.46,-157.1C55.19,-129.51 58.62,-47.98 106.5,-13.42 152.6,19.86 222.78,-17.82 255.82,-39.41"/>
<polygon fill="#000000" fill-opacity="0.200000" stroke="#000000" stroke-opacity="0.200000" points="254.39,-41.64 260.54,-43.23 256.72,-38.15 254.39,-41.64"/>
</g>
</g>
</svg>
