<?xml version="1.0" encoding="UTF-8" standalone="no"?>
<!DOCTYPE svg PUBLIC "-//W3C//DTD SVG 1.1//EN"
 "http://www.w3.org/Graphics/SVG/1.1/DTD/svg11.dtd">
<!-- Generated by graphviz version 7.1.0 (20230121.1956)
 -->
<!-- Title: dependency&#45;cruiser output Pages: 1 -->
<svg width="358pt" height="278pt"
 viewBox="0.00 0.00 358.00 277.54" xmlns="http://www.w3.org/2000/svg" xmlns:xlink="http://www.w3.org/1999/xlink">
<g id="graph0" class="graph" transform="scale(1 1) rotate(0) translate(4 273.54)">
<title>dependency&#45;cruiser output</title>
<polygon fill="white" stroke="none" points="-4,4 -4,-273.54 354,-273.54 354,4 -4,4"/>
<g id="clust1" class="cluster">
<title>cluster_dist</title>
<path fill="#ffffff" stroke="black" stroke-width="2" d="M20,-149.54C20,-149.54 195,-149.54 195,-149.54 201,-149.54 207,-155.54 207,-161.54 207,-161.54 207,-249.54 207,-249.54 207,-255.54 201,-261.54 195,-261.54 195,-261.54 20,-261.54 20,-261.54 14,-261.54 8,-255.54 8,-249.54 8,-249.54 8,-161.54 8,-161.54 8,-155.54 14,-149.54 20,-149.54"/>
<text text-anchor="middle" x="107.5" y="-250.34" font-family="Helvetica,sans-Serif" font-weight="bold" font-size="9.00">dist</text>
</g>
<g id="clust2" class="cluster">
<title>cluster_node_modules</title>
<path fill="#ffffff" stroke="black" stroke-width="2" d="M227,-35.54C227,-35.54 330,-35.54 330,-35.54 336,-35.54 342,-41.54 342,-47.54 342,-47.54 342,-195.54 342,-195.54 342,-201.54 336,-207.54 330,-207.54 330,-207.54 227,-207.54 227,-207.54 221,-207.54 215,-201.54 215,-195.54 215,-195.54 215,-47.54 215,-47.54 215,-41.54 221,-35.54 227,-35.54"/>
<text text-anchor="middle" x="278.5" y="-196.34" font-family="Helvetica,sans-Serif" font-weight="bold" font-size="9.00">node_modules</text>
</g>
<g id="clust3" class="cluster">
<title>cluster_node_modules/@iarna</title>
<path fill="#ffffff" stroke="black" stroke-width="2" d="M255.5,-129.54C255.5,-129.54 301.5,-129.54 301.5,-129.54 307.5,-129.54 313.5,-135.54 313.5,-141.54 313.5,-141.54 313.5,-169.54 313.5,-169.54 313.5,-175.54 307.5,-181.54 301.5,-181.54 301.5,-181.54 255.5,-181.54 255.5,-181.54 249.5,-181.54 243.5,-175.54 243.5,-169.54 243.5,-169.54 243.5,-141.54 243.5,-141.54 243.5,-135.54 249.5,-129.54 255.5,-129.54"/>
<text text-anchor="middle" x="278.5" y="-170.34" font-family="Helvetica,sans-Serif" font-weight="bold" font-size="9.00">@iarna</text>
</g>
<!-- dist/config.d.ts -->
<g id="node1" class="node">
<title>dist/config.d.ts</title>
<g id="a_node1"><a xlink:href="dist/config.d.ts" xlink:title="config.d.ts">
<path fill="#ddfeff" stroke="black" d="M185.5,-175.54C185.5,-175.54 121.5,-175.54 121.5,-175.54 118.5,-175.54 115.5,-172.54 115.5,-169.54 115.5,-169.54 115.5,-163.54 115.5,-163.54 115.5,-160.54 118.5,-157.54 121.5,-157.54 121.5,-157.54 185.5,-157.54 185.5,-157.54 188.5,-157.54 191.5,-160.54 191.5,-163.54 191.5,-163.54 191.5,-169.54 191.5,-169.54 191.5,-172.54 188.5,-175.54 185.5,-175.54"/>
<text text-anchor="start" x="123.5" y="-165.34" font-family="Helvetica,sans-Serif" font-size="9.00">config.d.ts </text>
<text text-anchor="start" x="167.5" y="-165.34" font-family="Helvetica,sans-Serif" font-size="8.00" fill="#808080">50%</text>
</a>
</g>
</g>
<!-- node_modules/@iarna/toml -->
<g id="node2" class="node">
<title>node_modules/@iarna/toml</title>
<g id="a_node2"><a xlink:href="node_modules/@iarna/toml" xlink:title="toml">
<polygon fill="#c40b0a" fill-opacity="0.101961" stroke="black" points="305.5,-155.54 253.5,-155.54 251.5,-153.54 251.5,-137.54 303.5,-137.54 305.5,-139.54 305.5,-155.54"/>
<polyline fill="none" stroke="black" points="303.5,-153.54 251.5,-153.54"/>
<polyline fill="none" stroke="black" points="303.5,-153.54 303.5,-137.54"/>
<polyline fill="none" stroke="black" points="303.5,-153.54 305.5,-155.54"/>
<text text-anchor="start" x="269.5" y="-144.34" font-family="Helvetica,sans-Serif" font-size="9.00" fill="#c40b0a">toml</text>
</a>
</g>
</g>
<!-- dist/config.d.ts&#45;&gt;node_modules/@iarna/toml -->
<g id="edge1" class="edge">
<title>dist/config.d.ts&#45;&gt;node_modules/@iarna/toml</title>
<path fill="none" stroke="#000000" stroke-opacity="0.200000" d="M191.74,-160.49C208.42,-157.78 227.93,-154.6 244.13,-151.97"/>
<polygon fill="#000000" fill-opacity="0.200000" stroke="#000000" stroke-opacity="0.200000" points="244.23,-154.08 249.82,-151.04 243.56,-149.93 244.23,-154.08"/>
</g>
<!-- dist/configPath.d.ts -->
<g id="node3" class="node">
<title>dist/configPath.d.ts</title>
<g id="a_node3"><a xlink:href="dist/configPath.d.ts" xlink:title="configPath.d.ts">
<path fill="#ddfeff" stroke="black" d="M193,-205.54C193,-205.54 114,-205.54 114,-205.54 111,-205.54 108,-202.54 108,-199.54 108,-199.54 108,-193.54 108,-193.54 108,-190.54 111,-187.54 114,-187.54 114,-187.54 193,-187.54 193,-187.54 196,-187.54 199,-190.54 199,-193.54 199,-193.54 199,-199.54 199,-199.54 199,-202.54 196,-205.54 193,-205.54"/>
<text text-anchor="start" x="116" y="-195.34" font-family="Helvetica,sans-Serif" font-size="9.00">configPath.d.ts </text>
<text text-anchor="start" x="179" y="-195.34" font-family="Helvetica,sans-Serif" font-size="8.00" fill="#808080">0%</text>
</a>
</g>
</g>
<!-- dist/findUp.d.ts -->
<g id="node4" class="node">
<title>dist/findUp.d.ts</title>
<g id="a_node4"><a xlink:href="dist/findUp.d.ts" xlink:title="findUp.d.ts">
<path fill="#ccffcc" stroke="black" d="M86.5,-235.54C86.5,-235.54 24.5,-235.54 24.5,-235.54 21.5,-235.54 18.5,-232.54 18.5,-229.54 18.5,-229.54 18.5,-223.54 18.5,-223.54 18.5,-220.54 21.5,-217.54 24.5,-217.54 24.5,-217.54 86.5,-217.54 86.5,-217.54 89.5,-217.54 92.5,-220.54 92.5,-223.54 92.5,-223.54 92.5,-229.54 92.5,-229.54 92.5,-232.54 89.5,-235.54 86.5,-235.54"/>
<text text-anchor="start" x="26.5" y="-225.34" font-family="Helvetica,sans-Serif" font-size="9.00">findUp.d.ts </text>
<text text-anchor="start" x="72.5" y="-225.34" font-family="Helvetica,sans-Serif" font-size="8.00" fill="#808080">0%</text>
</a>
</g>
</g>
<!-- dist/index.d.ts -->
<g id="node5" class="node">
<title>dist/index.d.ts</title>
<g id="a_node5"><a xlink:href="dist/index.d.ts" xlink:title="index.d.ts">
<path fill="#ddfeff" stroke="black" d="M89,-205.54C89,-205.54 22,-205.54 22,-205.54 19,-205.54 16,-202.54 16,-199.54 16,-199.54 16,-193.54 16,-193.54 16,-190.54 19,-187.54 22,-187.54 22,-187.54 89,-187.54 89,-187.54 92,-187.54 95,-190.54 95,-193.54 95,-193.54 95,-199.54 95,-199.54 95,-202.54 92,-205.54 89,-205.54"/>
<text text-anchor="start" x="24" y="-195.34" font-family="Helvetica,sans-Serif" font-size="9.00">index.d.ts </text>
<text text-anchor="start" x="66" y="-195.34" font-family="Helvetica,sans-Serif" font-size="8.00" fill="#808080">100%</text>
</a>
</g>
</g>
<!-- dist/index.d.ts&#45;&gt;dist/config.d.ts -->
<g id="edge2" class="edge">
<title>dist/index.d.ts&#45;&gt;dist/config.d.ts</title>
<path fill="none" stroke="#000000" stroke-width="2" stroke-opacity="0.200000" d="M86.88,-187.05C95.45,-184.37 104.9,-181.42 113.89,-178.61"/>
<polygon fill="#000000" fill-opacity="0.200000" stroke="#000000" stroke-width="2" stroke-opacity="0.200000" points="114.33,-180.67 119.43,-176.88 113.08,-176.66 114.33,-180.67"/>
</g>
<!-- dist/index.d.ts&#45;&gt;dist/configPath.d.ts -->
<g id="edge3" class="edge">
<title>dist/index.d.ts&#45;&gt;dist/configPath.d.ts</title>
<path fill="none" stroke="#000000" stroke-width="2" stroke-opacity="0.200000" d="M95.27,-196.54C96.41,-196.54 97.56,-196.54 98.71,-196.54"/>
<polygon fill="#000000" fill-opacity="0.200000" stroke="#000000" stroke-width="2" stroke-opacity="0.200000" points="98.57,-198.64 104.57,-196.54 98.57,-194.44 98.57,-198.64"/>
</g>
<!-- dist/paths.d.ts -->
<g id="node6" class="node">
<title>dist/paths.d.ts</title>
<g id="a_node6"><a xlink:href="dist/paths.d.ts" xlink:title="paths.d.ts">
<path fill="#ddfeff" stroke="black" d="M182.5,-235.54C182.5,-235.54 124.5,-235.54 124.5,-235.54 121.5,-235.54 118.5,-232.54 118.5,-229.54 118.5,-229.54 118.5,-223.54 118.5,-223.54 118.5,-220.54 121.5,-217.54 124.5,-217.54 124.5,-217.54 182.5,-217.54 182.5,-217.54 185.5,-217.54 188.5,-220.54 188.5,-223.54 188.5,-223.54 188.5,-229.54 188.5,-229.54 188.5,-232.54 185.5,-235.54 182.5,-235.54"/>
<text text-anchor="start" x="126.5" y="-225.34" font-family="Helvetica,sans-Serif" font-size="9.00">paths.d.ts </text>
<text text-anchor="start" x="168.5" y="-225.34" font-family="Helvetica,sans-Serif" font-size="8.00" fill="#808080">0%</text>
</a>
</g>
</g>
<!-- dist/index.d.ts&#45;&gt;dist/paths.d.ts -->
<g id="edge4" class="edge">
<title>dist/index.d.ts&#45;&gt;dist/paths.d.ts</title>
<path fill="none" stroke="#000000" stroke-width="2" stroke-opacity="0.200000" d="M86.88,-206.04C95.45,-208.72 104.9,-211.67 113.89,-214.48"/>
<polygon fill="#000000" fill-opacity="0.200000" stroke="#000000" stroke-width="2" stroke-opacity="0.200000" points="113.08,-216.42 119.43,-216.21 114.33,-212.42 113.08,-216.42"/>
</g>
<!-- dist/index.js -->
<g id="node7" class="node">
<title>dist/index.js</title>
<g id="a_node7"><a xlink:href="dist/index.js" xlink:title="index.js">
<path fill="#ffffcc" stroke="black" d="M85,-175.54C85,-175.54 26,-175.54 26,-175.54 23,-175.54 20,-172.54 20,-169.54 20,-169.54 20,-163.54 20,-163.54 20,-160.54 23,-157.54 26,-157.54 26,-157.54 85,-157.54 85,-157.54 88,-157.54 91,-160.54 91,-163.54 91,-163.54 91,-169.54 91,-169.54 91,-172.54 88,-175.54 85,-175.54"/>
<text text-anchor="start" x="28" y="-165.34" font-family="Helvetica,sans-Serif" font-size="9.00">index.js </text>
<text text-anchor="start" x="62" y="-165.34" font-family="Helvetica,sans-Serif" font-size="8.00" fill="#808080">100%</text>
</a>
</g>
</g>
<!-- dist/index.js&#45;&gt;node_modules/@iarna/toml -->
<g id="edge5" class="edge">
<title>dist/index.js&#45;&gt;node_modules/@iarna/toml</title>
<path fill="none" stroke="#000000" stroke-opacity="0.200000" d="M84.27,-157.06C91.88,-154.84 100.18,-152.78 108,-151.54 154.64,-144.19 209.36,-144.09 243.74,-145.04"/>
<polygon fill="#000000" fill-opacity="0.200000" stroke="#000000" stroke-opacity="0.200000" points="243.6,-147.13 249.66,-145.22 243.73,-142.93 243.6,-147.13"/>
</g>
<!-- node_modules/deepmerge -->
<g id="node8" class="node">
<title>node_modules/deepmerge</title>
<g id="a_node8"><a xlink:href="node_modules/deepmerge" xlink:title="deepmerge">
<polygon fill="#c40b0a" fill-opacity="0.101961" stroke="black" points="310.5,-121.54 248.5,-121.54 246.5,-119.54 246.5,-103.54 308.5,-103.54 310.5,-105.54 310.5,-121.54"/>
<polyline fill="none" stroke="black" points="308.5,-119.54 246.5,-119.54"/>
<polyline fill="none" stroke="black" points="308.5,-119.54 308.5,-103.54"/>
<polyline fill="none" stroke="black" points="308.5,-119.54 310.5,-121.54"/>
<text text-anchor="start" x="254.5" y="-110.34" font-family="Helvetica,sans-Serif" font-size="9.00" fill="#c40b0a">deepmerge</text>
</a>
</g>
</g>
<!-- dist/index.js&#45;&gt;node_modules/deepmerge -->
<g id="edge6" class="edge">
<title>dist/index.js&#45;&gt;node_modules/deepmerge</title>
<path fill="none" stroke="#000000" stroke-opacity="0.200000" d="M72.71,-157.21C82.61,-151.88 95.7,-145.49 108,-141.54 151.79,-127.48 204.25,-119.84 239.09,-115.99"/>
<polygon fill="#000000" fill-opacity="0.200000" stroke="#000000" stroke-opacity="0.200000" points="239.01,-118.11 244.75,-115.38 238.56,-113.93 239.01,-118.11"/>
</g>
<!-- node_modules/fast&#45;glob -->
<g id="node9" class="node">
<title>node_modules/fast&#45;glob</title>
<g id="a_node9"><a xlink:href="node_modules/fast-glob" xlink:title="fast&#45;glob">
<polygon fill="#c40b0a" fill-opacity="0.101961" stroke="black" points="305.5,-91.54 253.5,-91.54 251.5,-89.54 251.5,-73.54 303.5,-73.54 305.5,-75.54 305.5,-91.54"/>
<polyline fill="none" stroke="black" points="303.5,-89.54 251.5,-89.54"/>
<polyline fill="none" stroke="black" points="303.5,-89.54 303.5,-73.54"/>
<polyline fill="none" stroke="black" points="303.5,-89.54 305.5,-91.54"/>
<text text-anchor="start" x="260.5" y="-80.34" font-family="Helvetica,sans-Serif" font-size="9.00" fill="#c40b0a">fast&#45;glob</text>
</a>
</g>
</g>
<!-- dist/index.js&#45;&gt;node_modules/fast&#45;glob -->
<g id="edge7" class="edge">
<title>dist/index.js&#45;&gt;node_modules/fast&#45;glob</title>
<path fill="none" stroke="#000000" stroke-opacity="0.200000" d="M63.42,-157.36C72.41,-146.12 89.19,-127.38 108,-117.54 151.37,-94.85 208.19,-86.86 243.77,-84.06"/>
<polygon fill="#000000" fill-opacity="0.200000" stroke="#000000" stroke-opacity="0.200000" points="243.68,-86.17 249.52,-83.64 243.38,-81.98 243.68,-86.17"/>
</g>
<!-- fs -->
<g id="node10" class="node">
<title>fs</title>
<g id="a_node10"><a xlink:title="fs">
<path fill="#ffffcc" stroke="grey" d="M174.5,-67.54C174.5,-67.54 132.5,-67.54 132.5,-67.54 129.5,-67.54 126.5,-64.54 126.5,-61.54 126.5,-61.54 126.5,-55.54 126.5,-55.54 126.5,-52.54 129.5,-49.54 132.5,-49.54 132.5,-49.54 174.5,-49.54 174.5,-49.54 177.5,-49.54 180.5,-52.54 180.5,-55.54 180.5,-55.54 180.5,-61.54 180.5,-61.54 180.5,-64.54 177.5,-67.54 174.5,-67.54"/>
<text text-anchor="middle" x="153.5" y="-56.34" font-family="Helvetica,sans-Serif" font-size="9.00" fill="grey">fs</text>
</a>
</g>
</g>
<!-- dist/index.js&#45;&gt;fs -->
<g id="edge8" class="edge">
<title>dist/index.js&#45;&gt;fs</title>
<path fill="none" stroke="#000000" stroke-dasharray="5,2" stroke-opacity="0.200000" d="M59.47,-157.31C65.68,-139.35 81.69,-99.51 108,-76.54 111.46,-73.52 115.49,-70.97 119.69,-68.82"/>
<polygon fill="#000000" fill-opacity="0.200000" stroke="#000000" stroke-opacity="0.200000" points="120.41,-70.8 124.99,-66.4 118.66,-66.98 120.41,-70.8"/>
</g>
<!-- path -->
<g id="node11" class="node">
<title>path</title>
<g id="a_node11"><a xlink:title="path">
<path fill="#ffffcc" stroke="grey" d="M174.5,-37.54C174.5,-37.54 132.5,-37.54 132.5,-37.54 129.5,-37.54 126.5,-34.54 126.5,-31.54 126.5,-31.54 126.5,-25.54 126.5,-25.54 126.5,-22.54 129.5,-19.54 132.5,-19.54 132.5,-19.54 174.5,-19.54 174.5,-19.54 177.5,-19.54 180.5,-22.54 180.5,-25.54 180.5,-25.54 180.5,-31.54 180.5,-31.54 180.5,-34.54 177.5,-37.54 174.5,-37.54"/>
<text text-anchor="middle" x="153.5" y="-26.34" font-family="Helvetica,sans-Serif" font-size="9.00" fill="grey">path</text>
</a>
</g>
</g>
<!-- dist/index.js&#45;&gt;path -->
<g id="edge9" class="edge">
<title>dist/index.js&#45;&gt;path</title>
<path fill="none" stroke="#000000" stroke-dasharray="5,2" stroke-opacity="0.200000" d="M57.73,-157.36C61.25,-134.72 73.43,-75.72 108,-43.54 111.21,-40.55 115.04,-38.16 119.08,-36.24"/>
<polygon fill="#000000" fill-opacity="0.200000" stroke="#000000" stroke-opacity="0.200000" points="119.84,-38.2 124.61,-34.01 118.26,-34.3 119.84,-38.2"/>
</g>
<!-- node_modules/string&#45;env&#45;interpolation -->
<g id="node12" class="node">
<title>node_modules/string&#45;env&#45;interpolation</title>
<g id="a_node12"><a xlink:href="node_modules/string-env-interpolation" xlink:title="string&#45;env&#45;interpolation">
<polygon fill="#c40b0a" fill-opacity="0.101961" stroke="black" points="334,-61.54 225,-61.54 223,-59.54 223,-43.54 332,-43.54 334,-45.54 334,-61.54"/>
<polyline fill="none" stroke="black" points="332,-59.54 223,-59.54"/>
<polyline fill="none" stroke="black" points="332,-59.54 332,-43.54"/>
<polyline fill="none" stroke="black" points="332,-59.54 334,-61.54"/>
<text text-anchor="start" x="231" y="-50.34" font-family="Helvetica,sans-Serif" font-size="9.00" fill="#c40b0a">string&#45;env&#45;interpolation</text>
</a>
</g>
</g>
<!-- dist/index.js&#45;&gt;node_modules/string&#45;env&#45;interpolation -->
<g id="edge10" class="edge">
<title>dist/index.js&#45;&gt;node_modules/string&#45;env&#45;interpolation</title>
<path fill="none" stroke="#000000" stroke-opacity="0.200000" d="M56.26,-157.22C56.13,-129.61 59.98,-48.05 108,-13.54 154.44,19.82 224.93,-17.52 258.47,-39.21"/>
<polygon fill="#000000" fill-opacity="0.200000" stroke="#000000" stroke-opacity="0.200000" points="257.24,-40.92 263.41,-42.48 259.56,-37.42 257.24,-40.92"/>
</g>
</g>
</svg>
