<?xml version="1.0" encoding="UTF-8" standalone="no"?>
<!DOCTYPE svg PUBLIC "-//W3C//DTD SVG 1.1//EN"
 "http://www.w3.org/Graphics/SVG/1.1/DTD/svg11.dtd">
<!-- Generated by graphviz version 7.1.0 (20230121.1956)
 -->
<!-- Title: dependency&#45;cruiser output Pages: 1 -->
<svg width="358pt" height="305pt"
 viewBox="0.00 0.00 358.00 304.84" xmlns="http://www.w3.org/2000/svg" xmlns:xlink="http://www.w3.org/1999/xlink">
<g id="graph0" class="graph" transform="scale(1 1) rotate(0) translate(4 300.84)">
<title>dependency&#45;cruiser output</title>
<polygon fill="white" stroke="none" points="-4,4 -4,-300.84 354,-300.84 354,4 -4,4"/>
<g id="clust1" class="cluster">
<title>cluster_dist</title>
<path fill="#ffffff" stroke="black" stroke-width="2" d="M20,-176.84C20,-176.84 195,-176.84 195,-176.84 201,-176.84 207,-182.84 207,-188.84 207,-188.84 207,-276.84 207,-276.84 207,-282.84 201,-288.84 195,-288.84 195,-288.84 20,-288.84 20,-288.84 14,-288.84 8,-282.84 8,-276.84 8,-276.84 8,-188.84 8,-188.84 8,-182.84 14,-176.84 20,-176.84"/>
<text text-anchor="middle" x="107.5" y="-277.64" font-family="Helvetica,sans-Serif" font-weight="bold" font-size="9.00">dist</text>
</g>
<g id="clust2" class="cluster">
<title>cluster_node_modules</title>
<path fill="#ffffff" stroke="black" stroke-width="2" d="M227,-28.84C227,-28.84 330,-28.84 330,-28.84 336,-28.84 342,-34.84 342,-40.84 342,-40.84 342,-218.84 342,-218.84 342,-224.84 336,-230.84 330,-230.84 330,-230.84 227,-230.84 227,-230.84 221,-230.84 215,-224.84 215,-218.84 215,-218.84 215,-40.84 215,-40.84 215,-34.84 221,-28.84 227,-28.84"/>
<text text-anchor="middle" x="278.5" y="-219.64" font-family="Helvetica,sans-Serif" font-weight="bold" font-size="9.00">node_modules</text>
</g>
<g id="clust3" class="cluster">
<title>cluster_node_modules/@iarna</title>
<path fill="#ffffff" stroke="black" stroke-width="2" d="M255.5,-152.84C255.5,-152.84 301.5,-152.84 301.5,-152.84 307.5,-152.84 313.5,-158.84 313.5,-164.84 313.5,-164.84 313.5,-192.84 313.5,-192.84 313.5,-198.84 307.5,-204.84 301.5,-204.84 301.5,-204.84 255.5,-204.84 255.5,-204.84 249.5,-204.84 243.5,-198.84 243.5,-192.84 243.5,-192.84 243.5,-164.84 243.5,-164.84 243.5,-158.84 249.5,-152.84 255.5,-152.84"/>
<text text-anchor="middle" x="278.5" y="-193.64" font-family="Helvetica,sans-Serif" font-weight="bold" font-size="9.00">@iarna</text>
</g>
<!-- dist/config.d.ts -->
<g id="node1" class="node">
<title>dist/config.d.ts</title>
<g id="a_node1"><a xlink:href="dist/config.d.ts" xlink:title="config.d.ts">
<path fill="#ddfeff" stroke="black" d="M185.5,-202.84C185.5,-202.84 121.5,-202.84 121.5,-202.84 118.5,-202.84 115.5,-199.84 115.5,-196.84 115.5,-196.84 115.5,-190.84 115.5,-190.84 115.5,-187.84 118.5,-184.84 121.5,-184.84 121.5,-184.84 185.5,-184.84 185.5,-184.84 188.5,-184.84 191.5,-187.84 191.5,-190.84 191.5,-190.84 191.5,-196.84 191.5,-196.84 191.5,-199.84 188.5,-202.84 185.5,-202.84"/>
<text text-anchor="start" x="123.5" y="-192.64" font-family="Helvetica,sans-Serif" font-size="9.00">config.d.ts </text>
<text text-anchor="start" x="167.5" y="-192.64" font-family="Helvetica,sans-Serif" font-size="8.00" fill="#808080">50%</text>
</a>
</g>
</g>
<!-- node_modules/@iarna/toml -->
<g id="node2" class="node">
<title>node_modules/@iarna/toml</title>
<g id="a_node2"><a xlink:href="node_modules/@iarna/toml" xlink:title="toml">
<polygon fill="#c40b0a" fill-opacity="0.101961" stroke="black" points="305.5,-178.84 253.5,-178.84 251.5,-176.84 251.5,-160.84 303.5,-160.84 305.5,-162.84 305.5,-178.84"/>
<polyline fill="none" stroke="black" points="303.5,-176.84 251.5,-176.84"/>
<polyline fill="none" stroke="black" points="303.5,-176.84 303.5,-160.84"/>
<polyline fill="none" stroke="black" points="303.5,-176.84 305.5,-178.84"/>
<text text-anchor="start" x="269.5" y="-167.64" font-family="Helvetica,sans-Serif" font-size="9.00" fill="#c40b0a">toml</text>
</a>
</g>
</g>
<!-- dist/config.d.ts&#45;&gt;node_modules/@iarna/toml -->
<g id="edge1" class="edge">
<title>dist/config.d.ts&#45;&gt;node_modules/@iarna/toml</title>
<path fill="none" stroke="#000000" stroke-opacity="0.200000" d="M191.74,-186.57C208.42,-183.32 227.93,-179.51 244.13,-176.35"/>
<polygon fill="#000000" fill-opacity="0.200000" stroke="#000000" stroke-opacity="0.200000" points="244.34,-178.45 249.83,-175.24 243.53,-174.33 244.34,-178.45"/>
</g>
<!-- dist/configPath.d.ts -->
<g id="node3" class="node">
<title>dist/configPath.d.ts</title>
<g id="a_node3"><a xlink:href="dist/configPath.d.ts" xlink:title="configPath.d.ts">
<path fill="#ddfeff" stroke="black" d="M193,-232.84C193,-232.84 114,-232.84 114,-232.84 111,-232.84 108,-229.84 108,-226.84 108,-226.84 108,-220.84 108,-220.84 108,-217.84 111,-214.84 114,-214.84 114,-214.84 193,-214.84 193,-214.84 196,-214.84 199,-217.84 199,-220.84 199,-220.84 199,-226.84 199,-226.84 199,-229.84 196,-232.84 193,-232.84"/>
<text text-anchor="start" x="116" y="-222.64" font-family="Helvetica,sans-Serif" font-size="9.00">configPath.d.ts </text>
<text text-anchor="start" x="179" y="-222.64" font-family="Helvetica,sans-Serif" font-size="8.00" fill="#808080">0%</text>
</a>
</g>
</g>
<!-- dist/index.d.ts -->
<g id="node4" class="node">
<title>dist/index.d.ts</title>
<g id="a_node4"><a xlink:href="dist/index.d.ts" xlink:title="index.d.ts">
<path fill="#ddfeff" stroke="black" d="M89,-232.84C89,-232.84 22,-232.84 22,-232.84 19,-232.84 16,-229.84 16,-226.84 16,-226.84 16,-220.84 16,-220.84 16,-217.84 19,-214.84 22,-214.84 22,-214.84 89,-214.84 89,-214.84 92,-214.84 95,-217.84 95,-220.84 95,-220.84 95,-226.84 95,-226.84 95,-229.84 92,-232.84 89,-232.84"/>
<text text-anchor="start" x="24" y="-222.64" font-family="Helvetica,sans-Serif" font-size="9.00">index.d.ts </text>
<text text-anchor="start" x="66" y="-222.64" font-family="Helvetica,sans-Serif" font-size="8.00" fill="#808080">100%</text>
</a>
</g>
</g>
<!-- dist/index.d.ts&#45;&gt;dist/config.d.ts -->
<g id="edge2" class="edge">
<title>dist/index.d.ts&#45;&gt;dist/config.d.ts</title>
<path fill="none" stroke="#000000" stroke-width="2" stroke-opacity="0.200000" d="M86.88,-214.35C95.45,-211.67 104.9,-208.72 113.89,-205.91"/>
<polygon fill="#000000" fill-opacity="0.200000" stroke="#000000" stroke-width="2" stroke-opacity="0.200000" points="114.33,-207.97 119.43,-204.17 113.08,-203.96 114.33,-207.97"/>
</g>
<!-- dist/index.d.ts&#45;&gt;dist/configPath.d.ts -->
<g id="edge3" class="edge">
<title>dist/index.d.ts&#45;&gt;dist/configPath.d.ts</title>
<path fill="none" stroke="#000000" stroke-width="2" stroke-opacity="0.200000" d="M95.27,-223.84C96.41,-223.84 97.56,-223.84 98.71,-223.84"/>
<polygon fill="#000000" fill-opacity="0.200000" stroke="#000000" stroke-width="2" stroke-opacity="0.200000" points="98.57,-225.94 104.57,-223.84 98.57,-221.74 98.57,-225.94"/>
</g>
<!-- dist/paths.d.ts -->
<g id="node5" class="node">
<title>dist/paths.d.ts</title>
<g id="a_node5"><a xlink:href="dist/paths.d.ts" xlink:title="paths.d.ts">
<path fill="#ddfeff" stroke="black" d="M182.5,-262.84C182.5,-262.84 124.5,-262.84 124.5,-262.84 121.5,-262.84 118.5,-259.84 118.5,-256.84 118.5,-256.84 118.5,-250.84 118.5,-250.84 118.5,-247.84 121.5,-244.84 124.5,-244.84 124.5,-244.84 182.5,-244.84 182.5,-244.84 185.5,-244.84 188.5,-247.84 188.5,-250.84 188.5,-250.84 188.5,-256.84 188.5,-256.84 188.5,-259.84 185.5,-262.84 182.5,-262.84"/>
<text text-anchor="start" x="126.5" y="-252.64" font-family="Helvetica,sans-Serif" font-size="9.00">paths.d.ts </text>
<text text-anchor="start" x="168.5" y="-252.64" font-family="Helvetica,sans-Serif" font-size="8.00" fill="#808080">0%</text>
</a>
</g>
</g>
<!-- dist/index.d.ts&#45;&gt;dist/paths.d.ts -->
<g id="edge4" class="edge">
<title>dist/index.d.ts&#45;&gt;dist/paths.d.ts</title>
<path fill="none" stroke="#000000" stroke-width="2" stroke-opacity="0.200000" d="M86.88,-233.33C95.45,-236.01 104.9,-238.96 113.89,-241.77"/>
<polygon fill="#000000" fill-opacity="0.200000" stroke="#000000" stroke-width="2" stroke-opacity="0.200000" points="113.08,-243.72 119.43,-243.51 114.33,-239.71 113.08,-243.72"/>
</g>
<!-- dist/index.js -->
<g id="node6" class="node">
<title>dist/index.js</title>
<g id="a_node6"><a xlink:href="dist/index.js" xlink:title="index.js">
<path fill="#ffffcc" stroke="black" d="M85,-202.84C85,-202.84 26,-202.84 26,-202.84 23,-202.84 20,-199.84 20,-196.84 20,-196.84 20,-190.84 20,-190.84 20,-187.84 23,-184.84 26,-184.84 26,-184.84 85,-184.84 85,-184.84 88,-184.84 91,-187.84 91,-190.84 91,-190.84 91,-196.84 91,-196.84 91,-199.84 88,-202.84 85,-202.84"/>
<text text-anchor="start" x="28" y="-192.64" font-family="Helvetica,sans-Serif" font-size="9.00">index.js </text>
<text text-anchor="start" x="62" y="-192.64" font-family="Helvetica,sans-Serif" font-size="8.00" fill="#808080">100%</text>
</a>
</g>
</g>
<!-- dist/index.js&#45;&gt;node_modules/@iarna/toml -->
<g id="edge5" class="edge">
<title>dist/index.js&#45;&gt;node_modules/@iarna/toml</title>
<path fill="none" stroke="#000000" stroke-opacity="0.200000" d="M84.56,-184.4C92.09,-182.22 100.29,-180.15 108,-178.84 154.59,-170.93 209.33,-169.4 243.72,-169.36"/>
<polygon fill="#000000" fill-opacity="0.200000" stroke="#000000" stroke-opacity="0.200000" points="243.64,-171.46 249.65,-169.37 243.65,-167.26 243.64,-171.46"/>
</g>
<!-- node_modules/deepmerge -->
<g id="node7" class="node">
<title>node_modules/deepmerge</title>
<g id="a_node7"><a xlink:href="node_modules/deepmerge" xlink:title="deepmerge">
<polygon fill="#c40b0a" fill-opacity="0.101961" stroke="black" points="310.5,-144.84 248.5,-144.84 246.5,-142.84 246.5,-126.84 308.5,-126.84 310.5,-128.84 310.5,-144.84"/>
<polyline fill="none" stroke="black" points="308.5,-142.84 246.5,-142.84"/>
<polyline fill="none" stroke="black" points="308.5,-142.84 308.5,-126.84"/>
<polyline fill="none" stroke="black" points="308.5,-142.84 310.5,-144.84"/>
<text text-anchor="start" x="254.5" y="-133.64" font-family="Helvetica,sans-Serif" font-size="9.00" fill="#c40b0a">deepmerge</text>
</a>
</g>
</g>
<!-- dist/index.js&#45;&gt;node_modules/deepmerge -->
<g id="edge6" class="edge">
<title>dist/index.js&#45;&gt;node_modules/deepmerge</title>
<path fill="none" stroke="#000000" stroke-opacity="0.200000" d="M71.28,-184.55C81.3,-178.65 95.02,-171.31 108,-166.84 151.57,-151.83 204.08,-143.66 238.99,-139.53"/>
<polygon fill="#000000" fill-opacity="0.200000" stroke="#000000" stroke-opacity="0.200000" points="238.94,-141.65 244.66,-138.88 238.46,-137.48 238.94,-141.65"/>
</g>
<!-- node_modules/fast&#45;glob -->
<g id="node8" class="node">
<title>node_modules/fast&#45;glob</title>
<g id="a_node8"><a xlink:href="node_modules/fast-glob" xlink:title="fast&#45;glob">
<polygon fill="#c40b0a" fill-opacity="0.101961" stroke="black" points="305.5,-114.84 253.5,-114.84 251.5,-112.84 251.5,-96.84 303.5,-96.84 305.5,-98.84 305.5,-114.84"/>
<polyline fill="none" stroke="black" points="303.5,-112.84 251.5,-112.84"/>
<polyline fill="none" stroke="black" points="303.5,-112.84 303.5,-96.84"/>
<polyline fill="none" stroke="black" points="303.5,-112.84 305.5,-114.84"/>
<text text-anchor="start" x="260.5" y="-103.64" font-family="Helvetica,sans-Serif" font-size="9.00" fill="#c40b0a">fast&#45;glob</text>
</a>
</g>
</g>
<!-- dist/index.js&#45;&gt;node_modules/fast&#45;glob -->
<g id="edge7" class="edge">
<title>dist/index.js&#45;&gt;node_modules/fast&#45;glob</title>
<path fill="none" stroke="#000000" stroke-opacity="0.200000" d="M62.64,-184.73C71.28,-172.68 88.2,-151.7 108,-140.84 151.04,-117.23 208.18,-109.5 243.9,-107"/>
<polygon fill="#000000" fill-opacity="0.200000" stroke="#000000" stroke-opacity="0.200000" points="243.81,-109.11 249.67,-106.64 243.55,-104.92 243.81,-109.11"/>
</g>
<!-- fs -->
<g id="node9" class="node">
<title>fs</title>
<g id="a_node9"><a xlink:title="fs">
<path fill="#ffffcc" stroke="grey" d="M174.5,-94.84C174.5,-94.84 132.5,-94.84 132.5,-94.84 129.5,-94.84 126.5,-91.84 126.5,-88.84 126.5,-88.84 126.5,-82.84 126.5,-82.84 126.5,-79.84 129.5,-76.84 132.5,-76.84 132.5,-76.84 174.5,-76.84 174.5,-76.84 177.5,-76.84 180.5,-79.84 180.5,-82.84 180.5,-82.84 180.5,-88.84 180.5,-88.84 180.5,-91.84 177.5,-94.84 174.5,-94.84"/>
<text text-anchor="middle" x="153.5" y="-83.64" font-family="Helvetica,sans-Serif" font-size="9.00" fill="grey">fs</text>
</a>
</g>
</g>
<!-- dist/index.js&#45;&gt;fs -->
<g id="edge8" class="edge">
<title>dist/index.js&#45;&gt;fs</title>
<path fill="none" stroke="#000000" stroke-dasharray="5,2" stroke-opacity="0.200000" d="M59.47,-184.6C65.68,-166.65 81.69,-126.81 108,-103.84 111.46,-100.82 115.49,-98.26 119.69,-96.12"/>
<polygon fill="#000000" fill-opacity="0.200000" stroke="#000000" stroke-opacity="0.200000" points="120.41,-98.1 124.99,-93.69 118.66,-94.28 120.41,-98.1"/>
</g>
<!-- node_modules/look&#45;it&#45;up -->
<g id="node10" class="node">
<title>node_modules/look&#45;it&#45;up</title>
<g id="a_node10"><a xlink:href="node_modules/look-it-up" xlink:title="look&#45;it&#45;up">
<polygon fill="#c40b0a" fill-opacity="0.101961" stroke="black" points="306,-84.84 253,-84.84 251,-82.84 251,-66.84 304,-66.84 306,-68.84 306,-84.84"/>
<polyline fill="none" stroke="black" points="304,-82.84 251,-82.84"/>
<polyline fill="none" stroke="black" points="304,-82.84 304,-66.84"/>
<polyline fill="none" stroke="black" points="304,-82.84 306,-84.84"/>
<text text-anchor="start" x="259" y="-73.64" font-family="Helvetica,sans-Serif" font-size="9.00" fill="#c40b0a">look&#45;it&#45;up</text>
</a>
</g>
</g>
<!-- dist/index.js&#45;&gt;node_modules/look&#45;it&#45;up -->
<g id="edge9" class="edge">
<title>dist/index.js&#45;&gt;node_modules/look&#45;it&#45;up</title>
<path fill="none" stroke="#000000" stroke-opacity="0.200000" d="M57.08,-184.62C59.14,-160.81 68.3,-97.26 108,-70.84 129.37,-56.62 200.3,-64.1 243.34,-70.31"/>
<polygon fill="#000000" fill-opacity="0.200000" stroke="#000000" stroke-opacity="0.200000" points="242.77,-72.35 249.01,-71.15 243.39,-68.19 242.77,-72.35"/>
</g>
<!-- path -->
<g id="node11" class="node">
<title>path</title>
<g id="a_node11"><a xlink:title="path">
<path fill="#ffffcc" stroke="grey" d="M174.5,-38.84C174.5,-38.84 132.5,-38.84 132.5,-38.84 129.5,-38.84 126.5,-35.84 126.5,-32.84 126.5,-32.84 126.5,-26.84 126.5,-26.84 126.5,-23.84 129.5,-20.84 132.5,-20.84 132.5,-20.84 174.5,-20.84 174.5,-20.84 177.5,-20.84 180.5,-23.84 180.5,-26.84 180.5,-26.84 180.5,-32.84 180.5,-32.84 180.5,-35.84 177.5,-38.84 174.5,-38.84"/>
<text text-anchor="middle" x="153.5" y="-27.64" font-family="Helvetica,sans-Serif" font-size="9.00" fill="grey">path</text>
</a>
</g>
</g>
<!-- dist/index.js&#45;&gt;path -->
<g id="edge10" class="edge">
<title>dist/index.js&#45;&gt;path</title>
<path fill="none" stroke="#000000" stroke-dasharray="5,2" stroke-opacity="0.200000" d="M57.18,-184.63C59.52,-159.38 69.37,-88.26 108,-47.84 111.25,-44.44 115.23,-41.66 119.46,-39.4"/>
<polygon fill="#000000" fill-opacity="0.200000" stroke="#000000" stroke-opacity="0.200000" points="120.31,-41.32 124.87,-36.89 118.54,-37.51 120.31,-41.32"/>
</g>
<!-- node_modules/string&#45;env&#45;interpolation -->
<g id="node12" class="node">
<title>node_modules/string&#45;env&#45;interpolation</title>
<g id="a_node12"><a xlink:href="node_modules/string-env-interpolation" xlink:title="string&#45;env&#45;interpolation">
<polygon fill="#c40b0a" fill-opacity="0.101961" stroke="black" points="334,-54.84 225,-54.84 223,-52.84 223,-36.84 332,-36.84 334,-38.84 334,-54.84"/>
<polyline fill="none" stroke="black" points="332,-52.84 223,-52.84"/>
<polyline fill="none" stroke="black" points="332,-52.84 332,-36.84"/>
<polyline fill="none" stroke="black" points="332,-52.84 334,-54.84"/>
<text text-anchor="start" x="231" y="-43.64" font-family="Helvetica,sans-Serif" font-size="9.00" fill="#c40b0a">string&#45;env&#45;interpolation</text>
</a>
</g>
</g>
<!-- dist/index.js&#45;&gt;node_modules/string&#45;env&#45;interpolation -->
<g id="edge11" class="edge">
<title>dist/index.js&#45;&gt;node_modules/string&#45;env&#45;interpolation</title>
<path fill="none" stroke="#000000" stroke-opacity="0.200000" d="M57.71,-184.58C62.29,-150.94 79.84,-36.04 108,-14.84 152.59,18.73 222.21,-13.09 256.69,-32.83"/>
<polygon fill="#000000" fill-opacity="0.200000" stroke="#000000" stroke-opacity="0.200000" points="255.56,-34.6 261.8,-35.82 257.69,-30.97 255.56,-34.6"/>
</g>
</g>
</svg>
