<?xml version="1.0" encoding="UTF-8" standalone="no"?>
<!DOCTYPE svg PUBLIC "-//W3C//DTD SVG 1.1//EN"
 "http://www.w3.org/Graphics/SVG/1.1/DTD/svg11.dtd">
<!-- Generated by graphviz version 7.1.0 (20230121.1956)
 -->
<!-- Title: dependency&#45;cruiser output Pages: 1 -->
<svg width="445pt" height="248pt"
 viewBox="0.00 0.00 445.00 248.00" xmlns="http://www.w3.org/2000/svg" xmlns:xlink="http://www.w3.org/1999/xlink">
<g id="graph0" class="graph" transform="scale(1 1) rotate(0) translate(4 244)">
<title>dependency&#45;cruiser output</title>
<polygon fill="white" stroke="none" points="-4,4 -4,-244 441,-244 441,4 -4,4"/>
<g id="clust1" class="cluster">
<title>cluster_node_modules</title>
<path fill="#ffffff" stroke="black" stroke-width="2" d="M314,-34C314,-34 417,-34 417,-34 423,-34 429,-40 429,-46 429,-46 429,-220 429,-220 429,-226 423,-232 417,-232 417,-232 314,-232 314,-232 308,-232 302,-226 302,-220 302,-220 302,-46 302,-46 302,-40 308,-34 314,-34"/>
<text text-anchor="middle" x="365.5" y="-220.8" font-family="Helvetica,sans-Serif" font-weight="bold" font-size="9.00">node_modules</text>
</g>
<g id="clust2" class="cluster">
<title>cluster_node_modules/@iarna</title>
<path fill="#ffffff" stroke="black" stroke-width="2" d="M342.5,-128C342.5,-128 388.5,-128 388.5,-128 394.5,-128 400.5,-134 400.5,-140 400.5,-140 400.5,-168 400.5,-168 400.5,-174 394.5,-180 388.5,-180 388.5,-180 342.5,-180 342.5,-180 336.5,-180 330.5,-174 330.5,-168 330.5,-168 330.5,-140 330.5,-140 330.5,-134 336.5,-128 342.5,-128"/>
<text text-anchor="middle" x="365.5" y="-168.8" font-family="Helvetica,sans-Serif" font-weight="bold" font-size="9.00">@iarna</text>
</g>
<g id="clust3" class="cluster">
<title>cluster_src</title>
<path fill="#ffffff" stroke="black" stroke-width="2" d="M20,-128C20,-128 282,-128 282,-128 288,-128 294,-134 294,-140 294,-140 294,-196 294,-196 294,-202 288,-208 282,-208 282,-208 20,-208 20,-208 14,-208 8,-202 8,-196 8,-196 8,-140 8,-140 8,-134 14,-128 20,-128"/>
<text text-anchor="middle" x="151" y="-196.8" font-family="Helvetica,sans-Serif" font-weight="bold" font-size="9.00">src</text>
</g>
<!-- fs -->
<g id="node1" class="node">
<title>fs</title>
<g id="a_node1"><a xlink:title="fs">
<path fill="#ffffcc" stroke="grey" d="M272.5,-74C272.5,-74 230.5,-74 230.5,-74 227.5,-74 224.5,-71 224.5,-68 224.5,-68 224.5,-62 224.5,-62 224.5,-59 227.5,-56 230.5,-56 230.5,-56 272.5,-56 272.5,-56 275.5,-56 278.5,-59 278.5,-62 278.5,-62 278.5,-68 278.5,-68 278.5,-71 275.5,-74 272.5,-74"/>
<text text-anchor="middle" x="251.5" y="-62.8" font-family="Helvetica,sans-Serif" font-size="9.00" fill="grey">fs</text>
</a>
</g>
</g>
<!-- node_modules/@iarna/toml -->
<g id="node2" class="node">
<title>node_modules/@iarna/toml</title>
<g id="a_node2"><a xlink:href="node_modules/@iarna/toml" xlink:title="toml">
<polygon fill="#c40b0a" fill-opacity="0.101961" stroke="black" points="392.5,-154 340.5,-154 338.5,-152 338.5,-136 390.5,-136 392.5,-138 392.5,-154"/>
<polyline fill="none" stroke="black" points="390.5,-152 338.5,-152"/>
<polyline fill="none" stroke="black" points="390.5,-152 390.5,-136"/>
<polyline fill="none" stroke="black" points="390.5,-152 392.5,-154"/>
<text text-anchor="start" x="356.5" y="-142.8" font-family="Helvetica,sans-Serif" font-size="9.00" fill="#c40b0a">toml</text>
</a>
</g>
</g>
<!-- node_modules/deepmerge -->
<g id="node3" class="node">
<title>node_modules/deepmerge</title>
<g id="a_node3"><a xlink:href="node_modules/deepmerge" xlink:title="deepmerge">
<polygon fill="#c40b0a" fill-opacity="0.101961" stroke="black" points="397.5,-120 335.5,-120 333.5,-118 333.5,-102 395.5,-102 397.5,-104 397.5,-120"/>
<polyline fill="none" stroke="black" points="395.5,-118 333.5,-118"/>
<polyline fill="none" stroke="black" points="395.5,-118 395.5,-102"/>
<polyline fill="none" stroke="black" points="395.5,-118 397.5,-120"/>
<text text-anchor="start" x="341.5" y="-108.8" font-family="Helvetica,sans-Serif" font-size="9.00" fill="#c40b0a">deepmerge</text>
</a>
</g>
</g>
<!-- node_modules/fast&#45;glob -->
<g id="node4" class="node">
<title>node_modules/fast&#45;glob</title>
<g id="a_node4"><a xlink:href="node_modules/fast-glob" xlink:title="fast&#45;glob">
<polygon fill="#c40b0a" fill-opacity="0.101961" stroke="black" points="392.5,-60 340.5,-60 338.5,-58 338.5,-42 390.5,-42 392.5,-44 392.5,-60"/>
<polyline fill="none" stroke="black" points="390.5,-58 338.5,-58"/>
<polyline fill="none" stroke="black" points="390.5,-58 390.5,-42"/>
<polyline fill="none" stroke="black" points="390.5,-58 392.5,-60"/>
<text text-anchor="start" x="347.5" y="-48.8" font-family="Helvetica,sans-Serif" font-size="9.00" fill="#c40b0a">fast&#45;glob</text>
</a>
</g>
</g>
<!-- node_modules/findup&#45;sync -->
<g id="node5" class="node">
<title>node_modules/findup&#45;sync</title>
<g id="a_node5"><a xlink:href="node_modules/findup-sync" xlink:title="findup&#45;sync">
<polygon fill="#c40b0a" fill-opacity="0.101961" stroke="black" points="397.5,-206 335.5,-206 333.5,-204 333.5,-188 395.5,-188 397.5,-190 397.5,-206"/>
<polyline fill="none" stroke="black" points="395.5,-204 333.5,-204"/>
<polyline fill="none" stroke="black" points="395.5,-204 395.5,-188"/>
<polyline fill="none" stroke="black" points="395.5,-204 397.5,-206"/>
<text text-anchor="start" x="341.5" y="-194.8" font-family="Helvetica,sans-Serif" font-size="9.00" fill="#c40b0a">findup&#45;sync</text>
</a>
</g>
</g>
<!-- node_modules/string&#45;env&#45;interpolation -->
<g id="node6" class="node">
<title>node_modules/string&#45;env&#45;interpolation</title>
<g id="a_node6"><a xlink:href="node_modules/string-env-interpolation" xlink:title="string&#45;env&#45;interpolation">
<polygon fill="#c40b0a" fill-opacity="0.101961" stroke="black" points="421,-90 312,-90 310,-88 310,-72 419,-72 421,-74 421,-90"/>
<polyline fill="none" stroke="black" points="419,-88 310,-88"/>
<polyline fill="none" stroke="black" points="419,-88 419,-72"/>
<polyline fill="none" stroke="black" points="419,-88 421,-90"/>
<text text-anchor="start" x="318" y="-78.8" font-family="Helvetica,sans-Serif" font-size="9.00" fill="#c40b0a">string&#45;env&#45;interpolation</text>
</a>
</g>
</g>
<!-- path -->
<g id="node7" class="node">
<title>path</title>
<g id="a_node7"><a xlink:title="path">
<path fill="#ffffcc" stroke="grey" d="M198,-18C198,-18 156,-18 156,-18 153,-18 150,-15 150,-12 150,-12 150,-6 150,-6 150,-3 153,0 156,0 156,0 198,0 198,0 201,0 204,-3 204,-6 204,-6 204,-12 204,-12 204,-15 201,-18 198,-18"/>
<text text-anchor="middle" x="177" y="-6.8" font-family="Helvetica,sans-Serif" font-size="9.00" fill="grey">path</text>
</a>
</g>
</g>
<!-- src/config.ts -->
<g id="node8" class="node">
<title>src/config.ts</title>
<g id="a_node8"><a xlink:href="src/config.ts" xlink:title="config.ts">
<path fill="#ddfeff" stroke="black" d="M198,-154C198,-154 156,-154 156,-154 153,-154 150,-151 150,-148 150,-148 150,-142 150,-142 150,-139 153,-136 156,-136 156,-136 198,-136 198,-136 201,-136 204,-139 204,-142 204,-142 204,-148 204,-148 204,-151 201,-154 198,-154"/>
<text text-anchor="start" x="160" y="-142.8" font-family="Helvetica,sans-Serif" font-size="9.00">config.ts</text>
</a>
</g>
</g>
<!-- src/config.ts&#45;&gt;fs -->
<g id="edge4" class="edge">
<title>src/config.ts&#45;&gt;fs</title>
<path fill="none" stroke="#000000" stroke-dasharray="5,2" stroke-opacity="0.200000" d="M183.56,-135.58C193.24,-119.28 212.59,-87.12 217,-83 218.9,-81.23 221,-79.58 223.2,-78.05"/>
<polygon fill="#000000" fill-opacity="0.200000" stroke="#000000" stroke-opacity="0.200000" points="223.94,-80.07 227.91,-75.1 221.71,-76.51 223.94,-80.07"/>
</g>
<!-- src/config.ts&#45;&gt;node_modules/@iarna/toml -->
<g id="edge2" class="edge">
<title>src/config.ts&#45;&gt;node_modules/@iarna/toml</title>
<path fill="none" stroke="#000000" stroke-opacity="0.200000" d="M204.33,-145C237.42,-145 294.27,-145 330.59,-145"/>
<polygon fill="#000000" fill-opacity="0.200000" stroke="#000000" stroke-opacity="0.200000" points="330.49,-147.1 336.49,-145 330.49,-142.9 330.49,-147.1"/>
</g>
<!-- src/config.ts&#45;&gt;node_modules/deepmerge -->
<g id="edge3" class="edge">
<title>src/config.ts&#45;&gt;node_modules/deepmerge</title>
<path fill="none" stroke="#000000" stroke-opacity="0.200000" d="M204.33,-140.2C236.05,-134.42 289.61,-124.65 325.98,-118.02"/>
<polygon fill="#000000" fill-opacity="0.200000" stroke="#000000" stroke-opacity="0.200000" points="326,-120.15 331.52,-117.01 325.25,-116.02 326,-120.15"/>
</g>
<!-- src/config.ts&#45;&gt;node_modules/string&#45;env&#45;interpolation -->
<g id="edge5" class="edge">
<title>src/config.ts&#45;&gt;node_modules/string&#45;env&#45;interpolation</title>
<path fill="none" stroke="#000000" stroke-opacity="0.200000" d="M190.46,-135.67C197.86,-130.47 207.61,-124.22 217,-120 244.83,-107.48 277.48,-98.34 304.98,-92.06"/>
<polygon fill="#000000" fill-opacity="0.200000" stroke="#000000" stroke-opacity="0.200000" points="305.35,-94.13 310.75,-90.77 304.43,-90.03 305.35,-94.13"/>
</g>
<!-- src/configPath.ts -->
<g id="node9" class="node">
<title>src/configPath.ts</title>
<g id="a_node9"><a xlink:href="src/configPath.ts" xlink:title="configPath.ts">
<path fill="#ddfeff" stroke="black" d="M280,-182C280,-182 223,-182 223,-182 220,-182 217,-179 217,-176 217,-176 217,-170 217,-170 217,-167 220,-164 223,-164 223,-164 280,-164 280,-164 283,-164 286,-167 286,-170 286,-170 286,-176 286,-176 286,-179 283,-182 280,-182"/>
<text text-anchor="start" x="225" y="-170.8" font-family="Helvetica,sans-Serif" font-size="9.00">configPath.ts</text>
</a>
</g>
</g>
<!-- src/config.ts&#45;&gt;src/configPath.ts -->
<g id="edge1" class="edge">
<title>src/config.ts&#45;&gt;src/configPath.ts</title>
<path fill="none" stroke="#000000" stroke-width="2" stroke-opacity="0.200000" d="M202.55,-154.48C207.39,-156.35 212.54,-158.34 217.61,-160.3"/>
<polygon fill="#000000" fill-opacity="0.200000" stroke="#000000" stroke-width="2" stroke-opacity="0.200000" points="216.8,-162.24 223.16,-162.44 218.32,-158.32 216.8,-162.24"/>
</g>
<!-- src/configPath.ts&#45;&gt;node_modules/findup&#45;sync -->
<g id="edge6" class="edge">
<title>src/configPath.ts&#45;&gt;node_modules/findup&#45;sync</title>
<path fill="none" stroke="#000000" stroke-opacity="0.200000" d="M286.41,-180.27C298.79,-182.92 312.88,-185.94 325.66,-188.68"/>
<polygon fill="#000000" fill-opacity="0.200000" stroke="#000000" stroke-opacity="0.200000" points="325.22,-190.73 331.52,-189.93 326.1,-186.62 325.22,-190.73"/>
</g>
<!-- src/index.ts -->
<g id="node10" class="node">
<title>src/index.ts</title>
<g id="a_node10"><a xlink:href="src/index.ts" xlink:title="index.ts">
<path fill="#ddfeff" stroke="black" d="M64,-176C64,-176 22,-176 22,-176 19,-176 16,-173 16,-170 16,-170 16,-164 16,-164 16,-161 19,-158 22,-158 22,-158 64,-158 64,-158 67,-158 70,-161 70,-164 70,-164 70,-170 70,-170 70,-173 67,-176 64,-176"/>
<text text-anchor="start" x="27" y="-164.8" font-family="Helvetica,sans-Serif" font-size="9.00">index.ts</text>
</a>
</g>
</g>
<!-- src/index.ts&#45;&gt;src/config.ts -->
<g id="edge7" class="edge">
<title>src/index.ts&#45;&gt;src/config.ts</title>
<path fill="none" stroke="#000000" stroke-width="2" stroke-opacity="0.200000" d="M70.36,-167.05C89.14,-166.6 114.88,-164.97 137,-160 140.16,-159.29 143.4,-158.37 146.6,-157.34"/>
<polygon fill="#000000" fill-opacity="0.200000" stroke="#000000" stroke-width="2" stroke-opacity="0.200000" points="147.08,-159.4 152.04,-155.41 145.68,-155.44 147.08,-159.4"/>
</g>
<!-- src/index.ts&#45;&gt;src/configPath.ts -->
<g id="edge8" class="edge">
<title>src/index.ts&#45;&gt;src/configPath.ts</title>
<path fill="none" stroke="#000000" stroke-width="2" stroke-opacity="0.200000" d="M70.15,-167.76C104.83,-168.77 166.48,-170.56 207.91,-171.76"/>
<polygon fill="#000000" fill-opacity="0.200000" stroke="#000000" stroke-width="2" stroke-opacity="0.200000" points="207.61,-173.85 213.67,-171.93 207.73,-169.66 207.61,-173.85"/>
</g>
<!-- src/paths.ts -->
<g id="node11" class="node">
<title>src/paths.ts</title>
<g id="a_node11"><a xlink:href="src/paths.ts" xlink:title="paths.ts">
<path fill="#ddfeff" stroke="black" d="M131,-154C131,-154 89,-154 89,-154 86,-154 83,-151 83,-148 83,-148 83,-142 83,-142 83,-139 86,-136 89,-136 89,-136 131,-136 131,-136 134,-136 137,-139 137,-142 137,-142 137,-148 137,-148 137,-151 134,-154 131,-154"/>
<text text-anchor="start" x="94" y="-142.8" font-family="Helvetica,sans-Serif" font-size="9.00">paths.ts</text>
</a>
</g>
</g>
<!-- src/index.ts&#45;&gt;src/paths.ts -->
<g id="edge9" class="edge">
<title>src/index.ts&#45;&gt;src/paths.ts</title>
<path fill="none" stroke="#000000" stroke-width="2" stroke-opacity="0.200000" d="M70.44,-158.05C71.71,-157.62 73,-157.18 74.29,-156.75"/>
<polygon fill="#000000" fill-opacity="0.200000" stroke="#000000" stroke-width="2" stroke-opacity="0.200000" points="74.92,-158.75 79.93,-154.84 73.57,-154.77 74.92,-158.75"/>
</g>
<!-- src/paths.ts&#45;&gt;fs -->
<g id="edge13" class="edge">
<title>src/paths.ts&#45;&gt;fs</title>
<path fill="none" stroke="#000000" stroke-dasharray="5,2" stroke-opacity="0.200000" d="M127.55,-135.51C152.41,-121.25 199.45,-94.28 227.59,-78.14"/>
<polygon fill="#000000" fill-opacity="0.200000" stroke="#000000" stroke-opacity="0.200000" points="228.5,-80.04 232.66,-75.23 226.41,-76.4 228.5,-80.04"/>
</g>
<!-- src/paths.ts&#45;&gt;node_modules/fast&#45;glob -->
<g id="edge12" class="edge">
<title>src/paths.ts&#45;&gt;node_modules/fast&#45;glob</title>
<path fill="none" stroke="#000000" stroke-opacity="0.200000" d="M116.07,-135.54C122.69,-123.8 135.22,-103.67 150,-90 175.47,-66.46 183.57,-59.22 217,-50 254.89,-39.55 300.37,-41.99 330.72,-45.62"/>
<polygon fill="#000000" fill-opacity="0.200000" stroke="#000000" stroke-opacity="0.200000" points="330.37,-47.69 336.59,-46.37 330.91,-43.53 330.37,-47.69"/>
</g>
<!-- src/paths.ts&#45;&gt;path -->
<g id="edge14" class="edge">
<title>src/paths.ts&#45;&gt;path</title>
<path fill="none" stroke="#000000" stroke-dasharray="5,2" stroke-opacity="0.200000" d="M112.03,-135.81C114.8,-114.67 124.02,-61.73 150,-27 150.99,-25.68 152.1,-24.42 153.3,-23.23"/>
<polygon fill="#000000" fill-opacity="0.200000" stroke="#000000" stroke-opacity="0.200000" points="154.59,-24.89 157.8,-19.4 151.87,-21.69 154.59,-24.89"/>
</g>
<!-- src/paths.ts&#45;&gt;src/config.ts -->
<g id="edge10" class="edge">
<title>src/paths.ts&#45;&gt;src/config.ts</title>
<path fill="none" stroke="#000000" stroke-width="2" stroke-opacity="0.200000" d="M137.44,-145C138.58,-145 139.74,-145 140.9,-145"/>
<polygon fill="#000000" fill-opacity="0.200000" stroke="#000000" stroke-width="2" stroke-opacity="0.200000" points="140.77,-147.1 146.77,-145 140.77,-142.9 140.77,-147.1"/>
</g>
<!-- src/paths.ts&#45;&gt;src/configPath.ts -->
<g id="edge11" class="edge">
<title>src/paths.ts&#45;&gt;src/configPath.ts</title>
<path fill="none" stroke="#000000" stroke-width="2" stroke-opacity="0.200000" d="M132.57,-154.35C138.16,-156.48 144.23,-158.54 150,-160 168.76,-164.75 189.95,-167.82 208.03,-169.77"/>
<polygon fill="#000000" fill-opacity="0.200000" stroke="#000000" stroke-width="2" stroke-opacity="0.200000" points="207.43,-171.82 213.61,-170.34 207.85,-167.64 207.43,-171.82"/>
</g>
</g>
</svg>
