<?xml version="1.0" encoding="UTF-8" standalone="no"?>
<!DOCTYPE svg PUBLIC "-//W3C//DTD SVG 1.1//EN"
 "http://www.w3.org/Graphics/SVG/1.1/DTD/svg11.dtd">
<!-- Generated by graphviz version 8.0.5 (20230430.1635)
 -->
<!-- Title: dependency&#45;cruiser output Pages: 1 -->
<svg width="611pt" height="632pt"
 viewBox="0.00 0.00 610.75 631.88" xmlns="http://www.w3.org/2000/svg" xmlns:xlink="http://www.w3.org/1999/xlink">
<g id="graph0" class="graph" transform="scale(1 1) rotate(0) translate(4 627.88)">
<title>dependency&#45;cruiser output</title>
<polygon fill="white" stroke="none" points="-4,4 -4,-627.88 606.75,-627.88 606.75,4 -4,4"/>
<g id="clust1" class="cluster">
<title>cluster_node_modules</title>
<path fill="#ffffff" stroke="black" stroke-width="2" d="M324.25,-97.88C324.25,-97.88 426.75,-97.88 426.75,-97.88 432.75,-97.88 438.75,-103.88 438.75,-109.88 438.75,-109.88 438.75,-257.88 438.75,-257.88 438.75,-263.88 432.75,-269.88 426.75,-269.88 426.75,-269.88 324.25,-269.88 324.25,-269.88 318.25,-269.88 312.25,-263.88 312.25,-257.88 312.25,-257.88 312.25,-109.88 312.25,-109.88 312.25,-103.88 318.25,-97.88 324.25,-97.88"/>
<text text-anchor="middle" x="375.5" y="-257.33" font-family="Helvetica,sans-Serif" font-weight="bold" font-size="9.00">node_modules</text>
</g>
<g id="clust2" class="cluster">
<title>cluster_node_modules/@iarna</title>
<path fill="#ffffff" stroke="black" stroke-width="2" d="M352.5,-191.88C352.5,-191.88 398.5,-191.88 398.5,-191.88 404.5,-191.88 410.5,-197.88 410.5,-203.88 410.5,-203.88 410.5,-231.88 410.5,-231.88 410.5,-237.88 404.5,-243.88 398.5,-243.88 398.5,-243.88 352.5,-243.88 352.5,-243.88 346.5,-243.88 340.5,-237.88 340.5,-231.88 340.5,-231.88 340.5,-203.88 340.5,-203.88 340.5,-197.88 346.5,-191.88 352.5,-191.88"/>
<text text-anchor="middle" x="375.5" y="-231.33" font-family="Helvetica,sans-Serif" font-weight="bold" font-size="9.00">@iarna</text>
</g>
<g id="clust3" class="cluster">
<title>cluster_packages</title>
<path fill="#ffffff" stroke="black" stroke-width="2" d="M20,-277.88C20,-277.88 528.75,-277.88 528.75,-277.88 534.75,-277.88 540.75,-283.88 540.75,-289.88 540.75,-289.88 540.75,-603.88 540.75,-603.88 540.75,-609.88 534.75,-615.88 528.75,-615.88 528.75,-615.88 20,-615.88 20,-615.88 14,-615.88 8,-609.88 8,-603.88 8,-603.88 8,-289.88 8,-289.88 8,-283.88 14,-277.88 20,-277.88"/>
<text text-anchor="middle" x="274.38" y="-603.33" font-family="Helvetica,sans-Serif" font-weight="bold" font-size="9.00">packages</text>
</g>
<g id="clust4" class="cluster">
<title>cluster_packages/project&#45;config</title>
<path fill="#ffffff" stroke="black" stroke-width="2" d="M28,-285.88C28,-285.88 520.75,-285.88 520.75,-285.88 526.75,-285.88 532.75,-291.88 532.75,-297.88 532.75,-297.88 532.75,-577.88 532.75,-577.88 532.75,-583.88 526.75,-589.88 520.75,-589.88 520.75,-589.88 28,-589.88 28,-589.88 22,-589.88 16,-583.88 16,-577.88 16,-577.88 16,-297.88 16,-297.88 16,-291.88 22,-285.88 28,-285.88"/>
<text text-anchor="middle" x="274.38" y="-577.33" font-family="Helvetica,sans-Serif" font-weight="bold" font-size="9.00">project&#45;config</text>
</g>
<g id="clust5" class="cluster">
<title>cluster_packages/project&#45;config/src</title>
<path fill="#ffffff" stroke="black" stroke-width="2" d="M36,-293.88C36,-293.88 512.75,-293.88 512.75,-293.88 518.75,-293.88 524.75,-299.88 524.75,-305.88 524.75,-305.88 524.75,-551.88 524.75,-551.88 524.75,-557.88 518.75,-563.88 512.75,-563.88 512.75,-563.88 36,-563.88 36,-563.88 30,-563.88 24,-557.88 24,-551.88 24,-551.88 24,-305.88 24,-305.88 24,-299.88 30,-293.88 36,-293.88"/>
<text text-anchor="middle" x="274.38" y="-551.33" font-family="Helvetica,sans-Serif" font-weight="bold" font-size="9.00">src</text>
</g>
<g id="clust6" class="cluster">
<title>cluster_packages/project&#45;config/src/__tests__</title>
<path fill="#ffffff" stroke="black" stroke-width="2" d="M44,-301.88C44,-301.88 138,-301.88 138,-301.88 144,-301.88 150,-307.88 150,-313.88 150,-313.88 150,-499.88 150,-499.88 150,-505.88 144,-511.88 138,-511.88 138,-511.88 44,-511.88 44,-511.88 38,-511.88 32,-505.88 32,-499.88 32,-499.88 32,-313.88 32,-313.88 32,-307.88 38,-301.88 44,-301.88"/>
<text text-anchor="middle" x="91" y="-499.33" font-family="Helvetica,sans-Serif" font-weight="bold" font-size="9.00">__tests__</text>
</g>
<g id="clust7" class="cluster">
<title>cluster_packages/project&#45;config/src/__tests__/fixtures</title>
<path fill="#ffffff" stroke="black" stroke-width="2" d="M52,-365.88C52,-365.88 130,-365.88 130,-365.88 136,-365.88 142,-371.88 142,-377.88 142,-377.88 142,-473.88 142,-473.88 142,-479.88 136,-485.88 130,-485.88 130,-485.88 52,-485.88 52,-485.88 46,-485.88 40,-479.88 40,-473.88 40,-473.88 40,-377.88 40,-377.88 40,-371.88 46,-365.88 52,-365.88"/>
<text text-anchor="middle" x="91" y="-473.33" font-family="Helvetica,sans-Serif" font-weight="bold" font-size="9.00">fixtures</text>
</g>
<g id="clust8" class="cluster">
<title>cluster_packages/project&#45;config/src/__tests__/fixtures/api</title>
<path fill="#ffffff" stroke="black" stroke-width="2" d="M60,-373.88C60,-373.88 122,-373.88 122,-373.88 128,-373.88 134,-379.88 134,-385.88 134,-385.88 134,-447.88 134,-447.88 134,-453.88 128,-459.88 122,-459.88 122,-459.88 60,-459.88 60,-459.88 54,-459.88 48,-453.88 48,-447.88 48,-447.88 48,-385.88 48,-385.88 48,-379.88 54,-373.88 60,-373.88"/>
<text text-anchor="middle" x="91" y="-447.33" font-family="Helvetica,sans-Serif" font-weight="bold" font-size="9.00">api</text>
</g>
<g id="clust9" class="cluster">
<title>cluster_packages/project&#45;config/src/__tests__/fixtures/api/test</title>
<path fill="#ffffff" stroke="black" stroke-width="2" d="M68,-381.88C68,-381.88 114,-381.88 114,-381.88 120,-381.88 126,-387.88 126,-393.88 126,-393.88 126,-421.88 126,-421.88 126,-427.88 120,-433.88 114,-433.88 114,-433.88 68,-433.88 68,-433.88 62,-433.88 56,-427.88 56,-421.88 56,-421.88 56,-393.88 56,-393.88 56,-387.88 62,-381.88 68,-381.88"/>
<text text-anchor="middle" x="91" y="-421.33" font-family="Helvetica,sans-Serif" font-weight="bold" font-size="9.00">test</text>
</g>
<!-- fs -->
<g id="node1" class="node">
<title>fs</title>
<g id="a_node1"><a xlink:title="fs">
<path fill="#ffffcc" stroke="grey" d="M596.83,-341.75C596.83,-341.75 554.67,-341.75 554.67,-341.75 551.71,-341.75 548.75,-338.79 548.75,-335.84 548.75,-335.84 548.75,-329.92 548.75,-329.92 548.75,-326.96 551.71,-324 554.67,-324 554.67,-324 596.83,-324 596.83,-324 599.79,-324 602.75,-326.96 602.75,-329.92 602.75,-329.92 602.75,-335.84 602.75,-335.84 602.75,-338.79 599.79,-341.75 596.83,-341.75"/>
<text text-anchor="middle" x="575.75" y="-329.2" font-family="Helvetica,sans-Serif" font-size="9.00" fill="grey">fs</text>
</a>
</g>
</g>
<!-- node_modules/@iarna/toml -->
<g id="node2" class="node">
<title>node_modules/@iarna/toml</title>
<g id="a_node2"><a xlink:href="node_modules/@iarna/toml" xlink:title="toml">
<polygon fill="#c40b0a" fill-opacity="0.101961" stroke="black" points="402.5,-217.75 350.47,-217.75 348.5,-215.78 348.5,-200 400.53,-200 402.5,-201.97 402.5,-217.75"/>
<polyline fill="none" stroke="black" points="400.53,-215.78 348.5,-215.78"/>
<polyline fill="none" stroke="black" points="400.53,-215.78 400.53,-200"/>
<polyline fill="none" stroke="black" points="400.53,-215.78 402.5,-217.75"/>
<text text-anchor="start" x="366.88" y="-205.2" font-family="Helvetica,sans-Serif" font-size="9.00" fill="#c40b0a">toml</text>
</a>
</g>
</g>
<!-- node_modules/deepmerge -->
<g id="node3" class="node">
<title>node_modules/deepmerge</title>
<g id="a_node3"><a xlink:href="node_modules/deepmerge" xlink:title="deepmerge">
<polygon fill="#c40b0a" fill-opacity="0.101961" stroke="black" points="407.12,-183.75 345.85,-183.75 343.88,-181.78 343.88,-166 405.15,-166 407.12,-167.97 407.12,-183.75"/>
<polyline fill="none" stroke="black" points="405.15,-181.78 343.88,-181.78"/>
<polyline fill="none" stroke="black" points="405.15,-181.78 405.15,-166"/>
<polyline fill="none" stroke="black" points="405.15,-181.78 407.12,-183.75"/>
<text text-anchor="start" x="351.88" y="-171.2" font-family="Helvetica,sans-Serif" font-size="9.00" fill="#c40b0a">deepmerge</text>
</a>
</g>
</g>
<!-- node_modules/fast&#45;glob -->
<g id="node4" class="node">
<title>node_modules/fast&#45;glob</title>
<g id="a_node4"><a xlink:href="node_modules/fast-glob" xlink:title="fast&#45;glob">
<polygon fill="#c40b0a" fill-opacity="0.101961" stroke="black" points="402.5,-123.75 350.47,-123.75 348.5,-121.78 348.5,-106 400.53,-106 402.5,-107.97 402.5,-123.75"/>
<polyline fill="none" stroke="black" points="400.53,-121.78 348.5,-121.78"/>
<polyline fill="none" stroke="black" points="400.53,-121.78 400.53,-106"/>
<polyline fill="none" stroke="black" points="400.53,-121.78 402.5,-123.75"/>
<text text-anchor="start" x="357.88" y="-111.2" font-family="Helvetica,sans-Serif" font-size="9.00" fill="#c40b0a">fast&#45;glob</text>
</a>
</g>
</g>
<!-- node_modules/string&#45;env&#45;interpolation -->
<g id="node5" class="node">
<title>node_modules/string&#45;env&#45;interpolation</title>
<g id="a_node5"><a xlink:href="node_modules/string-env-interpolation" xlink:title="string&#45;env&#45;interpolation">
<polygon fill="#c40b0a" fill-opacity="0.101961" stroke="black" points="430.75,-153.75 322.22,-153.75 320.25,-151.78 320.25,-136 428.78,-136 430.75,-137.97 430.75,-153.75"/>
<polyline fill="none" stroke="black" points="428.78,-151.78 320.25,-151.78"/>
<polyline fill="none" stroke="black" points="428.78,-151.78 428.78,-136"/>
<polyline fill="none" stroke="black" points="428.78,-151.78 430.75,-153.75"/>
<text text-anchor="start" x="328.25" y="-141.2" font-family="Helvetica,sans-Serif" font-size="9.00" fill="#c40b0a">string&#45;env&#45;interpolation</text>
</a>
</g>
</g>
<!-- packages/project&#45;config/src/__tests__/config.test.ts -->
<g id="node6" class="node">
<title>packages/project&#45;config/src/__tests__/config.test.ts</title>
<g id="a_node6"><a xlink:href="packages/project-config/src/__tests__/config.test.ts" xlink:title="config.test.ts">
<path fill="#ddfeff" stroke="black" d="M129.46,-357.75C129.46,-357.75 52.54,-357.75 52.54,-357.75 49.58,-357.75 46.62,-354.79 46.62,-351.84 46.62,-351.84 46.62,-345.92 46.62,-345.92 46.62,-342.96 49.58,-340 52.54,-340 52.54,-340 129.46,-340 129.46,-340 132.42,-340 135.38,-342.96 135.38,-345.92 135.38,-345.92 135.38,-351.84 135.38,-351.84 135.38,-354.79 132.42,-357.75 129.46,-357.75"/>
<text text-anchor="start" x="54.62" y="-346.2" font-family="Helvetica,sans-Serif" font-size="9.00">config.test.ts </text>
<text text-anchor="start" x="107.12" y="-346.2" font-family="Helvetica,sans-Serif" font-size="8.00" fill="#808080">100%</text>
</a>
</g>
</g>
<!-- packages/project&#45;config/src/config.ts -->
<g id="node7" class="node">
<title>packages/project&#45;config/src/config.ts</title>
<g id="a_node7"><a xlink:href="packages/project-config/src/config.ts" xlink:title="config.ts">
<path fill="#ddfeff" stroke="black" d="M298.33,-341.75C298.33,-341.75 242.42,-341.75 242.42,-341.75 239.46,-341.75 236.5,-338.79 236.5,-335.84 236.5,-335.84 236.5,-329.92 236.5,-329.92 236.5,-326.96 239.46,-324 242.42,-324 242.42,-324 298.33,-324 298.33,-324 301.29,-324 304.25,-326.96 304.25,-329.92 304.25,-329.92 304.25,-335.84 304.25,-335.84 304.25,-338.79 301.29,-341.75 298.33,-341.75"/>
<text text-anchor="start" x="244.5" y="-330.2" font-family="Helvetica,sans-Serif" font-size="9.00">config.ts </text>
<text text-anchor="start" x="280.5" y="-330.2" font-family="Helvetica,sans-Serif" font-size="8.00" fill="#808080">63%</text>
</a>
</g>
</g>
<!-- packages/project&#45;config/src/__tests__/config.test.ts&#45;&gt;packages/project&#45;config/src/config.ts -->
<g id="edge1" class="edge">
<title>packages/project&#45;config/src/__tests__/config.test.ts&#45;&gt;packages/project&#45;config/src/config.ts</title>
<path fill="none" stroke="#000000" stroke-width="2" stroke-opacity="0.200000" d="M135.67,-344.9C143.12,-344.22 150.78,-343.53 158,-342.88 180.91,-340.81 206.46,-338.51 227.31,-336.64"/>
<polygon fill="#000000" fill-opacity="0.200000" stroke="#000000" stroke-width="2" stroke-opacity="0.200000" points="227.45,-338.47 233.23,-335.84 227.07,-334.29 227.45,-338.47"/>
</g>
<!-- path -->
<g id="node8" class="node">
<title>path</title>
<g id="a_node8"><a xlink:title="path">
<path fill="#ffffcc" stroke="grey" d="M596.83,-52.75C596.83,-52.75 554.67,-52.75 554.67,-52.75 551.71,-52.75 548.75,-49.79 548.75,-46.84 548.75,-46.84 548.75,-40.92 548.75,-40.92 548.75,-37.96 551.71,-35 554.67,-35 554.67,-35 596.83,-35 596.83,-35 599.79,-35 602.75,-37.96 602.75,-40.92 602.75,-40.92 602.75,-46.84 602.75,-46.84 602.75,-49.79 599.79,-52.75 596.83,-52.75"/>
<text text-anchor="middle" x="575.75" y="-40.2" font-family="Helvetica,sans-Serif" font-size="9.00" fill="grey">path</text>
</a>
</g>
</g>
<!-- packages/project&#45;config/src/__tests__/config.test.ts&#45;&gt;path -->
<g id="edge2" class="edge">
<title>packages/project&#45;config/src/__tests__/config.test.ts&#45;&gt;path</title>
<path fill="none" stroke="#000000" stroke-dasharray="5,2" stroke-opacity="0.200000" d="M135.61,-343.51C141.02,-341.25 146.03,-338.14 150,-333.88 163.26,-319.67 153.12,-309.69 158,-290.88 185.54,-184.7 173.42,-146.62 236.5,-56.88 247.21,-41.64 250.75,-30.88 269.38,-30.88 269.38,-30.88 269.38,-30.88 376.5,-30.88 434.86,-30.88 502.69,-36.56 541.97,-40.41"/>
<polygon fill="#000000" fill-opacity="0.200000" stroke="#000000" stroke-opacity="0.200000" points="541.31,-42.55 547.49,-41.06 541.73,-38.37 541.31,-42.55"/>
</g>
<!-- packages/project&#45;config/src/config.ts&#45;&gt;fs -->
<g id="edge8" class="edge">
<title>packages/project&#45;config/src/config.ts&#45;&gt;fs</title>
<path fill="none" stroke="#000000" stroke-dasharray="5,2" stroke-opacity="0.200000" d="M292.2,-342.12C298.51,-344.48 305.55,-346.69 312.25,-347.88 412.24,-365.64 441.38,-368.82 540.75,-347.88 544.21,-347.15 547.75,-346.04 551.18,-344.76"/>
<polygon fill="#000000" fill-opacity="0.200000" stroke="#000000" stroke-opacity="0.200000" points="551.83,-346.34 556.57,-342.11 550.22,-342.46 551.83,-346.34"/>
</g>
<!-- packages/project&#45;config/src/config.ts&#45;&gt;node_modules/@iarna/toml -->
<g id="edge6" class="edge">
<title>packages/project&#45;config/src/config.ts&#45;&gt;node_modules/@iarna/toml</title>
<path fill="none" stroke="#000000" stroke-opacity="0.200000" d="M279.13,-323.56C296.98,-302.09 341.11,-249.02 362.5,-223.31"/>
<polygon fill="#000000" fill-opacity="0.200000" stroke="#000000" stroke-opacity="0.200000" points="364.72,-224.92 366.94,-218.97 361.49,-222.24 364.72,-224.92"/>
</g>
<!-- packages/project&#45;config/src/config.ts&#45;&gt;node_modules/deepmerge -->
<g id="edge7" class="edge">
<title>packages/project&#45;config/src/config.ts&#45;&gt;node_modules/deepmerge</title>
<path fill="none" stroke="#000000" stroke-opacity="0.200000" d="M273.87,-323.61C282.35,-292.15 309.7,-191.29 312.25,-188.88 318.92,-182.57 327.79,-178.88 336.75,-176.77"/>
<polygon fill="#000000" fill-opacity="0.200000" stroke="#000000" stroke-opacity="0.200000" points="337.08,-178.65 342.57,-175.45 336.28,-174.53 337.08,-178.65"/>
</g>
<!-- packages/project&#45;config/src/config.ts&#45;&gt;node_modules/string&#45;env&#45;interpolation -->
<g id="edge9" class="edge">
<title>packages/project&#45;config/src/config.ts&#45;&gt;node_modules/string&#45;env&#45;interpolation</title>
<path fill="none" stroke="#000000" stroke-opacity="0.200000" d="M274.31,-323.63C280.57,-303.62 295.39,-254.72 304.25,-212.88 306.72,-201.22 304.2,-168.66 312.25,-159.88 312.95,-159.11 313.69,-158.38 314.46,-157.68"/>
<polygon fill="#000000" fill-opacity="0.200000" stroke="#000000" stroke-opacity="0.200000" points="315.37,-158.86 318.88,-153.56 312.83,-155.51 315.37,-158.86"/>
</g>
<!-- packages/project&#45;config/src/configPath.ts -->
<g id="node12" class="node">
<title>packages/project&#45;config/src/configPath.ts</title>
<g id="a_node12"><a xlink:href="packages/project-config/src/configPath.ts" xlink:title="configPath.ts">
<path fill="#ddfeff" stroke="black" d="M412.83,-341.75C412.83,-341.75 338.17,-341.75 338.17,-341.75 335.21,-341.75 332.25,-338.79 332.25,-335.84 332.25,-335.84 332.25,-329.92 332.25,-329.92 332.25,-326.96 335.21,-324 338.17,-324 338.17,-324 412.83,-324 412.83,-324 415.79,-324 418.75,-326.96 418.75,-329.92 418.75,-329.92 418.75,-335.84 418.75,-335.84 418.75,-338.79 415.79,-341.75 412.83,-341.75"/>
<text text-anchor="start" x="340.25" y="-330.2" font-family="Helvetica,sans-Serif" font-size="9.00">configPath.ts </text>
<text text-anchor="start" x="395" y="-330.2" font-family="Helvetica,sans-Serif" font-size="8.00" fill="#808080">25%</text>
</a>
</g>
</g>
<!-- packages/project&#45;config/src/config.ts&#45;&gt;packages/project&#45;config/src/configPath.ts -->
<g id="edge5" class="edge">
<title>packages/project&#45;config/src/config.ts&#45;&gt;packages/project&#45;config/src/configPath.ts</title>
<path fill="none" stroke="#000000" stroke-width="2" stroke-opacity="0.200000" d="M304.57,-332.88C310.56,-332.88 316.93,-332.88 323.3,-332.88"/>
<polygon fill="#000000" fill-opacity="0.200000" stroke="#000000" stroke-width="2" stroke-opacity="0.200000" points="322.94,-334.98 328.94,-332.88 322.94,-330.78 322.94,-334.98"/>
</g>
<!-- packages/project&#45;config/src/__tests__/fixtures/api/test/test.ts -->
<g id="node9" class="node">
<title>packages/project&#45;config/src/__tests__/fixtures/api/test/test.ts</title>
<g id="a_node9"><a xlink:href="packages/project-config/src/__tests__/fixtures/api/test/test.ts" xlink:title="no&#45;orphans">
<path fill="#ccffcc" stroke="orange" d="M112.08,-407.75C112.08,-407.75 69.92,-407.75 69.92,-407.75 66.96,-407.75 64,-404.79 64,-401.84 64,-401.84 64,-395.92 64,-395.92 64,-392.96 66.96,-390 69.92,-390 69.92,-390 112.08,-390 112.08,-390 115.04,-390 118,-392.96 118,-395.92 118,-395.92 118,-401.84 118,-401.84 118,-404.79 115.04,-407.75 112.08,-407.75"/>
<text text-anchor="start" x="72.62" y="-396.2" font-family="Helvetica,sans-Serif" font-size="9.00" fill="orange">test.ts </text>
<text text-anchor="start" x="98.12" y="-396.2" font-family="Helvetica,sans-Serif" font-size="8.00" fill="#808080">0%</text>
</a>
</g>
</g>
<!-- packages/project&#45;config/src/__tests__/paths.test.ts -->
<g id="node10" class="node">
<title>packages/project&#45;config/src/__tests__/paths.test.ts</title>
<g id="a_node10"><a xlink:href="packages/project-config/src/__tests__/paths.test.ts" xlink:title="paths.test.ts">
<path fill="#ddfeff" stroke="black" d="M128.33,-327.75C128.33,-327.75 53.67,-327.75 53.67,-327.75 50.71,-327.75 47.75,-324.79 47.75,-321.84 47.75,-321.84 47.75,-315.92 47.75,-315.92 47.75,-312.96 50.71,-310 53.67,-310 53.67,-310 128.33,-310 128.33,-310 131.29,-310 134.25,-312.96 134.25,-315.92 134.25,-315.92 134.25,-321.84 134.25,-321.84 134.25,-324.79 131.29,-327.75 128.33,-327.75"/>
<text text-anchor="start" x="55.75" y="-316.2" font-family="Helvetica,sans-Serif" font-size="9.00">paths.test.ts </text>
<text text-anchor="start" x="106" y="-316.2" font-family="Helvetica,sans-Serif" font-size="8.00" fill="#808080">100%</text>
</a>
</g>
</g>
<!-- packages/project&#45;config/src/__tests__/paths.test.ts&#45;&gt;path -->
<g id="edge4" class="edge">
<title>packages/project&#45;config/src/__tests__/paths.test.ts&#45;&gt;path</title>
<path fill="none" stroke="#000000" stroke-dasharray="5,2" stroke-opacity="0.200000" d="M92.67,-309.54C96.19,-263.56 114,-61.68 158,-20.88 194.67,13.13 219.37,-4.88 269.38,-4.88 269.38,-4.88 269.38,-4.88 376.5,-4.88 449.85,-4.88 471.75,3.99 540.75,-20.88 547.05,-23.15 553.31,-26.85 558.71,-30.63"/>
<polygon fill="#000000" fill-opacity="0.200000" stroke="#000000" stroke-opacity="0.200000" points="557.12,-32.81 563.19,-34.7 559.62,-29.44 557.12,-32.81"/>
</g>
<!-- packages/project&#45;config/src/paths.ts -->
<g id="node11" class="node">
<title>packages/project&#45;config/src/paths.ts</title>
<g id="a_node11"><a xlink:href="packages/project-config/src/paths.ts" xlink:title="paths.ts">
<path fill="#ddfeff" stroke="black" d="M217.58,-319.75C217.58,-319.75 163.92,-319.75 163.92,-319.75 160.96,-319.75 158,-316.79 158,-313.84 158,-313.84 158,-307.92 158,-307.92 158,-304.96 160.96,-302 163.92,-302 163.92,-302 217.58,-302 217.58,-302 220.54,-302 223.5,-304.96 223.5,-307.92 223.5,-307.92 223.5,-313.84 223.5,-313.84 223.5,-316.79 220.54,-319.75 217.58,-319.75"/>
<text text-anchor="start" x="166" y="-308.2" font-family="Helvetica,sans-Serif" font-size="9.00">paths.ts </text>
<text text-anchor="start" x="199.75" y="-308.2" font-family="Helvetica,sans-Serif" font-size="8.00" fill="#808080">71%</text>
</a>
</g>
</g>
<!-- packages/project&#45;config/src/__tests__/paths.test.ts&#45;&gt;packages/project&#45;config/src/paths.ts -->
<g id="edge3" class="edge">
<title>packages/project&#45;config/src/__tests__/paths.test.ts&#45;&gt;packages/project&#45;config/src/paths.ts</title>
<path fill="none" stroke="#000000" stroke-width="2" stroke-opacity="0.200000" d="M134.59,-315.39C139.29,-315.01 144.07,-314.62 148.76,-314.23"/>
<polygon fill="#000000" fill-opacity="0.200000" stroke="#000000" stroke-width="2" stroke-opacity="0.200000" points="148.78,-316.09 154.59,-313.51 148.44,-311.91 148.78,-316.09"/>
</g>
<!-- packages/project&#45;config/src/paths.ts&#45;&gt;fs -->
<g id="edge20" class="edge">
<title>packages/project&#45;config/src/paths.ts&#45;&gt;fs</title>
<path fill="none" stroke="#000000" stroke-dasharray="5,2" stroke-opacity="0.200000" d="M191.52,-301.58C191.28,-273.06 194.23,-185.57 236.5,-132.88 293.73,-61.53 359.64,-48.97 438.75,-94.88 524.92,-144.88 561.1,-272.26 571.43,-317.03"/>
<polygon fill="#000000" fill-opacity="0.200000" stroke="#000000" stroke-opacity="0.200000" points="569.57,-317.31 572.92,-322.71 573.66,-316.39 569.57,-317.31"/>
</g>
<!-- packages/project&#45;config/src/paths.ts&#45;&gt;node_modules/fast&#45;glob -->
<g id="edge19" class="edge">
<title>packages/project&#45;config/src/paths.ts&#45;&gt;node_modules/fast&#45;glob</title>
<path fill="none" stroke="#000000" stroke-opacity="0.200000" d="M195.07,-301.6C206.32,-271.54 246.03,-176.15 312.25,-129.88 320.76,-123.93 331.36,-120.32 341.37,-118.14"/>
<polygon fill="#000000" fill-opacity="0.200000" stroke="#000000" stroke-opacity="0.200000" points="341.68,-120.03 347.19,-116.85 340.9,-115.91 341.68,-120.03"/>
</g>
<!-- packages/project&#45;config/src/paths.ts&#45;&gt;packages/project&#45;config/src/config.ts -->
<g id="edge17" class="edge">
<title>packages/project&#45;config/src/paths.ts&#45;&gt;packages/project&#45;config/src/config.ts</title>
<path fill="none" stroke="#000000" stroke-width="2" stroke-opacity="0.200000" d="M223.77,-319.95C225.21,-320.36 226.66,-320.77 228.11,-321.18"/>
<polygon fill="#000000" fill-opacity="0.200000" stroke="#000000" stroke-width="2" stroke-opacity="0.200000" points="228.08,-323.92 234.42,-323.54 229.22,-319.88 228.08,-323.92"/>
</g>
<!-- packages/project&#45;config/src/paths.ts&#45;&gt;path -->
<g id="edge21" class="edge">
<title>packages/project&#45;config/src/paths.ts&#45;&gt;path</title>
<path fill="none" stroke="#000000" stroke-dasharray="5,2" stroke-opacity="0.200000" d="M192.09,-301.73C193.76,-262.28 202.43,-107.24 236.5,-75.88 258.65,-55.5 460.46,-47.27 541.4,-44.78"/>
<polygon fill="#000000" fill-opacity="0.200000" stroke="#000000" stroke-opacity="0.200000" points="541.45,-46.85 547.39,-44.57 541.33,-42.65 541.45,-46.85"/>
</g>
<!-- packages/project&#45;config/src/paths.ts&#45;&gt;packages/project&#45;config/src/configPath.ts -->
<g id="edge18" class="edge">
<title>packages/project&#45;config/src/paths.ts&#45;&gt;packages/project&#45;config/src/configPath.ts</title>
<path fill="none" stroke="#000000" stroke-width="2" stroke-opacity="0.200000" d="M223.88,-311.61C246.45,-312.44 277.3,-314.18 304.25,-317.88 311.62,-318.89 319.37,-320.24 326.92,-321.72"/>
<polygon fill="#000000" fill-opacity="0.200000" stroke="#000000" stroke-width="2" stroke-opacity="0.200000" points="327.37,-324.37 333.67,-323.51 328.21,-320.25 327.37,-324.37"/>
</g>
<!-- packages/project&#45;config/src/findUp.ts -->
<g id="node13" class="node">
<title>packages/project&#45;config/src/findUp.ts</title>
<g id="a_node13"><a xlink:href="packages/project-config/src/findUp.ts" xlink:title="findUp.ts">
<path fill="#ddfeff" stroke="black" d="M510.83,-341.75C510.83,-341.75 452.67,-341.75 452.67,-341.75 449.71,-341.75 446.75,-338.79 446.75,-335.84 446.75,-335.84 446.75,-329.92 446.75,-329.92 446.75,-326.96 449.71,-324 452.67,-324 452.67,-324 510.83,-324 510.83,-324 513.79,-324 516.75,-326.96 516.75,-329.92 516.75,-329.92 516.75,-335.84 516.75,-335.84 516.75,-338.79 513.79,-341.75 510.83,-341.75"/>
<text text-anchor="start" x="454.75" y="-330.2" font-family="Helvetica,sans-Serif" font-size="9.00">findUp.ts </text>
<text text-anchor="start" x="493" y="-330.2" font-family="Helvetica,sans-Serif" font-size="8.00" fill="#808080">50%</text>
</a>
</g>
</g>
<!-- packages/project&#45;config/src/configPath.ts&#45;&gt;packages/project&#45;config/src/findUp.ts -->
<g id="edge10" class="edge">
<title>packages/project&#45;config/src/configPath.ts&#45;&gt;packages/project&#45;config/src/findUp.ts</title>
<path fill="none" stroke="#000000" stroke-width="2" stroke-opacity="0.200000" d="M419.2,-332.88C425.32,-332.88 431.62,-332.88 437.75,-332.88"/>
<polygon fill="#000000" fill-opacity="0.200000" stroke="#000000" stroke-width="2" stroke-opacity="0.200000" points="437.56,-334.98 443.56,-332.88 437.56,-330.78 437.56,-334.98"/>
</g>
<!-- packages/project&#45;config/src/findUp.ts&#45;&gt;fs -->
<g id="edge11" class="edge">
<title>packages/project&#45;config/src/findUp.ts&#45;&gt;fs</title>
<path fill="none" stroke="#000000" stroke-dasharray="5,2" stroke-opacity="0.200000" d="M517.01,-332.88C525.15,-332.88 533.82,-332.88 541.9,-332.88"/>
<polygon fill="#000000" fill-opacity="0.200000" stroke="#000000" stroke-opacity="0.200000" points="541.52,-334.98 547.52,-332.88 541.52,-330.78 541.52,-334.98"/>
</g>
<!-- packages/project&#45;config/src/findUp.ts&#45;&gt;path -->
<g id="edge12" class="edge">
<title>packages/project&#45;config/src/findUp.ts&#45;&gt;path</title>
<path fill="none" stroke="#000000" stroke-dasharray="5,2" stroke-opacity="0.200000" d="M485.71,-323.59C498.95,-281.97 552.93,-112.41 569.73,-59.63"/>
<polygon fill="#000000" fill-opacity="0.200000" stroke="#000000" stroke-opacity="0.200000" points="572.03,-60.34 571.85,-53.99 568.03,-59.07 572.03,-60.34"/>
</g>
<!-- packages/project&#45;config/src/index.ts -->
<g id="node14" class="node">
<title>packages/project&#45;config/src/index.ts</title>
<g id="a_node14"><a xlink:href="packages/project-config/src/index.ts" xlink:title="index.ts">
<path fill="#ddfeff" stroke="black" d="M120.08,-537.75C120.08,-537.75 61.92,-537.75 61.92,-537.75 58.96,-537.75 56,-534.79 56,-531.84 56,-531.84 56,-525.92 56,-525.92 56,-522.96 58.96,-520 61.92,-520 61.92,-520 120.08,-520 120.08,-520 123.04,-520 126,-522.96 126,-525.92 126,-525.92 126,-531.84 126,-531.84 126,-534.79 123.04,-537.75 120.08,-537.75"/>
<text text-anchor="start" x="64" y="-526.2" font-family="Helvetica,sans-Serif" font-size="9.00">index.ts </text>
<text text-anchor="start" x="97.75" y="-526.2" font-family="Helvetica,sans-Serif" font-size="8.00" fill="#808080">100%</text>
</a>
</g>
</g>
<!-- packages/project&#45;config/src/index.ts&#45;&gt;packages/project&#45;config/src/config.ts -->
<g id="edge13" class="edge">
<title>packages/project&#45;config/src/index.ts&#45;&gt;packages/project&#45;config/src/config.ts</title>
<path fill="none" stroke="#000000" stroke-width="2" stroke-opacity="0.200000" d="M99.87,-519.71C112.86,-503.97 138.52,-470.27 150,-436.88 155.81,-419.98 146.1,-370.2 158,-356.88 159.22,-355.51 196.52,-347.65 227.62,-341.29"/>
<polygon fill="#000000" fill-opacity="0.200000" stroke="#000000" stroke-width="2" stroke-opacity="0.200000" points="228.73,-342.8 234.19,-339.54 227.89,-338.68 228.73,-342.8"/>
</g>
<!-- packages/project&#45;config/src/index.ts&#45;&gt;packages/project&#45;config/src/paths.ts -->
<g id="edge16" class="edge">
<title>packages/project&#45;config/src/index.ts&#45;&gt;packages/project&#45;config/src/paths.ts</title>
<path fill="none" stroke="#000000" stroke-width="2" stroke-opacity="0.200000" d="M99.92,-519.73C113,-504.01 138.77,-470.35 150,-436.88 163.34,-397.13 140.4,-380.93 158,-342.88 160.89,-336.63 165.55,-330.89 170.41,-326.06"/>
<polygon fill="#000000" fill-opacity="0.200000" stroke="#000000" stroke-width="2" stroke-opacity="0.200000" points="171.99,-327.64 175.03,-322.06 169.17,-324.53 171.99,-327.64"/>
</g>
<!-- packages/project&#45;config/src/index.ts&#45;&gt;packages/project&#45;config/src/configPath.ts -->
<g id="edge14" class="edge">
<title>packages/project&#45;config/src/index.ts&#45;&gt;packages/project&#45;config/src/configPath.ts</title>
<path fill="none" stroke="#000000" stroke-width="2" stroke-opacity="0.200000" d="M99.79,-519.68C112.68,-503.9 138.17,-470.15 150,-436.88 154.95,-422.96 147.74,-381.51 158,-370.88 180.85,-347.21 271.9,-353.87 304.25,-347.88 310.72,-346.68 317.5,-345.34 324.2,-343.96"/>
<polygon fill="#000000" fill-opacity="0.200000" stroke="#000000" stroke-width="2" stroke-opacity="0.200000" points="325.15,-345.49 330.6,-342.21 324.3,-341.38 325.15,-345.49"/>
</g>
<!-- packages/project&#45;config/src/index.ts&#45;&gt;packages/project&#45;config/src/findUp.ts -->
<g id="edge15" class="edge">
<title>packages/project&#45;config/src/index.ts&#45;&gt;packages/project&#45;config/src/findUp.ts</title>
<path fill="none" stroke="#000000" stroke-width="2" stroke-opacity="0.200000" d="M110.49,-519.56C173.69,-487.69 381.28,-383.03 454.72,-346"/>
<polygon fill="#000000" fill-opacity="0.200000" stroke="#000000" stroke-width="2" stroke-opacity="0.200000" points="456.19,-347.6 460.6,-343.03 454.3,-343.85 456.19,-347.6"/>
</g>
</g>
</svg>
