<?xml version="1.0" encoding="UTF-8" standalone="no"?>
<!DOCTYPE svg PUBLIC "-//W3C//DTD SVG 1.1//EN"
 "http://www.w3.org/Graphics/SVG/1.1/DTD/svg11.dtd">
<!-- Generated by graphviz version 7.1.0 (20230121.1956)
 -->
<!-- Title: dependency&#45;cruiser output Pages: 1 -->
<svg width="540pt" height="368pt"
 viewBox="0.00 0.00 540.00 367.69" xmlns="http://www.w3.org/2000/svg" xmlns:xlink="http://www.w3.org/1999/xlink">
<g id="graph0" class="graph" transform="scale(1 1) rotate(0) translate(4 363.69)">
<title>dependency&#45;cruiser output</title>
<polygon fill="white" stroke="none" points="-4,4 -4,-363.69 536,-363.69 536,4 -4,4"/>
<g id="clust1" class="cluster">
<title>cluster_node_modules</title>
<path fill="#ffffff" stroke="black" stroke-width="2" d="M268,-77.69C268,-77.69 371,-77.69 371,-77.69 377,-77.69 383,-83.69 383,-89.69 383,-89.69 383,-237.69 383,-237.69 383,-243.69 377,-249.69 371,-249.69 371,-249.69 268,-249.69 268,-249.69 262,-249.69 256,-243.69 256,-237.69 256,-237.69 256,-89.69 256,-89.69 256,-83.69 262,-77.69 268,-77.69"/>
<text text-anchor="middle" x="319.5" y="-238.49" font-family="Helvetica,sans-Serif" font-weight="bold" font-size="9.00">node_modules</text>
</g>
<g id="clust2" class="cluster">
<title>cluster_node_modules/@iarna</title>
<path fill="#ffffff" stroke="black" stroke-width="2" d="M296.5,-171.69C296.5,-171.69 342.5,-171.69 342.5,-171.69 348.5,-171.69 354.5,-177.69 354.5,-183.69 354.5,-183.69 354.5,-211.69 354.5,-211.69 354.5,-217.69 348.5,-223.69 342.5,-223.69 342.5,-223.69 296.5,-223.69 296.5,-223.69 290.5,-223.69 284.5,-217.69 284.5,-211.69 284.5,-211.69 284.5,-183.69 284.5,-183.69 284.5,-177.69 290.5,-171.69 296.5,-171.69"/>
<text text-anchor="middle" x="319.5" y="-212.49" font-family="Helvetica,sans-Serif" font-weight="bold" font-size="9.00">@iarna</text>
</g>
<g id="clust3" class="cluster">
<title>cluster_src</title>
<path fill="#ffffff" stroke="black" stroke-width="2" d="M20,-257.69C20,-257.69 458,-257.69 458,-257.69 464,-257.69 470,-263.69 470,-269.69 470,-269.69 470,-339.69 470,-339.69 470,-345.69 464,-351.69 458,-351.69 458,-351.69 20,-351.69 20,-351.69 14,-351.69 8,-345.69 8,-339.69 8,-339.69 8,-269.69 8,-269.69 8,-263.69 14,-257.69 20,-257.69"/>
<text text-anchor="middle" x="239" y="-340.49" font-family="Helvetica,sans-Serif" font-weight="bold" font-size="9.00">src</text>
</g>
<!-- fs -->
<g id="node1" class="node">
<title>fs</title>
<g id="a_node1"><a xlink:title="fs">
<path fill="#ffffcc" stroke="grey" d="M526,-305.69C526,-305.69 484,-305.69 484,-305.69 481,-305.69 478,-302.69 478,-299.69 478,-299.69 478,-293.69 478,-293.69 478,-290.69 481,-287.69 484,-287.69 484,-287.69 526,-287.69 526,-287.69 529,-287.69 532,-290.69 532,-293.69 532,-293.69 532,-299.69 532,-299.69 532,-302.69 529,-305.69 526,-305.69"/>
<text text-anchor="middle" x="505" y="-294.49" font-family="Helvetica,sans-Serif" font-size="9.00" fill="grey">fs</text>
</a>
</g>
</g>
<!-- node_modules/@iarna/toml -->
<g id="node2" class="node">
<title>node_modules/@iarna/toml</title>
<g id="a_node2"><a xlink:href="node_modules/@iarna/toml" xlink:title="toml">
<polygon fill="#c40b0a" fill-opacity="0.101961" stroke="black" points="346.5,-197.69 294.5,-197.69 292.5,-195.69 292.5,-179.69 344.5,-179.69 346.5,-181.69 346.5,-197.69"/>
<polyline fill="none" stroke="black" points="344.5,-195.69 292.5,-195.69"/>
<polyline fill="none" stroke="black" points="344.5,-195.69 344.5,-179.69"/>
<polyline fill="none" stroke="black" points="344.5,-195.69 346.5,-197.69"/>
<text text-anchor="start" x="310.5" y="-186.49" font-family="Helvetica,sans-Serif" font-size="9.00" fill="#c40b0a">toml</text>
</a>
</g>
</g>
<!-- node_modules/deepmerge -->
<g id="node3" class="node">
<title>node_modules/deepmerge</title>
<g id="a_node3"><a xlink:href="node_modules/deepmerge" xlink:title="deepmerge">
<polygon fill="#c40b0a" fill-opacity="0.101961" stroke="black" points="351.5,-163.69 289.5,-163.69 287.5,-161.69 287.5,-145.69 349.5,-145.69 351.5,-147.69 351.5,-163.69"/>
<polyline fill="none" stroke="black" points="349.5,-161.69 287.5,-161.69"/>
<polyline fill="none" stroke="black" points="349.5,-161.69 349.5,-145.69"/>
<polyline fill="none" stroke="black" points="349.5,-161.69 351.5,-163.69"/>
<text text-anchor="start" x="295.5" y="-152.49" font-family="Helvetica,sans-Serif" font-size="9.00" fill="#c40b0a">deepmerge</text>
</a>
</g>
</g>
<!-- node_modules/fast&#45;glob -->
<g id="node4" class="node">
<title>node_modules/fast&#45;glob</title>
<g id="a_node4"><a xlink:href="node_modules/fast-glob" xlink:title="fast&#45;glob">
<polygon fill="#c40b0a" fill-opacity="0.101961" stroke="black" points="346.5,-103.69 294.5,-103.69 292.5,-101.69 292.5,-85.69 344.5,-85.69 346.5,-87.69 346.5,-103.69"/>
<polyline fill="none" stroke="black" points="344.5,-101.69 292.5,-101.69"/>
<polyline fill="none" stroke="black" points="344.5,-101.69 344.5,-85.69"/>
<polyline fill="none" stroke="black" points="344.5,-101.69 346.5,-103.69"/>
<text text-anchor="start" x="301.5" y="-92.49" font-family="Helvetica,sans-Serif" font-size="9.00" fill="#c40b0a">fast&#45;glob</text>
</a>
</g>
</g>
<!-- node_modules/string&#45;env&#45;interpolation -->
<g id="node5" class="node">
<title>node_modules/string&#45;env&#45;interpolation</title>
<g id="a_node5"><a xlink:href="node_modules/string-env-interpolation" xlink:title="string&#45;env&#45;interpolation">
<polygon fill="#c40b0a" fill-opacity="0.101961" stroke="black" points="375,-133.69 266,-133.69 264,-131.69 264,-115.69 373,-115.69 375,-117.69 375,-133.69"/>
<polyline fill="none" stroke="black" points="373,-131.69 264,-131.69"/>
<polyline fill="none" stroke="black" points="373,-131.69 373,-115.69"/>
<polyline fill="none" stroke="black" points="373,-131.69 375,-133.69"/>
<text text-anchor="start" x="272" y="-122.49" font-family="Helvetica,sans-Serif" font-size="9.00" fill="#c40b0a">string&#45;env&#45;interpolation</text>
</a>
</g>
</g>
<!-- path -->
<g id="node6" class="node">
<title>path</title>
<g id="a_node6"><a xlink:title="path">
<path fill="#ffffcc" stroke="grey" d="M526,-160.69C526,-160.69 484,-160.69 484,-160.69 481,-160.69 478,-157.69 478,-154.69 478,-154.69 478,-148.69 478,-148.69 478,-145.69 481,-142.69 484,-142.69 484,-142.69 526,-142.69 526,-142.69 529,-142.69 532,-145.69 532,-148.69 532,-148.69 532,-154.69 532,-154.69 532,-157.69 529,-160.69 526,-160.69"/>
<text text-anchor="middle" x="505" y="-149.49" font-family="Helvetica,sans-Serif" font-size="9.00" fill="grey">path</text>
</a>
</g>
</g>
<!-- src/config.ts -->
<g id="node7" class="node">
<title>src/config.ts</title>
<g id="a_node7"><a xlink:href="src/config.ts" xlink:title="config.ts">
<path fill="#ddfeff" stroke="black" d="M242,-283.69C242,-283.69 185,-283.69 185,-283.69 182,-283.69 179,-280.69 179,-277.69 179,-277.69 179,-271.69 179,-271.69 179,-268.69 182,-265.69 185,-265.69 185,-265.69 242,-265.69 242,-265.69 245,-265.69 248,-268.69 248,-271.69 248,-271.69 248,-277.69 248,-277.69 248,-280.69 245,-283.69 242,-283.69"/>
<text text-anchor="start" x="187" y="-273.49" font-family="Helvetica,sans-Serif" font-size="9.00">config.ts </text>
<text text-anchor="start" x="224" y="-273.49" font-family="Helvetica,sans-Serif" font-size="8.00" fill="#808080">71%</text>
</a>
</g>
</g>
<!-- src/config.ts&#45;&gt;fs -->
<g id="edge4" class="edge">
<title>src/config.ts&#45;&gt;fs</title>
<path fill="none" stroke="#000000" stroke-dasharray="5,2" stroke-opacity="0.200000" d="M221.54,-284.08C228.97,-293.11 241.57,-306.19 256,-311.69 344.88,-345.56 376.93,-331.31 470,-311.69 473.21,-311.01 476.49,-310.01 479.68,-308.84"/>
<polygon fill="#000000" fill-opacity="0.200000" stroke="#000000" stroke-opacity="0.200000" points="480.3,-310.86 485.07,-306.65 478.72,-306.97 480.3,-310.86"/>
</g>
<!-- src/config.ts&#45;&gt;node_modules/@iarna/toml -->
<g id="edge2" class="edge">
<title>src/config.ts&#45;&gt;node_modules/@iarna/toml</title>
<path fill="none" stroke="#000000" stroke-opacity="0.200000" d="M225.63,-265.49C243.83,-250.44 280.08,-220.46 301.51,-202.74"/>
<polygon fill="#000000" fill-opacity="0.200000" stroke="#000000" stroke-opacity="0.200000" points="302.68,-204.49 305.97,-199.05 300.01,-201.26 302.68,-204.49"/>
</g>
<!-- src/config.ts&#45;&gt;node_modules/deepmerge -->
<g id="edge3" class="edge">
<title>src/config.ts&#45;&gt;node_modules/deepmerge</title>
<path fill="none" stroke="#000000" stroke-opacity="0.200000" d="M217.63,-265.26C225.89,-240.54 248.24,-175.35 256,-168.69 262.73,-162.92 271.32,-159.39 279.97,-157.26"/>
<polygon fill="#000000" fill-opacity="0.200000" stroke="#000000" stroke-opacity="0.200000" points="280.26,-159.34 285.72,-156.08 279.42,-155.22 280.26,-159.34"/>
</g>
<!-- src/config.ts&#45;&gt;node_modules/string&#45;env&#45;interpolation -->
<g id="edge5" class="edge">
<title>src/config.ts&#45;&gt;node_modules/string&#45;env&#45;interpolation</title>
<path fill="none" stroke="#000000" stroke-opacity="0.200000" d="M218.4,-265.23C225.21,-248.45 239.34,-212.27 248,-180.69 252.91,-162.78 243.16,-153.1 256,-139.69 256.56,-139.11 257.14,-138.54 257.73,-138"/>
<polygon fill="#000000" fill-opacity="0.200000" stroke="#000000" stroke-opacity="0.200000" points="258.77,-139.85 262.3,-134.56 256.24,-136.49 258.77,-139.85"/>
</g>
<!-- src/configPath.ts -->
<g id="node8" class="node">
<title>src/configPath.ts</title>
<g id="a_node8"><a xlink:href="src/configPath.ts" xlink:title="configPath.ts">
<path fill="#ddfeff" stroke="black" d="M357,-305.69C357,-305.69 282,-305.69 282,-305.69 279,-305.69 276,-302.69 276,-299.69 276,-299.69 276,-293.69 276,-293.69 276,-290.69 279,-287.69 282,-287.69 282,-287.69 357,-287.69 357,-287.69 360,-287.69 363,-290.69 363,-293.69 363,-293.69 363,-299.69 363,-299.69 363,-302.69 360,-305.69 357,-305.69"/>
<text text-anchor="start" x="284" y="-295.49" font-family="Helvetica,sans-Serif" font-size="9.00">configPath.ts </text>
<text text-anchor="start" x="339" y="-295.49" font-family="Helvetica,sans-Serif" font-size="8.00" fill="#808080">25%</text>
</a>
</g>
</g>
<!-- src/config.ts&#45;&gt;src/configPath.ts -->
<g id="edge1" class="edge">
<title>src/config.ts&#45;&gt;src/configPath.ts</title>
<path fill="none" stroke="#000000" stroke-width="2" stroke-opacity="0.200000" d="M248.27,-281.83C254.3,-283.11 260.71,-284.46 267.11,-285.82"/>
<polygon fill="#000000" fill-opacity="0.200000" stroke="#000000" stroke-width="2" stroke-opacity="0.200000" points="266.52,-287.84 272.83,-287.03 267.39,-283.73 266.52,-287.84"/>
</g>
<!-- src/findUp.ts -->
<g id="node9" class="node">
<title>src/findUp.ts</title>
<g id="a_node9"><a xlink:href="src/findUp.ts" xlink:title="findUp.ts">
<path fill="#ddfeff" stroke="black" d="M456,-305.69C456,-305.69 397,-305.69 397,-305.69 394,-305.69 391,-302.69 391,-299.69 391,-299.69 391,-293.69 391,-293.69 391,-290.69 394,-287.69 397,-287.69 397,-287.69 456,-287.69 456,-287.69 459,-287.69 462,-290.69 462,-293.69 462,-293.69 462,-299.69 462,-299.69 462,-302.69 459,-305.69 456,-305.69"/>
<text text-anchor="start" x="399" y="-295.49" font-family="Helvetica,sans-Serif" font-size="9.00">findUp.ts </text>
<text text-anchor="start" x="438" y="-295.49" font-family="Helvetica,sans-Serif" font-size="8.00" fill="#808080">50%</text>
</a>
</g>
</g>
<!-- src/configPath.ts&#45;&gt;src/findUp.ts -->
<g id="edge6" class="edge">
<title>src/configPath.ts&#45;&gt;src/findUp.ts</title>
<path fill="none" stroke="#000000" stroke-width="2" stroke-opacity="0.200000" d="M363.21,-296.69C369.31,-296.69 375.6,-296.69 381.72,-296.69"/>
<polygon fill="#000000" fill-opacity="0.200000" stroke="#000000" stroke-width="2" stroke-opacity="0.200000" points="381.51,-298.79 387.51,-296.69 381.51,-294.59 381.51,-298.79"/>
</g>
<!-- src/findUp.ts&#45;&gt;fs -->
<g id="edge7" class="edge">
<title>src/findUp.ts&#45;&gt;fs</title>
<path fill="none" stroke="#000000" stroke-dasharray="5,2" stroke-opacity="0.200000" d="M462.17,-296.69C464.94,-296.69 467.74,-296.69 470.5,-296.69"/>
<polygon fill="#000000" fill-opacity="0.200000" stroke="#000000" stroke-opacity="0.200000" points="470.19,-298.79 476.19,-296.69 470.19,-294.59 470.19,-298.79"/>
</g>
<!-- src/findUp.ts&#45;&gt;path -->
<g id="edge8" class="edge">
<title>src/findUp.ts&#45;&gt;path</title>
<path fill="none" stroke="#000000" stroke-dasharray="5,2" stroke-opacity="0.200000" d="M432.29,-287.62C444.94,-263.63 479.43,-198.25 495.52,-167.75"/>
<polygon fill="#000000" fill-opacity="0.200000" stroke="#000000" stroke-opacity="0.200000" points="497.37,-168.76 498.31,-162.47 493.65,-166.8 497.37,-168.76"/>
</g>
<!-- src/index.ts -->
<g id="node10" class="node">
<title>src/index.ts</title>
<g id="a_node10"><a xlink:href="src/index.ts" xlink:title="index.ts">
<path fill="#ddfeff" stroke="black" d="M81,-312.69C81,-312.69 22,-312.69 22,-312.69 19,-312.69 16,-309.69 16,-306.69 16,-306.69 16,-300.69 16,-300.69 16,-297.69 19,-294.69 22,-294.69 22,-294.69 81,-294.69 81,-294.69 84,-294.69 87,-297.69 87,-300.69 87,-300.69 87,-306.69 87,-306.69 87,-309.69 84,-312.69 81,-312.69"/>
<text text-anchor="start" x="24" y="-302.49" font-family="Helvetica,sans-Serif" font-size="9.00">index.ts </text>
<text text-anchor="start" x="58" y="-302.49" font-family="Helvetica,sans-Serif" font-size="8.00" fill="#808080">100%</text>
</a>
</g>
</g>
<!-- src/index.ts&#45;&gt;src/config.ts -->
<g id="edge9" class="edge">
<title>src/index.ts&#45;&gt;src/config.ts</title>
<path fill="none" stroke="#000000" stroke-width="2" stroke-opacity="0.200000" d="M87.31,-301.11C109.92,-299.02 139.92,-295.45 166,-289.69 169.83,-288.84 173.8,-287.81 177.72,-286.69"/>
<polygon fill="#000000" fill-opacity="0.200000" stroke="#000000" stroke-width="2" stroke-opacity="0.200000" points="178.15,-288.76 183.28,-285.01 176.93,-284.74 178.15,-288.76"/>
</g>
<!-- src/index.ts&#45;&gt;src/configPath.ts -->
<g id="edge10" class="edge">
<title>src/index.ts&#45;&gt;src/configPath.ts</title>
<path fill="none" stroke="#000000" stroke-width="2" stroke-opacity="0.200000" d="M87.27,-302.77C133.07,-301.57 213.97,-299.44 266.9,-298.05"/>
<polygon fill="#000000" fill-opacity="0.200000" stroke="#000000" stroke-width="2" stroke-opacity="0.200000" points="266.83,-300.15 272.77,-297.89 266.72,-295.95 266.83,-300.15"/>
</g>
<!-- src/index.ts&#45;&gt;src/findUp.ts -->
<g id="edge11" class="edge">
<title>src/index.ts&#45;&gt;src/findUp.ts</title>
<path fill="none" stroke="#000000" stroke-width="2" stroke-opacity="0.200000" d="M87.07,-308.87C147.58,-316.98 276.36,-329.96 383,-311.69 386.92,-311.02 390.97,-310.02 394.93,-308.85"/>
<polygon fill="#000000" fill-opacity="0.200000" stroke="#000000" stroke-width="2" stroke-opacity="0.200000" points="395.45,-310.89 400.5,-307.03 394.15,-306.9 395.45,-310.89"/>
</g>
<!-- src/paths.ts -->
<g id="node11" class="node">
<title>src/paths.ts</title>
<g id="a_node11"><a xlink:href="src/paths.ts" xlink:title="paths.ts">
<path fill="#ddfeff" stroke="black" d="M160,-283.69C160,-283.69 106,-283.69 106,-283.69 103,-283.69 100,-280.69 100,-277.69 100,-277.69 100,-271.69 100,-271.69 100,-268.69 103,-265.69 106,-265.69 106,-265.69 160,-265.69 160,-265.69 163,-265.69 166,-268.69 166,-271.69 166,-271.69 166,-277.69 166,-277.69 166,-280.69 163,-283.69 160,-283.69"/>
<text text-anchor="start" x="108" y="-273.49" font-family="Helvetica,sans-Serif" font-size="9.00">paths.ts </text>
<text text-anchor="start" x="142" y="-273.49" font-family="Helvetica,sans-Serif" font-size="8.00" fill="#808080">83%</text>
</a>
</g>
</g>
<!-- src/index.ts&#45;&gt;src/paths.ts -->
<g id="edge12" class="edge">
<title>src/index.ts&#45;&gt;src/paths.ts</title>
<path fill="none" stroke="#000000" stroke-width="2" stroke-opacity="0.200000" d="M78.53,-294.19C84.77,-291.92 91.53,-289.45 98.07,-287.07"/>
<polygon fill="#000000" fill-opacity="0.200000" stroke="#000000" stroke-width="2" stroke-opacity="0.200000" points="98.42,-289.17 103.34,-285.14 96.98,-285.23 98.42,-289.17"/>
</g>
<!-- src/paths.ts&#45;&gt;fs -->
<g id="edge16" class="edge">
<title>src/paths.ts&#45;&gt;fs</title>
<path fill="none" stroke="#000000" stroke-dasharray="5,2" stroke-opacity="0.200000" d="M134.05,-265.45C134.67,-238.67 139.9,-159.9 179,-112.69 237.82,-41.66 303.7,-27.6 383,-74.69 460.81,-120.9 491.77,-236.66 500.88,-279.98"/>
<polygon fill="#000000" fill-opacity="0.200000" stroke="#000000" stroke-opacity="0.200000" points="498.79,-280.24 502.03,-285.71 502.9,-279.41 498.79,-280.24"/>
</g>
<!-- src/paths.ts&#45;&gt;node_modules/fast&#45;glob -->
<g id="edge15" class="edge">
<title>src/paths.ts&#45;&gt;node_modules/fast&#45;glob</title>
<path fill="none" stroke="#000000" stroke-opacity="0.200000" d="M137.99,-265.44C150.69,-237.18 193.03,-151.38 256,-109.69 264.61,-103.99 275.16,-100.45 285.13,-98.25"/>
<polygon fill="#000000" fill-opacity="0.200000" stroke="#000000" stroke-opacity="0.200000" points="285.26,-100.37 290.76,-97.17 284.47,-96.24 285.26,-100.37"/>
</g>
<!-- src/paths.ts&#45;&gt;path -->
<g id="edge17" class="edge">
<title>src/paths.ts&#45;&gt;path</title>
<path fill="none" stroke="#000000" stroke-dasharray="5,2" stroke-opacity="0.200000" d="M134.5,-265.4C136.72,-227.42 147.13,-84.54 179,-55.69 275.14,31.37 373.88,9.39 470,-77.69 486.99,-93.08 496.1,-118.67 500.49,-135.36"/>
<polygon fill="#000000" fill-opacity="0.200000" stroke="#000000" stroke-opacity="0.200000" points="498.37,-135.53 501.83,-140.86 502.45,-134.53 498.37,-135.53"/>
</g>
<!-- src/paths.ts&#45;&gt;src/config.ts -->
<g id="edge13" class="edge">
<title>src/paths.ts&#45;&gt;src/config.ts</title>
<path fill="none" stroke="#000000" stroke-width="2" stroke-opacity="0.200000" d="M166.38,-274.69C167.52,-274.69 168.67,-274.69 169.82,-274.69"/>
<polygon fill="#000000" fill-opacity="0.200000" stroke="#000000" stroke-width="2" stroke-opacity="0.200000" points="169.64,-276.79 175.64,-274.69 169.64,-272.59 169.64,-276.79"/>
</g>
<!-- src/paths.ts&#45;&gt;src/configPath.ts -->
<g id="edge14" class="edge">
<title>src/paths.ts&#45;&gt;src/configPath.ts</title>
<path fill="none" stroke="#000000" stroke-width="2" stroke-opacity="0.200000" d="M158.44,-284.17C165.02,-286.36 172.2,-288.41 179,-289.69 207.8,-295.11 240.49,-296.97 266.99,-297.43"/>
<polygon fill="#000000" fill-opacity="0.200000" stroke="#000000" stroke-width="2" stroke-opacity="0.200000" points="266.67,-299.52 272.69,-297.49 266.72,-295.32 266.67,-299.52"/>
</g>
</g>
</svg>
