<?xml version="1.0" encoding="UTF-8" standalone="no"?>
<!DOCTYPE svg PUBLIC "-//W3C//DTD SVG 1.1//EN"
 "http://www.w3.org/Graphics/SVG/1.1/DTD/svg11.dtd">
<!-- Generated by graphviz version 8.0.5 (20230430.1635)
 -->
<!-- Title: dependency&#45;cruiser output Pages: 1 -->
<svg width="568pt" height="439pt"
 viewBox="0.00 0.00 567.75 438.82" xmlns="http://www.w3.org/2000/svg" xmlns:xlink="http://www.w3.org/1999/xlink">
<g id="graph0" class="graph" transform="scale(1 1) rotate(0) translate(4 434.82)">
<title>dependency&#45;cruiser output</title>
<polygon fill="white" stroke="none" points="-4,4 -4,-434.82 563.75,-434.82 563.75,4 -4,4"/>
<g id="clust1" class="cluster">
<title>cluster_node_modules</title>
<path fill="#ffffff" stroke="black" stroke-width="2" d="M281.25,-80.82C281.25,-80.82 383.75,-80.82 383.75,-80.82 389.75,-80.82 395.75,-86.82 395.75,-92.82 395.75,-92.82 395.75,-240.82 395.75,-240.82 395.75,-246.82 389.75,-252.82 383.75,-252.82 383.75,-252.82 281.25,-252.82 281.25,-252.82 275.25,-252.82 269.25,-246.82 269.25,-240.82 269.25,-240.82 269.25,-92.82 269.25,-92.82 269.25,-86.82 275.25,-80.82 281.25,-80.82"/>
<text text-anchor="middle" x="332.5" y="-240.27" font-family="Helvetica,sans-Serif" font-weight="bold" font-size="9.00">node_modules</text>
</g>
<g id="clust2" class="cluster">
<title>cluster_node_modules/@iarna</title>
<path fill="#ffffff" stroke="black" stroke-width="2" d="M309.5,-174.82C309.5,-174.82 355.5,-174.82 355.5,-174.82 361.5,-174.82 367.5,-180.82 367.5,-186.82 367.5,-186.82 367.5,-214.82 367.5,-214.82 367.5,-220.82 361.5,-226.82 355.5,-226.82 355.5,-226.82 309.5,-226.82 309.5,-226.82 303.5,-226.82 297.5,-220.82 297.5,-214.82 297.5,-214.82 297.5,-186.82 297.5,-186.82 297.5,-180.82 303.5,-174.82 309.5,-174.82"/>
<text text-anchor="middle" x="332.5" y="-214.27" font-family="Helvetica,sans-Serif" font-weight="bold" font-size="9.00">@iarna</text>
</g>
<g id="clust3" class="cluster">
<title>cluster_packages</title>
<path fill="#ffffff" stroke="black" stroke-width="2" d="M20,-260.82C20,-260.82 485.75,-260.82 485.75,-260.82 491.75,-260.82 497.75,-266.82 497.75,-272.82 497.75,-272.82 497.75,-410.82 497.75,-410.82 497.75,-416.82 491.75,-422.82 485.75,-422.82 485.75,-422.82 20,-422.82 20,-422.82 14,-422.82 8,-416.82 8,-410.82 8,-410.82 8,-272.82 8,-272.82 8,-266.82 14,-260.82 20,-260.82"/>
<text text-anchor="middle" x="252.88" y="-410.27" font-family="Helvetica,sans-Serif" font-weight="bold" font-size="9.00">packages</text>
</g>
<g id="clust4" class="cluster">
<title>cluster_packages/project&#45;config</title>
<path fill="#ffffff" stroke="black" stroke-width="2" d="M28,-268.82C28,-268.82 477.75,-268.82 477.75,-268.82 483.75,-268.82 489.75,-274.82 489.75,-280.82 489.75,-280.82 489.75,-384.82 489.75,-384.82 489.75,-390.82 483.75,-396.82 477.75,-396.82 477.75,-396.82 28,-396.82 28,-396.82 22,-396.82 16,-390.82 16,-384.82 16,-384.82 16,-280.82 16,-280.82 16,-274.82 22,-268.82 28,-268.82"/>
<text text-anchor="middle" x="252.88" y="-384.27" font-family="Helvetica,sans-Serif" font-weight="bold" font-size="9.00">project&#45;config</text>
</g>
<g id="clust5" class="cluster">
<title>cluster_packages/project&#45;config/src</title>
<path fill="#ffffff" stroke="black" stroke-width="2" d="M36,-276.82C36,-276.82 469.75,-276.82 469.75,-276.82 475.75,-276.82 481.75,-282.82 481.75,-288.82 481.75,-288.82 481.75,-358.82 481.75,-358.82 481.75,-364.82 475.75,-370.82 469.75,-370.82 469.75,-370.82 36,-370.82 36,-370.82 30,-370.82 24,-364.82 24,-358.82 24,-358.82 24,-288.82 24,-288.82 24,-282.82 30,-276.82 36,-276.82"/>
<text text-anchor="middle" x="252.88" y="-358.27" font-family="Helvetica,sans-Serif" font-weight="bold" font-size="9.00">src</text>
</g>
<!-- fs -->
<g id="node1" class="node">
<title>fs</title>
<g id="a_node1"><a xlink:title="fs">
<path fill="#ffffcc" stroke="grey" d="M553.83,-324.69C553.83,-324.69 511.67,-324.69 511.67,-324.69 508.71,-324.69 505.75,-321.73 505.75,-318.78 505.75,-318.78 505.75,-312.86 505.75,-312.86 505.75,-309.9 508.71,-306.94 511.67,-306.94 511.67,-306.94 553.83,-306.94 553.83,-306.94 556.79,-306.94 559.75,-309.9 559.75,-312.86 559.75,-312.86 559.75,-318.78 559.75,-318.78 559.75,-321.73 556.79,-324.69 553.83,-324.69"/>
<text text-anchor="middle" x="532.75" y="-312.14" font-family="Helvetica,sans-Serif" font-size="9.00" fill="grey">fs</text>
</a>
</g>
</g>
<!-- node_modules/@iarna/toml -->
<g id="node2" class="node">
<title>node_modules/@iarna/toml</title>
<g id="a_node2"><a xlink:href="node_modules/@iarna/toml" xlink:title="toml">
<polygon fill="#c40b0a" fill-opacity="0.101961" stroke="black" points="359.5,-200.69 307.47,-200.69 305.5,-198.72 305.5,-182.94 357.53,-182.94 359.5,-184.91 359.5,-200.69"/>
<polyline fill="none" stroke="black" points="357.53,-198.72 305.5,-198.72"/>
<polyline fill="none" stroke="black" points="357.53,-198.72 357.53,-182.94"/>
<polyline fill="none" stroke="black" points="357.53,-198.72 359.5,-200.69"/>
<text text-anchor="start" x="323.88" y="-188.14" font-family="Helvetica,sans-Serif" font-size="9.00" fill="#c40b0a">toml</text>
</a>
</g>
</g>
<!-- node_modules/deepmerge -->
<g id="node3" class="node">
<title>node_modules/deepmerge</title>
<g id="a_node3"><a xlink:href="node_modules/deepmerge" xlink:title="deepmerge">
<polygon fill="#c40b0a" fill-opacity="0.101961" stroke="black" points="364.12,-166.69 302.85,-166.69 300.88,-164.72 300.88,-148.94 362.15,-148.94 364.12,-150.91 364.12,-166.69"/>
<polyline fill="none" stroke="black" points="362.15,-164.72 300.88,-164.72"/>
<polyline fill="none" stroke="black" points="362.15,-164.72 362.15,-148.94"/>
<polyline fill="none" stroke="black" points="362.15,-164.72 364.12,-166.69"/>
<text text-anchor="start" x="308.88" y="-154.14" font-family="Helvetica,sans-Serif" font-size="9.00" fill="#c40b0a">deepmerge</text>
</a>
</g>
</g>
<!-- node_modules/fast&#45;glob -->
<g id="node4" class="node">
<title>node_modules/fast&#45;glob</title>
<g id="a_node4"><a xlink:href="node_modules/fast-glob" xlink:title="fast&#45;glob">
<polygon fill="#c40b0a" fill-opacity="0.101961" stroke="black" points="359.5,-106.69 307.47,-106.69 305.5,-104.72 305.5,-88.94 357.53,-88.94 359.5,-90.91 359.5,-106.69"/>
<polyline fill="none" stroke="black" points="357.53,-104.72 305.5,-104.72"/>
<polyline fill="none" stroke="black" points="357.53,-104.72 357.53,-88.94"/>
<polyline fill="none" stroke="black" points="357.53,-104.72 359.5,-106.69"/>
<text text-anchor="start" x="314.88" y="-94.14" font-family="Helvetica,sans-Serif" font-size="9.00" fill="#c40b0a">fast&#45;glob</text>
</a>
</g>
</g>
<!-- node_modules/string&#45;env&#45;interpolation -->
<g id="node5" class="node">
<title>node_modules/string&#45;env&#45;interpolation</title>
<g id="a_node5"><a xlink:href="node_modules/string-env-interpolation" xlink:title="string&#45;env&#45;interpolation">
<polygon fill="#c40b0a" fill-opacity="0.101961" stroke="black" points="387.75,-136.69 279.22,-136.69 277.25,-134.72 277.25,-118.94 385.78,-118.94 387.75,-120.91 387.75,-136.69"/>
<polyline fill="none" stroke="black" points="385.78,-134.72 277.25,-134.72"/>
<polyline fill="none" stroke="black" points="385.78,-134.72 385.78,-118.94"/>
<polyline fill="none" stroke="black" points="385.78,-134.72 387.75,-136.69"/>
<text text-anchor="start" x="285.25" y="-124.14" font-family="Helvetica,sans-Serif" font-size="9.00" fill="#c40b0a">string&#45;env&#45;interpolation</text>
</a>
</g>
</g>
<!-- packages/project&#45;config/src/config.ts -->
<g id="node6" class="node">
<title>packages/project&#45;config/src/config.ts</title>
<g id="a_node6"><a xlink:href="packages/project-config/src/config.ts" xlink:title="config.ts">
<path fill="#ddfeff" stroke="black" d="M255.33,-302.69C255.33,-302.69 199.42,-302.69 199.42,-302.69 196.46,-302.69 193.5,-299.73 193.5,-296.78 193.5,-296.78 193.5,-290.86 193.5,-290.86 193.5,-287.9 196.46,-284.94 199.42,-284.94 199.42,-284.94 255.33,-284.94 255.33,-284.94 258.29,-284.94 261.25,-287.9 261.25,-290.86 261.25,-290.86 261.25,-296.78 261.25,-296.78 261.25,-299.73 258.29,-302.69 255.33,-302.69"/>
<text text-anchor="start" x="201.5" y="-291.14" font-family="Helvetica,sans-Serif" font-size="9.00">config.ts </text>
<text text-anchor="start" x="237.5" y="-291.14" font-family="Helvetica,sans-Serif" font-size="8.00" fill="#808080">71%</text>
</a>
</g>
</g>
<!-- packages/project&#45;config/src/config.ts&#45;&gt;fs -->
<g id="edge4" class="edge">
<title>packages/project&#45;config/src/config.ts&#45;&gt;fs</title>
<path fill="none" stroke="#000000" stroke-dasharray="5,2" stroke-opacity="0.200000" d="M235.01,-302.86C242.26,-311.91 254.78,-325.24 269.25,-330.82 364.01,-367.34 398.38,-351.76 497.75,-330.82 501.21,-330.09 504.75,-328.98 508.18,-327.69"/>
<polygon fill="#000000" fill-opacity="0.200000" stroke="#000000" stroke-opacity="0.200000" points="508.83,-329.28 513.57,-325.05 507.22,-325.4 508.83,-329.28"/>
</g>
<!-- packages/project&#45;config/src/config.ts&#45;&gt;node_modules/@iarna/toml -->
<g id="edge2" class="edge">
<title>packages/project&#45;config/src/config.ts&#45;&gt;node_modules/@iarna/toml</title>
<path fill="none" stroke="#000000" stroke-opacity="0.200000" d="M237.53,-284.77C255.6,-266.89 295.97,-226.96 317.44,-205.72"/>
<polygon fill="#000000" fill-opacity="0.200000" stroke="#000000" stroke-opacity="0.200000" points="318.43,-207.71 321.22,-201.99 315.48,-204.72 318.43,-207.71"/>
</g>
<!-- packages/project&#45;config/src/config.ts&#45;&gt;node_modules/deepmerge -->
<g id="edge3" class="edge">
<title>packages/project&#45;config/src/config.ts&#45;&gt;node_modules/deepmerge</title>
<path fill="none" stroke="#000000" stroke-opacity="0.200000" d="M231.26,-284.82C240.21,-256.94 267.04,-173.81 269.25,-171.82 276,-165.72 284.82,-162.1 293.69,-159.99"/>
<polygon fill="#000000" fill-opacity="0.200000" stroke="#000000" stroke-opacity="0.200000" points="293.97,-161.87 299.45,-158.65 293.15,-157.75 293.97,-161.87"/>
</g>
<!-- packages/project&#45;config/src/config.ts&#45;&gt;node_modules/string&#45;env&#45;interpolation -->
<g id="edge5" class="edge">
<title>packages/project&#45;config/src/config.ts&#45;&gt;node_modules/string&#45;env&#45;interpolation</title>
<path fill="none" stroke="#000000" stroke-opacity="0.200000" d="M231.84,-284.67C238.42,-266.97 252.83,-226.72 261.25,-191.82 266.43,-170.37 254.24,-158.99 269.25,-142.82 269.96,-142.05 270.7,-141.32 271.47,-140.63"/>
<polygon fill="#000000" fill-opacity="0.200000" stroke="#000000" stroke-opacity="0.200000" points="272.39,-141.82 275.92,-136.53 269.86,-138.46 272.39,-141.82"/>
</g>
<!-- packages/project&#45;config/src/configPath.ts -->
<g id="node7" class="node">
<title>packages/project&#45;config/src/configPath.ts</title>
<g id="a_node7"><a xlink:href="packages/project-config/src/configPath.ts" xlink:title="configPath.ts">
<path fill="#ddfeff" stroke="black" d="M369.83,-324.69C369.83,-324.69 295.17,-324.69 295.17,-324.69 292.21,-324.69 289.25,-321.73 289.25,-318.78 289.25,-318.78 289.25,-312.86 289.25,-312.86 289.25,-309.9 292.21,-306.94 295.17,-306.94 295.17,-306.94 369.83,-306.94 369.83,-306.94 372.79,-306.94 375.75,-309.9 375.75,-312.86 375.75,-312.86 375.75,-318.78 375.75,-318.78 375.75,-321.73 372.79,-324.69 369.83,-324.69"/>
<text text-anchor="start" x="297.25" y="-313.14" font-family="Helvetica,sans-Serif" font-size="9.00">configPath.ts </text>
<text text-anchor="start" x="352" y="-313.14" font-family="Helvetica,sans-Serif" font-size="8.00" fill="#808080">25%</text>
</a>
</g>
</g>
<!-- packages/project&#45;config/src/config.ts&#45;&gt;packages/project&#45;config/src/configPath.ts -->
<g id="edge1" class="edge">
<title>packages/project&#45;config/src/config.ts&#45;&gt;packages/project&#45;config/src/configPath.ts</title>
<path fill="none" stroke="#000000" stroke-width="2" stroke-opacity="0.200000" d="M261.57,-300.9C267.56,-302.18 273.93,-303.54 280.3,-304.89"/>
<polygon fill="#000000" fill-opacity="0.200000" stroke="#000000" stroke-width="2" stroke-opacity="0.200000" points="280.63,-307.54 286.94,-306.74 281.51,-303.43 280.63,-307.54"/>
</g>
<!-- packages/project&#45;config/src/findUp.ts -->
<g id="node8" class="node">
<title>packages/project&#45;config/src/findUp.ts</title>
<g id="a_node8"><a xlink:href="packages/project-config/src/findUp.ts" xlink:title="findUp.ts">
<path fill="#ddfeff" stroke="black" d="M467.83,-324.69C467.83,-324.69 409.67,-324.69 409.67,-324.69 406.71,-324.69 403.75,-321.73 403.75,-318.78 403.75,-318.78 403.75,-312.86 403.75,-312.86 403.75,-309.9 406.71,-306.94 409.67,-306.94 409.67,-306.94 467.83,-306.94 467.83,-306.94 470.79,-306.94 473.75,-309.9 473.75,-312.86 473.75,-312.86 473.75,-318.78 473.75,-318.78 473.75,-321.73 470.79,-324.69 467.83,-324.69"/>
<text text-anchor="start" x="411.75" y="-313.14" font-family="Helvetica,sans-Serif" font-size="9.00">findUp.ts </text>
<text text-anchor="start" x="450" y="-313.14" font-family="Helvetica,sans-Serif" font-size="8.00" fill="#808080">50%</text>
</a>
</g>
</g>
<!-- packages/project&#45;config/src/configPath.ts&#45;&gt;packages/project&#45;config/src/findUp.ts -->
<g id="edge6" class="edge">
<title>packages/project&#45;config/src/configPath.ts&#45;&gt;packages/project&#45;config/src/findUp.ts</title>
<path fill="none" stroke="#000000" stroke-width="2" stroke-opacity="0.200000" d="M376.2,-315.82C382.32,-315.82 388.62,-315.82 394.75,-315.82"/>
<polygon fill="#000000" fill-opacity="0.200000" stroke="#000000" stroke-width="2" stroke-opacity="0.200000" points="394.56,-317.92 400.56,-315.82 394.56,-313.72 394.56,-317.92"/>
</g>
<!-- packages/project&#45;config/src/findUp.ts&#45;&gt;fs -->
<g id="edge7" class="edge">
<title>packages/project&#45;config/src/findUp.ts&#45;&gt;fs</title>
<path fill="none" stroke="#000000" stroke-dasharray="5,2" stroke-opacity="0.200000" d="M474.01,-315.82C482.15,-315.82 490.82,-315.82 498.9,-315.82"/>
<polygon fill="#000000" fill-opacity="0.200000" stroke="#000000" stroke-opacity="0.200000" points="498.52,-317.92 504.52,-315.82 498.52,-313.72 498.52,-317.92"/>
</g>
<!-- path -->
<g id="node9" class="node">
<title>path</title>
<g id="a_node9"><a xlink:title="path">
<path fill="#ffffcc" stroke="grey" d="M553.83,-171.69C553.83,-171.69 511.67,-171.69 511.67,-171.69 508.71,-171.69 505.75,-168.73 505.75,-165.78 505.75,-165.78 505.75,-159.86 505.75,-159.86 505.75,-156.9 508.71,-153.94 511.67,-153.94 511.67,-153.94 553.83,-153.94 553.83,-153.94 556.79,-153.94 559.75,-156.9 559.75,-159.86 559.75,-159.86 559.75,-165.78 559.75,-165.78 559.75,-168.73 556.79,-171.69 553.83,-171.69"/>
<text text-anchor="middle" x="532.75" y="-159.14" font-family="Helvetica,sans-Serif" font-size="9.00" fill="grey">path</text>
</a>
</g>
</g>
<!-- packages/project&#45;config/src/findUp.ts&#45;&gt;path -->
<g id="edge8" class="edge">
<title>packages/project&#45;config/src/findUp.ts&#45;&gt;path</title>
<path fill="none" stroke="#000000" stroke-dasharray="5,2" stroke-opacity="0.200000" d="M445.23,-306.7C460.53,-281.25 503.85,-209.22 522.74,-177.79"/>
<polygon fill="#000000" fill-opacity="0.200000" stroke="#000000" stroke-opacity="0.200000" points="524.89,-179.3 526.18,-173.08 521.29,-177.14 524.89,-179.3"/>
</g>
<!-- packages/project&#45;config/src/index.ts -->
<g id="node10" class="node">
<title>packages/project&#45;config/src/index.ts</title>
<g id="a_node10"><a xlink:href="packages/project-config/src/index.ts" xlink:title="index.ts">
<path fill="#ddfeff" stroke="black" d="M96.08,-331.69C96.08,-331.69 37.92,-331.69 37.92,-331.69 34.96,-331.69 32,-328.73 32,-325.78 32,-325.78 32,-319.86 32,-319.86 32,-316.9 34.96,-313.94 37.92,-313.94 37.92,-313.94 96.08,-313.94 96.08,-313.94 99.04,-313.94 102,-316.9 102,-319.86 102,-319.86 102,-325.78 102,-325.78 102,-328.73 99.04,-331.69 96.08,-331.69"/>
<text text-anchor="start" x="40" y="-320.14" font-family="Helvetica,sans-Serif" font-size="9.00">index.ts </text>
<text text-anchor="start" x="73.75" y="-320.14" font-family="Helvetica,sans-Serif" font-size="8.00" fill="#808080">100%</text>
</a>
</g>
</g>
<!-- packages/project&#45;config/src/index.ts&#45;&gt;packages/project&#45;config/src/config.ts -->
<g id="edge9" class="edge">
<title>packages/project&#45;config/src/index.ts&#45;&gt;packages/project&#45;config/src/config.ts</title>
<path fill="none" stroke="#000000" stroke-width="2" stroke-opacity="0.200000" d="M102.26,-320.28C124.7,-318.19 154.57,-314.61 180.5,-308.82 184.38,-307.95 188.39,-306.89 192.36,-305.74"/>
<polygon fill="#000000" fill-opacity="0.200000" stroke="#000000" stroke-width="2" stroke-opacity="0.200000" points="193.78,-306.88 198.9,-303.11 192.55,-302.87 193.78,-306.88"/>
</g>
<!-- packages/project&#45;config/src/index.ts&#45;&gt;packages/project&#45;config/src/configPath.ts -->
<g id="edge10" class="edge">
<title>packages/project&#45;config/src/index.ts&#45;&gt;packages/project&#45;config/src/configPath.ts</title>
<path fill="none" stroke="#000000" stroke-width="2" stroke-opacity="0.200000" d="M102.45,-321.9C147.81,-320.7 227.95,-318.57 280.39,-317.17"/>
<polygon fill="#000000" fill-opacity="0.200000" stroke="#000000" stroke-width="2" stroke-opacity="0.200000" points="280.26,-319.2 286.2,-316.94 280.15,-315 280.26,-319.2"/>
</g>
<!-- packages/project&#45;config/src/index.ts&#45;&gt;packages/project&#45;config/src/findUp.ts -->
<g id="edge11" class="edge">
<title>packages/project&#45;config/src/index.ts&#45;&gt;packages/project&#45;config/src/findUp.ts</title>
<path fill="none" stroke="#000000" stroke-width="2" stroke-opacity="0.200000" d="M102.29,-328.01C162.3,-336.14 290.03,-349.13 395.75,-330.82 399.72,-330.13 403.81,-329.1 407.81,-327.9"/>
<polygon fill="#000000" fill-opacity="0.200000" stroke="#000000" stroke-width="2" stroke-opacity="0.200000" points="409.31,-328.95 414.33,-325.06 407.98,-324.96 409.31,-328.95"/>
</g>
<!-- packages/project&#45;config/src/paths.ts -->
<g id="node11" class="node">
<title>packages/project&#45;config/src/paths.ts</title>
<g id="a_node11"><a xlink:href="packages/project-config/src/paths.ts" xlink:title="paths.ts">
<path fill="#ddfeff" stroke="black" d="M174.58,-302.69C174.58,-302.69 120.92,-302.69 120.92,-302.69 117.96,-302.69 115,-299.73 115,-296.78 115,-296.78 115,-290.86 115,-290.86 115,-287.9 117.96,-284.94 120.92,-284.94 120.92,-284.94 174.58,-284.94 174.58,-284.94 177.54,-284.94 180.5,-287.9 180.5,-290.86 180.5,-290.86 180.5,-296.78 180.5,-296.78 180.5,-299.73 177.54,-302.69 174.58,-302.69"/>
<text text-anchor="start" x="123" y="-291.14" font-family="Helvetica,sans-Serif" font-size="9.00">paths.ts </text>
<text text-anchor="start" x="156.75" y="-291.14" font-family="Helvetica,sans-Serif" font-size="8.00" fill="#808080">83%</text>
</a>
</g>
</g>
<!-- packages/project&#45;config/src/index.ts&#45;&gt;packages/project&#45;config/src/paths.ts -->
<g id="edge12" class="edge">
<title>packages/project&#45;config/src/index.ts&#45;&gt;packages/project&#45;config/src/paths.ts</title>
<path fill="none" stroke="#000000" stroke-width="2" stroke-opacity="0.200000" d="M93.35,-313.48C99.67,-311.15 106.55,-308.62 113.2,-306.17"/>
<polygon fill="#000000" fill-opacity="0.200000" stroke="#000000" stroke-width="2" stroke-opacity="0.200000" points="114.54,-308.18 119.45,-304.13 113.09,-304.24 114.54,-308.18"/>
</g>
<!-- packages/project&#45;config/src/paths.ts&#45;&gt;fs -->
<g id="edge16" class="edge">
<title>packages/project&#45;config/src/paths.ts&#45;&gt;fs</title>
<path fill="none" stroke="#000000" stroke-dasharray="5,2" stroke-opacity="0.200000" d="M148.52,-284.52C148.28,-256 151.23,-168.51 193.5,-115.82 250.73,-44.47 316.64,-31.91 395.75,-77.82 481.92,-127.82 518.1,-255.2 528.43,-299.97"/>
<polygon fill="#000000" fill-opacity="0.200000" stroke="#000000" stroke-opacity="0.200000" points="526.57,-300.25 529.92,-305.65 530.66,-299.33 526.57,-300.25"/>
</g>
<!-- packages/project&#45;config/src/paths.ts&#45;&gt;node_modules/fast&#45;glob -->
<g id="edge15" class="edge">
<title>packages/project&#45;config/src/paths.ts&#45;&gt;node_modules/fast&#45;glob</title>
<path fill="none" stroke="#000000" stroke-opacity="0.200000" d="M152.07,-284.54C163.32,-254.48 203.03,-159.09 269.25,-112.82 277.76,-106.87 288.36,-103.26 298.37,-101.08"/>
<polygon fill="#000000" fill-opacity="0.200000" stroke="#000000" stroke-opacity="0.200000" points="298.68,-102.97 304.19,-99.79 297.9,-98.85 298.68,-102.97"/>
</g>
<!-- packages/project&#45;config/src/paths.ts&#45;&gt;packages/project&#45;config/src/config.ts -->
<g id="edge13" class="edge">
<title>packages/project&#45;config/src/paths.ts&#45;&gt;packages/project&#45;config/src/config.ts</title>
<path fill="none" stroke="#000000" stroke-width="2" stroke-opacity="0.200000" d="M180.77,-293.82C181.92,-293.82 183.08,-293.82 184.24,-293.82"/>
<polygon fill="#000000" fill-opacity="0.200000" stroke="#000000" stroke-width="2" stroke-opacity="0.200000" points="184.17,-295.92 190.17,-293.82 184.17,-291.72 184.17,-295.92"/>
</g>
<!-- packages/project&#45;config/src/paths.ts&#45;&gt;packages/project&#45;config/src/configPath.ts -->
<g id="edge14" class="edge">
<title>packages/project&#45;config/src/paths.ts&#45;&gt;packages/project&#45;config/src/configPath.ts</title>
<path fill="none" stroke="#000000" stroke-width="2" stroke-opacity="0.200000" d="M172.58,-303.14C179.25,-305.38 186.58,-307.51 193.5,-308.82 221.75,-314.16 253.8,-316.04 279.9,-316.52"/>
<polygon fill="#000000" fill-opacity="0.200000" stroke="#000000" stroke-width="2" stroke-opacity="0.200000" points="279.84,-318.66 285.87,-316.64 279.9,-314.46 279.84,-318.66"/>
</g>
<!-- packages/project&#45;config/src/paths.ts&#45;&gt;path -->
<g id="edge17" class="edge">
<title>packages/project&#45;config/src/paths.ts&#45;&gt;path</title>
<path fill="none" stroke="#000000" stroke-dasharray="5,2" stroke-opacity="0.200000" d="M149.09,-284.67C150.76,-245.22 159.43,-90.18 193.5,-58.82 293.26,32.99 396.89,9.79 497.75,-80.82 517.08,-98.18 525.7,-128.25 529.33,-146.75"/>
<polygon fill="#000000" fill-opacity="0.200000" stroke="#000000" stroke-opacity="0.200000" points="527.4,-146.91 530.52,-152.45 531.54,-146.17 527.4,-146.91"/>
</g>
</g>
</svg>
