<?xml version="1.0" encoding="UTF-8" standalone="no"?>
<!DOCTYPE svg PUBLIC "-//W3C//DTD SVG 1.1//EN"
 "http://www.w3.org/Graphics/SVG/1.1/DTD/svg11.dtd">
<!-- Generated by graphviz version 8.0.5 (20230430.1635)
 -->
<!-- Title: dependency&#45;cruiser output Pages: 1 -->
<svg width="387pt" height="386pt"
 viewBox="0.00 0.00 386.50 385.88" xmlns="http://www.w3.org/2000/svg" xmlns:xlink="http://www.w3.org/1999/xlink">
<g id="graph0" class="graph" transform="scale(1 1) rotate(0) translate(4 381.88)">
<title>dependency&#45;cruiser output</title>
<polygon fill="white" stroke="none" points="-4,4 -4,-381.88 382.5,-381.88 382.5,4 -4,4"/>
<g id="clust1" class="cluster">
<title>cluster_node_modules</title>
<path fill="#ffffff" stroke="black" stroke-width="2" d="M256,-15.88C256,-15.88 358.5,-15.88 358.5,-15.88 364.5,-15.88 370.5,-21.88 370.5,-27.88 370.5,-27.88 370.5,-175.88 370.5,-175.88 370.5,-181.88 364.5,-187.88 358.5,-187.88 358.5,-187.88 256,-187.88 256,-187.88 250,-187.88 244,-181.88 244,-175.88 244,-175.88 244,-27.88 244,-27.88 244,-21.87 250,-15.88 256,-15.88"/>
<text text-anchor="middle" x="307.25" y="-175.32" font-family="Helvetica,sans-Serif" font-weight="bold" font-size="9.00">node_modules</text>
</g>
<g id="clust2" class="cluster">
<title>cluster_node_modules/@iarna</title>
<path fill="#ffffff" stroke="black" stroke-width="2" d="M284.25,-109.88C284.25,-109.88 330.25,-109.88 330.25,-109.88 336.25,-109.88 342.25,-115.88 342.25,-121.88 342.25,-121.88 342.25,-149.88 342.25,-149.88 342.25,-155.88 336.25,-161.88 330.25,-161.88 330.25,-161.88 284.25,-161.88 284.25,-161.88 278.25,-161.88 272.25,-155.88 272.25,-149.88 272.25,-149.88 272.25,-121.88 272.25,-121.88 272.25,-115.88 278.25,-109.88 284.25,-109.88"/>
<text text-anchor="middle" x="307.25" y="-149.32" font-family="Helvetica,sans-Serif" font-weight="bold" font-size="9.00">@iarna</text>
</g>
<g id="clust3" class="cluster">
<title>cluster_packages</title>
<path fill="#ffffff" stroke="black" stroke-width="2" d="M20,-159.88C20,-159.88 224,-159.88 224,-159.88 230,-159.88 236,-165.88 236,-171.88 236,-171.88 236,-357.88 236,-357.88 236,-363.88 230,-369.88 224,-369.88 224,-369.88 20,-369.88 20,-369.88 14,-369.88 8,-363.88 8,-357.88 8,-357.88 8,-171.88 8,-171.88 8,-165.88 14,-159.88 20,-159.88"/>
<text text-anchor="middle" x="122" y="-357.32" font-family="Helvetica,sans-Serif" font-weight="bold" font-size="9.00">packages</text>
</g>
<g id="clust4" class="cluster">
<title>cluster_packages/project&#45;config</title>
<path fill="#ffffff" stroke="black" stroke-width="2" d="M28,-167.88C28,-167.88 216,-167.88 216,-167.88 222,-167.88 228,-173.88 228,-179.88 228,-179.88 228,-331.88 228,-331.88 228,-337.88 222,-343.88 216,-343.88 216,-343.88 28,-343.88 28,-343.88 22,-343.88 16,-337.88 16,-331.88 16,-331.88 16,-179.88 16,-179.88 16,-173.88 22,-167.88 28,-167.88"/>
<text text-anchor="middle" x="122" y="-331.32" font-family="Helvetica,sans-Serif" font-weight="bold" font-size="9.00">project&#45;config</text>
</g>
<g id="clust5" class="cluster">
<title>cluster_packages/project&#45;config/dist</title>
<path fill="#ffffff" stroke="black" stroke-width="2" d="M36,-175.88C36,-175.88 208,-175.88 208,-175.88 214,-175.88 220,-181.88 220,-187.88 220,-187.88 220,-305.88 220,-305.88 220,-311.88 214,-317.88 208,-317.88 208,-317.88 36,-317.88 36,-317.88 30,-317.88 24,-311.88 24,-305.88 24,-305.88 24,-187.88 24,-187.88 24,-181.88 30,-175.88 36,-175.88"/>
<text text-anchor="middle" x="122" y="-305.32" font-family="Helvetica,sans-Serif" font-weight="bold" font-size="9.00">dist</text>
</g>
<!-- fs -->
<g id="node1" class="node">
<title>fs</title>
<g id="a_node1"><a xlink:title="fs">
<path fill="#ffffcc" stroke="grey" d="M188.33,-151.75C188.33,-151.75 146.17,-151.75 146.17,-151.75 143.21,-151.75 140.25,-148.79 140.25,-145.83 140.25,-145.83 140.25,-139.92 140.25,-139.92 140.25,-136.96 143.21,-134 146.17,-134 146.17,-134 188.33,-134 188.33,-134 191.29,-134 194.25,-136.96 194.25,-139.92 194.25,-139.92 194.25,-145.83 194.25,-145.83 194.25,-148.79 191.29,-151.75 188.33,-151.75"/>
<text text-anchor="middle" x="167.25" y="-139.2" font-family="Helvetica,sans-Serif" font-size="9.00" fill="grey">fs</text>
</a>
</g>
</g>
<!-- node_modules/@iarna/toml -->
<g id="node2" class="node">
<title>node_modules/@iarna/toml</title>
<g id="a_node2"><a xlink:href="node_modules/@iarna/toml" xlink:title="toml">
<polygon fill="#c40b0a" fill-opacity="0.101961" stroke="black" points="334.25,-135.75 282.22,-135.75 280.25,-133.78 280.25,-118 332.28,-118 334.25,-119.97 334.25,-135.75"/>
<polyline fill="none" stroke="black" points="332.28,-133.78 280.25,-133.78"/>
<polyline fill="none" stroke="black" points="332.28,-133.78 332.28,-118"/>
<polyline fill="none" stroke="black" points="332.28,-133.78 334.25,-135.75"/>
<text text-anchor="start" x="298.62" y="-123.2" font-family="Helvetica,sans-Serif" font-size="9.00" fill="#c40b0a">toml</text>
</a>
</g>
</g>
<!-- node_modules/deepmerge -->
<g id="node3" class="node">
<title>node_modules/deepmerge</title>
<g id="a_node3"><a xlink:href="node_modules/deepmerge" xlink:title="deepmerge">
<polygon fill="#c40b0a" fill-opacity="0.101961" stroke="black" points="338.88,-101.75 277.6,-101.75 275.62,-99.78 275.62,-84 336.9,-84 338.88,-85.97 338.88,-101.75"/>
<polyline fill="none" stroke="black" points="336.9,-99.78 275.62,-99.78"/>
<polyline fill="none" stroke="black" points="336.9,-99.78 336.9,-84"/>
<polyline fill="none" stroke="black" points="336.9,-99.78 338.88,-101.75"/>
<text text-anchor="start" x="283.62" y="-89.2" font-family="Helvetica,sans-Serif" font-size="9.00" fill="#c40b0a">deepmerge</text>
</a>
</g>
</g>
<!-- node_modules/fast&#45;glob -->
<g id="node4" class="node">
<title>node_modules/fast&#45;glob</title>
<g id="a_node4"><a xlink:href="node_modules/fast-glob" xlink:title="fast&#45;glob">
<polygon fill="#c40b0a" fill-opacity="0.101961" stroke="black" points="334.25,-71.75 282.22,-71.75 280.25,-69.78 280.25,-54 332.28,-54 334.25,-55.97 334.25,-71.75"/>
<polyline fill="none" stroke="black" points="332.28,-69.78 280.25,-69.78"/>
<polyline fill="none" stroke="black" points="332.28,-69.78 332.28,-54"/>
<polyline fill="none" stroke="black" points="332.28,-69.78 334.25,-71.75"/>
<text text-anchor="start" x="289.62" y="-59.2" font-family="Helvetica,sans-Serif" font-size="9.00" fill="#c40b0a">fast&#45;glob</text>
</a>
</g>
</g>
<!-- node_modules/string&#45;env&#45;interpolation -->
<g id="node5" class="node">
<title>node_modules/string&#45;env&#45;interpolation</title>
<g id="a_node5"><a xlink:href="node_modules/string-env-interpolation" xlink:title="string&#45;env&#45;interpolation">
<polygon fill="#c40b0a" fill-opacity="0.101961" stroke="black" points="362.5,-41.75 253.97,-41.75 252,-39.78 252,-24 360.53,-24 362.5,-25.97 362.5,-41.75"/>
<polyline fill="none" stroke="black" points="360.53,-39.78 252,-39.78"/>
<polyline fill="none" stroke="black" points="360.53,-39.78 360.53,-24"/>
<polyline fill="none" stroke="black" points="360.53,-39.78 362.5,-41.75"/>
<text text-anchor="start" x="260" y="-29.2" font-family="Helvetica,sans-Serif" font-size="9.00" fill="#c40b0a">string&#45;env&#45;interpolation</text>
</a>
</g>
</g>
<!-- packages/project&#45;config/dist/config.d.ts -->
<g id="node6" class="node">
<title>packages/project&#45;config/dist/config.d.ts</title>
<g id="a_node6"><a xlink:href="packages/project-config/dist/config.d.ts" xlink:title="config.d.ts">
<path fill="#ddfeff" stroke="black" d="M198.96,-201.75C198.96,-201.75 135.54,-201.75 135.54,-201.75 132.58,-201.75 129.62,-198.79 129.62,-195.83 129.62,-195.83 129.62,-189.92 129.62,-189.92 129.62,-186.96 132.58,-184 135.54,-184 135.54,-184 198.96,-184 198.96,-184 201.92,-184 204.88,-186.96 204.88,-189.92 204.88,-189.92 204.88,-195.83 204.88,-195.83 204.88,-198.79 201.92,-201.75 198.96,-201.75"/>
<text text-anchor="start" x="137.62" y="-190.2" font-family="Helvetica,sans-Serif" font-size="9.00">config.d.ts </text>
<text text-anchor="start" x="181.12" y="-190.2" font-family="Helvetica,sans-Serif" font-size="8.00" fill="#808080">50%</text>
</a>
</g>
</g>
<!-- packages/project&#45;config/dist/config.d.ts&#45;&gt;node_modules/@iarna/toml -->
<g id="edge1" class="edge">
<title>packages/project&#45;config/dist/config.d.ts&#45;&gt;node_modules/@iarna/toml</title>
<path fill="none" stroke="#000000" stroke-opacity="0.200000" d="M187.73,-183.56C212.08,-171.91 253.82,-151.95 280.71,-139.09"/>
<polygon fill="#000000" fill-opacity="0.200000" stroke="#000000" stroke-opacity="0.200000" points="281.36,-140.63 285.87,-136.14 279.55,-136.84 281.36,-140.63"/>
</g>
<!-- packages/project&#45;config/dist/configPath.d.ts -->
<g id="node7" class="node">
<title>packages/project&#45;config/dist/configPath.d.ts</title>
<g id="a_node7"><a xlink:href="packages/project-config/dist/configPath.d.ts" xlink:title="configPath.d.ts">
<path fill="#ddfeff" stroke="black" d="M206.08,-231.75C206.08,-231.75 128.42,-231.75 128.42,-231.75 125.46,-231.75 122.5,-228.79 122.5,-225.83 122.5,-225.83 122.5,-219.92 122.5,-219.92 122.5,-216.96 125.46,-214 128.42,-214 128.42,-214 206.08,-214 206.08,-214 209.04,-214 212,-216.96 212,-219.92 212,-219.92 212,-225.83 212,-225.83 212,-228.79 209.04,-231.75 206.08,-231.75"/>
<text text-anchor="start" x="130.5" y="-220.2" font-family="Helvetica,sans-Serif" font-size="9.00">configPath.d.ts </text>
<text text-anchor="start" x="192.75" y="-220.2" font-family="Helvetica,sans-Serif" font-size="8.00" fill="#808080">0%</text>
</a>
</g>
</g>
<!-- packages/project&#45;config/dist/findUp.d.ts -->
<g id="node8" class="node">
<title>packages/project&#45;config/dist/findUp.d.ts</title>
<g id="a_node8"><a xlink:href="packages/project-config/dist/findUp.d.ts" xlink:title="findUp.d.ts">
<path fill="#ddfeff" stroke="black" d="M197.83,-261.75C197.83,-261.75 136.67,-261.75 136.67,-261.75 133.71,-261.75 130.75,-258.79 130.75,-255.83 130.75,-255.83 130.75,-249.92 130.75,-249.92 130.75,-246.96 133.71,-244 136.67,-244 136.67,-244 197.83,-244 197.83,-244 200.79,-244 203.75,-246.96 203.75,-249.92 203.75,-249.92 203.75,-255.83 203.75,-255.83 203.75,-258.79 200.79,-261.75 197.83,-261.75"/>
<text text-anchor="start" x="138.75" y="-250.2" font-family="Helvetica,sans-Serif" font-size="9.00">findUp.d.ts </text>
<text text-anchor="start" x="184.5" y="-250.2" font-family="Helvetica,sans-Serif" font-size="8.00" fill="#808080">0%</text>
</a>
</g>
</g>
<!-- packages/project&#45;config/dist/index.d.ts -->
<g id="node9" class="node">
<title>packages/project&#45;config/dist/index.d.ts</title>
<g id="a_node9"><a xlink:href="packages/project-config/dist/index.d.ts" xlink:title="index.d.ts">
<path fill="#ddfeff" stroke="black" d="M103.58,-246.75C103.58,-246.75 37.92,-246.75 37.92,-246.75 34.96,-246.75 32,-243.79 32,-240.83 32,-240.83 32,-234.92 32,-234.92 32,-231.96 34.96,-229 37.92,-229 37.92,-229 103.58,-229 103.58,-229 106.54,-229 109.5,-231.96 109.5,-234.92 109.5,-234.92 109.5,-240.83 109.5,-240.83 109.5,-243.79 106.54,-246.75 103.58,-246.75"/>
<text text-anchor="start" x="40" y="-235.2" font-family="Helvetica,sans-Serif" font-size="9.00">index.d.ts </text>
<text text-anchor="start" x="81.25" y="-235.2" font-family="Helvetica,sans-Serif" font-size="8.00" fill="#808080">100%</text>
</a>
</g>
</g>
<!-- packages/project&#45;config/dist/index.d.ts&#45;&gt;packages/project&#45;config/dist/config.d.ts -->
<g id="edge2" class="edge">
<title>packages/project&#45;config/dist/index.d.ts&#45;&gt;packages/project&#45;config/dist/config.d.ts</title>
<path fill="none" stroke="#000000" stroke-width="2" stroke-opacity="0.200000" d="M85.55,-228.67C95.53,-222.29 109.49,-213.88 122.5,-207.88 124.28,-207.06 126.11,-206.26 127.98,-205.48"/>
<polygon fill="#000000" fill-opacity="0.200000" stroke="#000000" stroke-width="2" stroke-opacity="0.200000" points="129.45,-207.38 134.28,-203.24 127.92,-203.47 129.45,-207.38"/>
</g>
<!-- packages/project&#45;config/dist/index.d.ts&#45;&gt;packages/project&#45;config/dist/configPath.d.ts -->
<g id="edge3" class="edge">
<title>packages/project&#45;config/dist/index.d.ts&#45;&gt;packages/project&#45;config/dist/configPath.d.ts</title>
<path fill="none" stroke="#000000" stroke-width="2" stroke-opacity="0.200000" d="M109.91,-231.82C111.04,-231.64 112.17,-231.46 113.3,-231.28"/>
<polygon fill="#000000" fill-opacity="0.200000" stroke="#000000" stroke-width="2" stroke-opacity="0.200000" points="114.45,-232.91 120.05,-229.89 113.8,-228.76 114.45,-232.91"/>
</g>
<!-- packages/project&#45;config/dist/index.d.ts&#45;&gt;packages/project&#45;config/dist/findUp.d.ts -->
<g id="edge4" class="edge">
<title>packages/project&#45;config/dist/index.d.ts&#45;&gt;packages/project&#45;config/dist/findUp.d.ts</title>
<path fill="none" stroke="#000000" stroke-width="2" stroke-opacity="0.200000" d="M109.91,-243.93C113.82,-244.55 117.82,-245.19 121.79,-245.82"/>
<polygon fill="#000000" fill-opacity="0.200000" stroke="#000000" stroke-width="2" stroke-opacity="0.200000" points="122.14,-248.32 128.39,-247.18 122.79,-244.17 122.14,-248.32"/>
</g>
<!-- packages/project&#45;config/dist/paths.d.ts -->
<g id="node10" class="node">
<title>packages/project&#45;config/dist/paths.d.ts</title>
<g id="a_node10"><a xlink:href="packages/project-config/dist/paths.d.ts" xlink:title="paths.d.ts">
<path fill="#ddfeff" stroke="black" d="M195.58,-291.75C195.58,-291.75 138.92,-291.75 138.92,-291.75 135.96,-291.75 133,-288.79 133,-285.83 133,-285.83 133,-279.92 133,-279.92 133,-276.96 135.96,-274 138.92,-274 138.92,-274 195.58,-274 195.58,-274 198.54,-274 201.5,-276.96 201.5,-279.92 201.5,-279.92 201.5,-285.83 201.5,-285.83 201.5,-288.79 198.54,-291.75 195.58,-291.75"/>
<text text-anchor="start" x="141" y="-280.2" font-family="Helvetica,sans-Serif" font-size="9.00">paths.d.ts </text>
<text text-anchor="start" x="182.25" y="-280.2" font-family="Helvetica,sans-Serif" font-size="8.00" fill="#808080">0%</text>
</a>
</g>
</g>
<!-- packages/project&#45;config/dist/index.d.ts&#45;&gt;packages/project&#45;config/dist/paths.d.ts -->
<g id="edge5" class="edge">
<title>packages/project&#45;config/dist/index.d.ts&#45;&gt;packages/project&#45;config/dist/paths.d.ts</title>
<path fill="none" stroke="#000000" stroke-width="2" stroke-opacity="0.200000" d="M85.55,-247.08C95.53,-253.46 109.49,-261.87 122.5,-267.88 124.28,-268.69 126.11,-269.49 127.98,-270.27"/>
<polygon fill="#000000" fill-opacity="0.200000" stroke="#000000" stroke-width="2" stroke-opacity="0.200000" points="127.92,-272.28 134.28,-272.51 129.45,-268.37 127.92,-272.28"/>
</g>
<!-- packages/project&#45;config/dist/index.js -->
<g id="node11" class="node">
<title>packages/project&#45;config/dist/index.js</title>
<g id="a_node11"><a xlink:href="packages/project-config/dist/index.js" xlink:title="index.js">
<path fill="#ffffcc" stroke="black" d="M99.83,-201.75C99.83,-201.75 41.67,-201.75 41.67,-201.75 38.71,-201.75 35.75,-198.79 35.75,-195.83 35.75,-195.83 35.75,-189.92 35.75,-189.92 35.75,-186.96 38.71,-184 41.67,-184 41.67,-184 99.83,-184 99.83,-184 102.79,-184 105.75,-186.96 105.75,-189.92 105.75,-189.92 105.75,-195.83 105.75,-195.83 105.75,-198.79 102.79,-201.75 99.83,-201.75"/>
<text text-anchor="start" x="43.75" y="-190.2" font-family="Helvetica,sans-Serif" font-size="9.00">index.js </text>
<text text-anchor="start" x="77.5" y="-190.2" font-family="Helvetica,sans-Serif" font-size="8.00" fill="#808080">100%</text>
</a>
</g>
</g>
<!-- packages/project&#45;config/dist/index.js&#45;&gt;fs -->
<g id="edge9" class="edge">
<title>packages/project&#45;config/dist/index.js&#45;&gt;fs</title>
<path fill="none" stroke="#000000" stroke-dasharray="5,2" stroke-opacity="0.200000" d="M89.08,-183.7C104.17,-175.72 126.18,-164.08 142.84,-155.26"/>
<polygon fill="#000000" fill-opacity="0.200000" stroke="#000000" stroke-opacity="0.200000" points="143.39,-156.82 147.71,-152.16 141.42,-153.11 143.39,-156.82"/>
</g>
<!-- packages/project&#45;config/dist/index.js&#45;&gt;node_modules/@iarna/toml -->
<g id="edge6" class="edge">
<title>packages/project&#45;config/dist/index.js&#45;&gt;node_modules/@iarna/toml</title>
<path fill="none" stroke="#000000" stroke-opacity="0.200000" d="M75.7,-183.59C82.64,-168.61 98.6,-139.62 122.5,-127.88 170.81,-104.14 235.27,-111.26 273.6,-118.87"/>
<polygon fill="#000000" fill-opacity="0.200000" stroke="#000000" stroke-opacity="0.200000" points="272.68,-121.03 278.98,-120.19 273.53,-116.92 272.68,-121.03"/>
</g>
<!-- packages/project&#45;config/dist/index.js&#45;&gt;node_modules/deepmerge -->
<g id="edge7" class="edge">
<title>packages/project&#45;config/dist/index.js&#45;&gt;node_modules/deepmerge</title>
<path fill="none" stroke="#000000" stroke-opacity="0.200000" d="M74.18,-183.71C79.5,-165.64 94.05,-125.59 122.5,-107.88 166.8,-80.28 229.22,-81.76 268.7,-86.46"/>
<polygon fill="#000000" fill-opacity="0.200000" stroke="#000000" stroke-opacity="0.200000" points="268.1,-88.63 274.31,-87.31 268.63,-84.46 268.1,-88.63"/>
</g>
<!-- packages/project&#45;config/dist/index.js&#45;&gt;node_modules/fast&#45;glob -->
<g id="edge8" class="edge">
<title>packages/project&#45;config/dist/index.js&#45;&gt;node_modules/fast&#45;glob</title>
<path fill="none" stroke="#000000" stroke-opacity="0.200000" d="M72.81,-183.61C75.88,-161.44 86.98,-105.26 122.5,-79.88 166.98,-48.09 233.79,-51.12 273.41,-56.68"/>
<polygon fill="#000000" fill-opacity="0.200000" stroke="#000000" stroke-opacity="0.200000" points="272.76,-58.86 279.01,-57.67 273.38,-54.7 272.76,-58.86"/>
</g>
<!-- packages/project&#45;config/dist/index.js&#45;&gt;node_modules/string&#45;env&#45;interpolation -->
<g id="edge11" class="edge">
<title>packages/project&#45;config/dist/index.js&#45;&gt;node_modules/string&#45;env&#45;interpolation</title>
<path fill="none" stroke="#000000" stroke-opacity="0.200000" d="M71.86,-183.6C72.72,-157.6 79.04,-83.68 122.5,-49.88 141.08,-35.42 198.88,-31.96 244.75,-31.63"/>
<polygon fill="#000000" fill-opacity="0.200000" stroke="#000000" stroke-opacity="0.200000" points="244.72,-33.73 250.71,-31.61 244.7,-29.53 244.72,-33.73"/>
</g>
<!-- path -->
<g id="node12" class="node">
<title>path</title>
<g id="a_node12"><a xlink:title="path">
<path fill="#ffffcc" stroke="grey" d="M188.33,-17.75C188.33,-17.75 146.17,-17.75 146.17,-17.75 143.21,-17.75 140.25,-14.79 140.25,-11.83 140.25,-11.83 140.25,-5.92 140.25,-5.92 140.25,-2.96 143.21,0 146.17,0 146.17,0 188.33,0 188.33,0 191.29,0 194.25,-2.96 194.25,-5.92 194.25,-5.92 194.25,-11.83 194.25,-11.83 194.25,-14.79 191.29,-17.75 188.33,-17.75"/>
<text text-anchor="middle" x="167.25" y="-5.2" font-family="Helvetica,sans-Serif" font-size="9.00" fill="grey">path</text>
</a>
</g>
</g>
<!-- packages/project&#45;config/dist/index.js&#45;&gt;path -->
<g id="edge10" class="edge">
<title>packages/project&#45;config/dist/index.js&#45;&gt;path</title>
<path fill="none" stroke="#000000" stroke-dasharray="5,2" stroke-opacity="0.200000" d="M71.93,-183.65C72.97,-156.17 79.69,-73.89 122.5,-26.88 125.62,-23.45 129.49,-20.66 133.63,-18.39"/>
<polygon fill="#000000" fill-opacity="0.200000" stroke="#000000" stroke-opacity="0.200000" points="134.32,-19.91 138.83,-15.42 132.51,-16.12 134.32,-19.91"/>
</g>
</g>
</svg>
