<?xml version="1.0" encoding="UTF-8" standalone="no"?>
<!DOCTYPE svg PUBLIC "-//W3C//DTD SVG 1.1//EN"
 "http://www.w3.org/Graphics/SVG/1.1/DTD/svg11.dtd">
<!-- Generated by graphviz version 7.1.0 (20230121.1956)
 -->
<!-- Title: dependency&#45;cruiser output Pages: 1 -->
<svg width="540pt" height="343pt"
 viewBox="0.00 0.00 540.00 343.20" xmlns="http://www.w3.org/2000/svg" xmlns:xlink="http://www.w3.org/1999/xlink">
<g id="graph0" class="graph" transform="scale(1 1) rotate(0) translate(4 339.2)">
<title>dependency&#45;cruiser output</title>
<polygon fill="white" stroke="none" points="-4,4 -4,-339.2 536,-339.2 536,4 -4,4"/>
<g id="clust1" class="cluster">
<title>cluster_node_modules</title>
<path fill="#ffffff" stroke="black" stroke-width="2" d="M268,-67.2C268,-67.2 371,-67.2 371,-67.2 377,-67.2 383,-73.2 383,-79.2 383,-79.2 383,-227.2 383,-227.2 383,-233.2 377,-239.2 371,-239.2 371,-239.2 268,-239.2 268,-239.2 262,-239.2 256,-233.2 256,-227.2 256,-227.2 256,-79.2 256,-79.2 256,-73.2 262,-67.2 268,-67.2"/>
<text text-anchor="middle" x="319.5" y="-228" font-family="Helvetica,sans-Serif" font-weight="bold" font-size="9.00">node_modules</text>
</g>
<g id="clust2" class="cluster">
<title>cluster_node_modules/@iarna</title>
<path fill="#ffffff" stroke="black" stroke-width="2" d="M296.5,-161.2C296.5,-161.2 342.5,-161.2 342.5,-161.2 348.5,-161.2 354.5,-167.2 354.5,-173.2 354.5,-173.2 354.5,-201.2 354.5,-201.2 354.5,-207.2 348.5,-213.2 342.5,-213.2 342.5,-213.2 296.5,-213.2 296.5,-213.2 290.5,-213.2 284.5,-207.2 284.5,-201.2 284.5,-201.2 284.5,-173.2 284.5,-173.2 284.5,-167.2 290.5,-161.2 296.5,-161.2"/>
<text text-anchor="middle" x="319.5" y="-202" font-family="Helvetica,sans-Serif" font-weight="bold" font-size="9.00">@iarna</text>
</g>
<g id="clust3" class="cluster">
<title>cluster_src</title>
<path fill="#ffffff" stroke="black" stroke-width="2" d="M20,-247.2C20,-247.2 458,-247.2 458,-247.2 464,-247.2 470,-253.2 470,-259.2 470,-259.2 470,-315.2 470,-315.2 470,-321.2 464,-327.2 458,-327.2 458,-327.2 20,-327.2 20,-327.2 14,-327.2 8,-321.2 8,-315.2 8,-315.2 8,-259.2 8,-259.2 8,-253.2 14,-247.2 20,-247.2"/>
<text text-anchor="middle" x="239" y="-316" font-family="Helvetica,sans-Serif" font-weight="bold" font-size="9.00">src</text>
</g>
<!-- fs -->
<g id="node1" class="node">
<title>fs</title>
<g id="a_node1"><a xlink:title="fs">
<path fill="#ffffcc" stroke="grey" d="M526,-273.2C526,-273.2 484,-273.2 484,-273.2 481,-273.2 478,-270.2 478,-267.2 478,-267.2 478,-261.2 478,-261.2 478,-258.2 481,-255.2 484,-255.2 484,-255.2 526,-255.2 526,-255.2 529,-255.2 532,-258.2 532,-261.2 532,-261.2 532,-267.2 532,-267.2 532,-270.2 529,-273.2 526,-273.2"/>
<text text-anchor="middle" x="505" y="-262" font-family="Helvetica,sans-Serif" font-size="9.00" fill="grey">fs</text>
</a>
</g>
</g>
<!-- node_modules/@iarna/toml -->
<g id="node2" class="node">
<title>node_modules/@iarna/toml</title>
<g id="a_node2"><a xlink:href="node_modules/@iarna/toml" xlink:title="toml">
<polygon fill="#c40b0a" fill-opacity="0.101961" stroke="black" points="346.5,-187.2 294.5,-187.2 292.5,-185.2 292.5,-169.2 344.5,-169.2 346.5,-171.2 346.5,-187.2"/>
<polyline fill="none" stroke="black" points="344.5,-185.2 292.5,-185.2"/>
<polyline fill="none" stroke="black" points="344.5,-185.2 344.5,-169.2"/>
<polyline fill="none" stroke="black" points="344.5,-185.2 346.5,-187.2"/>
<text text-anchor="start" x="310.5" y="-176" font-family="Helvetica,sans-Serif" font-size="9.00" fill="#c40b0a">toml</text>
</a>
</g>
</g>
<!-- node_modules/deepmerge -->
<g id="node3" class="node">
<title>node_modules/deepmerge</title>
<g id="a_node3"><a xlink:href="node_modules/deepmerge" xlink:title="deepmerge">
<polygon fill="#c40b0a" fill-opacity="0.101961" stroke="black" points="351.5,-153.2 289.5,-153.2 287.5,-151.2 287.5,-135.2 349.5,-135.2 351.5,-137.2 351.5,-153.2"/>
<polyline fill="none" stroke="black" points="349.5,-151.2 287.5,-151.2"/>
<polyline fill="none" stroke="black" points="349.5,-151.2 349.5,-135.2"/>
<polyline fill="none" stroke="black" points="349.5,-151.2 351.5,-153.2"/>
<text text-anchor="start" x="295.5" y="-142" font-family="Helvetica,sans-Serif" font-size="9.00" fill="#c40b0a">deepmerge</text>
</a>
</g>
</g>
<!-- node_modules/fast&#45;glob -->
<g id="node4" class="node">
<title>node_modules/fast&#45;glob</title>
<g id="a_node4"><a xlink:href="node_modules/fast-glob" xlink:title="fast&#45;glob">
<polygon fill="#c40b0a" fill-opacity="0.101961" stroke="black" points="346.5,-93.2 294.5,-93.2 292.5,-91.2 292.5,-75.2 344.5,-75.2 346.5,-77.2 346.5,-93.2"/>
<polyline fill="none" stroke="black" points="344.5,-91.2 292.5,-91.2"/>
<polyline fill="none" stroke="black" points="344.5,-91.2 344.5,-75.2"/>
<polyline fill="none" stroke="black" points="344.5,-91.2 346.5,-93.2"/>
<text text-anchor="start" x="301.5" y="-82" font-family="Helvetica,sans-Serif" font-size="9.00" fill="#c40b0a">fast&#45;glob</text>
</a>
</g>
</g>
<!-- node_modules/string&#45;env&#45;interpolation -->
<g id="node5" class="node">
<title>node_modules/string&#45;env&#45;interpolation</title>
<g id="a_node5"><a xlink:href="node_modules/string-env-interpolation" xlink:title="string&#45;env&#45;interpolation">
<polygon fill="#c40b0a" fill-opacity="0.101961" stroke="black" points="375,-123.2 266,-123.2 264,-121.2 264,-105.2 373,-105.2 375,-107.2 375,-123.2"/>
<polyline fill="none" stroke="black" points="373,-121.2 264,-121.2"/>
<polyline fill="none" stroke="black" points="373,-121.2 373,-105.2"/>
<polyline fill="none" stroke="black" points="373,-121.2 375,-123.2"/>
<text text-anchor="start" x="272" y="-112" font-family="Helvetica,sans-Serif" font-size="9.00" fill="#c40b0a">string&#45;env&#45;interpolation</text>
</a>
</g>
</g>
<!-- path -->
<g id="node6" class="node">
<title>path</title>
<g id="a_node6"><a xlink:title="path">
<path fill="#ffffcc" stroke="grey" d="M526,-139.2C526,-139.2 484,-139.2 484,-139.2 481,-139.2 478,-136.2 478,-133.2 478,-133.2 478,-127.2 478,-127.2 478,-124.2 481,-121.2 484,-121.2 484,-121.2 526,-121.2 526,-121.2 529,-121.2 532,-124.2 532,-127.2 532,-127.2 532,-133.2 532,-133.2 532,-136.2 529,-139.2 526,-139.2"/>
<text text-anchor="middle" x="505" y="-128" font-family="Helvetica,sans-Serif" font-size="9.00" fill="grey">path</text>
</a>
</g>
</g>
<!-- src/config.ts -->
<g id="node7" class="node">
<title>src/config.ts</title>
<g id="a_node7"><a xlink:href="src/config.ts" xlink:title="config.ts">
<path fill="#ddfeff" stroke="black" d="M242,-273.2C242,-273.2 185,-273.2 185,-273.2 182,-273.2 179,-270.2 179,-267.2 179,-267.2 179,-261.2 179,-261.2 179,-258.2 182,-255.2 185,-255.2 185,-255.2 242,-255.2 242,-255.2 245,-255.2 248,-258.2 248,-261.2 248,-261.2 248,-267.2 248,-267.2 248,-270.2 245,-273.2 242,-273.2"/>
<text text-anchor="start" x="187" y="-263" font-family="Helvetica,sans-Serif" font-size="9.00">config.ts </text>
<text text-anchor="start" x="224" y="-263" font-family="Helvetica,sans-Serif" font-size="8.00" fill="#808080">71%</text>
</a>
</g>
</g>
<!-- src/config.ts&#45;&gt;fs -->
<g id="edge4" class="edge">
<title>src/config.ts&#45;&gt;fs</title>
<path fill="none" stroke="#000000" stroke-dasharray="5,2" stroke-opacity="0.200000" d="M236.08,-273.59C242.38,-275.9 249.36,-278.03 256,-279.2 349.68,-295.61 376.93,-298.81 470,-279.2 473.21,-278.52 476.49,-277.52 479.68,-276.35"/>
<polygon fill="#000000" fill-opacity="0.200000" stroke="#000000" stroke-opacity="0.200000" points="480.3,-278.36 485.07,-274.16 478.72,-274.48 480.3,-278.36"/>
</g>
<!-- src/config.ts&#45;&gt;node_modules/@iarna/toml -->
<g id="edge2" class="edge">
<title>src/config.ts&#45;&gt;node_modules/@iarna/toml</title>
<path fill="none" stroke="#000000" stroke-opacity="0.200000" d="M225.63,-254.99C243.83,-239.94 280.08,-209.97 301.51,-192.25"/>
<polygon fill="#000000" fill-opacity="0.200000" stroke="#000000" stroke-opacity="0.200000" points="302.68,-194 305.97,-188.56 300.01,-190.76 302.68,-194"/>
</g>
<!-- src/config.ts&#45;&gt;node_modules/deepmerge -->
<g id="edge3" class="edge">
<title>src/config.ts&#45;&gt;node_modules/deepmerge</title>
<path fill="none" stroke="#000000" stroke-opacity="0.200000" d="M217.63,-254.76C225.89,-230.05 248.24,-164.85 256,-158.2 262.73,-152.43 271.32,-148.89 279.97,-146.76"/>
<polygon fill="#000000" fill-opacity="0.200000" stroke="#000000" stroke-opacity="0.200000" points="280.26,-148.84 285.72,-145.59 279.42,-144.73 280.26,-148.84"/>
</g>
<!-- src/config.ts&#45;&gt;node_modules/string&#45;env&#45;interpolation -->
<g id="edge5" class="edge">
<title>src/config.ts&#45;&gt;node_modules/string&#45;env&#45;interpolation</title>
<path fill="none" stroke="#000000" stroke-opacity="0.200000" d="M218.4,-254.74C225.21,-237.96 239.34,-201.78 248,-170.2 252.91,-152.29 243.16,-142.6 256,-129.2 256.56,-128.61 257.14,-128.05 257.73,-127.51"/>
<polygon fill="#000000" fill-opacity="0.200000" stroke="#000000" stroke-opacity="0.200000" points="258.77,-129.35 262.3,-124.06 256.24,-126 258.77,-129.35"/>
</g>
<!-- src/configPath.ts -->
<g id="node8" class="node">
<title>src/configPath.ts</title>
<g id="a_node8"><a xlink:href="src/configPath.ts" xlink:title="configPath.ts">
<path fill="#ddfeff" stroke="black" d="M357,-273.2C357,-273.2 282,-273.2 282,-273.2 279,-273.2 276,-270.2 276,-267.2 276,-267.2 276,-261.2 276,-261.2 276,-258.2 279,-255.2 282,-255.2 282,-255.2 357,-255.2 357,-255.2 360,-255.2 363,-258.2 363,-261.2 363,-261.2 363,-267.2 363,-267.2 363,-270.2 360,-273.2 357,-273.2"/>
<text text-anchor="start" x="284" y="-263" font-family="Helvetica,sans-Serif" font-size="9.00">configPath.ts </text>
<text text-anchor="start" x="339" y="-263" font-family="Helvetica,sans-Serif" font-size="8.00" fill="#808080">25%</text>
</a>
</g>
</g>
<!-- src/config.ts&#45;&gt;src/configPath.ts -->
<g id="edge1" class="edge">
<title>src/config.ts&#45;&gt;src/configPath.ts</title>
<path fill="none" stroke="#000000" stroke-width="2" stroke-opacity="0.200000" d="M248.27,-264.2C254.3,-264.2 260.71,-264.2 267.11,-264.2"/>
<polygon fill="#000000" fill-opacity="0.200000" stroke="#000000" stroke-width="2" stroke-opacity="0.200000" points="266.76,-266.3 272.76,-264.2 266.76,-262.1 266.76,-266.3"/>
</g>
<!-- src/findUp.ts -->
<g id="node9" class="node">
<title>src/findUp.ts</title>
<g id="a_node9"><a xlink:href="src/findUp.ts" xlink:title="findUp.ts">
<path fill="#ddfeff" stroke="black" d="M456,-273.2C456,-273.2 397,-273.2 397,-273.2 394,-273.2 391,-270.2 391,-267.2 391,-267.2 391,-261.2 391,-261.2 391,-258.2 394,-255.2 397,-255.2 397,-255.2 456,-255.2 456,-255.2 459,-255.2 462,-258.2 462,-261.2 462,-261.2 462,-267.2 462,-267.2 462,-270.2 459,-273.2 456,-273.2"/>
<text text-anchor="start" x="399" y="-263" font-family="Helvetica,sans-Serif" font-size="9.00">findUp.ts </text>
<text text-anchor="start" x="438" y="-263" font-family="Helvetica,sans-Serif" font-size="8.00" fill="#808080">67%</text>
</a>
</g>
</g>
<!-- src/configPath.ts&#45;&gt;src/findUp.ts -->
<g id="edge6" class="edge">
<title>src/configPath.ts&#45;&gt;src/findUp.ts</title>
<path fill="none" stroke="#000000" stroke-width="2" stroke-opacity="0.200000" d="M363.21,-264.2C369.31,-264.2 375.6,-264.2 381.72,-264.2"/>
<polygon fill="#000000" fill-opacity="0.200000" stroke="#000000" stroke-width="2" stroke-opacity="0.200000" points="381.51,-266.3 387.51,-264.2 381.51,-262.1 381.51,-266.3"/>
</g>
<!-- src/findUp.ts&#45;&gt;fs -->
<g id="edge7" class="edge">
<title>src/findUp.ts&#45;&gt;fs</title>
<path fill="none" stroke="#000000" stroke-dasharray="5,2" stroke-opacity="0.200000" d="M462.17,-264.2C464.94,-264.2 467.74,-264.2 470.5,-264.2"/>
<polygon fill="#000000" fill-opacity="0.200000" stroke="#000000" stroke-opacity="0.200000" points="470.19,-266.3 476.19,-264.2 470.19,-262.1 470.19,-266.3"/>
</g>
<!-- src/findUp.ts&#45;&gt;path -->
<g id="edge8" class="edge">
<title>src/findUp.ts&#45;&gt;path</title>
<path fill="none" stroke="#000000" stroke-dasharray="5,2" stroke-opacity="0.200000" d="M432.76,-254.99C445.64,-232.42 478.9,-174.16 495,-145.95"/>
<polygon fill="#000000" fill-opacity="0.200000" stroke="#000000" stroke-opacity="0.200000" points="496.8,-147.04 497.95,-140.79 493.16,-144.95 496.8,-147.04"/>
</g>
<!-- src/index.ts -->
<g id="node10" class="node">
<title>src/index.ts</title>
<g id="a_node10"><a xlink:href="src/index.ts" xlink:title="index.ts">
<path fill="#ddfeff" stroke="black" d="M81,-295.2C81,-295.2 22,-295.2 22,-295.2 19,-295.2 16,-292.2 16,-289.2 16,-289.2 16,-283.2 16,-283.2 16,-280.2 19,-277.2 22,-277.2 22,-277.2 81,-277.2 81,-277.2 84,-277.2 87,-280.2 87,-283.2 87,-283.2 87,-289.2 87,-289.2 87,-292.2 84,-295.2 81,-295.2"/>
<text text-anchor="start" x="24" y="-285" font-family="Helvetica,sans-Serif" font-size="9.00">index.ts </text>
<text text-anchor="start" x="58" y="-285" font-family="Helvetica,sans-Serif" font-size="8.00" fill="#808080">100%</text>
</a>
</g>
</g>
<!-- src/index.ts&#45;&gt;src/config.ts -->
<g id="edge9" class="edge">
<title>src/index.ts&#45;&gt;src/config.ts</title>
<path fill="none" stroke="#000000" stroke-width="2" stroke-opacity="0.200000" d="M87.3,-286.3C109.9,-285.81 139.91,-284.13 166,-279.2 170.16,-278.41 174.46,-277.36 178.69,-276.18"/>
<polygon fill="#000000" fill-opacity="0.200000" stroke="#000000" stroke-width="2" stroke-opacity="0.200000" points="179.18,-278.23 184.32,-274.49 177.97,-274.21 179.18,-278.23"/>
</g>
<!-- src/index.ts&#45;&gt;src/configPath.ts -->
<g id="edge10" class="edge">
<title>src/index.ts&#45;&gt;src/configPath.ts</title>
<path fill="none" stroke="#000000" stroke-width="2" stroke-opacity="0.200000" d="M87.34,-288.76C126.63,-290.97 192.29,-292.64 248,-284.2 259.51,-282.45 271.81,-279.4 282.85,-276.19"/>
<polygon fill="#000000" fill-opacity="0.200000" stroke="#000000" stroke-width="2" stroke-opacity="0.200000" points="283.36,-278.23 288.5,-274.49 282.15,-274.21 283.36,-278.23"/>
</g>
<!-- src/paths.ts -->
<g id="node11" class="node">
<title>src/paths.ts</title>
<g id="a_node11"><a xlink:href="src/paths.ts" xlink:title="paths.ts">
<path fill="#ddfeff" stroke="black" d="M160,-273.2C160,-273.2 106,-273.2 106,-273.2 103,-273.2 100,-270.2 100,-267.2 100,-267.2 100,-261.2 100,-261.2 100,-258.2 103,-255.2 106,-255.2 106,-255.2 160,-255.2 160,-255.2 163,-255.2 166,-258.2 166,-261.2 166,-261.2 166,-267.2 166,-267.2 166,-270.2 163,-273.2 160,-273.2"/>
<text text-anchor="start" x="108" y="-263" font-family="Helvetica,sans-Serif" font-size="9.00">paths.ts </text>
<text text-anchor="start" x="142" y="-263" font-family="Helvetica,sans-Serif" font-size="8.00" fill="#808080">83%</text>
</a>
</g>
</g>
<!-- src/index.ts&#45;&gt;src/paths.ts -->
<g id="edge11" class="edge">
<title>src/index.ts&#45;&gt;src/paths.ts</title>
<path fill="none" stroke="#000000" stroke-width="2" stroke-opacity="0.200000" d="M86.68,-276.74C88.15,-276.33 89.64,-275.92 91.13,-275.51"/>
<polygon fill="#000000" fill-opacity="0.200000" stroke="#000000" stroke-width="2" stroke-opacity="0.200000" points="91.47,-277.59 96.7,-273.97 90.35,-273.54 91.47,-277.59"/>
</g>
<!-- src/paths.ts&#45;&gt;fs -->
<g id="edge15" class="edge">
<title>src/paths.ts&#45;&gt;fs</title>
<path fill="none" stroke="#000000" stroke-dasharray="5,2" stroke-opacity="0.200000" d="M134.05,-254.96C134.67,-228.17 139.9,-149.41 179,-102.2 203.34,-72.8 218.84,-72.87 256,-64.2 310.97,-51.37 333.83,-36.48 383,-64.2 454.92,-104.74 488.95,-207.15 499.89,-247.49"/>
<polygon fill="#000000" fill-opacity="0.200000" stroke="#000000" stroke-opacity="0.200000" points="497.84,-247.96 501.39,-253.23 501.9,-246.9 497.84,-247.96"/>
</g>
<!-- src/paths.ts&#45;&gt;node_modules/fast&#45;glob -->
<g id="edge14" class="edge">
<title>src/paths.ts&#45;&gt;node_modules/fast&#45;glob</title>
<path fill="none" stroke="#000000" stroke-opacity="0.200000" d="M137.99,-254.94C150.69,-226.68 193.03,-140.89 256,-99.2 264.61,-93.5 275.16,-89.96 285.13,-87.76"/>
<polygon fill="#000000" fill-opacity="0.200000" stroke="#000000" stroke-opacity="0.200000" points="285.26,-89.87 290.76,-86.67 284.47,-85.75 285.26,-89.87"/>
</g>
<!-- src/paths.ts&#45;&gt;path -->
<g id="edge16" class="edge">
<title>src/paths.ts&#45;&gt;path</title>
<path fill="none" stroke="#000000" stroke-dasharray="5,2" stroke-opacity="0.200000" d="M134.77,-254.74C137.91,-218.59 150.92,-89.88 179,-62.2 271.11,28.61 367.36,12.51 470,-66.2 485.47,-78.06 494.67,-99.02 499.52,-113.71"/>
<polygon fill="#000000" fill-opacity="0.200000" stroke="#000000" stroke-opacity="0.200000" points="497.47,-114.17 501.23,-119.29 501.48,-112.94 497.47,-114.17"/>
</g>
<!-- src/paths.ts&#45;&gt;src/config.ts -->
<g id="edge12" class="edge">
<title>src/paths.ts&#45;&gt;src/config.ts</title>
<path fill="none" stroke="#000000" stroke-width="2" stroke-opacity="0.200000" d="M166.38,-264.2C167.52,-264.2 168.67,-264.2 169.82,-264.2"/>
<polygon fill="#000000" fill-opacity="0.200000" stroke="#000000" stroke-width="2" stroke-opacity="0.200000" points="169.64,-266.3 175.64,-264.2 169.64,-262.1 169.64,-266.3"/>
</g>
<!-- src/paths.ts&#45;&gt;src/configPath.ts -->
<g id="edge13" class="edge">
<title>src/paths.ts&#45;&gt;src/configPath.ts</title>
<path fill="none" stroke="#000000" stroke-width="2" stroke-opacity="0.200000" d="M157.46,-273.6C164.29,-275.9 171.85,-278.04 179,-279.2 209.27,-284.11 217.5,-282.4 248,-279.2 255.95,-278.36 264.32,-277.01 272.41,-275.45"/>
<polygon fill="#000000" fill-opacity="0.200000" stroke="#000000" stroke-width="2" stroke-opacity="0.200000" points="272.62,-277.55 278.08,-274.29 271.78,-273.43 272.62,-277.55"/>
</g>
</g>
</svg>
