<?xml version="1.0" encoding="UTF-8" standalone="no"?>
<!DOCTYPE svg PUBLIC "-//W3C//DTD SVG 1.1//EN"
 "http://www.w3.org/Graphics/SVG/1.1/DTD/svg11.dtd">
<!-- Generated by graphviz version 7.1.0 (20230121.1956)
 -->
<!-- Title: dependency&#45;cruiser output Pages: 1 -->
<svg width="527pt" height="306pt"
 viewBox="0.00 0.00 527.00 306.00" xmlns="http://www.w3.org/2000/svg" xmlns:xlink="http://www.w3.org/1999/xlink">
<g id="graph0" class="graph" transform="scale(1 1) rotate(0) translate(4 302)">
<title>dependency&#45;cruiser output</title>
<polygon fill="white" stroke="none" points="-4,4 -4,-302 523,-302 523,4 -4,4"/>
<g id="clust1" class="cluster">
<title>cluster_dist</title>
<path fill="#ffffff" stroke="black" stroke-width="2" d="M20,-118C20,-118 364,-118 364,-118 370,-118 376,-124 376,-130 376,-130 376,-278 376,-278 376,-284 370,-290 364,-290 364,-290 20,-290 20,-290 14,-290 8,-284 8,-278 8,-278 8,-130 8,-130 8,-124 14,-118 20,-118"/>
<text text-anchor="middle" x="192" y="-278.8" font-family="Helvetica,sans-Serif" font-weight="bold" font-size="9.00">dist</text>
</g>
<g id="clust2" class="cluster">
<title>cluster_node_modules</title>
<path fill="#ffffff" stroke="black" stroke-width="2" d="M396,-8C396,-8 499,-8 499,-8 505,-8 511,-14 511,-20 511,-20 511,-254 511,-254 511,-260 505,-266 499,-266 499,-266 396,-266 396,-266 390,-266 384,-260 384,-254 384,-254 384,-20 384,-20 384,-14 390,-8 396,-8"/>
<text text-anchor="middle" x="447.5" y="-254.8" font-family="Helvetica,sans-Serif" font-weight="bold" font-size="9.00">node_modules</text>
</g>
<g id="clust3" class="cluster">
<title>cluster_node_modules/@babel</title>
<path fill="#ffffff" stroke="black" stroke-width="2" d="M411.5,-102C411.5,-102 483.5,-102 483.5,-102 489.5,-102 495.5,-108 495.5,-114 495.5,-114 495.5,-142 495.5,-142 495.5,-148 489.5,-154 483.5,-154 483.5,-154 411.5,-154 411.5,-154 405.5,-154 399.5,-148 399.5,-142 399.5,-142 399.5,-114 399.5,-114 399.5,-108 405.5,-102 411.5,-102"/>
<text text-anchor="middle" x="447.5" y="-142.8" font-family="Helvetica,sans-Serif" font-weight="bold" font-size="9.00">@babel</text>
</g>
<g id="clust4" class="cluster">
<title>cluster_node_modules/@iarna</title>
<path fill="#ffffff" stroke="black" stroke-width="2" d="M424.5,-162C424.5,-162 470.5,-162 470.5,-162 476.5,-162 482.5,-168 482.5,-174 482.5,-174 482.5,-202 482.5,-202 482.5,-208 476.5,-214 470.5,-214 470.5,-214 424.5,-214 424.5,-214 418.5,-214 412.5,-208 412.5,-202 412.5,-202 412.5,-174 412.5,-174 412.5,-168 418.5,-162 424.5,-162"/>
<text text-anchor="middle" x="447.5" y="-202.8" font-family="Helvetica,sans-Serif" font-weight="bold" font-size="9.00">@iarna</text>
</g>
<!-- dist/config.d.ts -->
<g id="node1" class="node">
<title>dist/config.d.ts</title>
<g id="a_node1"><a xlink:href="dist/config.d.ts" xlink:title="config.d.ts">
<path fill="#ccffcc" stroke="black" d="M91.5,-264C91.5,-264 31.5,-264 31.5,-264 28.5,-264 25.5,-261 25.5,-258 25.5,-258 25.5,-252 25.5,-252 25.5,-249 28.5,-246 31.5,-246 31.5,-246 91.5,-246 91.5,-246 94.5,-246 97.5,-249 97.5,-252 97.5,-252 97.5,-258 97.5,-258 97.5,-261 94.5,-264 91.5,-264"/>
<text text-anchor="start" x="33.5" y="-253.8" font-family="Helvetica,sans-Serif" font-size="9.00">config.d.ts </text>
<text text-anchor="start" x="77.5" y="-253.8" font-family="Helvetica,sans-Serif" font-size="8.00" fill="#808080">0%</text>
</a>
</g>
</g>
<!-- dist/config.js -->
<g id="node2" class="node">
<title>dist/config.js</title>
<g id="a_node2"><a xlink:href="dist/config.js" xlink:title="config.js">
<path fill="#ffffcc" stroke="black" d="M262,-152C262,-152 205,-152 205,-152 202,-152 199,-149 199,-146 199,-146 199,-140 199,-140 199,-137 202,-134 205,-134 205,-134 262,-134 262,-134 265,-134 268,-137 268,-140 268,-140 268,-146 268,-146 268,-149 265,-152 262,-152"/>
<text text-anchor="start" x="207" y="-141.8" font-family="Helvetica,sans-Serif" font-size="9.00">config.js </text>
<text text-anchor="start" x="244" y="-141.8" font-family="Helvetica,sans-Serif" font-size="8.00" fill="#808080">70%</text>
</a>
</g>
</g>
<!-- dist/configPath.js -->
<g id="node3" class="node">
<title>dist/configPath.js</title>
<g id="a_node3"><a xlink:href="dist/configPath.js" xlink:title="configPath.js">
<path fill="#ffffcc" stroke="black" d="M362,-216C362,-216 287,-216 287,-216 284,-216 281,-213 281,-210 281,-210 281,-204 281,-204 281,-201 284,-198 287,-198 287,-198 362,-198 362,-198 365,-198 368,-201 368,-204 368,-204 368,-210 368,-210 368,-213 365,-216 362,-216"/>
<text text-anchor="start" x="289" y="-205.8" font-family="Helvetica,sans-Serif" font-size="9.00">configPath.js </text>
<text text-anchor="start" x="344" y="-205.8" font-family="Helvetica,sans-Serif" font-size="8.00" fill="#808080">43%</text>
</a>
</g>
</g>
<!-- dist/config.js&#45;&gt;dist/configPath.js -->
<g id="edge1" class="edge">
<title>dist/config.js&#45;&gt;dist/configPath.js</title>
<path fill="none" stroke="#000000" stroke-width="2" stroke-opacity="0.200000" d="M256.83,-152.37C260.89,-154.77 264.83,-157.64 268,-161 277.41,-170.98 271.13,-179.46 281,-189 282.56,-190.51 284.27,-191.9 286.08,-193.19"/>
<polygon fill="#000000" fill-opacity="0.200000" stroke="#000000" stroke-width="2" stroke-opacity="0.200000" points="284.61,-194.75 290.83,-196.04 286.77,-191.15 284.61,-194.75"/>
</g>
<!-- node_modules/@babel/runtime&#45;corejs3 -->
<g id="node4" class="node">
<title>node_modules/@babel/runtime&#45;corejs3</title>
<g id="a_node4"><a xlink:href="node_modules/@babel/runtime-corejs3" xlink:title="runtime&#45;corejs3">
<polygon fill="#c40b0a" fill-opacity="0.101961" stroke="black" points="487.5,-128 409.5,-128 407.5,-126 407.5,-110 485.5,-110 487.5,-112 487.5,-128"/>
<polyline fill="none" stroke="black" points="485.5,-126 407.5,-126"/>
<polyline fill="none" stroke="black" points="485.5,-126 485.5,-110"/>
<polyline fill="none" stroke="black" points="485.5,-126 487.5,-128"/>
<text text-anchor="start" x="415.5" y="-116.8" font-family="Helvetica,sans-Serif" font-size="9.00" fill="#c40b0a">runtime&#45;corejs3</text>
</a>
</g>
</g>
<!-- dist/config.js&#45;&gt;node_modules/@babel/runtime&#45;corejs3 -->
<g id="edge2" class="edge">
<title>dist/config.js&#45;&gt;node_modules/@babel/runtime&#45;corejs3</title>
<path fill="none" stroke="#000000" stroke-opacity="0.200000" d="M268.42,-143.53C297.2,-143.51 339.51,-142.37 376,-137 386.56,-135.45 397.83,-132.96 408.19,-130.32"/>
<polygon fill="#000000" fill-opacity="0.200000" stroke="#000000" stroke-opacity="0.200000" points="408.46,-132.42 413.73,-128.86 407.4,-128.36 408.46,-132.42"/>
</g>
<!-- node_modules/@iarna/toml -->
<g id="node5" class="node">
<title>node_modules/@iarna/toml</title>
<g id="a_node5"><a xlink:href="node_modules/@iarna/toml" xlink:title="toml">
<polygon fill="#c40b0a" fill-opacity="0.101961" stroke="black" points="474.5,-188 422.5,-188 420.5,-186 420.5,-170 472.5,-170 474.5,-172 474.5,-188"/>
<polyline fill="none" stroke="black" points="472.5,-186 420.5,-186"/>
<polyline fill="none" stroke="black" points="472.5,-186 472.5,-170"/>
<polyline fill="none" stroke="black" points="472.5,-186 474.5,-188"/>
<text text-anchor="start" x="438.5" y="-176.8" font-family="Helvetica,sans-Serif" font-size="9.00" fill="#c40b0a">toml</text>
</a>
</g>
</g>
<!-- dist/config.js&#45;&gt;node_modules/@iarna/toml -->
<g id="edge3" class="edge">
<title>dist/config.js&#45;&gt;node_modules/@iarna/toml</title>
<path fill="none" stroke="#000000" stroke-opacity="0.200000" d="M268.09,-148.7C307.77,-155.44 373.38,-166.58 413.01,-173.31"/>
<polygon fill="#000000" fill-opacity="0.200000" stroke="#000000" stroke-opacity="0.200000" points="412.34,-175.33 418.61,-174.26 413.04,-171.19 412.34,-175.33"/>
</g>
<!-- node_modules/deepmerge -->
<g id="node6" class="node">
<title>node_modules/deepmerge</title>
<g id="a_node6"><a xlink:href="node_modules/deepmerge" xlink:title="deepmerge">
<polygon fill="#c40b0a" fill-opacity="0.101961" stroke="black" points="479.5,-64 417.5,-64 415.5,-62 415.5,-46 477.5,-46 479.5,-48 479.5,-64"/>
<polyline fill="none" stroke="black" points="477.5,-62 415.5,-62"/>
<polyline fill="none" stroke="black" points="477.5,-62 477.5,-46"/>
<polyline fill="none" stroke="black" points="477.5,-62 479.5,-64"/>
<text text-anchor="start" x="423.5" y="-52.8" font-family="Helvetica,sans-Serif" font-size="9.00" fill="#c40b0a">deepmerge</text>
</a>
</g>
</g>
<!-- dist/config.js&#45;&gt;node_modules/deepmerge -->
<g id="edge4" class="edge">
<title>dist/config.js&#45;&gt;node_modules/deepmerge</title>
<path fill="none" stroke="#000000" stroke-opacity="0.200000" d="M246.08,-133.65C255.11,-126.77 268.23,-117.67 281,-112 320.8,-94.33 342.69,-116.06 376,-88 382.7,-82.36 377.27,-75.6 384,-70 390.77,-64.37 399.3,-60.78 407.87,-58.52"/>
<polygon fill="#000000" fill-opacity="0.200000" stroke="#000000" stroke-opacity="0.200000" points="408.16,-60.6 413.56,-57.24 407.25,-56.51 408.16,-60.6"/>
</g>
<!-- fs -->
<g id="node7" class="node">
<title>fs</title>
<g id="a_node7"><a xlink:title="fs">
<path fill="#ffffcc" stroke="grey" d="M345.5,-82C345.5,-82 303.5,-82 303.5,-82 300.5,-82 297.5,-79 297.5,-76 297.5,-76 297.5,-70 297.5,-70 297.5,-67 300.5,-64 303.5,-64 303.5,-64 345.5,-64 345.5,-64 348.5,-64 351.5,-67 351.5,-70 351.5,-70 351.5,-76 351.5,-76 351.5,-79 348.5,-82 345.5,-82"/>
<text text-anchor="middle" x="324.5" y="-70.8" font-family="Helvetica,sans-Serif" font-size="9.00" fill="grey">fs</text>
</a>
</g>
</g>
<!-- dist/config.js&#45;&gt;fs -->
<g id="edge5" class="edge">
<title>dist/config.js&#45;&gt;fs</title>
<path fill="none" stroke="#000000" stroke-dasharray="5,2" stroke-opacity="0.200000" d="M248.67,-133.62C255.12,-128.88 262.51,-122.7 268,-116 275.93,-106.31 271.8,-99.5 281,-91 283.8,-88.42 287.02,-86.17 290.42,-84.23"/>
<polygon fill="#000000" fill-opacity="0.200000" stroke="#000000" stroke-opacity="0.200000" points="291.33,-86.12 295.74,-81.54 289.44,-82.37 291.33,-86.12"/>
</g>
<!-- node_modules/string&#45;env&#45;interpolation -->
<g id="node8" class="node">
<title>node_modules/string&#45;env&#45;interpolation</title>
<g id="a_node8"><a xlink:href="node_modules/string-env-interpolation" xlink:title="string&#45;env&#45;interpolation">
<polygon fill="#c40b0a" fill-opacity="0.101961" stroke="black" points="503,-94 394,-94 392,-92 392,-76 501,-76 503,-78 503,-94"/>
<polyline fill="none" stroke="black" points="501,-92 392,-92"/>
<polyline fill="none" stroke="black" points="501,-92 501,-76"/>
<polyline fill="none" stroke="black" points="501,-92 503,-94"/>
<text text-anchor="start" x="400" y="-82.8" font-family="Helvetica,sans-Serif" font-size="9.00" fill="#c40b0a">string&#45;env&#45;interpolation</text>
</a>
</g>
</g>
<!-- dist/config.js&#45;&gt;node_modules/string&#45;env&#45;interpolation -->
<g id="edge6" class="edge">
<title>dist/config.js&#45;&gt;node_modules/string&#45;env&#45;interpolation</title>
<path fill="none" stroke="#000000" stroke-opacity="0.200000" d="M268.28,-138.31C304.39,-132.79 358.78,-122.85 376,-111 381.28,-107.37 378.72,-102.63 384,-99 384.46,-98.68 384.93,-98.37 385.41,-98.07"/>
<polygon fill="#000000" fill-opacity="0.200000" stroke="#000000" stroke-opacity="0.200000" points="386.32,-99.96 390.56,-95.22 384.29,-96.29 386.32,-99.96"/>
</g>
<!-- dist/configPath.js&#45;&gt;node_modules/@babel/runtime&#45;corejs3 -->
<g id="edge7" class="edge">
<title>dist/configPath.js&#45;&gt;node_modules/@babel/runtime&#45;corejs3</title>
<path fill="none" stroke="#000000" stroke-opacity="0.200000" d="M335.98,-197.76C347.46,-187.8 366.57,-171.66 384,-159 397.02,-149.55 412.2,-139.8 424.35,-132.29"/>
<polygon fill="#000000" fill-opacity="0.200000" stroke="#000000" stroke-opacity="0.200000" points="425.44,-134.08 429.46,-129.16 423.25,-130.5 425.44,-134.08"/>
</g>
<!-- node_modules/findup&#45;sync -->
<g id="node10" class="node">
<title>node_modules/findup&#45;sync</title>
<g id="a_node10"><a xlink:href="node_modules/findup-sync" xlink:title="findup&#45;sync">
<polygon fill="#c40b0a" fill-opacity="0.101961" stroke="black" points="479.5,-240 417.5,-240 415.5,-238 415.5,-222 477.5,-222 479.5,-224 479.5,-240"/>
<polyline fill="none" stroke="black" points="477.5,-238 415.5,-238"/>
<polyline fill="none" stroke="black" points="477.5,-238 477.5,-222"/>
<polyline fill="none" stroke="black" points="477.5,-238 479.5,-240"/>
<text text-anchor="start" x="423.5" y="-228.8" font-family="Helvetica,sans-Serif" font-size="9.00" fill="#c40b0a">findup&#45;sync</text>
</a>
</g>
</g>
<!-- dist/configPath.js&#45;&gt;node_modules/findup&#45;sync -->
<g id="edge8" class="edge">
<title>dist/configPath.js&#45;&gt;node_modules/findup&#45;sync</title>
<path fill="none" stroke="#000000" stroke-opacity="0.200000" d="M368.16,-215.46C381.13,-218.03 395.3,-220.84 407.98,-223.36"/>
<polygon fill="#000000" fill-opacity="0.200000" stroke="#000000" stroke-opacity="0.200000" points="407.47,-225.4 413.76,-224.51 408.29,-221.28 407.47,-225.4"/>
</g>
<!-- dist/configPath.d.ts -->
<g id="node9" class="node">
<title>dist/configPath.d.ts</title>
<g id="a_node9"><a xlink:href="dist/configPath.d.ts" xlink:title="configPath.d.ts">
<path fill="#ccffcc" stroke="black" d="M101,-234C101,-234 22,-234 22,-234 19,-234 16,-231 16,-228 16,-228 16,-222 16,-222 16,-219 19,-216 22,-216 22,-216 101,-216 101,-216 104,-216 107,-219 107,-222 107,-222 107,-228 107,-228 107,-231 104,-234 101,-234"/>
<text text-anchor="start" x="24" y="-223.8" font-family="Helvetica,sans-Serif" font-size="9.00">configPath.d.ts </text>
<text text-anchor="start" x="87" y="-223.8" font-family="Helvetica,sans-Serif" font-size="8.00" fill="#808080">0%</text>
</a>
</g>
</g>
<!-- dist/index.d.ts -->
<g id="node11" class="node">
<title>dist/index.d.ts</title>
<g id="a_node11"><a xlink:href="dist/index.d.ts" xlink:title="index.d.ts">
<path fill="#ddfeff" stroke="black" d="M95,-204C95,-204 28,-204 28,-204 25,-204 22,-201 22,-198 22,-198 22,-192 22,-192 22,-189 25,-186 28,-186 28,-186 95,-186 95,-186 98,-186 101,-189 101,-192 101,-192 101,-198 101,-198 101,-201 98,-204 95,-204"/>
<text text-anchor="start" x="30" y="-193.8" font-family="Helvetica,sans-Serif" font-size="9.00">index.d.ts </text>
<text text-anchor="start" x="72" y="-193.8" font-family="Helvetica,sans-Serif" font-size="8.00" fill="#808080">100%</text>
</a>
</g>
</g>
<!-- dist/index.d.ts&#45;&gt;dist/config.js -->
<g id="edge9" class="edge">
<title>dist/index.d.ts&#45;&gt;dist/config.js</title>
<path fill="none" stroke="#000000" stroke-width="2" stroke-opacity="0.200000" d="M96.71,-185.5C121.57,-178.48 155.99,-168.53 186,-159 189.76,-157.8 193.68,-156.52 197.58,-155.21"/>
<polygon fill="#000000" fill-opacity="0.200000" stroke="#000000" stroke-width="2" stroke-opacity="0.200000" points="198.14,-157.24 203.15,-153.33 196.79,-153.27 198.14,-157.24"/>
</g>
<!-- dist/index.d.ts&#45;&gt;dist/configPath.js -->
<g id="edge10" class="edge">
<title>dist/index.d.ts&#45;&gt;dist/configPath.js</title>
<path fill="none" stroke="#000000" stroke-width="2" stroke-opacity="0.200000" d="M101.29,-196.78C146.57,-198.87 221.63,-202.32 271.82,-204.62"/>
<polygon fill="#000000" fill-opacity="0.200000" stroke="#000000" stroke-width="2" stroke-opacity="0.200000" points="271.47,-206.71 277.56,-204.89 271.66,-202.51 271.47,-206.71"/>
</g>
<!-- dist/paths.js -->
<g id="node12" class="node">
<title>dist/paths.js</title>
<g id="a_node12"><a xlink:href="dist/paths.js" xlink:title="paths.js">
<path fill="#ffffcc" stroke="black" d="M180,-146C180,-146 126,-146 126,-146 123,-146 120,-143 120,-140 120,-140 120,-134 120,-134 120,-131 123,-128 126,-128 126,-128 180,-128 180,-128 183,-128 186,-131 186,-134 186,-134 186,-140 186,-140 186,-143 183,-146 180,-146"/>
<text text-anchor="start" x="128" y="-135.8" font-family="Helvetica,sans-Serif" font-size="9.00">paths.js </text>
<text text-anchor="start" x="162" y="-135.8" font-family="Helvetica,sans-Serif" font-size="8.00" fill="#808080">83%</text>
</a>
</g>
</g>
<!-- dist/index.d.ts&#45;&gt;dist/paths.js -->
<g id="edge11" class="edge">
<title>dist/index.d.ts&#45;&gt;dist/paths.js</title>
<path fill="none" stroke="#000000" stroke-width="2" stroke-opacity="0.200000" d="M95.79,-185.59C99.69,-183.97 103.51,-182.11 107,-180 118.82,-172.85 130.06,-162.12 138.34,-153.17"/>
<polygon fill="#000000" fill-opacity="0.200000" stroke="#000000" stroke-width="2" stroke-opacity="0.200000" points="139.87,-154.61 142.3,-148.73 136.74,-151.81 139.87,-154.61"/>
</g>
<!-- dist/paths.js&#45;&gt;dist/config.js -->
<g id="edge16" class="edge">
<title>dist/paths.js&#45;&gt;dist/config.js</title>
<path fill="none" stroke="#000000" stroke-width="2" stroke-opacity="0.200000" d="M186.38,-139.48C187.52,-139.56 188.67,-139.65 189.82,-139.74"/>
<polygon fill="#000000" fill-opacity="0.200000" stroke="#000000" stroke-width="2" stroke-opacity="0.200000" points="189.51,-141.82 195.65,-140.18 189.83,-137.63 189.51,-141.82"/>
</g>
<!-- dist/paths.js&#45;&gt;dist/configPath.js -->
<g id="edge17" class="edge">
<title>dist/paths.js&#45;&gt;dist/configPath.js</title>
<path fill="none" stroke="#000000" stroke-width="2" stroke-opacity="0.200000" d="M172.05,-146.41C180.14,-150.37 189.89,-154.79 199,-158 228.79,-168.51 238.7,-163.22 268,-175 279.89,-179.78 292.32,-186.74 302.39,-192.95"/>
<polygon fill="#000000" fill-opacity="0.200000" stroke="#000000" stroke-width="2" stroke-opacity="0.200000" points="301.16,-194.65 307.35,-196.09 303.41,-191.1 301.16,-194.65"/>
</g>
<!-- dist/paths.js&#45;&gt;node_modules/@babel/runtime&#45;corejs3 -->
<g id="edge18" class="edge">
<title>dist/paths.js&#45;&gt;node_modules/@babel/runtime&#45;corejs3</title>
<path fill="none" stroke="#000000" stroke-opacity="0.200000" d="M156.95,-127.83C162.46,-112.35 175.91,-81.3 199,-67 230.17,-47.7 244.39,-60 281,-58 323.16,-55.69 343.78,-30.71 376,-58 392.5,-71.98 369.02,-90.4 384,-106 388.42,-110.6 394,-113.78 400.01,-115.96"/>
<polygon fill="#000000" fill-opacity="0.200000" stroke="#000000" stroke-opacity="0.200000" points="399.41,-117.97 405.75,-117.65 400.59,-113.94 399.41,-117.97"/>
</g>
<!-- dist/paths.js&#45;&gt;fs -->
<g id="edge20" class="edge">
<title>dist/paths.js&#45;&gt;fs</title>
<path fill="none" stroke="#000000" stroke-dasharray="5,2" stroke-opacity="0.200000" d="M159.27,-127.55C166.51,-115.59 180.74,-95.41 199,-86 227.13,-71.5 263.54,-69.29 289.71,-70.08"/>
<polygon fill="#000000" fill-opacity="0.200000" stroke="#000000" stroke-opacity="0.200000" points="289.55,-72.17 295.63,-70.33 289.73,-67.98 289.55,-72.17"/>
</g>
<!-- node_modules/fast&#45;glob -->
<g id="node15" class="node">
<title>node_modules/fast&#45;glob</title>
<g id="a_node15"><a xlink:href="node_modules/fast-glob" xlink:title="fast&#45;glob">
<polygon fill="#c40b0a" fill-opacity="0.101961" stroke="black" points="474.5,-34 422.5,-34 420.5,-32 420.5,-16 472.5,-16 474.5,-18 474.5,-34"/>
<polyline fill="none" stroke="black" points="472.5,-32 420.5,-32"/>
<polyline fill="none" stroke="black" points="472.5,-32 472.5,-16"/>
<polyline fill="none" stroke="black" points="472.5,-32 474.5,-34"/>
<text text-anchor="start" x="429.5" y="-22.8" font-family="Helvetica,sans-Serif" font-size="9.00" fill="#c40b0a">fast&#45;glob</text>
</a>
</g>
</g>
<!-- dist/paths.js&#45;&gt;node_modules/fast&#45;glob -->
<g id="edge19" class="edge">
<title>dist/paths.js&#45;&gt;node_modules/fast&#45;glob</title>
<path fill="none" stroke="#000000" stroke-opacity="0.200000" d="M155.94,-127.69C160.23,-109.71 172.31,-70.36 199,-52 264,-7.28 362.13,-12.61 413.1,-19.34"/>
<polygon fill="#000000" fill-opacity="0.200000" stroke="#000000" stroke-opacity="0.200000" points="412.54,-21.39 418.77,-20.13 413.12,-17.23 412.54,-21.39"/>
</g>
<!-- path -->
<g id="node16" class="node">
<title>path</title>
<g id="a_node16"><a xlink:title="path">
<path fill="#ffffcc" stroke="grey" d="M254.5,-110C254.5,-110 212.5,-110 212.5,-110 209.5,-110 206.5,-107 206.5,-104 206.5,-104 206.5,-98 206.5,-98 206.5,-95 209.5,-92 212.5,-92 212.5,-92 254.5,-92 254.5,-92 257.5,-92 260.5,-95 260.5,-98 260.5,-98 260.5,-104 260.5,-104 260.5,-107 257.5,-110 254.5,-110"/>
<text text-anchor="middle" x="233.5" y="-98.8" font-family="Helvetica,sans-Serif" font-size="9.00" fill="grey">path</text>
</a>
</g>
</g>
<!-- dist/paths.js&#45;&gt;path -->
<g id="edge21" class="edge">
<title>dist/paths.js&#45;&gt;path</title>
<path fill="none" stroke="#000000" stroke-dasharray="5,2" stroke-opacity="0.200000" d="M172.71,-127.55C180.75,-123.56 190.29,-118.95 199,-115 200.14,-114.48 201.31,-113.96 202.5,-113.44"/>
<polygon fill="#000000" fill-opacity="0.200000" stroke="#000000" stroke-opacity="0.200000" points="203.3,-115.38 207.97,-111.06 201.63,-111.52 203.3,-115.38"/>
</g>
<!-- dist/index.js -->
<g id="node13" class="node">
<title>dist/index.js</title>
<g id="a_node13"><a xlink:href="dist/index.js" xlink:title="index.js">
<path fill="#ffffcc" stroke="black" d="M91,-174C91,-174 32,-174 32,-174 29,-174 26,-171 26,-168 26,-168 26,-162 26,-162 26,-159 29,-156 32,-156 32,-156 91,-156 91,-156 94,-156 97,-159 97,-162 97,-162 97,-168 97,-168 97,-171 94,-174 91,-174"/>
<text text-anchor="start" x="34" y="-163.8" font-family="Helvetica,sans-Serif" font-size="9.00">index.js </text>
<text text-anchor="start" x="68" y="-163.8" font-family="Helvetica,sans-Serif" font-size="8.00" fill="#808080">100%</text>
</a>
</g>
</g>
<!-- dist/index.js&#45;&gt;dist/config.js -->
<g id="edge12" class="edge">
<title>dist/index.js&#45;&gt;dist/config.js</title>
<path fill="none" stroke="#000000" stroke-width="2" stroke-opacity="0.200000" d="M97.47,-162.13C122.25,-159.9 156.25,-156.44 186,-152 187.27,-151.81 188.56,-151.61 189.86,-151.4"/>
<polygon fill="#000000" fill-opacity="0.200000" stroke="#000000" stroke-width="2" stroke-opacity="0.200000" points="189.98,-153.51 195.54,-150.43 189.28,-149.37 189.98,-153.51"/>
</g>
<!-- dist/index.js&#45;&gt;dist/configPath.js -->
<g id="edge13" class="edge">
<title>dist/index.js&#45;&gt;dist/configPath.js</title>
<path fill="none" stroke="#000000" stroke-width="2" stroke-opacity="0.200000" d="M97.41,-170.59C138.3,-177.14 208.07,-188.33 268,-198 269.29,-198.21 270.61,-198.42 271.93,-198.63"/>
<polygon fill="#000000" fill-opacity="0.200000" stroke="#000000" stroke-width="2" stroke-opacity="0.200000" points="271.53,-200.7 277.79,-199.58 272.2,-196.55 271.53,-200.7"/>
</g>
<!-- dist/index.js&#45;&gt;node_modules/@babel/runtime&#45;corejs3 -->
<g id="edge15" class="edge">
<title>dist/index.js&#45;&gt;node_modules/@babel/runtime&#45;corejs3</title>
<path fill="none" stroke="#000000" stroke-opacity="0.200000" d="M97.12,-156.56C100.7,-154.77 104.09,-152.61 107,-150 117.22,-140.84 111.8,-133 120,-122 148.02,-84.38 156.23,-71.27 199,-52 270.84,-19.64 316.93,10.14 376,-42 397.49,-60.97 364.56,-84.93 384,-106 388.32,-110.68 393.85,-113.92 399.84,-116.12"/>
<polygon fill="#000000" fill-opacity="0.200000" stroke="#000000" stroke-opacity="0.200000" points="399.22,-118.13 405.57,-117.83 400.42,-114.1 399.22,-118.13"/>
</g>
<!-- dist/index.js&#45;&gt;dist/paths.js -->
<g id="edge14" class="edge">
<title>dist/index.js&#45;&gt;dist/paths.js</title>
<path fill="none" stroke="#000000" stroke-width="2" stroke-opacity="0.200000" d="M92.8,-155.52C99.36,-153.47 106.39,-151.27 113.22,-149.13"/>
<polygon fill="#000000" fill-opacity="0.200000" stroke="#000000" stroke-width="2" stroke-opacity="0.200000" points="113.74,-151.17 118.84,-147.37 112.49,-147.16 113.74,-151.17"/>
</g>
<!-- dist/paths.d.ts -->
<g id="node14" class="node">
<title>dist/paths.d.ts</title>
<g id="a_node14"><a xlink:href="dist/paths.d.ts" xlink:title="paths.d.ts">
<path fill="#ccffcc" stroke="black" d="M90.5,-144C90.5,-144 32.5,-144 32.5,-144 29.5,-144 26.5,-141 26.5,-138 26.5,-138 26.5,-132 26.5,-132 26.5,-129 29.5,-126 32.5,-126 32.5,-126 90.5,-126 90.5,-126 93.5,-126 96.5,-129 96.5,-132 96.5,-132 96.5,-138 96.5,-138 96.5,-141 93.5,-144 90.5,-144"/>
<text text-anchor="start" x="34.5" y="-133.8" font-family="Helvetica,sans-Serif" font-size="9.00">paths.d.ts </text>
<text text-anchor="start" x="76.5" y="-133.8" font-family="Helvetica,sans-Serif" font-size="8.00" fill="#808080">0%</text>
</a>
</g>
</g>
</g>
</svg>
