<svg version="1.1" xmlns="http://www.w3.org/2000/svg" viewBox="0 0 2222.0438532764524 906.645338899609" width="4444.087706552905" height="1813.290677799218">
  <!-- svg-source:excalidraw -->
  
  <defs>
    <style class="style-fonts">
      @font-face {
        font-family: "Virgil";
        src: url("https://excalidraw.com/Virgil.woff2");
      }
      @font-face {
        font-family: "Cascadia";
        src: url("https://excalidraw.com/Cascadia.woff2");
      }
    </style>
    
  </defs>
  <rect x="0" y="0" width="2222.0438532764524" height="906.645338899609" fill="#ffffff"></rect><g stroke-linecap="round" transform="translate(10 10) rotate(0 1101.0219266382262 443.3226694498045)"><path d="M-0.87 -0.45 L2202.51 0.16 L2203.01 888.62 L1.32 888.12" stroke="none" stroke-width="0" fill="#f8f9fa"></path><path d="M0 0 C518.78 -6.75, 1039.39 -6.26, 2202.04 0 M0 0 C764.6 3.04, 1528.82 3.2, 2202.04 0 M2202.04 0 C2199 204.47, 2199.31 410.47, 2202.04 886.65 M2202.04 0 C2200.07 177.87, 2199.85 356.84, 2202.04 886.65 M2202.04 886.65 C1402.71 883.45, 603.4 882.96, 0 886.65 M2202.04 886.65 C1520.9 883.09, 840.18 882.95, 0 886.65 M0 886.65 C0.62 595.33, 0.78 302.82, 0 0 M0 886.65 C0.81 661.24, 0.54 435.99, 0 0" stroke="#1e1e1e" stroke-width="2" fill="none"></path></g><g stroke-linecap="round" transform="translate(47.690241887586865 169.6281663745394) rotate(0 116.5672445152284 38.80598069297125)"><path d="M-0.42 0.11 L234.91 0.84 L232.85 77.03 L-1.81 75.85" stroke="none" stroke-width="0" fill="#ffffff"></path><path d="M0 0 C59.41 0.61, 116.63 0.94, 233.13 0 M0 0 C50.05 0.66, 100.46 0.85, 233.13 0 M233.13 0 C233.24 22.69, 233.28 42.47, 233.13 77.61 M233.13 0 C231.7 15.73, 231.78 31.6, 233.13 77.61 M233.13 77.61 C182.88 76.49, 132.53 76.4, 0 77.61 M233.13 77.61 C141.71 75.47, 49.76 76.06, 0 77.61 M0 77.61 C-0.02 62.76, -0.87 46.21, 0 0 M0 77.61 C-1.02 57.33, 0.15 36.25, 0 0" stroke="#1e1e1e" stroke-width="1" fill="none"></path></g><g transform="translate(138.68852430564732 193.8421854762165) rotate(0 25.56896209716797 14.591961591294137)"><text x="25.56896209716797" y="0" font-family="Virgil, Segoe UI Emoji" font-size="23.34713854607062px" fill="#1e1e1e" text-anchor="middle" style="white-space: pre;" direction="ltr" dominant-baseline="text-before-edge">Send</text></g><g stroke-linecap="round" transform="translate(439.0820458206921 148.8026391114883) rotate(0 127.58984375 60)"><path d="M127.21 -1.96 L255.54 60.32 L126.66 120.77 L-0.41 62.91" stroke="none" stroke-width="0" fill="#ffffff" fill-rule="evenodd"></path><path d="M128 0 C162.35 17.71, 199.99 36.09, 255.18 61 M128 0 C174.72 22.18, 221.46 45.24, 255.18 61 M255.18 61 C218.16 79.43, 178.86 96.28, 128 120 M255.18 61 C210.49 80.4, 166.1 100.45, 128 120 M128 120 C102.4 107.16, 75.2 95.78, 0 61 M128 120 C97.22 105.46, 65.19 91.71, 0 61 M0 61 C44.66 39.46, 89.56 19.98, 128 0 M0 61 C36.26 43.56, 72.48 25.1, 128 0" stroke="#1e1e1e" stroke-width="1" fill="none"></path></g><g transform="translate(524.7270043167858 183.8026391114883) rotate(0 42.14996337890625 25)"><text x="42.14996337890625" y="0" font-family="Virgil, Segoe UI Emoji" font-size="20px" fill="#1e1e1e" text-anchor="middle" style="white-space: pre;" direction="ltr" dominant-baseline="text-before-edge">Specified</text><text x="42.14996337890625" y="25" font-family="Virgil, Segoe UI Emoji" font-size="20px" fill="#1e1e1e" text-anchor="middle" style="white-space: pre;" direction="ltr" dominant-baseline="text-before-edge">Renderer</text></g><g stroke-linecap="round"><g transform="translate(293.49602326937764 210.92699013851936) rotate(0 70.1222985376068 -0.038608520393395906)"><path d="M0 0 C47.19 -0.32, 93.67 0.11, 140.24 0.04 M0 0 C33.07 -0.18, 66.01 -0.16, 140.24 0.04" stroke="#1e1e1e" stroke-width="2" fill="none"></path></g><g transform="translate(293.49602326937764 210.92699013851936) rotate(0 70.1222985376068 -0.038608520393395906)"><path d="M112.03 10.24 C121.75 6.54, 130.75 3.54, 140.24 0.04 M112.03 10.24 C118.76 7.69, 125.37 5.31, 140.24 0.04" stroke="#1e1e1e" stroke-width="2" fill="none"></path></g><g transform="translate(293.49602326937764 210.92699013851936) rotate(0 70.1222985376068 -0.038608520393395906)"><path d="M112.08 -10.29 C121.77 -7.11, 130.75 -3.25, 140.24 0.04 M112.08 -10.29 C118.82 -8.01, 125.42 -5.56, 140.24 0.04" stroke="#1e1e1e" stroke-width="2" fill="none"></path></g></g><mask></mask><g stroke-linecap="round" transform="translate(763.9558543949902 276.5165931567329) rotate(0 116.5672445152284 38.80598069297125)"><path d="M1.27 0.77 L232.12 0.29 L232.68 78.26 L1.71 77.73" stroke="none" stroke-width="0" fill="#ffffff"></path><path d="M0 0 C90 -0.09, 181.78 0.01, 233.13 0 M0 0 C70.44 2.12, 142.03 1.64, 233.13 0 M233.13 0 C231.93 20.77, 232.98 44.19, 233.13 77.61 M233.13 0 C234.54 30.93, 233.87 61.65, 233.13 77.61 M233.13 77.61 C161.83 80.32, 89.9 79.11, 0 77.61 M233.13 77.61 C183.79 76.75, 134.06 77.37, 0 77.61 M0 77.61 C1.8 61.81, 2.08 46.61, 0 0 M0 77.61 C1.08 49.69, -0.61 23.7, 0 0" stroke="#1e1e1e" stroke-width="1" fill="none"></path></g><g transform="translate(780.2661866787734 300.73061225841) rotate(0 100.25691223144531 14.591961591294151)"><text x="100.25691223144531" y="0" font-family="Virgil, Segoe UI Emoji" font-size="23.34713854607062px" fill="#1e1e1e" text-anchor="middle" style="white-space: pre;" direction="ltr" dominant-baseline="text-before-edge">Default Renderer</text></g><g stroke-linecap="round" transform="translate(763.9558543949902 53.88140001916983) rotate(0 116.56724451522837 38.80598069297125)"><path d="M1.15 2 L234.16 -1.2 L231.93 76.28 L-1.21 76.22" stroke="none" stroke-width="0" fill="#ffffff"></path><path d="M0 0 C82.16 1.48, 166.49 0.2, 233.13 0 M0 0 C63.71 -0.65, 126.79 -0.21, 233.13 0 M233.13 0 C233.88 15.84, 234.11 32.18, 233.13 77.61 M233.13 0 C234.1 22.47, 233.22 46.74, 233.13 77.61 M233.13 77.61 C165.64 77.97, 96.67 80.53, 0 77.61 M233.13 77.61 C165.84 77.07, 97.48 78.47, 0 77.61 M0 77.61 C0.01 51.39, 0.96 25.29, 0 0 M0 77.61 C0.97 47.83, 0.79 19.77, 0 0" stroke="#1e1e1e" stroke-width="1" fill="none"></path></g><g transform="translate(783.7671937588514 78.09541912084694) rotate(0 96.75590515136719 14.591961591294137)"><text x="96.75590515136719" y="0" font-family="Virgil, Segoe UI Emoji" font-size="23.34713854607062px" fill="#1e1e1e" text-anchor="middle" style="white-space: pre;" direction="ltr" dominant-baseline="text-before-edge">Specific Renderer</text></g><g stroke-linecap="round"><g transform="translate(568.5230852268134 139.56482541109182) rotate(0 89.34670584394267 -23.617830428824977)"><path d="M0 0 C0.26 -14.29, -1.06 -29.59, -0.38 -46.91 M0 0 C0.25 -10.59, 0.35 -21.01, -0.38 -46.91 M-0.38 -46.91 C57.61 -46.76, 115.49 -47.11, 179.27 -46.91 M-0.38 -46.91 C59.63 -47.49, 119.26 -47.17, 179.27 -46.91" stroke="#1e1e1e" stroke-width="2" fill="none"></path></g><g transform="translate(568.5230852268134 139.56482541109182) rotate(0 89.34670584394267 -23.617830428824977)"><path d="M151.04 -36.77 C160.33 -39.48, 168.02 -43.21, 179.27 -46.91 M151.04 -36.77 C157.62 -39.04, 164.11 -41.24, 179.27 -46.91" stroke="#1e1e1e" stroke-width="2" fill="none"></path></g><g transform="translate(568.5230852268134 139.56482541109182) rotate(0 89.34670584394267 -23.617830428824977)"><path d="M151.12 -57.29 C160.4 -53.54, 168.07 -50.81, 179.27 -46.91 M151.12 -57.29 C157.65 -54.98, 164.12 -52.59, 179.27 -46.91" stroke="#1e1e1e" stroke-width="2" fill="none"></path></g></g><mask></mask><g stroke-linecap="round"><g transform="translate(565.9260063927218 280.69924522790626) rotate(0 93.88297299550891 21.177292766210144)"><path d="M0 0 C-0.49 14.2, -1.13 27.96, -1.14 41.89 M0 0 C-0.48 11.22, -0.44 21.83, -1.14 41.89 M-1.14 41.89 C39.11 41.83, 78.28 41.67, 188.91 42.35 M-1.14 41.89 C50.44 41.65, 101.19 41.75, 188.91 42.35" stroke="#1e1e1e" stroke-width="2" fill="none"></path></g><g transform="translate(565.9260063927218 280.69924522790626) rotate(0 93.88297299550891 21.177292766210144)"><path d="M160.66 52.45 C169.93 49.51, 178.95 46.2, 188.91 42.35 M160.66 52.45 C167.83 49.99, 175.63 46.87, 188.91 42.35" stroke="#1e1e1e" stroke-width="2" fill="none"></path></g><g transform="translate(565.9260063927218 280.69924522790626) rotate(0 93.88297299550891 21.177292766210144)"><path d="M160.78 31.93 C169.97 35.73, 178.95 39.15, 188.91 42.35 M160.78 31.93 C167.96 34.88, 175.73 37.19, 188.91 42.35" stroke="#1e1e1e" stroke-width="2" fill="none"></path></g></g><mask></mask><g transform="translate(528.2749542144446 108.08350511663997) rotate(0 16.059982299804688 12.5)"><text x="0" y="0" font-family="Virgil, Segoe UI Emoji" font-size="20px" fill="#1e1e1e" text-anchor="start" style="white-space: pre;" direction="ltr" dominant-baseline="text-before-edge">Yes</text></g><g transform="translate(521.234777170213 283.8884394704909) rotate(0 11.979988098144531 12.5)"><text x="0" y="0" font-family="Virgil, Segoe UI Emoji" font-size="20px" fill="#1e1e1e" text-anchor="start" style="white-space: pre;" direction="ltr" dominant-baseline="text-before-edge">No</text></g><g stroke-linecap="round" transform="translate(47.690241887586865 453.2828050562592) rotate(0 116.5672445152284 38.80598069297125)"><path d="M1.15 0.14 L234.29 -0.58 L232.3 78.01 L0.61 78.7" stroke="none" stroke-width="0" fill="#ffffff"></path><path d="M0 0 C53.45 2.2, 105.7 0.74, 233.13 0 M0 0 C68.37 1.97, 137.49 2.19, 233.13 0 M233.13 0 C232.36 31.4, 233.79 62.11, 233.13 77.61 M233.13 0 C234.02 28.89, 232.47 57.59, 233.13 77.61 M233.13 77.61 C173.12 75.36, 109.5 74.12, 0 77.61 M233.13 77.61 C155.85 78.58, 79.28 77.38, 0 77.61 M0 77.61 C-1.42 54.27, 0.94 33.82, 0 0 M0 77.61 C-1.1 49.98, -1.34 24.1, 0 0" stroke="#1e1e1e" stroke-width="1" fill="none"></path></g><g transform="translate(63.47542768699492 462.9048625666421) rotate(0 100.78205871582031 29.183923182588273)"><text x="100.78205871582031" y="0" font-family="Virgil, Segoe UI Emoji" font-size="23.34713854607062px" fill="#1e1e1e" text-anchor="middle" style="white-space: pre;" direction="ltr" dominant-baseline="text-before-edge">Send</text><text x="100.78205871582031" y="29.183923182588277" font-family="Virgil, Segoe UI Emoji" font-size="23.34713854607062px" fill="#1e1e1e" text-anchor="middle" style="white-space: pre;" direction="ltr" dominant-baseline="text-before-edge">Without Rendering</text></g><g stroke-linecap="round" transform="translate(1195.4894500367927 430.0227587588845) rotate(0 127.58984374999994 60)"><path d="M129.54 0.55 L255.83 62.6 L127.05 118.73 L0.45 61.21" stroke="none" stroke-width="0" fill="#ffffff" fill-rule="evenodd"></path><path d="M128 0 C162.77 17.41, 197.37 34.03, 255.18 61 M128 0 C165.69 17.72, 204.66 35.29, 255.18 61 M255.18 61 C226.19 74.91, 195.43 88.15, 128 120 M255.18 61 C207.35 83.89, 157.85 106.61, 128 120 M128 120 C95.4 102.86, 58.69 89, 0 61 M128 120 C94.07 104.57, 61.43 90.22, 0 61 M0 61 C50.8 37.37, 99.28 13.13, 128 0 M0 61 C48.55 38.3, 95.83 16.35, 128 0" stroke="#1e1e1e" stroke-width="1" fill="none"></path></g><g transform="translate(1267.8244186036873 477.5227587588845) rotate(0 55.45995330810541 12.5)"><text x="55.45995330810547" y="0" font-family="Virgil, Segoe UI Emoji" font-size="20px" fill="#1e1e1e" text-anchor="middle" style="white-space: pre;" direction="ltr" dominant-baseline="text-before-edge">Environment</text></g><g stroke-linecap="round"><g transform="translate(288.6023163970752 490.8505481373801) rotate(0 447.58249262056927 0.19468874678366888)"><path d="M0 0 C305.53 0.58, 610.96 0.45, 895.16 0 M0 0 C330.13 0.36, 660.39 0.37, 895.16 0" stroke="#1e1e1e" stroke-width="2" fill="none"></path></g><g transform="translate(288.6023163970752 490.8505481373801) rotate(0 447.58249262056927 0.19468874678366888)"><path d="M866.98 10.29 C876.62 7.1, 886.02 3.25, 895.16 0 M866.98 10.29 C877.26 6.41, 887.88 2.66, 895.16 0" stroke="#1e1e1e" stroke-width="2" fill="none"></path></g><g transform="translate(288.6023163970752 490.8505481373801) rotate(0 447.58249262056927 0.19468874678366888)"><path d="M866.96 -10.23 C876.63 -6.42, 886.04 -3.26, 895.16 0 M866.96 -10.23 C877.24 -6.54, 887.87 -2.73, 895.16 0" stroke="#1e1e1e" stroke-width="2" fill="none"></path></g></g><mask></mask><g stroke-linecap="round"><g transform="translate(1002.6837113700755 92.23834722559934) rotate(0 31.60938880899249 199.83343545498357)"><path d="M0 0 C17.74 1.51, 38.55 -1.65, 62.37 0.49 M0 0 C21.31 -0.81, 40.37 0.25, 62.37 0.49 M62.37 0.49 C61.84 146.82, 60.96 292.53, 62.37 399.97 M62.37 0.49 C63.03 106.61, 63.89 212.42, 62.37 399.97" stroke="#1e1e1e" stroke-width="2" fill="none"></path></g></g><mask></mask><g stroke-linecap="round"><g transform="translate(1003.62969094566 314.5270478441983) rotate(0 31.522569403852344 -0.008126114341592938)"><path d="M0 0 C19.4 -0.3, 38.44 0.24, 63.05 0 M0 0 C21.04 0.15, 41.71 0.04, 63.05 0" stroke="#1e1e1e" stroke-width="2" fill="none"></path></g></g><mask></mask><g stroke-linecap="round" transform="translate(1554.66003249293 290.6202454666831) rotate(0 116.56724451522837 38.80598069297125)"><path d="M-1.17 0.65 L231.35 -0.78 L232.73 77.39 L-0.83 78.02" stroke="none" stroke-width="0" fill="#ffffff"></path><path d="M0 0 C79.54 0.9, 157.89 2.31, 233.13 0 M0 0 C47.44 0.98, 93.98 0.63, 233.13 0 M233.13 0 C234.12 17.3, 235.3 36.23, 233.13 77.61 M233.13 0 C234.11 24.87, 233.71 48.37, 233.13 77.61 M233.13 77.61 C148.27 76.56, 61.08 77.95, 0 77.61 M233.13 77.61 C159.09 78.72, 87.1 78.1, 0 77.61 M0 77.61 C1.45 47.84, -0.82 20.05, 0 0 M0 77.61 C-0.14 59.9, 0.75 44.19, 0 0" stroke="#1e1e1e" stroke-width="1" fill="none"></path></g><g transform="translate(1595.920804229838 314.8342645683602) rotate(0 75.30647277832031 14.591961591294137)"><text x="75.30647277832031" y="0" font-family="Virgil, Segoe UI Emoji" font-size="23.34713854607062px" fill="#1e1e1e" text-anchor="middle" style="white-space: pre;" direction="ltr" dominant-baseline="text-before-edge">Test Handler</text></g><g stroke-linecap="round" transform="translate(1554.66003249293 448.89130668384445) rotate(0 116.56724451522837 38.80598069297125)"><path d="M1.48 -0.93 L235.05 -0.91 L231.32 77.3 L-1.06 78.46" stroke="none" stroke-width="0" fill="#ffffff"></path><path d="M0 0 C61.58 2.56, 123.92 0.48, 233.13 0 M0 0 C52.36 1.03, 105.31 1.27, 233.13 0 M233.13 0 C232.92 21.99, 234.89 44.55, 233.13 77.61 M233.13 0 C231.79 17.84, 232.5 34.91, 233.13 77.61 M233.13 77.61 C163.97 75.34, 91.11 76.61, 0 77.61 M233.13 77.61 C182.68 77.25, 130.88 77.73, 0 77.61 M0 77.61 C1.73 52.94, -0.37 28.73, 0 0 M0 77.61 C-1.17 59.11, 0.58 41.45, 0 0" stroke="#1e1e1e" stroke-width="1" fill="none"></path></g><g transform="translate(1596.3175861512248 458.51336419422745) rotate(0 74.9096908569336 29.183923182588273)"><text x="74.9096908569336" y="0" font-family="Virgil, Segoe UI Emoji" font-size="23.34713854607062px" fill="#1e1e1e" text-anchor="middle" style="white-space: pre;" direction="ltr" dominant-baseline="text-before-edge">Development </text><text x="74.9096908569336" y="29.183923182588277" font-family="Virgil, Segoe UI Emoji" font-size="23.34713854607062px" fill="#1e1e1e" text-anchor="middle" style="white-space: pre;" direction="ltr" dominant-baseline="text-before-edge">Handler</text></g><g stroke-linecap="round" transform="translate(1543.6374332581584 632.5283865090098) rotate(0 127.58984375 60)"><path d="M129.35 -0.04 L253.43 60.76 L126.71 118.07 L-1.86 61.18" stroke="none" stroke-width="0" fill="#ffffff" fill-rule="evenodd"></path><path d="M128 0 C175.4 21.89, 223.62 45.45, 255.18 61 M128 0 C172.21 23.65, 218.99 43.77, 255.18 61 M255.18 61 C221.37 79.45, 185.14 93.91, 128 120 M255.18 61 C212.39 79.37, 168.97 100.94, 128 120 M128 120 C101.03 108.16, 71.71 94.22, 0 61 M128 120 C82.78 97.69, 39.91 77.25, 0 61 M0 61 C39.29 41.31, 74.43 26.22, 128 0 M0 61 C51.51 36.44, 100.82 14.16, 128 0" stroke="#1e1e1e" stroke-width="1" fill="none"></path></g><g transform="translate(1624.5324070130412 667.5283865090098) rotate(0 46.89994812011719 25)"><text x="46.89994812011719" y="0" font-family="Virgil, Segoe UI Emoji" font-size="20px" fill="#1e1e1e" text-anchor="middle" style="white-space: pre;" direction="ltr" dominant-baseline="text-before-edge">Specified </text><text x="46.89994812011719" y="25" font-family="Virgil, Segoe UI Emoji" font-size="20px" fill="#1e1e1e" text-anchor="middle" style="white-space: pre;" direction="ltr" dominant-baseline="text-before-edge">Handler</text></g><g stroke-linecap="round" transform="translate(1890.5678246832042 550.1693318491996) rotate(0 116.56724451522837 38.80598069297122)"><path d="M-0.96 1.84 L233.67 1.9 L231.6 77.53 L0.6 76.43" stroke="none" stroke-width="0" fill="#ffffff"></path><path d="M0 0 C49.77 -2.24, 100.84 -0.3, 233.13 0 M0 0 C75.9 0.06, 150.4 0.84, 233.13 0 M233.13 0 C233.01 23.16, 232.78 47.25, 233.13 77.61 M233.13 0 C232.93 19.88, 233.27 41.04, 233.13 77.61 M233.13 77.61 C158.32 78.22, 86.86 77.16, 0 77.61 M233.13 77.61 C175.99 79.99, 119.49 79.38, 0 77.61 M0 77.61 C-0.54 47.55, -1.21 17.3, 0 0 M0 77.61 C-0.48 51.33, 0.41 26.15, 0 0" stroke="#1e1e1e" stroke-width="1" fill="none"></path></g><g transform="translate(1918.7932189176709 574.3833509508765) rotate(0 88.34185028076172 14.591961591294137)"><text x="88.34185028076172" y="0" font-family="Virgil, Segoe UI Emoji" font-size="23.34713854607062px" fill="#1e1e1e" text-anchor="middle" style="white-space: pre;" direction="ltr" dominant-baseline="text-before-edge">Specific Handler</text></g><g stroke-linecap="round" transform="translate(1891.5699160177267 748.1271141654029) rotate(0 116.56724451522837 38.80598069297122)"><path d="M-1.53 -0.09 L233.74 -1.19 L234.26 76.32 L-1.03 77.15" stroke="none" stroke-width="0" fill="#ffffff"></path><path d="M0 0 C66.51 -0.91, 132.22 -0.46, 233.13 0 M0 0 C69.9 -2.38, 139.44 -1.66, 233.13 0 M233.13 0 C232.46 25.32, 234.91 50.24, 233.13 77.61 M233.13 0 C233.4 18.15, 232.82 37.31, 233.13 77.61 M233.13 77.61 C142.65 78.08, 55.7 77.67, 0 77.61 M233.13 77.61 C151.9 77.49, 68.79 77.08, 0 77.61 M0 77.61 C1.08 50.27, 1.43 22.77, 0 0 M0 77.61 C-0.61 57.03, 0.14 35.56, 0 0" stroke="#1e1e1e" stroke-width="1" fill="none"></path></g><g transform="translate(1916.2943031721152 772.3411332670798) rotate(0 91.84285736083984 14.591961591294137)"><text x="91.84285736083984" y="0" font-family="Virgil, Segoe UI Emoji" font-size="23.34713854607062px" fill="#1e1e1e" text-anchor="middle" style="white-space: pre;" direction="ltr" dominant-baseline="text-before-edge">Default Handler</text></g><g stroke-linecap="round"><g transform="translate(1467.1333910913443 489.8751711484875) rotate(0 40.314654954765274 0.014825509124904102)"><path d="M0 0 C18.46 0.05, 37.26 0.02, 80.63 0 M0 0 C29.32 0.07, 58.82 0, 80.63 0" stroke="#1e1e1e" stroke-width="2" fill="none"></path></g><g transform="translate(1467.1333910913443 489.8751711484875) rotate(0 40.314654954765274 0.014825509124904102)"><path d="M52.44 10.28 C58.86 8.03, 65.61 5.63, 80.63 0 M52.44 10.28 C62.61 6.64, 72.97 2.82, 80.63 0" stroke="#1e1e1e" stroke-width="2" fill="none"></path></g><g transform="translate(1467.1333910913443 489.8751711484875) rotate(0 40.314654954765274 0.014825509124904102)"><path d="M52.43 -10.24 C58.84 -7.78, 65.59 -5.46, 80.63 0 M52.43 -10.24 C62.62 -6.39, 72.97 -2.72, 80.63 0" stroke="#1e1e1e" stroke-width="2" fill="none"></path></g></g><mask></mask><g stroke-linecap="round"><g transform="translate(1323.9839932461527 419.6506926928619) rotate(0 110.2031540425998 -43.151227256816185)"><path d="M0 0 C0.77 -27.74, 1.59 -57.09, 0 -86.19 M0 0 C-1.35 -19.93, -1.02 -40.48, 0 -86.19 M0 -86.19 C49.26 -84.24, 99.97 -86.85, 221.3 -86.19 M0 -86.19 C54.57 -83.93, 109.13 -84.84, 221.3 -86.19" stroke="#1e1e1e" stroke-width="2" fill="none"></path></g><g transform="translate(1323.9839932461527 419.6506926928619) rotate(0 110.2031540425998 -43.151227256816185)"><path d="M193.23 -75.6 C203.33 -77.82, 213.69 -81.47, 221.3 -86.19 M193.23 -75.6 C198.95 -77.39, 205.99 -79.83, 221.3 -86.19" stroke="#1e1e1e" stroke-width="2" fill="none"></path></g><g transform="translate(1323.9839932461527 419.6506926928619) rotate(0 110.2031540425998 -43.151227256816185)"><path d="M192.99 -96.12 C203.12 -91.37, 213.56 -88.04, 221.3 -86.19 M192.99 -96.12 C198.85 -92.99, 205.96 -90.52, 221.3 -86.19" stroke="#1e1e1e" stroke-width="2" fill="none"></path></g></g><mask></mask><g stroke-linecap="round"><g transform="translate(1325.4611019015852 565.2142196621303) rotate(0 100.84143958022236 66.30764236681762)"><path d="M0 0 C-0.36 36.26, -1.32 77.26, 0 132.42 M0 0 C0.59 29.23, -0.38 57.69, 0 132.42 M0 132.42 C70.09 133.33, 142.81 130.67, 202.36 132.42 M0 132.42 C69.12 129.87, 138.48 131.4, 202.36 132.42" stroke="#1e1e1e" stroke-width="2" fill="none"></path></g><g transform="translate(1325.4611019015852 565.2142196621303) rotate(0 100.84143958022236 66.30764236681762)"><path d="M174.01 142.23 C182.27 137.74, 189.46 137.82, 202.36 132.42 M174.01 142.23 C180.77 140.82, 185.94 138.46, 202.36 132.42" stroke="#1e1e1e" stroke-width="2" fill="none"></path></g><g transform="translate(1325.4611019015852 565.2142196621303) rotate(0 100.84143958022236 66.30764236681762)"><path d="M174.33 121.71 C182.43 123.12, 189.53 129.1, 202.36 132.42 M174.33 121.71 C181.02 124.75, 186.12 126.83, 202.36 132.42" stroke="#1e1e1e" stroke-width="2" fill="none"></path></g></g><mask></mask><g transform="translate(1261.4248627909649 382.01370386897986) rotate(0 24.58997344970703 12.5)"><text x="0" y="0" font-family="Virgil, Segoe UI Emoji" font-size="20px" fill="#1e1e1e" text-anchor="start" style="white-space: pre;" direction="ltr" dominant-baseline="text-before-edge">Test</text></g><g transform="translate(1460.3985564729626 453.4615146031132) rotate(0 18.499984741210938 12.5)"><text x="0" y="0" font-family="Virgil, Segoe UI Emoji" font-size="20px" fill="#1e1e1e" text-anchor="start" style="white-space: pre;" direction="ltr" dominant-baseline="text-before-edge">Dev</text></g><g transform="translate(1211.2031685062618 571.2137534960893) rotate(0 50.88994598388672 12.5)"><text x="0" y="0" font-family="Virgil, Segoe UI Emoji" font-size="20px" fill="#1e1e1e" text-anchor="start" style="white-space: pre;" direction="ltr" dominant-baseline="text-before-edge">Production</text></g><g stroke-linecap="round"><g transform="translate(1670.2033440218693 625.8118231694689) rotate(0 103.03663927829757 -14.971652917913218)"><path d="M0 0 C-0.01 -10.47, -0.12 -21.79, -0.38 -29.61 M0 0 C0 -7.07, -0.4 -13.98, -0.38 -29.61 M-0.38 -29.61 C81.88 -29.87, 164.99 -30.21, 206.45 -29.61 M-0.38 -29.61 C42.54 -29.68, 85.51 -29.77, 206.45 -29.61" stroke="#1e1e1e" stroke-width="2" fill="none"></path></g><g transform="translate(1670.2033440218693 625.8118231694689) rotate(0 103.03663927829757 -14.971652917913218)"><path d="M178.25 -19.37 C188.64 -22.75, 198.92 -27.03, 206.45 -29.61 M178.25 -19.37 C185.08 -21.74, 191.51 -24.03, 206.45 -29.61" stroke="#1e1e1e" stroke-width="2" fill="none"></path></g><g transform="translate(1670.2033440218693 625.8118231694689) rotate(0 103.03663927829757 -14.971652917913218)"><path d="M178.27 -39.89 C188.64 -35.81, 198.92 -32.61, 206.45 -29.61 M178.27 -39.89 C185.09 -37.36, 191.52 -34.74, 206.45 -29.61" stroke="#1e1e1e" stroke-width="2" fill="none"></path></g></g><mask></mask><g stroke-linecap="round"><g transform="translate(1670.6824963697686 764.18140625754) rotate(0 103.35582004768253 13.455178922367963)"><path d="M0 0 C-0.36 9.73, 0.22 19.52, 0 26.74 M0 0 C0.09 9.22, -0.21 18.55, 0 26.74 M0 26.74 C50.93 26.38, 102.25 26.64, 206.83 26.74 M0 26.74 C71.2 26.85, 142.75 27.06, 206.83 26.74" stroke="#1e1e1e" stroke-width="2" fill="none"></path></g><g transform="translate(1670.6824963697686 764.18140625754) rotate(0 103.35582004768253 13.455178922367963)"><path d="M178.67 37.08 C188.76 33.03, 199.81 29.04, 206.83 26.74 M178.67 37.08 C188.54 33.49, 198 29.97, 206.83 26.74" stroke="#1e1e1e" stroke-width="2" fill="none"></path></g><g transform="translate(1670.6824963697686 764.18140625754) rotate(0 103.35582004768253 13.455178922367963)"><path d="M178.61 16.55 C188.74 20.14, 199.8 23.77, 206.83 26.74 M178.61 16.55 C188.49 20.08, 197.97 23.68, 206.83 26.74" stroke="#1e1e1e" stroke-width="2" fill="none"></path></g></g><mask></mask><g transform="translate(1627.9560361090223 589.1082416125616) rotate(0 16.059982299804688 12.5)"><text x="0" y="0" font-family="Virgil, Segoe UI Emoji" font-size="20px" fill="#1e1e1e" text-anchor="start" style="white-space: pre;" direction="ltr" dominant-baseline="text-before-edge">Yes</text></g><g transform="translate(1628.04013563357 771.9705022383255) rotate(0 11.979988098144531 12.5)"><text x="0" y="0" font-family="Virgil, Segoe UI Emoji" font-size="20px" fill="#1e1e1e" text-anchor="start" style="white-space: pre;" direction="ltr" dominant-baseline="text-before-edge">No</text></g><g transform="translate(44.04917294695122 819.3245821442204) rotate(0 97.05595397949219 22.5)"><text x="0" y="0" font-family="Virgil, Segoe UI Emoji" font-size="36px" fill="#1e1e1e" text-anchor="start" style="white-space: pre;" direction="ltr" dominant-baseline="text-before-edge">Mailer Flow</text></g></svg>