<svg viewBox="0 0 20 20" xmlns="http://www.w3.org/2000/svg"><path fill-rule="evenodd" d="M10 2v0c-.56 0-1 .44-1 1v1 0c0 .55.44 1 1 1 .55 0 1-.45 1-1V3v0c0-.56-.45-1-1-1ZM4 4h3v0c0 1.65 1.34 3 3 3 1.65 0 3-1.35 3-3h3v0c1.1 0 2 .89 2 2v9 0c0 1.1-.9 2-2 2H4v0c-1.11 0-2-.9-2-2V6v0c0-1.11.89-2 2-2Zm2.5 7v0c.82 0 1.5-.68 1.5-1.5C8 8.67 7.32 8 6.5 8v0C5.67 8 5 8.67 5 9.5c0 .82.67 1.5 1.5 1.5Zm2.45 4v0c.27-1.36-.6-2.68-1.96-2.95 -1.36-.28-2.68.59-2.95 1.95 -.07.32-.07.66 0 .99h4.9ZM12 9v0c-.56 0-1 .44-1 1 0 .55.44 1 1 1h3v0c.55 0 1-.45 1-1 0-.56-.45-1-1-1h-3Zm-1 4v0c0-.56.44-1 1-1h2v0c.55 0 1 .44 1 1 0 .55-.45 1-1 1h-2v0c-.56 0-1-.45-1-1Z"/></svg>
