<svg fill="none" height="45" width="214" xmlns="http://www.w3.org/2000/svg"><clipPath id="a"><path d="M44 9.975h161v31H44z"/></clipPath><path clip-rule="evenodd" d="M15.923 4.343c-1.385.7-4.304 2.062-5.885 3.149-1.581 1.087-1.385 2.1-2.077 2.8-.692.7-2.77 2.449-4.154 3.498-1.385 1.05-1.039 3.85-1.385 4.9-.346 1.049-1.038 3.498-1.384 4.548-.347 1.05.692 2.45 1.384 3.85.693 1.399 2.423 5.248 3.116 6.647.692 1.4 2.77.7 4.5 2.1 1.73 1.4 4.154 3.15 5.885 4.199 1.73 1.05 2.423 1.05 4.154 0 1.73-1.05 4.154-2.8 5.885-4.2 1.73-1.399 3.808-.699 4.5-2.099.692-1.4 2.423-5.248 3.116-6.648.692-1.4 1.73-2.8 1.384-3.849-.346-1.05-1.038-3.5-1.384-4.549-.346-1.05 0-3.849-1.385-4.899-1.385-1.05-2.992-2.386-4.154-3.499s-.692-1.75-2.077-2.8c-1.385-1.049-4.5-2.448-5.885-3.148s-2.77-.7-4.154 0z" fill="#fff" fill-rule="evenodd"/><path clip-rule="evenodd" d="m11.034 10.414 6.479 4.445a.913.913 0 0 0 .492.155.884.884 0 0 0 .492-.155l6.484-4.46a.891.891 0 0 0-.123-1.52l-6.479-3.224a.886.886 0 0 0-.778 0l-6.46 3.224a.89.89 0 0 0-.108 1.535zm9.172 5.84a.9.9 0 0 0 .384.738l5.194 3.568a.868.868 0 0 0 1.078-.07l4.357-3.917a.892.892 0 0 0-.04-1.36l-4.16-3.344a.878.878 0 0 0-1.043-.04l-5.386 3.703a.9.9 0 0 0-.384.723zM7.287 21.108c.21.19.318.47.29.753a.873.873 0 0 1-.438.678l-3.101 1.869c-.315.188-.712.161-.998-.069s-.403-.615-.292-.968l1.147-3.628a.881.881 0 0 1 .605-.588.849.849 0 0 1 .818.194zm16.823.38-5.608-3.858a.877.877 0 0 0-.984 0l-5.608 3.857a.905.905 0 0 0-.384.678.923.923 0 0 0 .295.728l5.603 5.038a.875.875 0 0 0 1.172 0l5.602-5.039a.902.902 0 0 0 .29-.727.884.884 0 0 0-.378-.678zM9.153 20.49 4.8 16.573a.912.912 0 0 1-.296-.702.88.88 0 0 1 .33-.673l4.16-3.364a.887.887 0 0 1 1.049-.04l5.381 3.703c.25.165.4.446.4.748s-.15.582-.4.747l-5.189 3.568c-.335.23-.78.2-1.083-.07zM31.5 26.117l-4.431-2.666a.868.868 0 0 0-1.034.1l-5.416 4.858a.898.898 0 0 0 .256 1.495l7.513 3.06a.881.881 0 0 0 1.132-.464l2.33-5.242a.898.898 0 0 0-.35-1.141zm.615-6.374 1.147 3.628h-.01a.901.901 0 0 1-.13.797.877.877 0 0 1-1.16.24l-3.106-1.87a.868.868 0 0 1-.424-.677.888.888 0 0 1 .29-.753l1.97-1.764c.223-.2.53-.273.817-.194a.896.896 0 0 1 .606.593zM15.68 29.226a.893.893 0 0 0-.28-.817L9.985 23.55a.868.868 0 0 0-1.034-.1l-4.43 2.667a.908.908 0 0 0-.355 1.136l2.333 5.243a.877.877 0 0 0 1.133.463l7.508-3.06a.89.89 0 0 0 .541-.672zm2.659 1.495 6.026 2.452a.89.89 0 0 1 .531.728.886.886 0 0 1-.374.832l-6.03 4.211a.869.869 0 0 1-.493.16.884.884 0 0 1-.492-.16l-6.026-4.21a.891.891 0 0 1 .172-1.56l6.026-2.452a.886.886 0 0 1 .66 0z" fill="#bf4722" fill-rule="evenodd"/><g clip-path="url(#a)" fill="#fff"><path d="M48.876 21.504h1.572c1.542 0 2.68-.254 3.413-.76.734-.507 1.101-1.304 1.101-2.39 0-1.076-.377-1.841-1.132-2.296-.745-.456-1.903-.683-3.476-.683h-1.478zm0 3.91v8.704H44V11.434h6.7c3.125 0 5.437.564 6.936 1.691 1.5 1.117 2.249 2.819 2.249 5.105 0 1.334-.372 2.524-1.117 3.569-.744 1.034-1.798 1.846-3.16 2.436 3.46 5.1 5.714 8.394 6.762 9.883h-5.41l-5.49-8.704z"/><path d="M69.418 19.813c-1.017 0-1.814.32-2.39.962-.578.63-.908 1.53-.992 2.7h6.732c-.021-1.17-.33-2.07-.928-2.7-.598-.642-1.405-.962-2.422-.962zm.676 14.616c-2.83 0-5.043-.77-6.637-2.312-1.594-1.541-2.39-3.724-2.39-6.548 0-2.907.733-5.151 2.201-6.734 1.479-1.593 3.518-2.39 6.118-2.39 2.485 0 4.42.699 5.804 2.095 1.384 1.397 2.076 3.326 2.076 5.788v2.296h-11.34c.053 1.345.456 2.395 1.211 3.15.755.755 1.814 1.133 3.177 1.133 1.06 0 2.06-.109 3.004-.326a15.17 15.17 0 0 0 2.957-1.04v3.662c-.839.414-1.735.719-2.69.915-.953.207-2.117.31-3.491.31zM85.446 34.429c-2.066 0-3.69-.791-4.876-2.374-1.174-1.583-1.761-3.776-1.761-6.579 0-2.845.597-5.058 1.793-6.64 1.205-1.594 2.862-2.39 4.97-2.39 2.212 0 3.9.848 5.064 2.544h.157c-.24-1.293-.361-2.446-.361-3.46V9.975h4.812v24.143h-3.68l-.928-2.25h-.204c-1.09 1.707-2.753 2.56-4.986 2.56zm1.683-3.77c1.226 0 2.123-.352 2.69-1.056.576-.703.89-1.898.943-3.584v-.512c0-1.862-.294-3.196-.881-4.003-.577-.807-1.52-1.21-2.831-1.21-1.07 0-1.903.45-2.5 1.35-.588.89-.882 2.187-.882 3.894s.3 2.99.897 3.848c.598.848 1.452 1.272 2.564 1.272zM113.427 34.118l-1.353-6.066-1.824-7.665h-.11l-3.209 13.731h-5.159l-5.001-17.347h4.781l2.029 7.681c.325 1.376.655 3.274.991 5.694h.094c.042-.786.226-2.032.551-3.739l.251-1.319 2.171-8.317h5.284l2.061 8.317.188 1.009a38.463 38.463 0 0 1 .488 2.901c.073.476.115.859.126 1.148h.094c.095-.744.262-1.763.504-3.056a74.89 74.89 0 0 1 .519-2.638l2.107-7.68h4.703l-5.065 17.347zM129.093 25.414c0 1.717.283 3.015.849 3.894.577.88 1.51 1.32 2.8 1.32 1.279 0 2.196-.435 2.752-1.304.566-.88.849-2.183.849-3.91 0-1.717-.283-3.005-.849-3.864-.566-.858-1.494-1.287-2.784-1.287-1.279 0-2.202.429-2.768 1.287-.566.849-.849 2.136-.849 3.864zm12.157 0c0 2.824-.754 5.032-2.264 6.625-1.51 1.593-3.612 2.39-6.307 2.39-1.688 0-3.177-.362-4.467-1.086-1.289-.735-2.28-1.785-2.972-3.15-.692-1.366-1.038-2.959-1.038-4.78 0-2.833.749-5.037 2.249-6.609 1.499-1.572 3.607-2.358 6.322-2.358 1.688 0 3.177.362 4.467 1.086s2.28 1.763 2.972 3.118c.692 1.356 1.038 2.943 1.038 4.764zM147.747 25.414c0 1.717.283 3.015.85 3.894.576.88 1.51 1.32 2.799 1.32 1.279 0 2.197-.435 2.752-1.304.567-.88.85-2.183.85-3.91 0-1.717-.283-3.005-.85-3.864-.566-.858-1.494-1.287-2.783-1.287-1.28 0-2.202.429-2.768 1.287-.567.849-.85 2.136-.85 3.864zm12.158 0c0 2.824-.755 5.032-2.265 6.625-1.51 1.593-3.612 2.39-6.307 2.39-1.688 0-3.177-.362-4.466-1.086-1.29-.735-2.281-1.785-2.973-3.15-.692-1.366-1.038-2.959-1.038-4.78 0-2.833.75-5.037 2.249-6.609 1.5-1.572 3.607-2.358 6.323-2.358 1.688 0 3.177.362 4.466 1.086 1.29.724 2.281 1.763 2.973 3.118.692 1.356 1.038 2.943 1.038 4.764zM168.147 34.429c-2.065 0-3.69-.791-4.875-2.374-1.175-1.583-1.762-3.776-1.762-6.579 0-2.845.598-5.058 1.793-6.64 1.206-1.594 2.863-2.39 4.97-2.39 2.213 0 3.901.848 5.064 2.544h.158c-.241-1.293-.362-2.446-.362-3.46V9.975h4.813v24.143h-3.681l-.928-2.25h-.204c-1.09 1.707-2.752 2.56-4.986 2.56zm1.683-3.77c1.227 0 2.124-.352 2.69-1.056.576-.703.891-1.898.943-3.584v-.512c0-1.862-.293-3.196-.88-4.003-.577-.807-1.521-1.21-2.831-1.21-1.07 0-1.903.45-2.501 1.35-.587.89-.881 2.187-.881 3.894s.299 2.99.897 3.848c.597.848 1.452 1.272 2.563 1.272z"/><path d="M179.646 40.79c-1.101 0-2.061-.113-2.878-.34v-4.004c.838.207 1.604.31 2.296.31 1.069 0 1.835-.33 2.296-.993.462-.651.692-1.676.692-3.072V11.434h4.876V32.66c0 2.648-.614 4.665-1.84 6.051-1.227 1.386-3.041 2.08-5.442 2.08zM205 27.819c0 2.048-.75 3.662-2.249 4.84-1.489 1.18-3.565 1.77-6.228 1.77-2.454 0-4.624-.456-6.512-1.366v-4.468c1.552.682 2.863 1.163 3.932 1.443 1.08.279 2.066.419 2.957.419 1.069 0 1.887-.202 2.454-.606.576-.403.865-1.003.865-1.8 0-.444-.126-.837-.378-1.179-.252-.351-.624-.688-1.117-1.008-.482-.32-1.473-.833-2.972-1.536-1.405-.652-2.459-1.278-3.161-1.878a7.05 7.05 0 0 1-1.683-2.095c-.42-.796-.629-1.727-.629-2.792 0-2.007.686-3.585 2.06-4.733 1.384-1.148 3.292-1.722 5.725-1.722 1.195 0 2.333.14 3.413.419 1.09.28 2.228.672 3.413 1.18l-1.573 3.738c-1.227-.496-2.244-.843-3.051-1.04a9.827 9.827 0 0 0-2.359-.294c-.923 0-1.631.212-2.124.636-.492.424-.739.978-.739 1.66 0 .425.1.797.299 1.118.199.31.514.615.944.915.44.29 1.473.817 3.098 1.583 2.149 1.013 3.623 2.032 4.42 3.056.796 1.014 1.195 2.26 1.195 3.74z"/></g></svg>